<?xml version="1.0" encoding="utf-8"?>
<!-- Generator: Adobe Illustrator 16.0.0, SVG Export Plug-In . SVG Version: 6.00 Build 0)  -->
<!DOCTYPE svg PUBLIC "-//W3C//DTD SVG 1.1//EN" "http://www.w3.org/Graphics/SVG/1.1/DTD/svg11.dtd">
<svg version="1.1" id="Layer_1" xmlns="http://www.w3.org/2000/svg" xmlns:xlink="http://www.w3.org/1999/xlink" x="0px" y="0px"
	 width="290px" height="125px" viewBox="0 0 290 125" enable-background="new 0 0 290 125" xml:space="preserve">
<g>
	<path d="M14.704,28.07v-0.99h5.28v0.99H14.704z"/>
	<path d="M23.382,29.148v-11h1.122v11H23.382z"/>
	<path d="M27.904,28.07v-0.99h5.28v0.99H27.904z"/>
	<path d="M36.583,29.148v-11h1.122v11H36.583z"/>
	<path d="M41.104,28.07v-0.99h5.28v0.99H41.104z"/>
	<path d="M49.783,29.148v-11h1.122v11H49.783z"/>
	<path d="M80.705,28.07v-0.99h5.28v0.99H80.705z"/>
	<path d="M89.383,29.148v-11h1.122v11H89.383z"/>
	<path d="M93.905,28.07v-0.99h5.28v0.99H93.905z"/>
	<path d="M102.583,29.148v-11h1.122v11H102.583z"/>
	<path d="M107.105,28.07v-0.99h5.28v0.99H107.105z"/>
	<path d="M115.784,29.148v-11h1.122v11H115.784z"/>
	<path d="M120.305,28.07v-0.99h5.28v0.99H120.305z"/>
	<path d="M128.983,29.148v-11h1.122v11H128.983z"/>
	<path d="M133.504,28.07v-0.99h5.28v0.99H133.504z"/>
	<path d="M142.183,29.148v-11h1.122v11H142.183z"/>
	<path d="M159.902,28.07v-0.99h5.28v0.99H159.902z"/>
	<path d="M168.581,29.148v-11h1.122v11H168.581z"/>
	<path d="M239.098,28.07v-0.99h5.28v0.99H239.098z"/>
	<path d="M247.776,29.148v-11h1.122v11H247.776z"/>
	<path d="M252.297,28.07v-0.99h5.28v0.99H252.297z"/>
	<path d="M260.976,29.148v-11h1.122v11H260.976z"/>
	<path d="M265.496,28.07v-0.99h5.28v0.99H265.496z"/>
	<path d="M274.175,29.148v-11h1.122v11H274.175z"/>
	<path d="M14.704,41.27v-0.99h5.28v0.99H14.704z"/>
	<path d="M23.382,42.348v-11h1.122v11H23.382z"/>
	<path d="M54.304,41.27v-0.99h5.28v0.99H54.304z"/>
	<path d="M62.983,42.348v-11h1.122v11H62.983z"/>
	<path d="M107.105,41.27v-0.99h5.28v0.99H107.105z"/>
	<path d="M115.784,42.348v-11h1.122v11H115.784z"/>
	<path d="M159.902,41.27v-0.99h5.28v0.99H159.902z"/>
	<path d="M168.581,42.348v-11h1.122v11H168.581z"/>
	<path d="M225.898,41.27v-0.99h5.28v0.99H225.898z"/>
	<path d="M234.577,42.348v-11h1.122v11H234.577z"/>
	<path d="M14.704,54.47v-0.99h5.28v0.99H14.704z"/>
	<path d="M23.382,55.548v-11h1.122v11H23.382z"/>
	<path d="M27.904,54.47v-0.99h5.28v0.99H27.904z"/>
	<path d="M36.583,55.548v-11h1.122v11H36.583z"/>
	<path d="M41.104,54.47v-0.99h5.28v0.99H41.104z"/>
	<path d="M49.783,55.548v-11h1.122v11H49.783z"/>
	<path d="M107.105,54.47v-0.99h5.28v0.99H107.105z"/>
	<path d="M115.784,55.548v-11h1.122v11H115.784z"/>
	<path d="M159.902,54.47v-0.99h5.28v0.99H159.902z"/>
	<path d="M168.581,55.548v-11h1.122v11H168.581z"/>
	<path d="M225.898,54.47v-0.99h5.28v0.99H225.898z"/>
	<path d="M234.577,55.548v-11h1.122v11H234.577z"/>
	<path d="M252.297,54.47v-0.99h5.28v0.99H252.297z"/>
	<path d="M260.976,55.548v-11h1.122v11H260.976z"/>
	<path d="M265.496,54.47v-0.99h5.28v0.99H265.496z"/>
	<path d="M274.175,55.548v-11h1.122v11H274.175z"/>
	<path d="M14.704,67.67v-0.99h5.28v0.99H14.704z"/>
	<path d="M23.382,68.748v-11h1.122v11H23.382z"/>
	<path d="M54.304,67.67v-0.99h5.28v0.99H54.304z"/>
	<path d="M62.983,68.748v-11h1.122v11H62.983z"/>
	<path d="M107.105,67.67v-0.99h5.28v0.99H107.105z"/>
	<path d="M115.784,68.748v-11h1.122v11H115.784z"/>
	<path d="M159.902,67.67v-0.99h5.28v0.99H159.902z"/>
	<path d="M168.581,68.748v-11h1.122v11H168.581z"/>
	<path d="M225.898,67.67v-0.99h5.28v0.99H225.898z"/>
	<path d="M234.577,68.748v-11h1.122v11H234.577z"/>
	<path d="M265.496,67.67v-0.99h5.28v0.99H265.496z"/>
	<path d="M274.175,68.748v-11h1.122v11H274.175z"/>
	<path d="M14.704,80.869v-0.99h5.28v0.99H14.704z"/>
	<path d="M23.382,81.947v-11h1.122v11H23.382z"/>
	<path d="M27.904,80.869v-0.99h5.28v0.99H27.904z"/>
	<path d="M36.583,81.947v-11h1.122v11H36.583z"/>
	<path d="M41.104,80.869v-0.99h5.28v0.99H41.104z"/>
	<path d="M49.783,81.947v-11h1.122v11H49.783z"/>
	<path d="M107.105,80.869v-0.99h5.28v0.99H107.105z"/>
	<path d="M115.784,81.947v-11h1.122v11H115.784z"/>
	<path d="M159.902,80.869v-0.99h5.28v0.99H159.902z"/>
	<path d="M168.581,81.947v-11h1.122v11H168.581z"/>
	<path d="M173.102,80.869v-0.99h5.28v0.99H173.102z"/>
	<path d="M181.78,81.947v-11h1.122v11H181.78z"/>
	<path d="M186.301,80.869v-0.99h5.28v0.99H186.301z"/>
	<path d="M194.979,81.947v-11h1.122v11H194.979z"/>
	<path d="M199.5,80.869v-0.99h5.28v0.99H199.5z"/>
	<path d="M208.179,81.947v-11h1.122v11H208.179z"/>
	<path d="M239.098,80.869v-0.99h5.28v0.99H239.098z"/>
	<path d="M247.776,81.947v-11h1.122v11H247.776z"/>
	<path d="M252.297,80.869v-0.99h5.28v0.99H252.297z"/>
	<path d="M260.976,81.947v-11h1.122v11H260.976z"/>
	<path d="M265.496,80.869v-0.99h5.28v0.99H265.496z"/>
	<path d="M274.175,81.947v-11h1.122v11H274.175z"/>
</g>
<g>
	<path d="M67.781,103.59v-6.55h1.07l1.91,3.89l0.61,1.38h0.03c-0.02-0.333-0.048-0.685-0.085-1.055s-0.055-0.735-0.055-1.095v-3.12
		h0.96v6.55h-1.07l-1.91-3.89l-0.61-1.38h-0.03c0.02,0.34,0.048,0.691,0.085,1.055s0.055,0.722,0.055,1.075v3.14H67.781z"/>
	<path d="M76.301,103.71c-0.373,0-0.72-0.057-1.04-0.17c-0.32-0.113-0.6-0.28-0.84-0.5c-0.24-0.22-0.428-0.49-0.565-0.811
		c-0.137-0.319-0.205-0.683-0.205-1.09c0-0.399,0.07-0.758,0.21-1.075c0.14-0.316,0.325-0.585,0.555-0.805s0.495-0.389,0.795-0.505
		s0.613-0.175,0.94-0.175c0.36,0,0.68,0.057,0.96,0.17c0.28,0.113,0.515,0.271,0.705,0.475c0.19,0.204,0.335,0.447,0.435,0.73
		s0.15,0.595,0.15,0.935c0,0.106-0.003,0.207-0.01,0.3c-0.007,0.094-0.017,0.174-0.03,0.24h-3.72
		c0.053,0.507,0.245,0.884,0.575,1.13c0.33,0.247,0.735,0.37,1.215,0.37c0.273,0,0.523-0.038,0.75-0.115
		c0.227-0.076,0.45-0.182,0.67-0.314l0.35,0.63c-0.253,0.167-0.539,0.305-0.855,0.415C77.029,103.655,76.681,103.71,76.301,103.71z
		 M76.181,99.359c-0.187,0-0.364,0.029-0.53,0.086s-0.316,0.142-0.45,0.255c-0.134,0.113-0.247,0.253-0.34,0.42
		c-0.093,0.166-0.16,0.359-0.2,0.58h2.85c-0.033-0.447-0.168-0.782-0.405-1.005C76.869,99.472,76.561,99.359,76.181,99.359z"/>
	<path d="M81.461,103.59l-2-4.89h1l1.03,2.659c0.093,0.247,0.181,0.49,0.265,0.73s0.168,0.48,0.255,0.72h0.04
		c0.087-0.239,0.17-0.479,0.25-0.72c0.08-0.24,0.167-0.483,0.26-0.73l1.03-2.659h0.95l-1.96,4.89H81.461z"/>
	<path d="M88.301,103.71c-0.373,0-0.72-0.057-1.04-0.17c-0.32-0.113-0.6-0.28-0.84-0.5c-0.24-0.22-0.428-0.49-0.565-0.811
		c-0.137-0.319-0.205-0.683-0.205-1.09c0-0.399,0.07-0.758,0.21-1.075c0.14-0.316,0.325-0.585,0.555-0.805s0.495-0.389,0.795-0.505
		s0.613-0.175,0.94-0.175c0.36,0,0.68,0.057,0.96,0.17c0.28,0.113,0.515,0.271,0.705,0.475c0.19,0.204,0.335,0.447,0.435,0.73
		s0.15,0.595,0.15,0.935c0,0.106-0.003,0.207-0.01,0.3c-0.007,0.094-0.017,0.174-0.03,0.24h-3.72
		c0.053,0.507,0.245,0.884,0.575,1.13c0.33,0.247,0.735,0.37,1.215,0.37c0.273,0,0.523-0.038,0.75-0.115
		c0.227-0.076,0.45-0.182,0.67-0.314l0.35,0.63c-0.253,0.167-0.539,0.305-0.855,0.415C89.029,103.655,88.681,103.71,88.301,103.71z
		 M88.181,99.359c-0.187,0-0.364,0.029-0.53,0.086s-0.316,0.142-0.45,0.255c-0.134,0.113-0.247,0.253-0.34,0.42
		c-0.093,0.166-0.16,0.359-0.2,0.58h2.85c-0.033-0.447-0.168-0.782-0.405-1.005C88.869,99.472,88.561,99.359,88.181,99.359z"/>
	<path d="M92.381,103.59V98.7h0.82l0.08,1.14h0.03c0.253-0.4,0.562-0.71,0.925-0.93c0.363-0.221,0.765-0.33,1.205-0.33
		c0.193,0,0.363,0.015,0.51,0.045c0.146,0.03,0.296,0.082,0.45,0.155l-0.22,0.85c-0.167-0.054-0.31-0.094-0.43-0.12
		s-0.273-0.04-0.46-0.04c-0.354,0-0.693,0.101-1.02,0.3c-0.327,0.2-0.627,0.547-0.9,1.04v2.78H92.381z"/>
	<path d="M105.351,103.59V99.5h-1.37v-0.75l1.37-0.05v-0.341c0-0.293,0.04-0.562,0.12-0.805c0.08-0.243,0.203-0.451,0.37-0.625
		c0.167-0.173,0.377-0.309,0.63-0.405c0.253-0.096,0.553-0.145,0.9-0.145c0.486,0,0.963,0.094,1.43,0.28l-0.22,0.729
		c-0.187-0.08-0.365-0.137-0.535-0.17s-0.358-0.05-0.565-0.05c-0.407,0-0.7,0.102-0.88,0.305c-0.18,0.204-0.27,0.492-0.27,0.865
		v0.36h1.95v0.8h-1.95v4.09H105.351z"/>
	<path d="M112.001,103.71c-0.32,0-0.627-0.057-0.92-0.17c-0.293-0.113-0.554-0.28-0.78-0.5s-0.407-0.488-0.54-0.806
		c-0.133-0.316-0.2-0.678-0.2-1.085c0-0.406,0.066-0.77,0.2-1.09c0.133-0.319,0.313-0.59,0.54-0.81s0.487-0.387,0.78-0.5
		c0.293-0.113,0.6-0.17,0.92-0.17s0.626,0.057,0.92,0.17s0.553,0.28,0.78,0.5c0.227,0.22,0.406,0.49,0.54,0.81
		c0.133,0.32,0.2,0.684,0.2,1.09c0,0.407-0.067,0.769-0.2,1.085c-0.134,0.317-0.313,0.586-0.54,0.806
		c-0.227,0.22-0.487,0.387-0.78,0.5S112.321,103.71,112.001,103.71z M112.001,102.899c0.44,0,0.787-0.159,1.04-0.479
		s0.38-0.743,0.38-1.271c0-0.526-0.126-0.949-0.38-1.27s-0.6-0.48-1.04-0.48s-0.787,0.16-1.04,0.48s-0.38,0.743-0.38,1.27
		c0,0.527,0.126,0.95,0.38,1.271S111.561,102.899,112.001,102.899z"/>
	<path d="M116.381,103.59V98.7h0.82l0.08,1.14h0.03c0.253-0.4,0.562-0.71,0.925-0.93c0.363-0.221,0.765-0.33,1.205-0.33
		c0.193,0,0.363,0.015,0.51,0.045c0.146,0.03,0.296,0.082,0.45,0.155l-0.22,0.85c-0.167-0.054-0.31-0.094-0.43-0.12
		s-0.273-0.04-0.46-0.04c-0.354,0-0.693,0.101-1.02,0.3c-0.327,0.2-0.627,0.547-0.9,1.04v2.78H116.381z"/>
	<path d="M123.911,105.8c-0.7,0-1.249-0.113-1.645-0.34c-0.397-0.227-0.595-0.557-0.595-0.99c0-0.413,0.263-0.767,0.79-1.06v-0.04
		c-0.133-0.073-0.25-0.175-0.35-0.306c-0.1-0.13-0.15-0.298-0.15-0.505c0-0.16,0.052-0.321,0.155-0.484
		c0.103-0.164,0.245-0.309,0.425-0.436v-0.04c-0.173-0.126-0.318-0.295-0.435-0.505s-0.175-0.462-0.175-0.755
		c0-0.273,0.053-0.519,0.16-0.735c0.107-0.216,0.25-0.401,0.43-0.555s0.388-0.27,0.625-0.35c0.236-0.08,0.488-0.12,0.755-0.12
		c0.273,0,0.52,0.04,0.74,0.12h2.01v0.779h-1.19c0.093,0.107,0.177,0.239,0.25,0.396s0.11,0.321,0.11,0.495
		c0,0.267-0.05,0.503-0.15,0.71c-0.1,0.206-0.237,0.382-0.41,0.524c-0.173,0.144-0.376,0.252-0.61,0.325s-0.483,0.11-0.75,0.11
		c-0.12,0-0.249-0.014-0.385-0.04c-0.137-0.026-0.272-0.066-0.405-0.12c-0.227,0.146-0.34,0.316-0.34,0.51
		c0,0.34,0.323,0.51,0.97,0.51h1.04c0.64,0,1.117,0.091,1.43,0.271s0.47,0.479,0.47,0.9c0,0.239-0.065,0.465-0.195,0.675
		c-0.13,0.21-0.315,0.393-0.555,0.55c-0.24,0.156-0.532,0.28-0.875,0.37C124.712,105.755,124.331,105.8,123.911,105.8z
		 M124.011,105.109c0.26,0,0.495-0.024,0.705-0.074c0.21-0.051,0.389-0.115,0.535-0.195s0.26-0.172,0.34-0.275
		s0.12-0.211,0.12-0.324c0-0.214-0.087-0.357-0.26-0.431c-0.174-0.073-0.434-0.109-0.78-0.109h-0.87c-0.153,0-0.29-0.005-0.41-0.016
		c-0.12-0.01-0.23-0.031-0.33-0.064c-0.207,0.113-0.352,0.231-0.435,0.354s-0.125,0.248-0.125,0.375c0,0.233,0.13,0.419,0.39,0.556
		C123.151,105.041,123.524,105.109,124.011,105.109z M123.901,101.399c0.28,0,0.52-0.093,0.72-0.279c0.2-0.187,0.3-0.447,0.3-0.78
		c0-0.32-0.1-0.576-0.3-0.77c-0.2-0.193-0.44-0.29-0.72-0.29c-0.28,0-0.521,0.097-0.725,0.29c-0.203,0.193-0.305,0.449-0.305,0.77
		c0,0.333,0.102,0.594,0.305,0.78C123.379,101.307,123.621,101.399,123.901,101.399z"/>
	<path d="M130.301,103.71c-0.373,0-0.72-0.057-1.04-0.17c-0.32-0.113-0.6-0.28-0.84-0.5c-0.24-0.22-0.428-0.49-0.565-0.811
		c-0.137-0.319-0.205-0.683-0.205-1.09c0-0.399,0.07-0.758,0.21-1.075c0.14-0.316,0.325-0.585,0.555-0.805s0.495-0.389,0.795-0.505
		s0.613-0.175,0.94-0.175c0.36,0,0.68,0.057,0.96,0.17c0.28,0.113,0.515,0.271,0.705,0.475c0.19,0.204,0.335,0.447,0.435,0.73
		s0.15,0.595,0.15,0.935c0,0.106-0.003,0.207-0.01,0.3c-0.007,0.094-0.017,0.174-0.03,0.24h-3.72
		c0.053,0.507,0.245,0.884,0.575,1.13c0.33,0.247,0.735,0.37,1.215,0.37c0.273,0,0.523-0.038,0.75-0.115
		c0.227-0.076,0.45-0.182,0.67-0.314l0.35,0.63c-0.253,0.167-0.539,0.305-0.855,0.415
		C131.029,103.655,130.681,103.71,130.301,103.71z M130.181,99.359c-0.187,0-0.364,0.029-0.53,0.086s-0.316,0.142-0.45,0.255
		c-0.134,0.113-0.247,0.253-0.34,0.42c-0.093,0.166-0.16,0.359-0.2,0.58h2.85c-0.033-0.447-0.168-0.782-0.405-1.005
		C130.869,99.472,130.561,99.359,130.181,99.359z"/>
	<path d="M136.921,103.71c-0.36,0-0.665-0.05-0.915-0.15c-0.25-0.1-0.45-0.239-0.6-0.42c-0.15-0.18-0.258-0.395-0.325-0.645
		c-0.067-0.25-0.1-0.528-0.1-0.835V99.5h-1.34v-0.75l1.38-0.05l0.13-1.551h0.82V98.7h2.31v0.8h-2.31v2.16
		c0,0.42,0.085,0.733,0.255,0.939c0.17,0.207,0.478,0.311,0.925,0.311c0.213,0,0.41-0.019,0.59-0.056
		c0.18-0.036,0.356-0.088,0.53-0.154l0.2,0.729c-0.22,0.073-0.454,0.139-0.7,0.195S137.241,103.71,136.921,103.71z"/>
	<path d="M146.341,105.64c-0.12,0-0.238-0.008-0.355-0.024c-0.117-0.018-0.222-0.042-0.315-0.075l0.2-0.771
		c0.06,0.021,0.126,0.037,0.2,0.051c0.073,0.013,0.146,0.02,0.22,0.02c0.326,0,0.59-0.089,0.79-0.265
		c0.2-0.177,0.356-0.402,0.47-0.676l0.13-0.34l-2.229-4.859h0.99l1.1,2.55c0.093,0.22,0.187,0.453,0.28,0.7
		c0.093,0.246,0.189,0.489,0.29,0.729h0.04c0.08-0.233,0.163-0.473,0.25-0.72c0.086-0.247,0.17-0.483,0.25-0.71l0.97-2.55h0.939
		l-2.09,5.199c-0.1,0.261-0.213,0.497-0.34,0.71c-0.127,0.214-0.274,0.397-0.445,0.551c-0.17,0.153-0.364,0.271-0.585,0.354
		C146.881,105.598,146.628,105.64,146.341,105.64z"/>
	<path d="M154.001,103.71c-0.32,0-0.627-0.057-0.92-0.17c-0.294-0.113-0.554-0.28-0.78-0.5s-0.406-0.488-0.54-0.806
		c-0.133-0.316-0.2-0.678-0.2-1.085c0-0.406,0.067-0.77,0.2-1.09c0.134-0.319,0.313-0.59,0.54-0.81s0.486-0.387,0.78-0.5
		c0.293-0.113,0.6-0.17,0.92-0.17s0.627,0.057,0.92,0.17s0.554,0.28,0.78,0.5s0.406,0.49,0.54,0.81c0.133,0.32,0.2,0.684,0.2,1.09
		c0,0.407-0.067,0.769-0.2,1.085c-0.134,0.317-0.313,0.586-0.54,0.806s-0.487,0.387-0.78,0.5S154.321,103.71,154.001,103.71z
		 M154.001,102.899c0.44,0,0.786-0.159,1.04-0.479c0.253-0.32,0.38-0.743,0.38-1.271c0-0.526-0.127-0.949-0.38-1.27
		c-0.254-0.32-0.6-0.48-1.04-0.48s-0.787,0.16-1.04,0.48s-0.38,0.743-0.38,1.27c0,0.527,0.127,0.95,0.38,1.271
		S153.561,102.899,154.001,102.899z"/>
	<path d="M159.401,103.71c-0.58,0-1.004-0.168-1.271-0.505s-0.399-0.828-0.399-1.476V98.7h0.989v2.899
		c0,0.434,0.077,0.752,0.23,0.955s0.416,0.305,0.79,0.305c0.253,0,0.484-0.062,0.694-0.185s0.436-0.331,0.676-0.625V98.7h0.989v4.89
		h-0.81l-0.08-0.81h-0.04c-0.24,0.279-0.502,0.505-0.785,0.675S159.774,103.71,159.401,103.71z"/>
	<path d="M164.381,103.59V98.7h0.82l0.08,1.14h0.029c0.254-0.4,0.562-0.71,0.926-0.93c0.363-0.221,0.765-0.33,1.205-0.33
		c0.192,0,0.363,0.015,0.51,0.045s0.296,0.082,0.45,0.155l-0.221,0.85c-0.166-0.054-0.31-0.094-0.43-0.12s-0.273-0.04-0.46-0.04
		c-0.354,0-0.693,0.101-1.021,0.3c-0.326,0.2-0.626,0.547-0.899,1.04v2.78H164.381z"/>
	<path d="M178.241,103.59l0.25-2h-1.26l-0.24,2h-0.62l0.25-2h-0.79v-0.66h0.87l0.17-1.39h-0.84v-0.66h0.92l0.22-1.79h0.61
		l-0.221,1.79h1.261l0.22-1.79h0.61l-0.221,1.79h0.801v0.66h-0.881l-0.17,1.39h0.851v0.66h-0.931l-0.239,2H178.241z M178.571,100.93
		l0.17-1.39h-1.26l-0.171,1.39H178.571z"/>
	<path d="M181.931,103.59v-0.81h1.801v-4.44h-1.421v-0.62c0.394-0.053,0.719-0.12,0.976-0.2s0.491-0.18,0.705-0.3h0.729v5.561h1.61
		v0.81H181.931z"/>
	<path d="M187.691,103.59v-0.58c0.52-0.453,0.982-0.865,1.39-1.235c0.406-0.369,0.748-0.713,1.025-1.029
		c0.276-0.316,0.488-0.612,0.635-0.886c0.146-0.272,0.22-0.539,0.22-0.8c0-0.353-0.106-0.637-0.32-0.85
		c-0.213-0.214-0.54-0.32-0.979-0.32c-0.287,0-0.554,0.073-0.8,0.22c-0.247,0.147-0.467,0.32-0.66,0.521l-0.561-0.55
		c0.301-0.307,0.618-0.547,0.955-0.721c0.337-0.173,0.735-0.26,1.195-0.26c0.32,0,0.611,0.045,0.875,0.135
		c0.264,0.091,0.486,0.219,0.67,0.386c0.184,0.166,0.325,0.368,0.425,0.604c0.101,0.237,0.15,0.499,0.15,0.785
		c0,0.294-0.07,0.589-0.21,0.885c-0.141,0.297-0.334,0.601-0.58,0.91c-0.247,0.311-0.54,0.632-0.88,0.965
		c-0.34,0.334-0.71,0.681-1.11,1.04c0.193-0.013,0.392-0.026,0.595-0.04c0.204-0.013,0.396-0.02,0.575-0.02h1.95v0.84H187.691z"/>
	<path d="M193.931,103.59v-0.81h1.801v-4.44h-1.421v-0.62c0.394-0.053,0.719-0.12,0.976-0.2s0.491-0.18,0.705-0.3h0.729v5.561h1.61
		v0.81H193.931z"/>
	<path d="M199.691,103.59v-0.58c0.52-0.453,0.982-0.865,1.39-1.235c0.406-0.369,0.748-0.713,1.025-1.029
		c0.276-0.316,0.488-0.612,0.635-0.886c0.146-0.272,0.22-0.539,0.22-0.8c0-0.353-0.106-0.637-0.32-0.85
		c-0.213-0.214-0.54-0.32-0.979-0.32c-0.287,0-0.554,0.073-0.8,0.22c-0.247,0.147-0.467,0.32-0.66,0.521l-0.561-0.55
		c0.301-0.307,0.618-0.547,0.955-0.721c0.337-0.173,0.735-0.26,1.195-0.26c0.32,0,0.611,0.045,0.875,0.135
		c0.264,0.091,0.486,0.219,0.67,0.386c0.184,0.166,0.325,0.368,0.425,0.604c0.101,0.237,0.15,0.499,0.15,0.785
		c0,0.294-0.07,0.589-0.21,0.885c-0.141,0.297-0.334,0.601-0.58,0.91c-0.247,0.311-0.54,0.632-0.88,0.965
		c-0.34,0.334-0.71,0.681-1.11,1.04c0.193-0.013,0.392-0.026,0.595-0.04c0.204-0.013,0.396-0.02,0.575-0.02h1.95v0.84H199.691z"/>
	<path d="M205.931,103.59v-0.81h1.801v-4.44h-1.421v-0.62c0.394-0.053,0.719-0.12,0.976-0.2s0.491-0.18,0.705-0.3h0.729v5.561h1.61
		v0.81H205.931z"/>
	<path d="M213.171,103.59c0.026-0.587,0.083-1.121,0.17-1.605c0.087-0.482,0.21-0.941,0.37-1.375c0.16-0.433,0.365-0.856,0.615-1.27
		s0.552-0.84,0.905-1.28h-3.551v-0.84h4.66v0.61c-0.42,0.474-0.762,0.922-1.024,1.345c-0.264,0.424-0.476,0.858-0.636,1.305
		c-0.16,0.447-0.274,0.92-0.345,1.42s-0.118,1.063-0.145,1.69H213.171z"/>
	<path d="M220.001,103.71c-0.254,0-0.467-0.085-0.64-0.255c-0.174-0.17-0.261-0.396-0.261-0.675c0-0.273,0.087-0.497,0.261-0.671
		c0.173-0.173,0.386-0.26,0.64-0.26c0.253,0,0.467,0.087,0.64,0.26c0.174,0.174,0.261,0.397,0.261,0.671
		c0,0.279-0.087,0.505-0.261,0.675C220.468,103.625,220.254,103.71,220.001,103.71z"/>
	<path d="M37.952,115.59v-6.55h2.07c0.36,0,0.69,0.033,0.99,0.1c0.3,0.067,0.559,0.179,0.775,0.335
		c0.216,0.157,0.385,0.36,0.505,0.61s0.18,0.559,0.18,0.925c0,0.354-0.062,0.662-0.185,0.925c-0.124,0.264-0.293,0.48-0.51,0.65
		s-0.475,0.297-0.775,0.38s-0.627,0.125-0.98,0.125h-1.07v2.5H37.952z M38.952,112.28h0.97c0.533,0,0.927-0.102,1.18-0.306
		c0.253-0.203,0.38-0.524,0.38-0.965c0-0.439-0.13-0.745-0.39-0.915c-0.26-0.17-0.65-0.255-1.17-0.255h-0.97V112.28z"/>
	<path d="M44.381,115.59v-4.89h0.82l0.08,1.14h0.03c0.253-0.4,0.562-0.71,0.925-0.93c0.363-0.221,0.765-0.33,1.205-0.33
		c0.193,0,0.363,0.015,0.51,0.045c0.146,0.03,0.296,0.082,0.45,0.155l-0.22,0.85c-0.167-0.054-0.31-0.094-0.43-0.12
		s-0.273-0.04-0.46-0.04c-0.354,0-0.693,0.101-1.02,0.3c-0.327,0.2-0.627,0.547-0.9,1.04v2.78H44.381z"/>
	<path d="M52.301,115.71c-0.373,0-0.72-0.057-1.04-0.17c-0.32-0.113-0.6-0.28-0.84-0.5c-0.24-0.22-0.428-0.49-0.565-0.811
		c-0.137-0.319-0.205-0.683-0.205-1.09c0-0.399,0.07-0.758,0.21-1.075c0.14-0.316,0.325-0.585,0.555-0.805s0.495-0.389,0.795-0.505
		s0.613-0.175,0.94-0.175c0.36,0,0.68,0.057,0.96,0.17c0.28,0.113,0.515,0.271,0.705,0.475c0.19,0.204,0.335,0.447,0.435,0.73
		s0.15,0.595,0.15,0.935c0,0.106-0.003,0.207-0.01,0.3c-0.007,0.094-0.017,0.174-0.03,0.24h-3.72
		c0.053,0.507,0.245,0.884,0.575,1.13c0.33,0.247,0.735,0.37,1.215,0.37c0.273,0,0.523-0.038,0.75-0.115
		c0.227-0.076,0.45-0.182,0.67-0.314l0.35,0.63c-0.253,0.167-0.539,0.305-0.855,0.415C53.03,115.655,52.682,115.71,52.301,115.71z
		 M52.182,111.359c-0.187,0-0.364,0.029-0.53,0.086s-0.316,0.142-0.45,0.255c-0.134,0.113-0.247,0.253-0.34,0.42
		c-0.093,0.166-0.16,0.359-0.2,0.58h2.85c-0.033-0.447-0.168-0.782-0.405-1.005C52.87,111.472,52.562,111.359,52.182,111.359z"/>
	<path d="M58.062,115.71c-0.467,0-0.907-0.075-1.32-0.226c-0.414-0.149-0.77-0.328-1.07-0.534l0.44-0.641
		c0.287,0.2,0.599,0.357,0.935,0.471s0.718,0.17,1.145,0.17c0.38,0,0.66-0.065,0.84-0.195c0.18-0.13,0.27-0.288,0.27-0.475
		c0-0.087-0.017-0.167-0.05-0.24s-0.102-0.142-0.205-0.205s-0.249-0.125-0.435-0.186c-0.187-0.06-0.433-0.123-0.74-0.189
		c-0.647-0.134-1.125-0.315-1.435-0.545c-0.31-0.23-0.465-0.532-0.465-0.905c0-0.206,0.045-0.396,0.135-0.57
		c0.09-0.173,0.223-0.323,0.4-0.449c0.177-0.127,0.395-0.227,0.655-0.301c0.26-0.073,0.56-0.109,0.9-0.109
		c0.387,0,0.755,0.064,1.105,0.194c0.35,0.131,0.648,0.279,0.895,0.445l-0.46,0.62c-0.233-0.153-0.489-0.275-0.765-0.365
		c-0.277-0.09-0.565-0.135-0.865-0.135c-0.374,0-0.635,0.06-0.785,0.18s-0.225,0.267-0.225,0.44c0,0.193,0.104,0.34,0.31,0.439
		c0.207,0.101,0.55,0.2,1.03,0.301c0.4,0.086,0.729,0.18,0.985,0.279c0.256,0.101,0.46,0.21,0.61,0.33s0.255,0.255,0.315,0.405
		s0.09,0.318,0.09,0.505c0,0.207-0.05,0.4-0.15,0.58s-0.245,0.339-0.435,0.475c-0.19,0.137-0.423,0.244-0.7,0.32
		C58.74,115.672,58.421,115.71,58.062,115.71z"/>
	<path d="M64.062,115.71c-0.467,0-0.907-0.075-1.32-0.226c-0.414-0.149-0.77-0.328-1.07-0.534l0.44-0.641
		c0.287,0.2,0.599,0.357,0.935,0.471s0.718,0.17,1.145,0.17c0.38,0,0.66-0.065,0.84-0.195c0.18-0.13,0.27-0.288,0.27-0.475
		c0-0.087-0.017-0.167-0.05-0.24s-0.102-0.142-0.205-0.205s-0.249-0.125-0.435-0.186c-0.187-0.06-0.433-0.123-0.74-0.189
		c-0.647-0.134-1.125-0.315-1.435-0.545c-0.31-0.23-0.465-0.532-0.465-0.905c0-0.206,0.045-0.396,0.135-0.57
		c0.09-0.173,0.223-0.323,0.4-0.449c0.177-0.127,0.395-0.227,0.655-0.301c0.26-0.073,0.56-0.109,0.9-0.109
		c0.387,0,0.755,0.064,1.105,0.194c0.35,0.131,0.648,0.279,0.895,0.445l-0.46,0.62c-0.233-0.153-0.489-0.275-0.765-0.365
		c-0.277-0.09-0.565-0.135-0.865-0.135c-0.374,0-0.635,0.06-0.785,0.18s-0.225,0.267-0.225,0.44c0,0.193,0.104,0.34,0.31,0.439
		c0.207,0.101,0.55,0.2,1.03,0.301c0.4,0.086,0.729,0.18,0.985,0.279c0.256,0.101,0.46,0.21,0.61,0.33s0.255,0.255,0.315,0.405
		s0.09,0.318,0.09,0.505c0,0.207-0.05,0.4-0.15,0.58s-0.245,0.339-0.435,0.475c-0.19,0.137-0.423,0.244-0.7,0.32
		C64.74,115.672,64.421,115.71,64.062,115.71z"/>
	<path d="M75.412,115.71c-0.233,0-0.452-0.033-0.655-0.101c-0.203-0.066-0.378-0.161-0.525-0.284
		c-0.146-0.124-0.262-0.271-0.345-0.445c-0.083-0.173-0.125-0.366-0.125-0.58c0-0.273,0.065-0.514,0.195-0.72
		c0.13-0.207,0.333-0.384,0.61-0.53s0.633-0.267,1.07-0.36c0.437-0.093,0.962-0.163,1.575-0.21c-0.013-0.3-0.112-0.557-0.295-0.77
		c-0.184-0.214-0.492-0.32-0.925-0.32c-0.3,0-0.592,0.057-0.875,0.17c-0.284,0.113-0.545,0.24-0.785,0.38l-0.37-0.67
		c0.133-0.08,0.283-0.161,0.45-0.245c0.167-0.083,0.345-0.158,0.535-0.225s0.387-0.12,0.59-0.16c0.203-0.04,0.412-0.06,0.625-0.06
		c0.68,0,1.19,0.184,1.53,0.55s0.51,0.873,0.51,1.52v2.94h-0.81l-0.08-0.63h-0.03c-0.26,0.2-0.551,0.375-0.875,0.524
		C76.083,115.635,75.751,115.71,75.412,115.71z M75.691,114.92c0.26,0,0.515-0.057,0.765-0.17s0.501-0.273,0.755-0.48v-1.16
		c-0.48,0.04-0.88,0.092-1.2,0.155c-0.32,0.063-0.575,0.144-0.765,0.24s-0.325,0.205-0.405,0.325s-0.12,0.253-0.12,0.399
		c0,0.247,0.095,0.424,0.285,0.53S75.425,114.92,75.691,114.92z"/>
	<path d="M79.881,115.59v-4.89h0.81l0.08,0.79h0.04c0.247-0.254,0.513-0.469,0.8-0.646s0.62-0.265,1-0.265
		c0.573,0,0.994,0.17,1.26,0.51s0.4,0.83,0.4,1.47v3.03h-0.99v-2.9c0-0.426-0.077-0.741-0.23-0.944s-0.417-0.306-0.79-0.306
		c-0.26,0-0.493,0.065-0.7,0.195s-0.437,0.325-0.69,0.585v3.37H79.881z"/>
	<path d="M86.341,117.64c-0.12,0-0.238-0.008-0.355-0.024c-0.117-0.018-0.222-0.042-0.315-0.075l0.2-0.771
		c0.06,0.021,0.126,0.037,0.2,0.051c0.073,0.013,0.147,0.02,0.22,0.02c0.327,0,0.59-0.089,0.79-0.265
		c0.2-0.177,0.356-0.402,0.47-0.676l0.13-0.34l-2.23-4.859h0.99l1.1,2.55c0.093,0.22,0.187,0.453,0.28,0.7
		c0.093,0.246,0.19,0.489,0.29,0.729h0.04c0.08-0.233,0.164-0.473,0.25-0.72s0.17-0.483,0.25-0.71l0.97-2.55h0.94l-2.09,5.199
		c-0.1,0.261-0.214,0.497-0.34,0.71c-0.126,0.214-0.275,0.397-0.445,0.551s-0.365,0.271-0.585,0.354
		C86.881,117.598,86.628,117.64,86.341,117.64z"/>
	<path d="M97.981,115.59v-7.09h0.99v4.62h0.04l2.41-2.42h1.11l-1.92,1.939l2.16,2.95h-1.09l-1.68-2.34l-1.03,1.04v1.3H97.981z"/>
	<path d="M106.301,115.71c-0.373,0-0.72-0.057-1.04-0.17c-0.32-0.113-0.6-0.28-0.84-0.5c-0.24-0.22-0.428-0.49-0.565-0.811
		c-0.137-0.319-0.205-0.683-0.205-1.09c0-0.399,0.07-0.758,0.21-1.075c0.14-0.316,0.325-0.585,0.555-0.805s0.495-0.389,0.795-0.505
		s0.613-0.175,0.94-0.175c0.36,0,0.68,0.057,0.96,0.17c0.28,0.113,0.515,0.271,0.705,0.475c0.19,0.204,0.335,0.447,0.435,0.73
		s0.15,0.595,0.15,0.935c0,0.106-0.003,0.207-0.01,0.3c-0.007,0.094-0.017,0.174-0.03,0.24h-3.72
		c0.053,0.507,0.245,0.884,0.575,1.13c0.33,0.247,0.735,0.37,1.215,0.37c0.273,0,0.523-0.038,0.75-0.115
		c0.227-0.076,0.45-0.182,0.67-0.314l0.35,0.63c-0.253,0.167-0.539,0.305-0.855,0.415C107.03,115.655,106.682,115.71,106.301,115.71
		z M106.182,111.359c-0.187,0-0.364,0.029-0.53,0.086s-0.316,0.142-0.45,0.255c-0.134,0.113-0.247,0.253-0.34,0.42
		c-0.093,0.166-0.16,0.359-0.2,0.58h2.85c-0.033-0.447-0.168-0.782-0.405-1.005C106.87,111.472,106.562,111.359,106.182,111.359z"/>
	<path d="M110.341,117.64c-0.12,0-0.238-0.008-0.355-0.024c-0.117-0.018-0.222-0.042-0.315-0.075l0.2-0.771
		c0.06,0.021,0.126,0.037,0.2,0.051c0.073,0.013,0.147,0.02,0.22,0.02c0.327,0,0.59-0.089,0.79-0.265
		c0.2-0.177,0.356-0.402,0.47-0.676l0.13-0.34l-2.23-4.859h0.99l1.1,2.55c0.093,0.22,0.187,0.453,0.28,0.7
		c0.093,0.246,0.19,0.489,0.29,0.729h0.04c0.08-0.233,0.164-0.473,0.25-0.72s0.17-0.483,0.25-0.71l0.97-2.55h0.94l-2.09,5.199
		c-0.1,0.261-0.214,0.497-0.34,0.71c-0.126,0.214-0.275,0.397-0.445,0.551s-0.365,0.271-0.585,0.354
		C110.881,117.598,110.628,117.64,110.341,117.64z"/>
	<path d="M124.921,115.71c-0.36,0-0.665-0.05-0.915-0.15c-0.25-0.1-0.45-0.239-0.6-0.42c-0.15-0.18-0.258-0.395-0.325-0.645
		c-0.067-0.25-0.1-0.528-0.1-0.835v-2.16h-1.34v-0.75l1.38-0.05l0.13-1.551h0.82v1.551h2.31v0.8h-2.31v2.16
		c0,0.42,0.085,0.733,0.255,0.939c0.17,0.207,0.478,0.311,0.925,0.311c0.213,0,0.41-0.019,0.59-0.056
		c0.18-0.036,0.356-0.088,0.53-0.154l0.2,0.729c-0.22,0.073-0.454,0.139-0.7,0.195S125.242,115.71,124.921,115.71z"/>
	<path d="M130.001,115.71c-0.32,0-0.627-0.057-0.92-0.17c-0.293-0.113-0.554-0.28-0.78-0.5s-0.407-0.488-0.54-0.806
		c-0.133-0.316-0.2-0.678-0.2-1.085c0-0.406,0.066-0.77,0.2-1.09c0.133-0.319,0.313-0.59,0.54-0.81s0.487-0.387,0.78-0.5
		c0.293-0.113,0.6-0.17,0.92-0.17s0.626,0.057,0.92,0.17s0.553,0.28,0.78,0.5c0.227,0.22,0.406,0.49,0.54,0.81
		c0.133,0.32,0.2,0.684,0.2,1.09c0,0.407-0.067,0.769-0.2,1.085c-0.134,0.317-0.313,0.586-0.54,0.806
		c-0.227,0.22-0.487,0.387-0.78,0.5S130.321,115.71,130.001,115.71z M130.001,114.899c0.44,0,0.787-0.159,1.04-0.479
		s0.38-0.743,0.38-1.271c0-0.526-0.126-0.949-0.38-1.27s-0.6-0.48-1.04-0.48s-0.787,0.16-1.04,0.48s-0.38,0.743-0.38,1.27
		c0,0.527,0.126,0.95,0.38,1.271S129.562,114.899,130.001,114.899z"/>
	<path d="M142.062,115.71c-0.467,0-0.907-0.075-1.32-0.226c-0.414-0.149-0.77-0.328-1.07-0.534l0.44-0.641
		c0.287,0.2,0.599,0.357,0.935,0.471s0.718,0.17,1.145,0.17c0.38,0,0.66-0.065,0.84-0.195c0.18-0.13,0.27-0.288,0.27-0.475
		c0-0.087-0.017-0.167-0.05-0.24s-0.102-0.142-0.205-0.205s-0.249-0.125-0.435-0.186c-0.187-0.06-0.433-0.123-0.74-0.189
		c-0.647-0.134-1.125-0.315-1.435-0.545c-0.31-0.23-0.465-0.532-0.465-0.905c0-0.206,0.045-0.396,0.135-0.57
		c0.09-0.173,0.223-0.323,0.4-0.449c0.177-0.127,0.395-0.227,0.655-0.301c0.26-0.073,0.56-0.109,0.9-0.109
		c0.387,0,0.755,0.064,1.105,0.194c0.35,0.131,0.648,0.279,0.895,0.445l-0.46,0.62c-0.233-0.153-0.489-0.275-0.765-0.365
		c-0.277-0.09-0.565-0.135-0.865-0.135c-0.374,0-0.635,0.06-0.785,0.18s-0.225,0.267-0.225,0.44c0,0.193,0.104,0.34,0.31,0.439
		c0.207,0.101,0.55,0.2,1.03,0.301c0.4,0.086,0.729,0.18,0.985,0.279c0.256,0.101,0.46,0.21,0.61,0.33s0.255,0.255,0.315,0.405
		s0.09,0.318,0.09,0.505c0,0.207-0.05,0.4-0.15,0.58s-0.245,0.339-0.435,0.475c-0.19,0.137-0.423,0.244-0.7,0.32
		C142.74,115.672,142.421,115.71,142.062,115.71z"/>
	<path d="M148.922,115.71c-0.36,0-0.665-0.05-0.915-0.15c-0.25-0.1-0.45-0.239-0.601-0.42c-0.149-0.18-0.258-0.395-0.325-0.645
		c-0.066-0.25-0.1-0.528-0.1-0.835v-2.16h-1.34v-0.75l1.38-0.05l0.13-1.551h0.82v1.551h2.31v0.8h-2.31v2.16
		c0,0.42,0.085,0.733,0.255,0.939c0.17,0.207,0.479,0.311,0.925,0.311c0.214,0,0.41-0.019,0.59-0.056
		c0.181-0.036,0.356-0.088,0.53-0.154l0.2,0.729c-0.22,0.073-0.454,0.139-0.7,0.195C149.524,115.682,149.241,115.71,148.922,115.71z
		"/>
	<path d="M153.411,115.71c-0.233,0-0.452-0.033-0.655-0.101c-0.203-0.066-0.378-0.161-0.524-0.284
		c-0.147-0.124-0.262-0.271-0.346-0.445c-0.083-0.173-0.125-0.366-0.125-0.58c0-0.273,0.065-0.514,0.195-0.72
		c0.13-0.207,0.333-0.384,0.61-0.53c0.276-0.146,0.633-0.267,1.069-0.36c0.437-0.093,0.962-0.163,1.575-0.21
		c-0.014-0.3-0.111-0.557-0.295-0.77c-0.184-0.214-0.492-0.32-0.925-0.32c-0.3,0-0.592,0.057-0.875,0.17s-0.545,0.24-0.785,0.38
		l-0.37-0.67c0.134-0.08,0.283-0.161,0.45-0.245c0.166-0.083,0.345-0.158,0.535-0.225c0.189-0.066,0.387-0.12,0.59-0.16
		s0.411-0.06,0.625-0.06c0.68,0,1.189,0.184,1.53,0.55c0.34,0.366,0.51,0.873,0.51,1.52v2.94h-0.811l-0.08-0.63h-0.029
		c-0.261,0.2-0.552,0.375-0.875,0.524C154.083,115.635,153.751,115.71,153.411,115.71z M153.691,114.92
		c0.26,0,0.515-0.057,0.765-0.17s0.502-0.273,0.755-0.48v-1.16c-0.479,0.04-0.88,0.092-1.2,0.155
		c-0.319,0.063-0.575,0.144-0.765,0.24c-0.19,0.097-0.325,0.205-0.405,0.325s-0.12,0.253-0.12,0.399c0,0.247,0.096,0.424,0.285,0.53
		C153.196,114.866,153.424,114.92,153.691,114.92z"/>
	<path d="M158.381,115.59v-4.89h0.82l0.08,1.14h0.029c0.254-0.4,0.562-0.71,0.926-0.93c0.363-0.221,0.765-0.33,1.205-0.33
		c0.192,0,0.363,0.015,0.51,0.045s0.296,0.082,0.45,0.155l-0.221,0.85c-0.166-0.054-0.31-0.094-0.43-0.12s-0.273-0.04-0.46-0.04
		c-0.354,0-0.693,0.101-1.021,0.3c-0.326,0.2-0.626,0.547-0.899,1.04v2.78H158.381z"/>
	<path d="M166.921,115.71c-0.36,0-0.665-0.05-0.915-0.15c-0.25-0.1-0.45-0.239-0.6-0.42c-0.15-0.18-0.259-0.395-0.325-0.645
		s-0.1-0.528-0.1-0.835v-2.16h-1.341v-0.75l1.38-0.05l0.131-1.551h0.819v1.551h2.311v0.8h-2.311v2.16
		c0,0.42,0.085,0.733,0.255,0.939c0.17,0.207,0.479,0.311,0.926,0.311c0.213,0,0.409-0.019,0.59-0.056
		c0.18-0.036,0.356-0.088,0.529-0.154l0.2,0.729c-0.22,0.073-0.453,0.139-0.7,0.195C167.524,115.682,167.241,115.71,166.921,115.71z
		"/>
	<path d="M178.251,115.71c-0.233,0-0.481-0.057-0.745-0.17s-0.505-0.276-0.725-0.49h-0.03l-0.09,0.54h-0.78v-7.09h0.99v1.88
		l-0.04,0.9h0.03c0.213-0.214,0.456-0.384,0.729-0.511c0.273-0.126,0.55-0.189,0.83-0.189c0.32,0,0.606,0.059,0.86,0.175
		c0.253,0.116,0.465,0.283,0.635,0.5s0.3,0.479,0.39,0.785s0.136,0.649,0.136,1.03c0,0.42-0.061,0.793-0.181,1.119
		c-0.12,0.327-0.281,0.603-0.484,0.825c-0.204,0.224-0.438,0.396-0.7,0.516C178.813,115.649,178.537,115.71,178.251,115.71z
		 M178.061,114.89c0.387,0,0.71-0.155,0.971-0.465c0.26-0.31,0.39-0.758,0.39-1.345c0-0.514-0.1-0.92-0.3-1.221
		c-0.2-0.3-0.521-0.449-0.96-0.449c-0.2,0-0.41,0.052-0.63,0.154c-0.221,0.104-0.44,0.272-0.66,0.506v2.31
		c0.206,0.187,0.416,0.318,0.63,0.395C177.714,114.852,177.901,114.89,178.061,114.89z"/>
	<path d="M183.401,115.71c-0.58,0-1.004-0.168-1.271-0.505s-0.399-0.828-0.399-1.476V110.7h0.989v2.899
		c0,0.434,0.077,0.752,0.23,0.955s0.416,0.305,0.79,0.305c0.253,0,0.484-0.062,0.694-0.185s0.436-0.331,0.676-0.625v-3.35h0.989
		v4.89h-0.81l-0.08-0.81h-0.04c-0.24,0.279-0.502,0.505-0.785,0.675S183.774,115.71,183.401,115.71z"/>
	<path d="M190.061,115.59v-4.09h-2.189v-0.8h3.18v4.89H190.061z M190.471,109.75c-0.213,0-0.39-0.065-0.529-0.195
		c-0.141-0.13-0.21-0.302-0.21-0.515c0-0.214,0.069-0.385,0.21-0.516c0.14-0.13,0.316-0.194,0.529-0.194
		c0.214,0,0.391,0.064,0.53,0.194c0.14,0.131,0.21,0.302,0.21,0.516c0,0.213-0.07,0.385-0.21,0.515S190.685,109.75,190.471,109.75z"
		/>
	<path d="M197.041,115.71c-0.547,0-0.964-0.156-1.25-0.47c-0.287-0.313-0.43-0.767-0.43-1.36v-4.59h-1.681v-0.79h2.67v5.439
		c0,0.341,0.085,0.585,0.256,0.735c0.17,0.15,0.391,0.225,0.664,0.225c0.254,0,0.547-0.069,0.881-0.21l0.239,0.74
		c-0.233,0.094-0.448,0.163-0.645,0.21C197.549,115.687,197.314,115.71,197.041,115.71z"/>
	<path d="M201.671,115.71c-0.32,0-0.608-0.057-0.865-0.17s-0.479-0.28-0.665-0.5s-0.33-0.488-0.43-0.806
		c-0.1-0.316-0.15-0.678-0.15-1.085c0-0.399,0.062-0.758,0.186-1.074c0.123-0.317,0.286-0.585,0.49-0.806
		c0.203-0.22,0.437-0.39,0.699-0.51c0.264-0.12,0.535-0.18,0.815-0.18c0.286,0,0.542,0.053,0.765,0.16
		c0.224,0.106,0.436,0.256,0.636,0.449h0.029l-0.05-0.869v-1.82h0.99v7.09h-0.811l-0.079-0.6h-0.03
		c-0.193,0.193-0.424,0.361-0.69,0.505C202.244,115.638,201.964,115.71,201.671,115.71z M201.901,114.89
		c0.439,0,0.85-0.22,1.229-0.66v-2.319c-0.193-0.187-0.387-0.316-0.58-0.391c-0.193-0.073-0.387-0.109-0.58-0.109
		s-0.373,0.04-0.54,0.12c-0.166,0.079-0.313,0.194-0.439,0.345c-0.127,0.149-0.227,0.332-0.3,0.545
		c-0.074,0.213-0.11,0.453-0.11,0.72c0,0.567,0.115,1,0.345,1.3C201.156,114.74,201.481,114.89,201.901,114.89z"/>
	<path d="M208.251,115.71c-0.233,0-0.481-0.057-0.745-0.17s-0.505-0.276-0.725-0.49h-0.03l-0.09,0.54h-0.78v-7.09h0.99v1.88
		l-0.04,0.9h0.03c0.213-0.214,0.456-0.384,0.729-0.511c0.273-0.126,0.55-0.189,0.83-0.189c0.32,0,0.606,0.059,0.86,0.175
		c0.253,0.116,0.465,0.283,0.635,0.5s0.3,0.479,0.39,0.785s0.136,0.649,0.136,1.03c0,0.42-0.061,0.793-0.181,1.119
		c-0.12,0.327-0.281,0.603-0.484,0.825c-0.204,0.224-0.438,0.396-0.7,0.516C208.813,115.649,208.537,115.71,208.251,115.71z
		 M208.061,114.89c0.387,0,0.71-0.155,0.971-0.465c0.26-0.31,0.39-0.758,0.39-1.345c0-0.514-0.1-0.92-0.3-1.221
		c-0.2-0.3-0.521-0.449-0.96-0.449c-0.2,0-0.41,0.052-0.63,0.154c-0.221,0.104-0.44,0.272-0.66,0.506v2.31
		c0.206,0.187,0.416,0.318,0.63,0.395C207.714,114.852,207.901,114.89,208.061,114.89z"/>
	<path d="M214.001,115.71c-0.32,0-0.627-0.057-0.92-0.17c-0.294-0.113-0.554-0.28-0.78-0.5s-0.406-0.488-0.54-0.806
		c-0.133-0.316-0.2-0.678-0.2-1.085c0-0.406,0.067-0.77,0.2-1.09c0.134-0.319,0.313-0.59,0.54-0.81s0.486-0.387,0.78-0.5
		c0.293-0.113,0.6-0.17,0.92-0.17s0.627,0.057,0.92,0.17s0.554,0.28,0.78,0.5s0.406,0.49,0.54,0.81c0.133,0.32,0.2,0.684,0.2,1.09
		c0,0.407-0.067,0.769-0.2,1.085c-0.134,0.317-0.313,0.586-0.54,0.806s-0.487,0.387-0.78,0.5S214.321,115.71,214.001,115.71z
		 M214.001,114.899c0.44,0,0.786-0.159,1.04-0.479c0.253-0.32,0.38-0.743,0.38-1.271c0-0.526-0.127-0.949-0.38-1.27
		c-0.254-0.32-0.6-0.48-1.04-0.48s-0.787,0.16-1.04,0.48s-0.38,0.743-0.38,1.27c0,0.527,0.127,0.95,0.38,1.271
		S213.561,114.899,214.001,114.899z"/>
	<path d="M220.921,115.71c-0.36,0-0.665-0.05-0.915-0.15c-0.25-0.1-0.45-0.239-0.6-0.42c-0.15-0.18-0.259-0.395-0.325-0.645
		s-0.1-0.528-0.1-0.835v-2.16h-1.341v-0.75l1.38-0.05l0.131-1.551h0.819v1.551h2.311v0.8h-2.311v2.16
		c0,0.42,0.085,0.733,0.255,0.939c0.17,0.207,0.479,0.311,0.926,0.311c0.213,0,0.409-0.019,0.59-0.056
		c0.18-0.036,0.356-0.088,0.529-0.154l0.2,0.729c-0.22,0.073-0.453,0.139-0.7,0.195C221.524,115.682,221.241,115.71,220.921,115.71z
		"/>
	<path d="M226.921,115.71c-0.36,0-0.665-0.05-0.915-0.15c-0.25-0.1-0.45-0.239-0.6-0.42c-0.15-0.18-0.259-0.395-0.325-0.645
		s-0.1-0.528-0.1-0.835v-2.16h-1.341v-0.75l1.38-0.05l0.131-1.551h0.819v1.551h2.311v0.8h-2.311v2.16
		c0,0.42,0.085,0.733,0.255,0.939c0.17,0.207,0.479,0.311,0.926,0.311c0.213,0,0.409-0.019,0.59-0.056
		c0.18-0.036,0.356-0.088,0.529-0.154l0.2,0.729c-0.22,0.073-0.453,0.139-0.7,0.195C227.524,115.682,227.241,115.71,226.921,115.71z
		"/>
	<path d="M232.061,115.59v-4.09h-2.189v-0.8h3.18v4.89H232.061z M232.471,109.75c-0.213,0-0.39-0.065-0.529-0.195
		c-0.141-0.13-0.21-0.302-0.21-0.515c0-0.214,0.069-0.385,0.21-0.516c0.14-0.13,0.316-0.194,0.529-0.194
		c0.214,0,0.391,0.064,0.53,0.194c0.14,0.131,0.21,0.302,0.21,0.516c0,0.213-0.07,0.385-0.21,0.515S232.685,109.75,232.471,109.75z"
		/>
	<path d="M235.881,115.59v-4.89h0.811l0.079,0.79h0.04c0.247-0.254,0.514-0.469,0.801-0.646c0.286-0.177,0.62-0.265,1-0.265
		c0.573,0,0.993,0.17,1.26,0.51s0.399,0.83,0.399,1.47v3.03h-0.989v-2.9c0-0.426-0.077-0.741-0.23-0.944s-0.417-0.306-0.79-0.306
		c-0.26,0-0.493,0.065-0.7,0.195c-0.206,0.13-0.437,0.325-0.689,0.585v3.37H235.881z"/>
	<path d="M243.911,117.8c-0.7,0-1.249-0.113-1.646-0.34s-0.595-0.557-0.595-0.99c0-0.413,0.264-0.767,0.79-1.06v-0.04
		c-0.134-0.073-0.25-0.175-0.35-0.306c-0.101-0.13-0.15-0.298-0.15-0.505c0-0.16,0.052-0.321,0.155-0.484
		c0.104-0.164,0.245-0.309,0.425-0.436v-0.04c-0.174-0.126-0.318-0.295-0.435-0.505c-0.117-0.21-0.176-0.462-0.176-0.755
		c0-0.273,0.054-0.519,0.16-0.735c0.106-0.216,0.25-0.401,0.43-0.555c0.181-0.153,0.389-0.27,0.625-0.35
		c0.237-0.08,0.488-0.12,0.756-0.12c0.272,0,0.52,0.04,0.739,0.12h2.011v0.779h-1.19c0.094,0.107,0.177,0.239,0.25,0.396
		s0.11,0.321,0.11,0.495c0,0.267-0.051,0.503-0.15,0.71c-0.1,0.206-0.236,0.382-0.41,0.524c-0.173,0.144-0.377,0.252-0.609,0.325
		c-0.233,0.073-0.483,0.11-0.75,0.11c-0.12,0-0.249-0.014-0.386-0.04s-0.271-0.066-0.404-0.12c-0.228,0.146-0.341,0.316-0.341,0.51
		c0,0.34,0.324,0.51,0.971,0.51h1.04c0.64,0,1.116,0.091,1.43,0.271s0.47,0.479,0.47,0.9c0,0.239-0.064,0.465-0.194,0.675
		s-0.315,0.393-0.556,0.55c-0.239,0.156-0.531,0.28-0.875,0.37C244.713,117.755,244.331,117.8,243.911,117.8z M244.011,117.109
		c0.26,0,0.495-0.024,0.705-0.074c0.21-0.051,0.389-0.115,0.535-0.195s0.26-0.172,0.34-0.275s0.12-0.211,0.12-0.324
		c0-0.214-0.087-0.357-0.26-0.431c-0.174-0.073-0.434-0.109-0.78-0.109h-0.87c-0.153,0-0.29-0.005-0.41-0.016
		c-0.12-0.01-0.229-0.031-0.33-0.064c-0.206,0.113-0.352,0.231-0.435,0.354s-0.125,0.248-0.125,0.375c0,0.233,0.13,0.419,0.39,0.556
		C243.151,117.041,243.524,117.109,244.011,117.109z M243.901,113.399c0.279,0,0.52-0.093,0.72-0.279s0.3-0.447,0.3-0.78
		c0-0.32-0.1-0.576-0.3-0.77s-0.44-0.29-0.72-0.29c-0.28,0-0.522,0.097-0.726,0.29s-0.305,0.449-0.305,0.77
		c0,0.333,0.102,0.594,0.305,0.78S243.621,113.399,243.901,113.399z"/>
	<path d="M250.001,115.71c-0.254,0-0.467-0.085-0.64-0.255c-0.174-0.17-0.261-0.396-0.261-0.675c0-0.273,0.087-0.497,0.261-0.671
		c0.173-0.173,0.386-0.26,0.64-0.26c0.253,0,0.467,0.087,0.64,0.26c0.174,0.174,0.261,0.397,0.261,0.671
		c0,0.279-0.087,0.505-0.261,0.675C250.468,115.625,250.254,115.71,250.001,115.71z"/>
</g>
</svg>
