<?xml version="1.0" encoding="utf-8"?>
<!-- Generator: Adobe Illustrator 16.0.0, SVG Export Plug-In . SVG Version: 6.00 Build 0)  -->
<!DOCTYPE svg PUBLIC "-//W3C//DTD SVG 1.1//EN" "http://www.w3.org/Graphics/SVG/1.1/DTD/svg11.dtd">
<svg version="1.1" xmlns="http://www.w3.org/2000/svg" xmlns:xlink="http://www.w3.org/1999/xlink" x="0px" y="0px" width="150px"
	 height="150px" viewBox="0 0 150 150" enable-background="new 0 0 150 150" xml:space="preserve">
<g id="Layer_1">
	
		<rect x="23.612" y="23.572" transform="matrix(0.7071 0.7071 -0.7071 0.7071 74.8884 -31.0435)" fill="#BE1E2D" width="102.611" height="102.611"/>
</g>
<g id="Layer_2">
	<g>
		<path fill="#EC008C" d="M61.093,24.689H60.44v5.672h0.71c0.145,0,0.258-0.031,0.338-0.092s0.141-0.138,0.183-0.229
			c0.042-0.092,0.067-0.193,0.075-0.304c0.007-0.111,0.011-0.216,0.011-0.315v-4.148c0-0.152-0.053-0.288-0.16-0.407
			C61.49,24.748,61.322,24.689,61.093,24.689z"/>
		<path fill="#EC008C" d="M61.671,31.908c-0.042-0.092-0.103-0.168-0.183-0.229c-0.08-0.061-0.193-0.091-0.338-0.091h-0.71v5.958
			h0.653c0.229,0,0.397-0.059,0.504-0.178c0.107-0.118,0.16-0.253,0.16-0.407v-4.434c0-0.099-0.004-0.205-0.011-0.315
			C61.738,32.101,61.713,31.999,61.671,31.908z"/>
		<path fill="#EC008C" d="M75.104,2.747L33.298,44.001h83.612L75.104,2.747z M63.235,29.295c0,0.344-0.032,0.665-0.097,0.962
			c-0.065,0.298-0.212,0.535-0.441,0.71c0.229,0.176,0.376,0.403,0.441,0.682s0.097,0.567,0.097,0.865v4.458
			c0,0.206-0.038,0.418-0.114,0.636c-0.077,0.218-0.201,0.417-0.373,0.596c-0.172,0.179-0.395,0.326-0.67,0.441
			c-0.275,0.115-0.611,0.172-1.008,0.172h-1.845c-0.107,0-0.178-0.019-0.212-0.057s-0.052-0.111-0.052-0.218v-14.85
			c0-0.107,0.018-0.179,0.052-0.218c0.034-0.038,0.105-0.057,0.212-0.057h1.891c0.382,0,0.708,0.057,0.98,0.172
			c0.271,0.114,0.491,0.26,0.659,0.436s0.29,0.374,0.367,0.596c0.076,0.222,0.114,0.436,0.114,0.642V29.295z M72.321,23.933
			c0,0.252-0.059,0.441-0.178,0.567c-0.118,0.126-0.285,0.189-0.498,0.189h-0.676v13.807c0,0.214-0.107,0.321-0.321,0.321h-0.848
			c-0.115,0-0.195-0.025-0.241-0.075c-0.046-0.049-0.069-0.131-0.069-0.246V24.689h-0.733c-0.451,0-0.676-0.252-0.676-0.756v-0.218
			c0-0.199,0.087-0.298,0.263-0.298h3.712c0.176,0,0.264,0.099,0.264,0.298V23.933z M80.57,38.519c0,0.199-0.088,0.298-0.263,0.298
			h-2.899c-0.107,0-0.178-0.021-0.212-0.063s-0.052-0.113-0.052-0.212v-14.85c0-0.107,0.018-0.179,0.052-0.218
			c0.034-0.038,0.104-0.057,0.212-0.057h0.63c0.153,0,0.289,0.053,0.407,0.16c0.118,0.107,0.178,0.241,0.178,0.401v13.566h1.271
			c0.451,0,0.676,0.252,0.676,0.756V38.519z M88.138,24.671c-0.11-0.118-0.277-0.177-0.498-0.177c-0.222,0-0.388,0.059-0.499,0.177
			c-0.11,0.119-0.166,0.254-0.166,0.407v12.077c0,0.153,0.054,0.287,0.16,0.401c0.107,0.114,0.275,0.172,0.505,0.172
			c0.244,0,0.416-0.063,0.516-0.189c0.099-0.126,0.148-0.253,0.148-0.384v-4.148h-0.148c-0.214,0-0.361-0.061-0.441-0.183
			s-0.12-0.306-0.12-0.55v-0.355c0-0.191,0.088-0.287,0.264-0.287h1.673c0.168,0,0.252,0.081,0.252,0.241v5.328
			c0,0.26-0.05,0.502-0.149,0.728c-0.1,0.226-0.244,0.42-0.436,0.584c-0.19,0.165-0.42,0.292-0.688,0.384
			c-0.268,0.092-0.565,0.138-0.894,0.138s-0.622-0.046-0.882-0.138c-0.26-0.091-0.481-0.219-0.665-0.384
			c-0.184-0.164-0.324-0.359-0.424-0.584c-0.1-0.225-0.149-0.468-0.149-0.728v-12.18c0-0.26,0.05-0.5,0.149-0.722
			s0.244-0.415,0.436-0.579c0.19-0.165,0.418-0.294,0.682-0.39s0.563-0.144,0.899-0.144c0.321,0,0.613,0.048,0.877,0.144
			s0.486,0.227,0.67,0.395c0.184,0.168,0.324,0.363,0.424,0.584c0.1,0.222,0.149,0.458,0.149,0.71v4.881
			c0,0.153-0.088,0.229-0.264,0.229h-0.665c-0.053,0-0.112-0.007-0.178-0.023c-0.064-0.015-0.124-0.04-0.177-0.074
			c-0.054-0.035-0.1-0.08-0.138-0.138c-0.038-0.057-0.058-0.124-0.058-0.2v-4.618C88.304,24.926,88.248,24.79,88.138,24.671z"/>
	</g>
	<path fill="#EC008C" d="M33.299,105.746L75.105,147l41.806-41.254H33.299z M67.411,113.196h6.86v-2.124l1.602,0.107
		c-0.018,0.126-0.125,0.216-0.359,0.234v1.782h6.968v3.547h-1.225v-2.431H68.582v2.431h-1.17V113.196z M75.262,117.571
		c-0.577,0.433-1.261,0.864-1.981,1.243c2.485,1.782,3.547,4.087,3.547,5.905c0,1.944-1.225,3.133-3.097,3.133
		c-0.45,0-1.026-0.019-1.621-0.054c-0.018-0.307-0.126-0.811-0.324-1.135c0.667,0.055,1.296,0.072,1.693,0.072
		c0.522,0,0.954-0.036,1.332-0.342c0.504-0.324,0.792-0.99,0.792-1.818c0-0.505-0.107-1.063-0.342-1.657
		c-1.981,1.711-5.078,3.421-7.688,4.286c-0.144-0.307-0.396-0.757-0.648-1.027c2.737-0.738,6.05-2.502,7.868-4.23
		c-0.234-0.379-0.522-0.757-0.846-1.117c-1.548,1.152-3.979,2.395-5.87,3.079c-0.144-0.288-0.414-0.702-0.648-0.954
		c1.908-0.559,4.393-1.729,5.852-2.809c-0.306-0.271-0.648-0.559-1.026-0.828c-1.35,0.63-2.809,1.152-4.177,1.549
		c-0.144-0.234-0.432-0.703-0.612-0.919c2.215-0.558,4.735-1.513,6.5-2.719h-4.267v-1.063h10.317v1.063h-3.799
		c0.36,1.188,0.864,2.323,1.476,3.349c1.189-0.738,2.594-1.746,3.494-2.539l1.098,0.99c-0.072,0.072-0.233,0.091-0.378,0.072
		c-0.918,0.721-2.413,1.675-3.619,2.377c1.296,1.783,3.007,3.151,5.132,3.836c-0.271,0.233-0.612,0.701-0.811,1.025
		C78.916,124.99,76.539,121.677,75.262,117.571z"/>
</g>
<g id="Layer_3">
	
		<rect x="23.612" y="23.572" transform="matrix(0.7071 0.7071 -0.7071 0.7071 74.8884 -31.0435)" fill="none" stroke="#000000" stroke-width="3" stroke-miterlimit="10" width="102.611" height="102.611"/>
</g>
</svg>
