<?xml version="1.0" encoding="utf-8"?>
<!-- Generator: Adobe Illustrator 25.1.0, SVG Export Plug-In . SVG Version: 6.00 Build 0)  -->
<svg version="1.1" id="Capa_1" xmlns="http://www.w3.org/2000/svg" xmlns:xlink="http://www.w3.org/1999/xlink" x="0px" y="0px"
	 viewBox="0 0 1000 1000" style="enable-background:new 0 0 1000 1000;" xml:space="preserve">
<style type="text/css">
	.st0{fill:#FFFFFF;stroke:#000000;stroke-width:4;}
</style>
<g>
	<g>
		<path class="st0" d="M220.85,385.44V493.7h-52.13V335.72h305.54v-94.63l71.37,4.81c-0.8,5.61-5.61,9.62-16.04,10.43v79.39h310.35
			V493.7h-54.53V385.44H220.85z M560.88,515.35c16.04,52.93,38.49,103.45,65.76,149.16c52.93-32.88,115.48-77.79,155.58-113.08
			l48.92,44.11c-3.21,3.21-10.43,4.01-16.84,3.21c-40.9,32.08-107.46,74.58-161.19,105.86c57.74,79.39,133.93,140.34,228.56,170.82
			c-12.03,10.43-27.27,31.28-36.09,45.71c-164.4-60.15-270.26-207.71-327.19-390.55c-25.66,19.25-56.14,38.49-88.21,55.33
			c110.67,79.39,157.98,182.04,157.98,263.04c0,86.61-54.53,139.54-137.93,139.54c-20.05,0-45.71-0.8-72.18-2.41
			c-0.8-13.63-5.61-36.09-14.43-50.52c29.67,2.41,57.74,3.21,75.38,3.21c23.26,0,42.5-1.6,59.34-15.24
			c22.46-14.44,35.29-44.11,35.29-81c0-22.46-4.81-47.31-15.24-73.78c-88.21,76.18-226.15,152.37-342.43,190.86
			c-6.42-13.63-17.64-33.68-28.87-45.71c121.9-32.88,269.45-111.47,350.45-188.46c-10.42-16.84-23.26-33.68-37.69-49.72
			C390.86,727.07,282.6,782.4,198.4,812.88c-6.42-12.83-18.44-31.28-28.87-42.5c85.01-24.86,195.67-76.99,260.63-125.1
			c-13.63-12.03-28.87-24.86-45.71-36.89c-60.15,28.07-125.1,51.32-186.05,68.97c-6.42-10.42-19.25-31.28-27.27-40.9
			c98.64-24.86,210.91-67.36,289.5-121.09H270.57v-47.31h459.51v47.31H560.88z"/>
		<path class="st0" d="M221.02,384.9v108.26h-52.13V335.18h305.54v-94.63l71.37,4.81c-0.8,5.61-5.61,9.62-16.04,10.43v79.39h310.35
			v157.98h-54.53V384.9H221.02z M561.04,514.82c16.04,52.93,38.49,103.45,65.76,149.16c52.93-32.88,115.48-77.79,155.58-113.08
			l48.92,44.11c-3.21,3.21-10.43,4.01-16.84,3.21C773.56,630.3,707,672.8,653.27,704.08c57.74,79.39,133.93,140.34,228.56,170.82
			c-12.03,10.43-27.27,31.28-36.09,45.71c-164.4-60.15-270.26-207.71-327.19-390.55c-25.66,19.25-56.14,38.49-88.21,55.33
			c110.67,79.39,157.98,182.04,157.98,263.04c0,86.61-54.53,139.54-137.93,139.54c-20.05,0-45.71-0.8-72.18-2.41
			c-0.8-13.63-5.61-36.09-14.43-50.52c29.67,2.41,57.74,3.21,75.38,3.21c23.26,0,41.78-2.54,59.34-15.24
			c21.63-15.64,35.29-44.11,35.29-81c0-22.46-4.81-47.31-15.24-73.78c-88.21,76.18-226.15,152.37-342.43,190.86
			c-6.42-13.63-17.64-33.68-28.87-45.71c121.9-32.88,269.45-111.47,350.45-188.46c-10.42-16.84-23.26-33.68-37.69-49.72
			c-68.97,51.32-177.23,106.66-261.43,137.13c-6.42-12.83-18.44-31.28-28.87-42.5c85.01-24.86,195.67-76.99,260.63-125.1
			c-13.63-12.03-28.87-24.86-45.71-36.89c-60.15,28.07-125.1,51.32-186.05,68.97c-6.42-10.42-19.25-31.28-27.27-40.9
			c98.64-24.86,210.91-67.36,289.5-121.09H270.74V467.5h459.51v47.31H561.04z"/>
		<path class="st0" d="M221.5,383.34V491.6h-52.13V333.62h305.54v-94.63l71.37,4.81c-0.8,5.61-5.61,9.62-16.04,10.43v79.39H840.6
			V491.6h-54.53V383.34H221.5z M561.52,513.25c16.04,52.93,38.49,103.45,65.76,149.16c52.93-32.88,115.48-77.79,155.58-113.08
			l48.92,44.11c-3.21,3.21-10.43,4.01-16.84,3.21c-40.9,32.08-107.46,74.58-161.19,105.86c57.74,79.39,133.93,140.34,228.56,170.82
			c-12.03,10.43-27.27,31.28-36.09,45.71c-164.4-60.15-270.26-207.71-327.19-390.55c-25.66,19.25-56.14,38.49-88.21,55.33
			c110.67,79.39,157.98,182.04,157.98,263.04c0,86.61-54.53,139.54-137.93,139.54c-20.05,0-45.71-0.8-72.18-2.41
			c-0.8-13.63-5.61-36.09-14.43-50.52c29.67,2.41,57.74,3.21,75.38,3.21c23.26,0,41.78-2.54,59.34-15.24
			c21.63-15.64,35.29-44.11,35.29-81c0-22.46-4.81-47.31-15.24-73.78c-88.21,76.18-226.15,152.37-342.43,190.86
			c-6.42-13.63-17.64-33.68-28.87-45.71c121.9-32.88,269.45-111.47,350.45-188.46c-10.42-16.84-23.26-33.68-37.69-49.72
			c-68.97,51.32-177.23,106.66-261.43,137.13c-6.42-12.83-18.44-31.28-28.87-42.5c85.01-24.86,195.67-76.99,260.63-125.1
			c-13.63-12.03-28.87-24.86-45.71-36.89c-60.15,28.07-125.1,51.32-186.05,68.97c-6.42-10.42-19.25-31.28-27.27-40.9
			c98.64-24.86,210.91-67.36,289.5-121.09H271.22v-47.31h459.51v47.31H561.52z"/>
		<path class="st0" d="M222.25,380.8v108.26h-52.13V331.08h305.54v-94.63l71.37,4.81c-0.8,5.61-5.61,9.62-16.04,10.43v79.39h310.35
			v157.98h-54.53V380.8H222.25z M562.27,510.72c16.04,52.93,38.49,103.45,65.76,149.16c52.93-32.88,115.48-77.79,155.58-113.08
			l48.92,44.11c-3.21,3.21-10.43,4.01-16.84,3.21c-40.9,32.08-107.46,74.58-161.19,105.86c57.74,79.39,133.93,140.34,228.56,170.82
			c-12.03,10.43-27.27,31.28-36.09,45.71c-164.4-60.15-270.26-207.71-327.19-390.55c-25.66,19.25-56.14,38.49-88.21,55.33
			c110.67,79.39,157.98,182.04,157.98,263.04c0,86.61-54.53,139.54-137.93,139.54c-20.05,0-45.71-0.8-72.18-2.41
			c-0.8-13.63-5.61-36.09-14.43-50.52c29.67,2.41,57.74,3.21,75.38,3.21c23.26,0,41.78-2.54,59.34-15.24
			c21.63-15.64,35.29-44.11,35.29-81c0-22.46-4.81-47.31-15.24-73.78C431.56,840.32,293.62,916.5,177.34,955
			c-6.42-13.63-17.64-33.68-28.87-45.71c121.9-32.88,269.45-111.47,350.45-188.46c-10.42-16.84-23.26-33.68-37.69-49.72
			C392.26,722.43,284,777.77,199.79,808.24c-6.42-12.83-18.44-31.28-28.87-42.5c85.01-24.86,195.67-76.99,260.63-125.1
			c-13.63-12.03-28.87-24.86-45.71-36.89c-60.15,28.07-125.1,51.32-186.05,68.97c-6.42-10.42-19.25-31.28-27.27-40.9
			c98.64-24.86,210.91-67.36,289.5-121.09H271.97V463.4h459.51v47.31H562.27z"/>
		<path class="st0" d="M223.25,377.35v108.26h-52.13V327.63h305.54V233l71.37,4.81c-0.8,5.61-5.61,9.62-16.04,10.43v79.39h310.35
			v157.98h-54.53V377.35H223.25z M563.27,507.27c16.04,52.93,38.49,103.45,65.76,149.16c52.93-32.88,115.48-77.79,155.58-113.08
			l48.92,44.11c-3.21,3.21-10.43,4.01-16.84,3.21c-40.9,32.08-107.46,74.58-161.19,105.86c57.74,79.39,133.93,140.34,228.56,170.82
			c-12.03,10.43-27.27,31.28-36.09,45.71c-164.4-60.15-270.26-207.71-327.19-390.55c-25.66,19.25-56.14,38.49-88.21,55.33
			c110.67,79.39,157.98,182.04,157.98,263.04c0,86.61-54.53,139.54-137.93,139.54c-20.05,0-45.71-0.8-72.18-2.41
			c-0.8-13.63-5.61-36.09-14.43-50.52c29.67,2.41,57.74,3.21,75.38,3.21c23.26,0,41.78-2.54,59.34-15.24
			c21.63-15.64,35.29-44.11,35.29-81c0-22.46-4.81-47.31-15.24-73.78c-88.21,76.18-226.15,152.37-342.43,190.86
			c-6.42-13.63-17.64-33.68-28.87-45.71c121.9-32.88,269.45-111.47,350.45-188.46c-10.42-16.84-23.26-33.68-37.69-49.72
			C393.26,718.98,285,774.32,200.79,804.79c-6.42-12.83-18.44-31.28-28.87-42.5c85.01-24.86,195.67-76.99,260.63-125.1
			c-13.63-12.03-28.87-24.86-45.71-36.89c-60.15,28.07-125.1,51.32-186.05,68.97c-6.42-10.42-19.25-31.28-27.27-40.9
			c98.64-24.86,210.91-67.36,289.5-121.09H272.97v-47.31h459.51v47.31H563.27z"/>
		<path class="st0" d="M224.46,373.05v108.26h-52.13V323.33h305.54V228.7l71.37,4.81c-0.8,5.61-5.61,9.62-16.04,10.43v79.39h310.35
			v157.98h-54.53V373.05H224.46z M564.48,502.97c16.04,52.93,38.49,103.45,65.76,149.16c52.93-32.88,115.48-77.79,155.58-113.08
			l48.92,44.11c-3.21,3.21-10.43,4.01-16.84,3.21c-40.9,32.08-107.46,74.58-161.19,105.86c57.74,79.39,133.93,140.34,228.56,170.82
			c-12.03,10.43-27.27,31.28-36.09,45.71c-164.4-60.15-270.26-207.71-327.19-390.55c-25.66,19.25-56.14,38.49-88.21,55.33
			c110.67,79.39,157.98,182.04,157.98,263.04c0,86.61-54.53,139.54-137.93,139.54c-20.05,0-45.71-0.8-72.18-2.41
			c-0.8-13.63-5.61-36.09-14.43-50.52c29.67,2.41,57.74,3.21,75.38,3.21c23.26,0,41.78-2.54,59.34-15.24
			c21.63-15.64,35.29-44.11,35.29-81c0-22.46-4.81-47.31-15.24-73.78c-88.21,76.18-226.15,152.37-342.43,190.86
			c-6.42-13.63-17.64-33.68-28.87-45.71c121.9-32.88,269.45-111.47,350.45-188.46c-10.42-16.84-23.26-33.68-37.69-49.72
			C394.47,714.68,286.21,770.02,202,800.49c-6.42-12.83-18.44-31.28-28.87-42.5c85.01-24.86,195.67-76.99,260.63-125.1
			c-13.63-12.03-28.87-24.86-45.71-36.89c-60.15,28.07-125.1,51.32-186.05,68.97c-6.42-10.42-19.25-31.28-27.27-40.9
			c98.64-24.86,210.91-67.36,289.5-121.09H274.18v-47.31h459.51v47.31H564.48z"/>
		<path class="st0" d="M225.85,367.96v108.26h-52.13V318.24h305.54v-94.63l71.37,4.81c-0.8,5.61-5.61,9.62-16.04,10.43v79.39h310.35
			v157.98h-54.53V367.96H225.85z M565.87,497.87c16.04,52.93,38.49,103.45,65.76,149.16c52.93-32.88,115.48-77.79,155.58-113.08
			l48.92,44.11c-3.21,3.21-10.43,4.01-16.84,3.21c-40.9,32.08-107.46,74.58-161.19,105.86c57.74,79.39,133.93,140.34,228.56,170.82
			c-12.03,10.43-27.27,31.28-36.09,45.71c-164.4-60.15-270.26-207.71-327.19-390.55c-25.66,19.25-56.14,38.49-88.21,55.33
			c110.67,79.39,157.98,182.04,157.98,263.04c0,86.61-54.53,139.54-137.93,139.54c-20.05,0-45.71-0.8-72.18-2.41
			c-0.8-13.63-5.61-36.09-14.43-50.52c29.67,2.41,57.74,3.21,75.38,3.21c23.26,0,41.78-2.54,59.34-15.24
			c21.63-15.64,35.29-44.11,35.29-81c0-22.46-4.81-47.31-15.24-73.78c-88.21,76.18-226.15,152.37-342.43,190.86
			c-6.42-13.63-17.64-33.68-28.87-45.71c121.9-32.88,269.45-111.47,350.45-188.46c-10.42-16.84-23.26-33.68-37.69-49.72
			c-68.97,51.32-177.23,106.66-261.43,137.13c-6.42-12.83-18.44-31.28-28.87-42.5c85.01-24.86,195.67-76.99,260.63-125.1
			c-13.63-12.03-28.87-24.86-45.71-36.89c-60.15,28.07-125.1,51.32-186.05,68.97c-6.42-10.42-19.25-31.28-27.27-40.9
			c98.64-24.86,210.91-67.36,289.5-121.09H275.57v-47.31h459.51v47.31H565.87z"/>
		<path class="st0" d="M227.38,362.13v108.26h-52.13V312.41h305.54v-94.63l71.37,4.81c-0.8,5.61-5.61,9.62-16.04,10.43v79.39h310.35
			v157.98h-54.53V362.13H227.38z M567.4,492.05c16.04,52.93,38.49,103.45,65.76,149.16c52.93-32.88,115.48-77.79,155.58-113.08
			l48.92,44.11c-3.21,3.21-10.43,4.01-16.84,3.21c-40.9,32.08-107.46,74.58-161.19,105.86c57.74,79.39,133.93,140.34,228.56,170.82
			c-12.03,10.43-27.27,31.28-36.09,45.71c-164.4-60.15-270.26-207.71-327.19-390.55c-25.66,19.25-56.14,38.49-88.21,55.33
			c110.67,79.39,157.98,182.04,157.98,263.04c0,86.61-54.53,139.54-137.93,139.54c-20.05,0-45.71-0.8-72.18-2.41
			c-0.8-13.63-5.61-36.09-14.43-50.52c29.67,2.41,57.74,3.21,75.38,3.21c23.26,0,41.78-2.54,59.34-15.24
			c21.63-15.64,35.29-44.11,35.29-81c0-22.46-4.81-47.31-15.24-73.78c-88.21,76.18-226.15,152.37-342.43,190.86
			c-6.42-13.63-17.64-33.68-28.87-45.71c121.9-32.88,269.45-111.47,350.45-188.46c-10.42-16.84-23.26-33.68-37.69-49.72
			c-68.97,51.32-177.23,106.66-261.43,137.13c-6.42-12.83-18.44-31.28-28.87-42.5c85.01-24.86,195.67-76.99,260.63-125.1
			c-13.63-12.03-28.87-24.86-45.71-36.89c-60.15,28.07-125.1,51.32-186.05,68.97c-6.42-10.42-19.25-31.28-27.27-40.9
			c98.64-24.86,210.91-67.36,289.5-121.09H277.1v-47.31h459.51v47.31H567.4z"/>
		<path class="st0" d="M229.02,355.63v108.26h-52.13V305.91h305.54v-94.63l71.37,4.81c-0.8,5.61-5.61,9.62-16.04,10.43v79.39h310.35
			v157.98h-54.53V355.63H229.02z M569.04,485.54c16.04,52.93,38.49,103.45,65.76,149.16c52.93-32.88,115.48-77.79,155.58-113.08
			l48.92,44.11c-3.21,3.21-10.43,4.01-16.84,3.21C781.56,601.02,715,643.53,661.27,674.8c57.74,79.39,133.93,140.34,228.56,170.82
			c-12.03,10.43-27.27,31.28-36.09,45.71c-164.4-60.15-270.26-207.71-327.19-390.55c-25.66,19.25-56.14,38.49-88.21,55.33
			c110.67,79.39,157.98,182.04,157.98,263.04c0,86.61-54.53,139.54-137.93,139.54c-20.05,0-45.71-0.8-72.18-2.41
			c-0.8-13.63-5.61-36.09-14.43-50.52c29.67,2.41,57.74,3.21,75.38,3.21c23.26,0,41.78-2.54,59.34-15.24
			c21.63-15.64,35.29-44.11,35.29-81c0-22.46-4.81-47.31-15.24-73.78c-88.21,76.18-226.15,152.37-342.43,190.86
			c-6.42-13.63-17.64-33.68-28.87-45.71c121.9-32.88,269.45-111.47,350.45-188.46c-10.42-16.84-23.26-33.68-37.69-49.72
			c-68.97,51.32-177.23,106.66-261.43,137.13c-6.42-12.83-18.44-31.28-28.87-42.5c85.01-24.86,195.67-76.99,260.63-125.1
			c-13.63-12.03-28.87-24.86-45.71-36.89c-60.15,28.07-125.1,51.32-186.05,68.97c-6.42-10.42-19.25-31.28-27.27-40.9
			c98.64-24.86,210.91-67.36,289.5-121.09H278.74v-47.31h459.51v47.31H569.04z"/>
		<path class="st0" d="M230.74,348.51v108.26h-52.13V298.79h305.54v-94.63l71.37,4.81c-0.8,5.61-5.61,9.62-16.04,10.43v79.39h310.35
			v157.98h-54.53V348.51H230.74z M570.76,478.42c16.04,52.93,38.49,103.45,65.76,149.16C689.45,594.71,752,549.8,792.1,514.51
			l48.92,44.11c-3.21,3.21-10.43,4.01-16.84,3.21c-40.9,32.08-107.46,74.58-161.19,105.86c57.74,79.39,133.93,140.34,228.56,170.82
			c-12.03,10.43-27.27,31.28-36.09,45.71C691.06,824.06,585.2,676.5,528.26,493.66c-25.66,19.25-56.14,38.49-88.21,55.33
			c110.67,79.39,157.98,182.04,157.98,263.04c0,86.61-54.53,139.54-137.93,139.54c-20.05,0-45.71-0.8-72.18-2.41
			c-0.8-13.63-5.61-36.09-14.43-50.52c29.67,2.41,57.74,3.21,75.38,3.21c23.26,0,41.78-2.54,59.34-15.24
			c21.63-15.64,35.29-44.11,35.29-81c0-22.46-4.81-47.31-15.24-73.78c-88.21,76.18-226.15,152.37-342.43,190.86
			c-6.42-13.63-17.64-33.68-28.87-45.71c121.9-32.88,269.45-111.47,350.45-188.46c-10.42-16.84-23.26-33.68-37.69-49.72
			c-68.97,51.32-177.23,106.66-261.43,137.13c-6.42-12.83-18.44-31.28-28.87-42.5c85.01-24.86,195.67-76.99,260.63-125.1
			c-13.63-12.03-28.87-24.86-45.71-36.89c-60.15,28.07-125.1,51.32-186.05,68.97c-6.42-10.42-19.25-31.28-27.27-40.9
			c98.64-24.86,210.91-67.36,289.5-121.09H280.46v-47.31h459.51v47.31H570.76z"/>
		<path class="st0" d="M232.5,340.83v108.26h-52.13V291.11h305.54v-94.63l71.37,4.81c-0.8,5.61-5.61,9.62-16.04,10.43v79.39h310.35
			v157.98h-54.53V340.83H232.5z M572.53,470.75c16.04,52.93,38.49,103.45,65.76,149.16c52.93-32.88,115.48-77.79,155.58-113.08
			l48.92,44.11c-3.21,3.21-10.43,4.01-16.84,3.21c-40.9,32.08-107.46,74.58-161.19,105.86c57.74,79.39,133.93,140.34,228.56,170.82
			c-12.03,10.43-27.27,31.28-36.09,45.71c-164.4-60.15-270.26-207.71-327.19-390.55c-25.66,19.25-56.14,38.49-88.21,55.33
			c110.67,79.39,157.98,182.04,157.98,263.04c0,86.61-54.53,139.54-137.93,139.54c-20.05,0-45.71-0.8-72.18-2.41
			c-0.8-13.63-5.61-36.09-14.43-50.52c29.67,2.41,57.74,3.21,75.38,3.21c23.26,0,41.78-2.54,59.34-15.24
			c21.63-15.64,35.29-44.11,35.29-81c0-22.46-4.81-47.31-15.24-73.78c-88.21,76.18-226.15,152.37-342.43,190.86
			c-6.42-13.63-17.64-33.68-28.87-45.71c121.9-32.88,269.45-111.47,350.45-188.46c-10.42-16.84-23.26-33.68-37.69-49.72
			c-68.97,51.32-177.23,106.66-261.43,137.13c-6.42-12.83-18.44-31.28-28.87-42.5c85.01-24.86,195.67-76.99,260.63-125.1
			c-13.63-12.03-28.87-24.86-45.71-36.89c-60.15,28.07-125.1,51.32-186.05,68.97c-6.42-10.42-19.25-31.28-27.27-40.9
			c98.64-24.86,210.91-67.36,289.5-121.09H282.22v-47.31h459.51v47.31H572.53z"/>
		<path class="st0" d="M234.28,332.66v108.26h-52.13V282.94h305.54v-94.63l71.37,4.81c-0.8,5.61-5.61,9.62-16.04,10.43v79.39h310.35
			v157.98h-54.53V332.66H234.28z M574.3,462.57c16.04,52.93,38.49,103.45,65.76,149.16c52.93-32.88,115.48-77.79,155.58-113.08
			l48.92,44.11c-3.21,3.21-10.43,4.01-16.84,3.21c-40.9,32.08-107.46,74.58-161.19,105.86c57.74,79.39,133.93,140.34,228.56,170.82
			c-12.03,10.43-27.27,31.28-36.09,45.71C694.6,808.21,588.74,660.65,531.8,477.81c-25.66,19.25-56.14,38.49-88.21,55.33
			c110.67,79.39,157.98,182.04,157.98,263.04c0,86.61-54.53,139.54-137.93,139.54c-20.05,0-45.71-0.8-72.18-2.41
			c-0.8-13.63-5.61-36.09-14.43-50.52c29.67,2.41,57.74,3.21,75.38,3.21c23.26,0,41.78-2.54,59.34-15.24
			c21.63-15.64,35.29-44.11,35.29-81c0-22.46-4.81-47.31-15.24-73.78c-88.21,76.18-226.15,152.37-342.43,190.86
			c-6.42-13.63-17.64-33.68-28.87-45.71c121.9-32.88,269.45-111.47,350.45-188.46c-10.42-16.84-23.26-33.68-37.69-49.72
			c-68.97,51.32-177.23,106.66-261.43,137.13c-6.42-12.83-18.44-31.28-28.87-42.5c85.01-24.86,195.67-76.99,260.63-125.1
			c-13.63-12.03-28.87-24.86-45.71-36.89c-60.15,28.07-125.1,51.32-186.05,68.97c-6.42-10.42-19.25-31.28-27.27-40.9
			c98.64-24.86,210.91-67.36,289.5-121.09H284v-47.31h459.51v47.31H574.3z"/>
		<path class="st0" d="M236.03,324.05v108.26h-52.13V274.32h305.54v-94.63l71.37,4.81c-0.8,5.61-5.61,9.62-16.04,10.43v79.39h310.35
			v157.98H800.6V324.05H236.03z M576.06,453.96c16.04,52.93,38.49,103.45,65.76,149.16c52.93-32.88,115.48-77.79,155.58-113.08
			l48.92,44.11c-3.21,3.21-10.43,4.01-16.84,3.21c-40.9,32.08-107.46,74.58-161.19,105.86c57.74,79.39,133.93,140.34,228.56,170.82
			c-12.03,10.43-27.27,31.28-36.09,45.71C696.35,799.6,590.49,652.04,533.55,469.2c-25.66,19.25-56.14,38.49-88.21,55.33
			c110.67,79.39,157.98,182.04,157.98,263.04c0,86.61-54.53,139.54-137.93,139.54c-20.05,0-45.71-0.8-72.18-2.41
			c-0.8-13.63-5.61-36.09-14.43-50.52c29.67,2.41,57.74,3.21,75.38,3.21c23.26,0,41.78-2.54,59.34-15.24
			c21.63-15.64,35.29-44.11,35.29-81c0-22.46-4.81-47.31-15.24-73.78c-88.21,76.18-226.15,152.37-342.43,190.86
			c-6.42-13.63-17.64-33.68-28.87-45.71c121.9-32.88,269.45-111.47,350.45-188.46c-10.42-16.84-23.26-33.68-37.69-49.72
			c-68.97,51.32-177.23,106.66-261.43,137.13c-6.42-12.83-18.44-31.28-28.87-42.5c85.01-24.86,195.67-76.99,260.63-125.1
			c-13.63-12.03-28.87-24.86-45.71-36.89c-60.15,28.07-125.1,51.32-186.05,68.97c-6.42-10.42-19.25-31.28-27.27-40.9
			c98.64-24.86,210.91-67.36,289.5-121.09H285.75v-47.31h459.51v47.31H576.06z"/>
		<path class="st0" d="M237.73,315.05v108.26H185.6V265.33h305.54V170.7l71.37,4.81c-0.8,5.61-5.61,9.62-16.04,10.43v79.39h310.35
			v157.98H802.3V315.05H237.73z M577.76,444.97c16.04,52.93,38.49,103.45,65.76,149.16c52.93-32.88,115.48-77.79,155.58-113.08
			l48.92,44.11c-3.21,3.21-10.43,4.01-16.84,3.21c-40.9,32.08-107.46,74.58-161.19,105.86c57.74,79.39,133.93,140.34,228.56,170.82
			c-12.03,10.43-27.27,31.28-36.09,45.71c-164.4-60.15-270.26-207.71-327.19-390.55c-25.66,19.25-56.14,38.49-88.21,55.33
			c110.67,79.39,157.98,182.04,157.98,263.04c0,86.61-54.53,139.54-137.93,139.54c-20.05,0-45.71-0.8-72.18-2.41
			c-0.8-13.63-5.61-36.09-14.43-50.52c29.67,2.41,57.74,3.21,75.38,3.21c23.26,0,41.78-2.54,59.34-15.24
			c21.63-15.64,35.29-44.11,35.29-81c0-22.46-4.81-47.31-15.24-73.78c-88.21,76.18-226.15,152.37-342.43,190.86
			c-6.42-13.63-17.64-33.68-28.87-45.71c121.9-32.88,269.45-111.47,350.45-188.46c-10.42-16.84-23.26-33.68-37.69-49.72
			c-68.97,51.32-177.23,106.66-261.43,137.13c-6.42-12.83-18.44-31.28-28.87-42.5c85.01-24.86,195.67-76.99,260.63-125.1
			c-13.63-12.03-28.87-24.86-45.71-36.89c-60.15,28.07-125.1,51.32-186.05,68.97c-6.42-10.42-19.25-31.28-27.27-40.9
			c98.64-24.86,210.91-67.36,289.5-121.09H287.45v-47.31h459.51v47.31H577.76z"/>
		<path class="st0" d="M239.34,305.74v108.26h-52.13V256.02h305.54v-94.63l71.37,4.81c-0.8,5.61-5.61,9.62-16.04,10.43v79.39h310.35
			v157.98h-54.53V305.74H239.34z M579.36,435.66c16.04,52.93,38.49,103.45,65.76,149.16c52.93-32.88,115.48-77.79,155.58-113.08
			l48.92,44.11c-3.21,3.21-10.43,4.01-16.84,3.21c-40.9,32.08-107.46,74.58-161.19,105.86c57.74,79.39,133.93,140.34,228.56,170.82
			c-12.03,10.43-27.27,31.28-36.09,45.71C699.66,781.3,593.8,633.74,536.86,450.9c-25.66,19.25-56.14,38.49-88.21,55.33
			c110.67,79.39,157.98,182.04,157.98,263.04c0,86.61-54.53,139.54-137.93,139.54c-20.05,0-45.71-0.8-72.18-2.41
			c-0.8-13.63-5.61-36.09-14.43-50.52c29.67,2.41,57.74,3.21,75.38,3.21c23.26,0,41.78-2.54,59.34-15.24
			c21.63-15.64,35.29-44.11,35.29-81c0-22.46-4.81-47.31-15.24-73.78c-88.21,76.18-226.15,152.37-342.43,190.86
			c-6.42-13.63-17.64-33.68-28.87-45.71c121.9-32.88,269.45-111.47,350.45-188.46c-10.42-16.84-23.26-33.68-37.69-49.72
			c-68.97,51.32-177.23,106.66-261.43,137.13c-6.42-12.83-18.44-31.28-28.87-42.5c85.01-24.86,195.67-76.99,260.63-125.1
			c-13.63-12.03-28.87-24.86-45.71-36.89c-60.15,28.07-125.1,51.32-186.05,68.97c-6.42-10.42-19.25-31.28-27.27-40.9
			c98.64-24.86,210.91-67.36,289.5-121.09H289.06v-47.31h459.51v47.31H579.36z"/>
		<path class="st0" d="M240.83,296.17v108.26H188.7V246.45h305.54v-94.63l71.37,4.81c-0.8,5.61-5.61,9.62-16.04,10.43v79.39h310.35
			v157.98H805.4V296.17H240.83z M580.85,426.09c16.04,52.93,38.49,103.45,65.76,149.16c52.93-32.88,115.48-77.79,155.58-113.08
			l48.92,44.11c-3.21,3.21-10.43,4.01-16.84,3.21c-40.9,32.08-107.46,74.58-161.19,105.86C730.82,694.74,807,755.69,901.63,786.16
			c-12.03,10.43-27.27,31.28-36.09,45.71c-164.4-60.15-270.26-207.71-327.19-390.55c-25.66,19.25-56.14,38.49-88.21,55.33
			C560.8,576.05,608.12,678.7,608.12,759.7c0,86.61-54.53,139.54-137.93,139.54c-20.05,0-45.71-0.8-72.18-2.41
			c-0.8-13.63-5.61-36.09-14.43-50.52c29.67,2.41,57.74,3.21,75.38,3.21c23.26,0,41.78-2.54,59.34-15.24
			c21.63-15.64,35.29-44.11,35.29-81c0-22.46-4.81-47.31-15.24-73.78c-88.21,76.18-226.15,152.37-342.43,190.86
			c-6.42-13.63-17.64-33.68-28.87-45.71C288.94,791.77,436.5,713.18,517.5,636.2c-10.42-16.84-23.26-33.68-37.69-49.72
			c-68.97,51.32-177.23,106.66-261.43,137.13c-6.42-12.83-18.44-31.28-28.87-42.5c85.01-24.86,195.67-76.99,260.63-125.1
			c-13.63-12.03-28.87-24.86-45.71-36.89c-60.15,28.07-125.1,51.32-186.05,68.97c-6.42-10.42-19.25-31.28-27.27-40.9
			c98.64-24.86,210.91-67.36,289.5-121.09H290.55v-47.31h459.51v47.31H580.85z"/>
		<path class="st0" d="M242.16,286.4v108.26h-52.13V236.68h305.54v-94.63l71.37,4.81c-0.8,5.61-5.61,9.62-16.04,10.43v79.39h310.35
			v157.98h-54.53V286.4H242.16z M582.18,416.31c16.04,52.93,38.49,103.45,65.76,149.16c52.93-32.88,115.48-77.79,155.58-113.08
			l48.92,44.11c-3.21,3.21-10.43,4.01-16.84,3.21c-40.9,32.08-107.46,74.58-161.19,105.86c57.74,79.39,133.93,140.34,228.56,170.82
			c-12.03,10.43-27.27,31.28-36.09,45.71c-164.4-60.15-270.26-207.71-327.19-390.55c-25.66,19.25-56.14,38.49-88.21,55.33
			c110.67,79.39,157.98,182.04,157.98,263.04c0,86.61-54.53,139.54-137.93,139.54c-20.05,0-45.71-0.8-72.18-2.41
			c-0.8-13.63-5.61-36.09-14.43-50.52c29.67,2.41,57.74,3.21,75.38,3.21c23.26,0,41.78-2.54,59.34-15.24
			c21.63-15.64,35.29-44.11,35.29-81c0-22.46-4.81-47.31-15.24-73.78c-88.21,76.18-226.15,152.37-342.43,190.86
			c-6.42-13.63-17.64-33.68-28.87-45.71C290.28,782,437.83,703.41,518.83,626.42c-10.42-16.84-23.26-33.68-37.69-49.72
			c-68.97,51.32-177.23,106.66-261.43,137.13c-6.42-12.83-18.44-31.28-28.87-42.5c85.01-24.86,195.67-76.99,260.63-125.1
			c-13.63-12.03-28.87-24.86-45.71-36.89c-60.15,28.07-125.1,51.32-186.05,68.97c-6.42-10.42-19.25-31.28-27.27-40.9
			c98.64-24.86,210.91-67.36,289.5-121.09H291.88V369h459.51v47.31H582.18z"/>
		<path class="st0" d="M243.3,276.48v108.26h-52.13V226.76h305.54v-94.63l71.37,4.81c-0.8,5.61-5.61,9.62-16.04,10.43v79.39H862.4
			v157.98h-54.53V276.48H243.3z M583.33,406.4c16.04,52.93,38.49,103.45,65.76,149.16c52.93-32.88,115.48-77.79,155.58-113.08
			l48.92,44.11c-3.21,3.21-10.43,4.01-16.84,3.21c-40.9,32.08-107.46,74.58-161.19,105.86C733.29,675.05,809.47,736,904.11,766.47
			c-12.03,10.43-27.27,31.28-36.09,45.71c-164.4-60.15-270.26-207.71-327.19-390.55c-25.66,19.25-56.14,38.49-88.21,55.33
			c110.67,79.39,157.98,182.04,157.98,263.04c0,86.61-54.53,139.54-137.93,139.54c-20.05,0-45.71-0.8-72.18-2.41
			c-0.8-13.63-5.61-36.09-14.43-50.52c29.67,2.41,57.74,3.21,75.38,3.21c23.26,0,41.78-2.54,59.34-15.24
			c21.63-15.64,35.29-44.11,35.29-81c0-22.46-4.81-47.31-15.24-73.78C452.61,736,314.67,812.18,198.39,850.68
			c-6.42-13.63-17.64-33.68-28.87-45.71c121.9-32.88,269.45-111.47,350.45-188.46c-10.42-16.84-23.26-33.68-37.69-49.72
			c-68.97,51.32-177.23,106.66-261.43,137.13c-6.42-12.83-18.44-31.28-28.87-42.5c85.01-24.86,195.67-76.99,260.63-125.1
			c-13.63-12.03-28.87-24.86-45.71-36.89c-60.15,28.07-125.1,51.32-186.05,68.97c-6.42-10.42-19.25-31.28-27.27-40.9
			c98.64-24.86,210.91-67.36,289.5-121.09H293.02v-47.31h459.51v47.31H583.33z"/>
		<path class="st0" d="M244.22,266.48v108.26H192.1V216.76h305.54v-94.63l71.37,4.81c-0.8,5.61-5.61,9.62-16.04,10.43v79.39h310.35
			v157.98h-54.53V266.48H244.22z M584.25,396.4c16.04,52.93,38.49,103.45,65.76,149.16c52.93-32.88,115.48-77.79,155.58-113.08
			l48.92,44.11c-3.21,3.21-10.43,4.01-16.84,3.21c-40.9,32.08-107.46,74.58-161.19,105.86C734.21,665.05,810.4,726,905.03,756.47
			c-12.03,10.43-27.27,31.28-36.09,45.71c-164.4-60.15-270.26-207.71-327.19-390.55c-25.66,19.25-56.14,38.49-88.21,55.33
			c110.67,79.39,157.98,182.04,157.98,263.04c0,86.61-54.53,139.54-137.93,139.54c-20.05,0-45.71-0.8-72.18-2.41
			c-0.8-13.63-5.61-36.09-14.43-50.52c29.67,2.41,57.74,3.21,75.38,3.21c23.26,0,41.78-2.54,59.34-15.24
			c21.63-15.64,35.29-44.11,35.29-81c0-22.46-4.81-47.31-15.24-73.78C453.53,726,315.6,802.18,199.31,840.68
			c-6.42-13.63-17.64-33.68-28.87-45.71c121.9-32.88,269.45-111.47,350.45-188.46c-10.42-16.84-23.26-33.68-37.69-49.72
			c-68.97,51.32-177.23,106.66-261.43,137.13c-6.42-12.83-18.44-31.28-28.87-42.5c85.01-24.86,195.67-76.99,260.63-125.1
			c-13.63-12.03-28.87-24.86-45.71-36.89c-60.15,28.07-125.1,51.32-186.05,68.97c-6.42-10.42-19.25-31.28-27.27-40.9
			c98.64-24.86,210.91-67.36,289.5-121.09H293.94v-47.31h459.51v47.31H584.25z"/>
		<path class="st0" d="M244.89,256.46v108.26h-52.13V206.74H498.3v-94.63l71.37,4.81c-0.8,5.61-5.61,9.62-16.04,10.43v79.39h310.35
			v157.98h-54.53V256.46H244.89z M584.91,386.37c16.04,52.93,38.49,103.45,65.76,149.16c52.93-32.88,115.48-77.79,155.58-113.08
			l48.92,44.11c-3.21,3.21-10.43,4.01-16.84,3.21c-40.9,32.08-107.46,74.58-161.19,105.86c57.74,79.39,133.93,140.34,228.56,170.82
			c-12.03,10.43-27.27,31.28-36.09,45.71c-164.4-60.15-270.26-207.71-327.19-390.55c-25.66,19.25-56.14,38.49-88.21,55.33
			c110.67,79.39,157.98,182.04,157.98,263.04c0,86.61-54.53,139.54-137.93,139.54c-20.05,0-45.71-0.8-72.18-2.41
			c-0.8-13.63-5.61-36.09-14.43-50.52c29.67,2.41,57.74,3.21,75.38,3.21c23.26,0,41.78-2.54,59.34-15.24
			c21.63-15.64,35.29-44.11,35.29-81c0-22.46-4.81-47.31-15.24-73.78c-88.21,76.18-226.15,152.37-342.43,190.86
			c-6.42-13.63-17.64-33.68-28.87-45.71c121.9-32.88,269.45-111.47,350.45-188.46c-10.42-16.84-23.26-33.68-37.69-49.72
			C414.9,598.09,306.64,653.42,222.43,683.9c-6.42-12.83-18.44-31.28-28.87-42.5c85.01-24.86,195.67-76.99,260.63-125.1
			c-13.63-12.03-28.87-24.86-45.71-36.89c-60.15,28.07-125.1,51.32-186.05,68.97c-6.42-10.42-19.25-31.28-27.27-40.9
			c98.64-24.86,210.91-67.36,289.5-121.09H294.61v-47.31h459.51v47.31H584.91z"/>
		<path class="st0" d="M245.27,246.47v108.26h-52.13V196.75h305.54v-94.63l71.37,4.81c-0.8,5.61-5.61,9.62-16.04,10.43v79.39h310.35
			v157.98h-54.53V246.47H245.27z M585.29,376.39c16.04,52.93,38.49,103.45,65.76,149.16c52.93-32.88,115.48-77.79,155.58-113.08
			l48.92,44.11c-3.21,3.21-10.43,4.01-16.84,3.21c-40.9,32.08-107.46,74.58-161.19,105.86c57.74,79.39,133.93,140.34,228.56,170.82
			c-12.03,10.43-27.27,31.28-36.09,45.71c-164.4-60.15-270.26-207.71-327.19-390.55c-25.66,19.25-56.14,38.49-88.21,55.33
			C565.24,526.35,612.56,629,612.56,710c0,86.61-54.53,139.54-137.93,139.54c-20.05,0-45.71-0.8-72.18-2.41
			c-0.8-13.63-5.61-36.09-14.43-50.52c29.67,2.41,57.74,3.21,75.38,3.21c23.26,0,41.78-2.54,59.34-15.24
			c21.63-15.64,35.29-44.11,35.29-81c0-22.46-4.81-47.31-15.24-73.78c-88.21,76.18-226.15,152.37-342.43,190.86
			c-6.42-13.63-17.64-33.68-28.87-45.71c121.9-32.88,269.45-111.47,350.45-188.46c-10.42-16.84-23.26-33.68-37.69-49.72
			c-68.97,51.32-177.23,106.66-261.43,137.13c-6.42-12.83-18.44-31.28-28.87-42.5c85.01-24.86,195.67-76.99,260.63-125.1
			c-13.63-12.03-28.87-24.86-45.71-36.89c-60.15,28.07-125.1,51.32-186.05,68.97c-6.42-10.42-19.25-31.28-27.27-40.9
			c98.64-24.86,210.91-67.36,289.5-121.09H294.99v-47.31H754.5v47.31H585.29z"/>
		<path class="st0" d="M245.32,236.58v108.26h-52.13V186.85h305.54V92.23l71.37,4.81c-0.8,5.61-5.61,9.62-16.04,10.43v79.39h310.35
			v157.98h-54.53V236.58H245.32z M585.35,366.49c16.04,52.93,38.49,103.45,65.76,149.16c52.93-32.88,115.48-77.79,155.58-113.08
			l48.92,44.11c-3.21,3.21-10.43,4.01-16.84,3.21c-40.9,32.08-107.46,74.58-161.19,105.86c57.74,79.39,133.93,140.34,228.56,170.82
			c-12.03,10.43-27.27,31.28-36.09,45.71c-164.4-60.15-270.26-207.71-327.19-390.55c-25.66,19.25-56.14,38.49-88.21,55.33
			C565.3,516.46,612.61,619.1,612.61,700.1c0,86.61-54.53,139.54-137.93,139.54c-20.05,0-45.71-0.8-72.18-2.41
			c-0.8-13.63-5.61-36.09-14.43-50.52c29.67,2.41,57.74,3.21,75.38,3.21c23.26,0,41.78-2.54,59.34-15.24
			c21.63-15.64,35.29-44.11,35.29-81c0-22.46-4.81-47.31-15.24-73.78c-88.21,76.18-226.15,152.37-342.43,190.86
			c-6.42-13.63-17.64-33.68-28.87-45.71C293.44,732.18,441,653.59,521.99,576.6c-10.42-16.84-23.26-33.68-37.69-49.72
			c-68.97,51.32-177.23,106.66-261.43,137.13c-6.42-12.83-18.44-31.28-28.87-42.5c85.01-24.86,195.67-76.99,260.63-125.1
			c-13.63-12.03-28.87-24.86-45.71-36.89c-60.15,28.07-125.1,51.32-186.05,68.97c-6.42-10.42-19.25-31.28-27.27-40.9
			c98.64-24.86,210.91-67.36,289.5-121.09H295.04v-47.31h459.51v47.31H585.35z"/>
		<path class="st0" d="M245.02,226.84V335.1h-52.13V177.11h305.54V82.48l71.37,4.81c-0.8,5.61-5.61,9.62-16.04,10.43v79.39h310.35
			V335.1h-54.53V226.84H245.02z M585.05,356.75c16.04,52.93,38.49,103.45,65.76,149.16c52.93-32.88,115.48-77.79,155.58-113.08
			l48.92,44.11c-3.21,3.21-10.43,4.01-16.84,3.21c-40.9,32.08-107.46,74.58-161.19,105.86c57.74,79.39,133.93,140.34,228.56,170.82
			c-12.03,10.43-27.27,31.28-36.09,45.71c-164.4-60.15-270.26-207.71-327.19-390.55c-25.66,19.25-56.14,38.49-88.21,55.33
			C565,506.72,612.31,609.36,612.31,690.36c0,86.61-54.53,139.54-137.93,139.54c-20.05,0-45.71-0.8-72.18-2.41
			c-0.8-13.63-5.61-36.09-14.43-50.52c29.67,2.41,57.74,3.21,75.38,3.21c23.26,0,41.78-2.54,59.34-15.24
			c21.63-15.64,35.29-44.11,35.29-81c0-22.46-4.81-47.31-15.24-73.78c-88.21,76.18-226.15,152.37-342.43,190.86
			c-6.42-13.63-17.64-33.68-28.87-45.71c121.9-32.88,269.45-111.47,350.45-188.46c-10.42-16.84-23.26-33.68-37.69-49.72
			c-68.97,51.32-177.23,106.66-261.43,137.13c-6.42-12.83-18.44-31.28-28.87-42.5c85.01-24.86,195.67-76.99,260.63-125.1
			c-13.63-12.03-28.87-24.86-45.71-36.89c-60.15,28.07-125.1,51.32-186.05,68.97c-6.42-10.42-19.25-31.28-27.27-40.9
			c98.64-24.86,210.91-67.36,289.5-121.09H294.74v-47.31h459.51v47.31H585.05z"/>
		<path class="st0" d="M244.33,217.31v108.26h-52.13V167.59h305.54V72.96l71.37,4.81c-0.8,5.61-5.61,9.62-16.04,10.43v79.39h310.35
			v157.98H808.9V217.31H244.33z M584.36,347.22c16.04,52.93,38.49,103.45,65.76,149.16c52.93-32.88,115.48-77.79,155.58-113.08
			l48.92,44.11c-3.21,3.21-10.43,4.01-16.84,3.21c-40.9,32.08-107.46,74.58-161.19,105.86c57.74,79.39,133.93,140.34,228.56,170.82
			c-12.03,10.43-27.27,31.28-36.09,45.71c-164.4-60.15-270.26-207.71-327.19-390.55c-25.66,19.25-56.14,38.49-88.21,55.33
			c110.67,79.39,157.98,182.04,157.98,263.04c0,86.61-54.53,139.54-137.93,139.54c-20.05,0-45.71-0.8-72.18-2.41
			c-0.8-13.63-5.61-36.09-14.43-50.52c29.67,2.41,57.74,3.21,75.38,3.21c23.26,0,41.78-2.54,59.34-15.24
			c21.63-15.64,35.29-44.11,35.29-81c0-22.46-4.81-47.31-15.24-73.78c-88.21,76.18-226.15,152.37-342.43,190.86
			c-6.42-13.63-17.64-33.68-28.87-45.71c121.9-32.88,269.45-111.47,350.45-188.46c-10.42-16.84-23.26-33.68-37.69-49.72
			c-68.97,51.32-177.23,106.66-261.43,137.13c-6.42-12.83-18.44-31.28-28.87-42.5c85.01-24.86,195.67-76.99,260.63-125.1
			c-13.63-12.03-28.87-24.86-45.71-36.89c-60.15,28.07-125.1,51.32-186.05,68.97c-6.42-10.42-19.25-31.28-27.27-40.9
			c98.64-24.86,210.91-67.36,289.5-121.09H294.05v-47.31h459.51v47.31H584.36z"/>
		<path class="st0" d="M243.22,208.05v108.26H191.1V158.33h305.54V63.7l71.37,4.81c-0.8,5.61-5.61,9.62-16.04,10.43v79.39h310.35
			v157.98h-54.53V208.05H243.22z M583.25,337.97c16.04,52.93,38.49,103.45,65.76,149.16c52.93-32.88,115.48-77.79,155.58-113.08
			l48.92,44.11c-3.21,3.21-10.43,4.01-16.84,3.21c-40.9,32.08-107.46,74.58-161.19,105.86c57.74,79.39,133.93,140.34,228.56,170.82
			c-12.03,10.43-27.27,31.28-36.09,45.71c-164.4-60.15-270.26-207.71-327.19-390.55c-25.66,19.25-56.14,38.49-88.21,55.33
			c110.67,79.39,157.98,182.04,157.98,263.04c0,86.61-54.53,139.54-137.93,139.54c-20.05,0-45.71-0.8-72.18-2.41
			c-0.8-13.63-5.61-36.09-14.43-50.52c29.67,2.41,57.74,3.21,75.38,3.21c23.26,0,41.78-2.54,59.34-15.24
			c21.63-15.64,35.29-44.11,35.29-81c0-22.46-4.81-47.31-15.24-73.78c-88.21,76.18-226.15,152.37-342.43,190.86
			c-6.42-13.63-17.64-33.68-28.87-45.71c121.9-32.88,269.45-111.47,350.45-188.46c-10.42-16.84-23.26-33.68-37.69-49.72
			c-68.97,51.32-177.23,106.66-261.43,137.13c-6.42-12.83-18.44-31.28-28.87-42.5c85.01-24.86,195.67-76.99,260.63-125.1
			c-13.63-12.03-28.87-24.86-45.71-36.89c-60.15,28.07-125.1,51.32-186.05,68.97c-6.42-10.42-19.25-31.28-27.27-40.9
			c98.64-24.86,210.91-67.36,289.5-121.09H292.94v-47.31h459.51v47.31H583.25z"/>
		<path class="st0" d="M241.66,199.13v108.26h-52.13V149.41h305.54V54.78l71.37,4.81c-0.8,5.61-5.61,9.62-16.04,10.43v79.39h310.35
			v157.98h-54.53V199.13H241.66z M581.68,329.04c16.04,52.93,38.49,103.45,65.76,149.16c52.93-32.88,115.48-77.79,155.58-113.08
			l48.92,44.11c-3.21,3.21-10.43,4.01-16.84,3.21c-40.9,32.08-107.46,74.58-161.19,105.86c57.74,79.39,133.93,140.34,228.56,170.82
			c-12.03,10.43-27.27,31.28-36.09,45.71c-164.4-60.15-270.26-207.71-327.19-390.55c-25.66,19.25-56.14,38.49-88.21,55.33
			c110.67,79.39,157.98,182.04,157.98,263.04c0,86.61-54.53,139.54-137.93,139.54c-20.05,0-45.71-0.8-72.18-2.41
			c-0.8-13.63-5.61-36.09-14.43-50.52c29.67,2.41,57.74,3.21,75.38,3.21c23.26,0,41.78-2.54,59.34-15.24
			c21.63-15.64,35.29-44.11,35.29-81c0-22.46-4.81-47.31-15.24-73.78c-88.21,76.18-226.15,152.37-342.43,190.86
			c-6.42-13.63-17.64-33.68-28.87-45.71c121.9-32.88,269.45-111.47,350.45-188.46c-10.42-16.84-23.26-33.68-37.69-49.72
			c-68.97,51.32-177.23,106.66-261.43,137.13c-6.42-12.83-18.44-31.28-28.87-42.5c85.01-24.86,195.67-76.99,260.63-125.1
			c-13.63-12.03-28.87-24.86-45.71-36.89c-60.15,28.07-125.1,51.32-186.05,68.97c-6.42-10.42-19.25-31.28-27.27-40.9
			c98.64-24.86,210.91-67.36,289.5-121.09H291.38v-47.31h459.51v47.31H581.68z"/>
		<path class="st0" d="M239.61,190.59v108.26h-52.13V140.87h305.54V46.24l71.37,4.81c-0.8,5.61-5.61,9.62-16.04,10.43v79.39h310.35
			v157.98h-54.53V190.59H239.61z M579.63,320.51c16.04,52.93,38.49,103.45,65.76,149.16c52.93-32.88,115.48-77.79,155.58-113.08
			l48.92,44.11c-3.21,3.21-10.43,4.01-16.84,3.21c-40.9,32.08-107.46,74.58-161.19,105.86c57.74,79.39,133.93,140.34,228.56,170.82
			c-12.03,10.43-27.27,31.28-36.09,45.71c-164.4-60.15-270.26-207.71-327.19-390.55c-25.66,19.25-56.14,38.49-88.21,55.33
			C559.58,470.47,606.9,573.12,606.9,654.12c0,86.61-54.53,139.54-137.93,139.54c-20.05,0-45.71-0.8-72.18-2.41
			c-0.8-13.63-5.61-36.09-14.43-50.52c29.67,2.41,57.74,3.21,75.38,3.21c23.26,0,41.78-2.54,59.34-15.24
			c21.63-15.64,35.29-44.11,35.29-81c0-22.46-4.81-47.31-15.24-73.78C448.91,650.11,310.98,726.3,194.7,764.79
			c-6.42-13.63-17.64-33.68-28.87-45.71c121.9-32.88,269.45-111.47,350.45-188.46c-10.42-16.84-23.26-33.68-37.69-49.72
			c-68.97,51.32-177.23,106.66-261.43,137.13c-6.42-12.83-18.44-31.28-28.87-42.5c85.01-24.86,195.67-76.99,260.63-125.1
			c-13.63-12.03-28.87-24.86-45.71-36.89c-60.15,28.07-125.1,51.32-186.05,68.97c-6.42-10.42-19.25-31.28-27.27-40.9
			c98.64-24.86,210.91-67.36,289.5-121.09H289.33v-47.31h459.51v47.31H579.63z"/>
		<path class="st0" d="M237.03,182.51v108.26H184.9V132.79h305.54V38.16l71.37,4.81c-0.8,5.61-5.61,9.62-16.04,10.43v79.39h310.35
			v157.98H801.6V182.51H237.03z M577.06,312.42c16.04,52.93,38.49,103.45,65.76,149.16c52.93-32.88,115.48-77.79,155.58-113.08
			l48.92,44.11c-3.21,3.21-10.43,4.01-16.84,3.21c-40.9,32.08-107.46,74.58-161.19,105.86c57.74,79.39,133.93,140.34,228.56,170.82
			c-12.03,10.43-27.27,31.28-36.09,45.71c-164.4-60.15-270.26-207.71-327.19-390.55c-25.66,19.25-56.14,38.49-88.21,55.33
			c110.67,79.39,157.98,182.04,157.98,263.04c0,86.61-54.53,139.54-137.93,139.54c-20.05,0-45.71-0.8-72.18-2.41
			c-0.8-13.63-5.61-36.09-14.43-50.52c29.67,2.41,57.74,3.21,75.38,3.21c23.26,0,41.78-2.54,59.34-15.24
			c21.63-15.64,35.29-44.11,35.29-81c0-22.46-4.81-47.31-15.24-73.78C446.34,642.02,308.4,718.21,192.12,756.7
			c-6.42-13.63-17.64-33.68-28.87-45.71c121.9-32.88,269.45-111.47,350.45-188.46c-10.42-16.84-23.26-33.68-37.69-49.72
			c-68.97,51.32-177.23,106.66-261.43,137.13c-6.42-12.83-18.44-31.28-28.87-42.5c85.01-24.86,195.67-76.99,260.63-125.1
			c-13.63-12.03-28.87-24.86-45.71-36.89c-60.15,28.07-125.1,51.32-186.05,68.97c-6.42-10.42-19.25-31.28-27.27-40.9
			c98.64-24.86,210.91-67.36,289.5-121.09H286.75v-47.31h459.51v47.31H577.06z"/>
		<path class="st0" d="M233.9,174.93v108.26h-52.13V125.21h305.54V30.58l71.37,4.81c-0.8,5.61-5.61,9.62-16.04,10.43v79.39h310.35
			v157.98h-54.53V174.93H233.9z M573.93,304.85c16.04,52.93,38.49,103.45,65.76,149.16c52.93-32.88,115.48-77.79,155.58-113.08
			l48.92,44.11c-3.21,3.21-10.43,4.01-16.84,3.21c-40.9,32.08-107.46,74.58-161.19,105.86c57.74,79.39,133.93,140.34,228.56,170.82
			c-12.03,10.43-27.27,31.28-36.09,45.71c-164.4-60.15-270.26-207.71-327.19-390.55c-25.66,19.25-56.14,38.49-88.21,55.33
			c110.67,79.39,157.98,182.04,157.98,263.04c0,86.61-54.53,139.54-137.93,139.54c-20.05,0-45.71-0.8-72.18-2.41
			c-0.8-13.63-5.61-36.09-14.43-50.52c29.67,2.41,57.74,3.21,75.38,3.21c23.26,0,41.78-2.54,59.34-15.24
			c21.63-15.64,35.29-44.11,35.29-81c0-22.46-4.81-47.31-15.24-73.78c-88.21,76.18-226.15,152.37-342.43,190.86
			c-6.42-13.63-17.64-33.68-28.87-45.71c121.9-32.88,269.45-111.47,350.45-188.46c-10.42-16.84-23.26-33.68-37.69-49.72
			c-68.97,51.32-177.23,106.66-261.43,137.13c-6.42-12.83-18.44-31.28-28.87-42.5c85.01-24.86,195.67-76.99,260.63-125.1
			c-13.63-12.03-28.87-24.86-45.71-36.89c-60.15,28.07-125.1,51.32-186.05,68.97c-6.42-10.42-19.25-31.28-27.27-40.9
			c98.64-24.86,210.91-67.36,289.5-121.09H283.62v-47.31h459.51v47.31H573.93z"/>
		<path class="st0" d="M230.18,167.92v108.26h-52.13V118.2H483.6V23.57l71.37,4.81c-0.8,5.61-5.61,9.62-16.04,10.43v79.39h310.35
			v157.98h-54.53V167.92H230.18z M570.21,297.84c16.04,52.93,38.49,103.45,65.76,149.16c52.93-32.88,115.48-77.79,155.58-113.08
			l48.92,44.11c-3.21,3.21-10.43,4.01-16.84,3.21c-40.9,32.08-107.46,74.58-161.19,105.86c57.74,79.39,133.93,140.34,228.56,170.82
			c-12.03,10.43-27.27,31.28-36.09,45.71c-164.4-60.15-270.26-207.71-327.19-390.55c-25.66,19.25-56.14,38.49-88.21,55.33
			c110.67,79.39,157.98,182.04,157.98,263.04c0,86.61-54.53,139.54-137.93,139.54c-20.05,0-45.71-0.8-72.18-2.41
			c-0.8-13.63-5.61-36.09-14.43-50.52c29.67,2.41,57.74,3.21,75.38,3.21c23.26,0,41.78-2.54,59.34-15.24
			c21.63-15.64,35.29-44.11,35.29-81c0-22.46-4.81-47.31-15.24-73.78c-88.21,76.18-226.15,152.37-342.43,190.86
			c-6.42-13.63-17.64-33.68-28.87-45.71c121.9-32.88,269.45-111.47,350.45-188.46c-10.42-16.84-23.26-33.68-37.69-49.72
			c-68.97,51.32-177.23,106.66-261.43,137.13c-6.42-12.83-18.44-31.28-28.87-42.5c85.01-24.86,195.67-76.99,260.63-125.1
			c-13.63-12.03-28.87-24.86-45.71-36.89c-60.15,28.07-125.1,51.32-186.05,68.97c-6.42-10.42-19.25-31.28-27.27-40.9
			c98.64-24.86,210.91-67.36,289.5-121.09H279.9v-47.31h459.51v47.31H570.21z"/>
		<path class="st0" d="M225.85,161.54V269.8h-52.13V111.82h305.54V17.19L550.63,22c-0.8,5.61-5.61,9.62-16.04,10.43v79.39h310.35
			V269.8h-54.53V161.54H225.85z M565.87,291.46c16.04,52.93,38.49,103.45,65.76,149.16c52.93-32.88,115.48-77.79,155.58-113.08
			l48.92,44.11c-3.21,3.21-10.43,4.01-16.84,3.21c-40.9,32.08-107.46,74.58-161.19,105.86c57.74,79.39,133.93,140.34,228.56,170.82
			c-12.03,10.43-27.27,31.28-36.09,45.71c-164.4-60.15-270.26-207.7-327.19-390.55c-25.66,19.25-56.14,38.49-88.21,55.33
			c110.67,79.39,157.98,182.04,157.98,263.04c0,86.61-54.53,139.54-137.93,139.54c-20.05,0-45.71-0.8-72.18-2.41
			c-0.8-13.63-5.61-36.09-14.43-50.52c29.67,2.41,57.74,3.21,75.38,3.21c23.26,0,41.78-2.54,59.34-15.24
			c21.63-15.64,35.29-44.11,35.29-81c0-22.46-4.81-47.31-15.24-73.78c-88.21,76.18-226.15,152.37-342.43,190.86
			c-6.42-13.63-17.64-33.68-28.87-45.71c121.9-32.88,269.45-111.47,350.45-188.46c-10.42-16.84-23.26-33.68-37.69-49.72
			c-68.97,51.32-177.23,106.66-261.43,137.13c-6.42-12.83-18.44-31.28-28.87-42.5c85.01-24.86,195.67-76.99,260.63-125.1
			c-13.63-12.03-28.87-24.86-45.71-36.89c-60.15,28.07-125.1,51.32-186.05,68.97c-6.42-10.42-19.25-31.28-27.27-40.9
			c98.64-24.86,210.91-67.36,289.5-121.09H275.57v-47.31h459.51v47.31H565.87z"/>
		<path class="st0" d="M220.85,155.85v108.26h-52.13V106.13h305.54V11.5l71.37,4.81c-0.8,5.61-5.61,9.62-16.04,10.43v79.39h310.35
			v157.98h-54.53V155.85H220.85z M560.88,285.76c16.04,52.93,38.49,103.45,65.76,149.16c52.93-32.88,115.48-77.79,155.58-113.08
			l48.92,44.11c-3.21,3.21-10.43,4.01-16.84,3.21c-40.9,32.08-107.46,74.58-161.19,105.86c57.74,79.39,133.93,140.34,228.56,170.82
			c-12.03,10.43-27.27,31.28-36.09,45.71C681.17,631.4,575.31,483.84,518.37,301c-25.66,19.25-56.14,38.49-88.21,55.33
			c110.67,79.39,157.98,182.04,157.98,263.04c0,86.61-54.53,139.54-137.93,139.54c-20.05,0-45.71-0.8-72.18-2.41
			c-0.8-13.63-5.61-36.09-14.43-50.52c29.67,2.41,57.74,3.21,75.38,3.21c23.26,0,42.5-1.6,59.34-15.24
			c22.46-14.44,35.29-44.11,35.29-81c0-22.46-4.81-47.31-15.24-73.78c-88.21,76.18-226.15,152.37-342.43,190.86
			c-6.42-13.63-17.64-33.68-28.87-45.71c121.9-32.88,269.45-111.47,350.45-188.46c-10.42-16.84-23.26-33.68-37.69-49.72
			C390.86,497.48,282.6,552.81,198.4,583.29c-6.42-12.83-18.44-31.28-28.87-42.5c85.01-24.86,195.67-76.99,260.63-125.1
			c-13.63-12.03-28.87-24.86-45.71-36.89c-60.15,28.07-125.1,51.32-186.05,68.97c-6.42-10.42-19.25-31.28-27.27-40.9
			c98.64-24.86,210.91-67.36,289.5-121.09H270.57v-47.31h459.51v47.31H560.88z"/>
	</g>
</g>
</svg>
