<?xml version="1.0" encoding="utf-8"?>
<!-- Generator: Adobe Illustrator 25.1.0, SVG Export Plug-In . SVG Version: 6.00 Build 0)  -->
<svg version="1.1" id="Capa_1" xmlns="http://www.w3.org/2000/svg" xmlns:xlink="http://www.w3.org/1999/xlink" x="0px" y="0px"
	 viewBox="0 0 1000 1000" style="enable-background:new 0 0 1000 1000;" xml:space="preserve">
<style type="text/css">
	.st0{fill:none;stroke:#000000;stroke-width:3;stroke-miterlimit:10;}
	.st1{fill:none;stroke:#575756;stroke-width:3;stroke-miterlimit:10;}
	.st2{fill:none;stroke:#878787;stroke-width:3;stroke-miterlimit:10;}
	.st3{fill:none;stroke:#C6C6C6;stroke-width:3;stroke-miterlimit:10;}
	.st4{fill:none;stroke:#DADADA;stroke-width:3;stroke-miterlimit:10;}
</style>
<g>
	<path class="st0" d="M943.5,467.51c-60.33,45.51-133.36,93.15-194.76,128.08c58.22,93.14,136.55,168.29,236.04,212.75
		c-27.52,24.35-67.74,74.1-87.85,109.03C708.52,816.8,603.73,622.05,543.4,375.42h-2.12c-26.46,22.23-56.1,42.34-87.85,61.39
		c198.99,173.59,191.58,437.14,86.79,513.36c-39.16,33.87-74.09,44.46-129.13,44.46c-26.46,1.05-59.27,0-89.97-2.12
		c-2.12-34.93-12.7-85.74-35.99-120.67c40.22,3.18,74.09,5.29,101.61,5.29c26.46,0,46.57-3.18,63.51-22.23
		c24.35-19.05,39.16-62.45,34.93-118.55C369.81,821.04,213.16,900.42,80.85,945.94c-14.82-31.76-42.34-77.27-65.63-104.79
		c152.42-38.11,336.6-124.9,441.38-213.81c-6.35-12.7-12.7-25.4-20.11-37.04c-89.97,60.33-220.16,123.84-320.72,158.77
		c-13.76-27.52-40.22-70.91-63.51-95.26c106.91-25.4,247.68-83.62,327.07-137.6c-8.47-8.47-16.94-16.94-26.46-25.41
		c-80.44,37.05-167.24,67.74-250.86,89.97c-12.7-24.34-44.46-74.09-64.57-98.44c113.26-22.23,230.75-59.28,323.9-106.91H206.81
		V269.58h568.4v105.85H654.54c11.65,42.34,26.46,83.62,43.4,122.78c52.92-35.99,109.02-79.39,147.12-115.38L943.5,467.51z"/>
	<path class="st1" d="M388.63,980.04c-16.21,0-34.55-0.58-53.65-1.68c-2.96-27.49-10.29-60.61-23.43-89.49
		c32.36,2.27,55.68,3.27,75.2,3.27c24.1,0,51.61-2.05,73.82-26.27c29.19-23.72,43.97-72.4,39.57-130.64l-23.83-10.96
		C369.3,802.8,221.83,879.94,88.47,927.38c-12.11-23.8-29.66-53.25-47.39-77.51c154.63-42.4,326.63-127.44,425.23-211.1l8.98-7.62
		l-5.27-10.53c-6.41-12.83-13.05-26.09-20.87-38.39l-8.25-12.96l-12.76,8.56c-83.31,55.86-204.3,116.33-305.08,152.73
		c-11.66-21.61-27.68-47.36-43.78-68.14c106.81-28.69,235.48-84.17,308.49-133.82l14.99-10.19l-12.82-12.82
		c-8.5-8.5-17.26-17.26-27.1-26.01l-7.33-6.52l-8.91,4.1c-74.02,34.09-155.76,63.74-237.1,86.04
		c-11.58-20.38-29.75-48.87-45.65-70.97c112.94-24.04,220.23-60.46,304.32-103.46l-6.83-28.35H221.81v-75.85h538.4v75.85H634.85
		l5.22,18.98c11.44,41.57,26.27,83.55,44.1,124.76l7.2,16.65l15-10.2c51.61-35.1,102.56-74.6,139.05-107.68l74.09,63.74
		c-55.03,40.45-120.43,83.02-178.19,115.88l-13.59,7.73l8.29,13.26c58.99,94.37,133.84,164.61,222.71,209.06
		c-23.09,23.79-49.31,56.78-67.15,84.7c-39.95-22.71-77.05-50.62-110.44-83.11c-35.36-34.4-67.75-75.09-96.28-120.95
		c-53.54-86.06-95.05-191.19-126.9-321.38l-2.8-11.44h-19.35l-4.18,3.51c-23.71,19.92-51.82,39.55-85.92,60.02l-17.68,10.61
		l15.54,13.55c54.07,47.17,95.03,103.06,121.74,166.12c23.43,55.33,34.53,113.77,32.08,169.01c-3.06,69.1-27.73,126.97-65.99,154.79
		l-0.51,0.37l-0.48,0.41c-34.83,30.12-66.06,40.8-119.32,40.8h-0.3l-0.3,0.01C403.81,979.91,396.45,980.04,388.63,980.04z"/>
	<path class="st2" d="M388.63,965.04c-12.27,0-26.03-0.35-40.36-1.01c-2.29-15.6-6.48-36.66-14.05-58.67
		c20.89,1.22,37.64,1.77,52.54,1.77c28.97,0,59.19-3.7,84.13-30.33c32.41-27.03,48.93-80.25,44.22-142.7l-0.67-8.81l-39.88-18.35
		l-7.12,5.23C365.53,786.97,224.19,861.64,95.67,908.83c-9.15-16.94-19.7-34.46-30.26-50.28
		c152.18-44.86,314.96-127.17,410.61-208.33l17.95-15.23l-10.53-21.06c-6.58-13.17-13.39-26.78-21.63-39.73l-16.5-25.93
		l-25.52,17.12c-79.34,53.2-191.8,110.02-289.85,146.68c-8.12-14.23-16.98-28.3-25.8-41.03c105.14-30.7,222.56-82.76,292.07-130.03
		l29.98-20.39l-25.64-25.63c-8.64-8.64-17.57-17.57-27.74-26.61l-14.66-13.04l-17.82,8.21c-69.75,32.12-146.85,60.41-223.68,82.11
		c-8.2-13.79-18.07-29.31-27.7-43.59c105.96-24.23,206.81-59.41,286.06-99.93l10.52-5.38l-12.36-51.33H236.81v-45.85h508.4v45.85
		H615.17l10.44,37.96c11.62,42.25,26.69,84.89,44.79,126.73l14.4,33.3l30-20.4c47.64-32.4,94.59-68.38,130.79-100.15l49.76,42.8
		c-51.48,36.94-109.43,74.24-161.45,103.84l-27.18,15.46l16.57,26.51c56.49,90.38,127.44,159.35,211.1,205.29
		c-16.62,18.64-33.7,40.36-47.46,60.41c-34.26-20.71-66.27-45.47-95.33-73.74c-34.49-33.55-66.11-73.3-94-118.12
		c-52.69-84.69-93.6-188.39-125.07-317.02l-5.6-22.87h-36.59l-8.37,7.03c-23.1,19.41-50.58,38.59-83.99,58.64l-35.36,21.22
		l31.08,27.11c52.34,45.66,91.97,99.72,117.79,160.66c22.57,53.29,33.26,109.48,30.91,162.5c-2.86,64.58-25.23,118.16-59.83,143.33
		l-1.02,0.74l-0.95,0.82c-32.12,27.78-59.75,37.16-109.52,37.16h-0.59l-0.59,0.02C403.4,964.91,396.24,965.04,388.63,965.04z"/>
	<path class="st3" d="M388.63,950.04c-8.58,0-17.81-0.17-27.55-0.5c-1.52-8.3-3.56-17.89-6.3-28.12
		c11.75,0.49,22.19,0.72,31.98,0.72c30.55,0,65.62-4.11,94.45-34.41c35.64-30.27,53.89-88.03,48.86-154.75l-1.33-17.61l-55.93-25.73
		l-14.24,10.45c-96.95,71.16-232.3,143.37-356.03,190.18c-4.41-7.76-9.03-15.53-13.76-23.14
		c149.64-46.81,303.68-126.34,396.95-205.47l26.93-22.85l-15.79-31.59c-6.76-13.52-13.74-27.48-22.39-41.08l-24.74-38.89
		l-38.29,25.67C337,602.83,230.34,657.29,136.47,693.53c-2.83-4.71-5.73-9.39-8.66-13.98c101.79-31.77,210.93-81.32,276.83-126.14
		l44.97-30.58l-38.46-38.45c-8.8-8.8-17.89-17.88-28.38-27.21l-21.99-19.55l-26.73,12.31c-65.56,30.19-138.11,57.12-210.51,78.15
		c-3.29-5.35-6.74-10.84-10.28-16.35c99.3-24.22,193.98-58.1,268.57-96.24l21.04-10.76l-17.9-74.31H251.81v-15.85h478.4v15.85
		H595.49l15.66,56.94c11.81,42.92,27.11,86.22,45.49,128.71l21.61,49.95l45-30.61c44.07-29.97,87.06-62.57,122.38-92.74l25.41,21.86
		c-47.28,33.18-98.02,65.47-144.55,91.94l-40.77,23.19l24.86,39.77c54.18,86.68,121.59,154.33,200.55,201.31
		c-9.86,11.75-19.49,24.07-28.28,36.21c-28.84-18.54-55.96-40.12-80.78-64.27c-33.62-32.71-64.48-71.5-91.72-115.29
		c-51.84-83.32-92.15-185.6-123.24-312.67l-8.39-34.31h-53.82l-12.55,10.54c-22.49,18.89-49.33,37.62-82.06,57.26l-53.04,31.83
		l46.62,40.66c50.62,44.16,88.92,96.38,113.83,155.21c21.7,51.25,31.99,105.18,29.74,155.98c-2.66,60.06-22.72,109.36-53.67,131.86
		l-1.52,1.11l-1.43,1.23c-29.33,25.37-53.56,33.51-99.71,33.51h-0.89l-0.89,0.04C402.99,949.92,396.03,950.04,388.63,950.04z"/>
	<path class="st4" d="M422.4,934.44c23.22-4.01,47.76-13.63,69.12-35.8c38.87-33.48,58.86-95.75,53.5-166.8l-1.99-26.42
		l-55.66-25.61c2.74-2.24,5.42-4.48,8.07-6.73l33.6-28.51c17.3,45.31,25.38,92.29,23.41,136.67
		c-2.42,54.71-20.63,100.85-47.5,120.39l-2.03,1.48l-1.9,1.64C477,925.53,457.48,933.19,422.4,934.44z M879.29,836.6
		c-23.66-16.18-46.07-34.52-66.76-54.66c-32.75-31.86-62.84-69.7-89.45-112.47c-6.44-10.35-12.71-21.01-18.79-31.98
		c50.84,78.49,112.76,141.3,184.39,187.03C885.49,828.52,882.36,832.55,879.29,836.6z M834.52,471.46
		c3.74-3.04,7.41-6.07,11.02-9.07l1.02,0.88C842.56,466,838.55,468.74,834.52,471.46z M400.2,329.58h102.38
		c-21.86,18.34-48.03,36.6-80.02,55.79l-7.79,4.68L400.2,329.58z"/>
</g>
<g>
	<polygon class="st0" points="169.76,323.56 45.92,323.56 45.92,87.52 426.97,87.52 426.97,4.96 556.1,4.96 556.1,87.52 
		943.5,87.52 943.5,323.56 814.37,323.56 814.37,201.83 169.76,201.83 	"/>
	<polygon class="st1" points="827.37,310.56 827.37,188.83 156.76,188.83 156.76,310.56 58.92,310.56 58.92,100.52 439.97,100.52 
		439.97,17.96 543.1,17.96 543.1,100.52 930.5,100.52 930.5,310.56 	"/>
	<polygon class="st2" points="840.37,297.56 840.37,175.83 143.76,175.83 143.76,297.56 71.92,297.56 71.92,113.52 452.97,113.52 
		452.97,30.96 530.1,30.96 530.1,113.52 917.5,113.52 917.5,297.56 	"/>
	<polygon class="st3" points="853.37,284.56 853.37,162.83 130.76,162.83 130.76,284.56 84.92,284.56 84.92,126.52 465.97,126.52 
		465.97,43.96 517.1,43.96 517.1,126.52 904.5,126.52 904.5,284.56 	"/>
	<polygon class="st4" points="866.37,271.56 866.37,149.83 117.76,149.83 117.76,271.56 97.92,271.56 97.92,139.52 478.97,139.52 
		478.97,56.96 504.1,56.96 504.1,139.52 891.5,139.52 891.5,271.56 	"/>
</g>
</svg>
