<?xml version="1.0" encoding="utf-8"?>
<!-- Generator: Adobe Illustrator 16.0.0, SVG Export Plug-In . SVG Version: 6.00 Build 0)  -->
<!DOCTYPE svg PUBLIC "-//W3C//DTD SVG 1.1//EN" "http://www.w3.org/Graphics/SVG/1.1/DTD/svg11.dtd">
<svg version="1.1" id="Capa_1" xmlns="http://www.w3.org/2000/svg" xmlns:xlink="http://www.w3.org/1999/xlink" x="0px" y="0px"
	 width="1000px" height="1000px" viewBox="0 0 1000 1000" enable-background="new 0 0 1000 1000" xml:space="preserve">
<g>
	<path d="M-0.249,596.625v14.884c41.973,5.569,84.424,13.415,126.754,22.308c9.369-1.9,18.093-5.6,25.951-10.803
		C95.806,611.287,45.954,602.688-0.249,596.625z"/>
	<path d="M55.104,543.768h-9.035c3.021,0.447,6.027,0.899,9.04,1.352v-1.352H55.104z"/>
	<path d="M170.308,606.527c-62.423-13.039-118.749-22.82-170.557-29.641v14.4c47.799,6.254,99.44,15.195,158.451,27.51
		C162.612,615.229,166.664,611.132,170.308,606.527z"/>
	<path d="M55.109,567.095c-18.967-2.955-37.404-5.599-55.358-7.927v12.38c17.896,2.354,36.326,5.052,55.358,8.113V567.095z"/>
	<path d="M127.078,562.174c-2.239,3.951-5.137,7.439-8.58,10.26c20.79,3.76,42.194,7.861,64.313,12.335
		c1.511-3.75,2.885-7.621,3.971-11.717C167.777,569.443,147.764,565.773,127.078,562.174z"/>
	<path d="M55.109,550.468c-15.742-2.368-31.613-4.62-47.507-6.7h-7.851v10.068c17.957,2.321,36.391,4.955,55.358,7.906V550.468z"/>
	<path d="M147.327,543.773c14.328,2.442,28.625,4.925,42.893,7.459c0.163-2.464,0.334-4.916,0.354-7.459H147.327z"/>
	<path d="M111.943,576.625c-4.7,2.297-9.995,3.544-15.695,3.317H56.834c36.6,5.927,75.418,13.194,116.922,21.896
		c2.576-3.774,4.953-7.766,6.986-12.089C157.033,584.965,134.125,580.591,111.943,576.625z"/>
	<path d="M-0.249,630.021c10.51,1.624,21.046,3.408,31.602,5.344h76.409c-36.121-7.323-72.25-13.747-108.011-18.513V630.021z"/>
	<path d="M131.956,546.517c-0.344,3.735-1.201,7.329-2.515,10.702c20.251,3.533,39.852,7.127,58.478,10.666
		c0.781-3.67,1.41-7.449,1.839-11.365C170.542,553.107,151.275,549.744,131.956,546.517z"/>
	<path d="M55.104,518.535c-18.462-2.645-36.929-5.143-55.358-7.398v10.561c18.429,2.281,36.884,4.714,55.358,7.398V518.535z"/>
	<path d="M169.119,519.565c-19.261-3.082-38.728-6.188-58.301-9.233c6.823,2.825,12.436,7.64,16.203,13.813
		c21.164,3.393,42.214,6.871,63.112,10.359c-0.43-4.046-1.171-8.032-2.209-11.938C181.647,521.565,175.339,520.561,169.119,519.565z
		"/>
	<path d="M55.104,543.768v-9.324c-18.477-2.688-36.932-5.126-55.358-7.419v10.409c15.474,1.961,30.948,4.082,46.323,6.334H55.104z"
		/>
	<path d="M163.315,483.068c-47.417-8.686-95.509-17.074-143.471-23.624H-0.254v11.978c59.865,7.564,120.144,18.698,179.229,30.133
		C174.756,494.64,169.485,488.379,163.315,483.068z"/>
	<path d="M190.574,543.773L190.574,543.773c0.005-0.367,0.046-0.71,0.046-1.077c0-0.925-0.076-1.844-0.111-2.769
		c-20.086-3.354-40.319-6.695-60.656-9.968c1.299,3.469,2.073,7.233,2.249,11.214c5.072,0.85,10.134,1.734,15.2,2.594h43.272
		C190.574,543.773,190.574,543.773,190.574,543.773z"/>
	<path d="M186.201,516.937c-1.108-3.191-2.385-6.322-3.886-9.344c-60.171-11.667-121.606-23.104-182.569-30.834v12.528
		c57.178,6.984,114.497,16.135,170.209,25.057C175.332,515.202,180.785,516.072,186.201,516.937z"/>
	<path d="M55.104,507.502h37.351c-30.766-4.685-61.762-9.095-92.709-12.885v11.191c18.432,2.257,36.899,4.745,55.358,7.385V507.502z
		"/>
	<path d="M-0.254,542.757v1.011h0.005h7.851C4.984,543.425,2.368,543.094-0.254,542.757z"/>
	<path d="M143.524,460.616c-2.197-0.395-4.403-0.777-6.603-1.171H56.693c32.39,4.981,64.728,10.626,96.786,16.451
		c-5.122-3.129-10.669-5.684-16.6-7.522C136.879,468.374,139.991,465.793,143.524,460.616z"/>
	<path d="M136.899,459.439c-14.725-2.637-29.498-5.21-44.298-7.688c-2.928,4.187-7.137,7.167-12.187,7.167H55.104v-13.222
		c-18.469-2.835-36.935-5.409-55.358-7.71v13.506c18.955,2.367,37.942,5.029,56.921,7.947H136.899z"/>
	<path d="M142.112,391.246c-33.172-1.568-66.421-2.536-99.196-3.451c-14.481-0.407-28.859-0.83-43.169-1.284v6.112
		c49.136,2.885,99.043,5.901,148.814,9.872C146.867,398.615,144.721,394.84,142.112,391.246z"/>
	<path d="M58.95,368.838c17.253-0.071,34.655-0.136,52.094-0.058c-8.593-2.98-18.517-4.77-30.03-4.77H-0.254v4.83
		C19.375,368.994,39.415,368.918,58.95,368.838z"/>
	<path d="M-0.254,459.439h20.068c-6.693-0.912-13.38-1.774-20.068-2.611V459.439z"/>
	<path d="M137.598,385.737c-4.044-4.365-8.919-8.278-14.637-11.566c-21.41-0.191-42.815-0.133-63.989-0.042
		c-19.543,0.078-39.591,0.151-59.227,0v7.092c14.36,0.455,28.784,0.88,43.318,1.287C74.298,383.38,105.967,384.297,137.598,385.737z
		"/>
	<path d="M153.532,424.473c-22.754-2.48-45.403-4.848-67.894-7.064c4.22,2.005,7.477,6.192,9.404,10.985
		c19.377,2.448,38.651,4.941,57.839,7.482c0.445-3.089,0.722-6.378,0.722-9.929C153.603,425.461,153.544,424.961,153.532,424.473z"
		/>
	<path d="M55.104,428.846c-18.464-2.206-36.906-4.277-55.358-6.232v10.038c18.427,2.294,36.894,4.868,55.358,7.695V428.846z"/>
	<path d="M150.647,407.974c-50.451-4.058-101.069-7.125-150.901-10.052v6.323c50.299,4.253,101.529,9.221,153.383,14.865
		C152.68,415.413,151.853,411.681,150.647,407.974z"/>
	<path d="M55.104,416.094h16.831c-24.252-2.337-48.327-4.521-72.189-6.542v7.746c18.452,1.953,36.896,4.016,55.358,6.223V416.094z"
		/>
	<path d="M96.67,433.933c0.234,1.35,0.372,2.687,0.372,3.977c0,2.942-0.693,6.021-1.85,8.916c17.135,2.881,34.24,5.866,51.262,8.942
		c2.124-3.943,4.131-8.809,5.476-14.682C133.595,438.658,115.18,436.28,96.67,433.933z"/>
	<path d="M364.375,631.625c-3.468-1.896-6.926-3.8-10.369-5.7c-15.1-8.339-30.521-16.783-46.676-23.796v17.854
		c9.058,4.811,17.859,10.027,26.494,15.381h30.551V631.625z"/>
	<path d="M307.33,579.883v16.486c17.125,7.268,33.351,16.16,49.234,24.926c2.614,1.443,5.218,2.88,7.811,4.303v-22.281
		C345.994,594.815,327.155,586.226,307.33,579.883z"/>
	<path d="M307.33,559.581v14.737c19.9,6.222,38.708,14.702,57.045,23.177v-20.392C345.943,570.338,327.014,563.883,307.33,559.581z"
		/>
	<path d="M323.716,635.364c-5.378-3.242-10.847-6.358-16.386-9.36v9.36H323.716z"/>
	<path d="M349.306,543.768c5.062,1.292,10.079,2.648,15.069,4.041v-4.041H349.306z"/>
	<path d="M325.812,543.768H307.33v10.385c19.749,4.232,38.653,10.602,57.045,17.321v-18.176
		C351.729,549.749,338.881,546.416,325.812,543.768z"/>
	<path d="M307.33,490.392v13.436c18.975,3.232,38,6.257,57.045,9.092v-13.44C345.335,496.649,326.31,493.625,307.33,490.392z"/>
	<path d="M328.582,459.439c12.099,2.227,24.026,4.933,35.793,7.821v-7.821H328.582z"/>
	<path d="M307.33,461.455v23.566c18.985,3.239,38.01,6.275,57.045,9.11v-21.425C345.732,468.11,326.697,463.956,307.33,461.455z"/>
	<path d="M364.375,540.974c-19.04-2.962-38.065-6.188-57.045-9.581v3.835c14.275,2.021,28.254,5.041,41.976,8.54h15.069V540.974z"/>
	<path d="M307.33,509.19v16.829c18.98,3.397,38.01,6.635,57.045,9.601v-17.356C345.33,515.438,326.305,512.418,307.33,509.19z"/>
	<path d="M325.812,543.768c-6.112-1.236-12.279-2.297-18.482-3.191v3.191H325.812z"/>
	<path d="M364.375,457.399c-18.547-5.542-37.527-10.747-57.045-14.147v12.865c7.138,0.908,14.22,2.031,21.252,3.323h35.793V457.399z
		"/>
	<path d="M444.542,364.005h-11.933c3.936,1.028,7.906,1.958,11.933,2.747V364.005z"/>
	<path d="M267.308,419.764c-13.318-1.672-26.696-3.229-40.137-4.667v4.667H267.308z"/>
	<path d="M357.107,409.801c7.313,3.348,14.692,6.713,22.151,9.963h20.337c-17.502-6.58-34.195-14.773-50.606-22.838
		c-26.796-13.167-54.411-26.702-85.007-32.92h-36.811v9.347c11.149,0.993,22.235,2.121,33.152,3.579
		C295.594,381.641,326.863,395.956,357.107,409.801z"/>
	<path d="M366.225,419.764c-3.79-1.712-7.564-3.436-11.319-5.155c-29.882-13.682-60.789-27.832-95.283-32.438
		c-10.684-1.425-21.536-2.533-32.451-3.514v13.177c14.768,1.413,29.458,2.993,43.947,4.944
		c33.503,4.514,63.883,16.959,93.257,29.055v-6.069H366.225z"/>
	<path d="M362.988,430.98c-29.259-12.046-59.513-24.504-92.571-28.957c-14.255-1.922-28.711-3.479-43.246-4.876v12.629
		c18.85,2.013,37.628,4.172,56.224,6.663c6.378,0.852,12.646,2.018,18.854,3.325h5.082v1.063
		c19.693,4.517,38.598,10.927,57.045,17.5v-6.778C363.917,431.359,363.45,431.168,362.988,430.98z"/>
	<path d="M444.542,372.136c-10.379-1.978-20.438-4.768-30.239-8.13h-39.392c21.96,10.402,44.81,19.478,69.631,23.294V372.136z"/>
	<path d="M415.911,419.764h28.631v-6.271c-36.13-4.818-67.615-20.734-98.141-36.208c-8.856-4.485-17.818-8.989-26.936-13.279
		h-34.436c23.373,7.188,45.102,17.761,66.293,28.173C372.071,402.377,393.272,412.787,415.911,419.764z"/>
	<path d="M307.33,426.275v11.598c19.573,3.347,38.533,8.5,57.045,14.006v-7.94C345.893,437.338,326.968,430.864,307.33,426.275z"/>
	<path d="M444.542,408.15v-15.51c-29.565-4.398-56.181-16.024-81.765-28.635h-31.104c5.75,2.83,11.46,5.695,17.115,8.563
		C378.7,387.732,409.558,403.327,444.542,408.15z"/>
	<path d="M528.594,459.439c-5.318,0.57-10.636,1.033-15.965,1.408v7.438c19.035-0.661,38.101-2.568,57.045-4.986v-3.86H528.594z"/>
	<path d="M512.629,473.576v7.029c19.016-0.07,38.091-1.224,57.045-2.857v-9.118C550.754,471.033,531.694,472.923,512.629,473.576z"
		/>
	<path d="M512.629,485.896v7.889c18.985,0.39,38.065-0.075,57.045-0.987v-9.741C550.74,484.685,531.669,485.825,512.629,485.896z"/>
	<path d="M569.674,543.768v-9.601c-18.984,0.217-38.079,0.126-57.045-0.608v10.209H569.674z"/>
	<path d="M512.629,514.68v13.591c18.95,0.739,38.046,0.825,57.045,0.608V514.73C550.7,515.197,531.614,515.304,512.629,514.68z"/>
	<path d="M512.629,499.077v10.314c18.966,0.629,38.056,0.518,57.045,0.051v-11.347C550.715,499.004,531.639,499.467,512.629,499.077
		z"/>
	<path d="M512.629,446.921v8.618c19.061-1.357,38.131-4.016,57.045-7.255v-10.741C550.805,441.485,531.75,444.918,512.629,446.921z"
		/>
	<path d="M569.674,453.646c-13.621,2.322-27.334,4.325-41.08,5.793h41.08V453.646z"/>
	<path d="M512.629,373.845v12.707c19.121-2.606,38.176-6.766,57.045-11.413v-11.094C550.81,368.253,531.755,371.852,512.629,373.845
		z"/>
	<path d="M512.629,430.819v10.792c19.086-2.028,38.155-5.501,57.045-9.472v-12.327C550.825,424.297,531.775,428.301,512.629,430.819
		z"/>
	<path d="M512.629,364.005v4.524c10.314-1.094,20.619-2.642,30.893-4.524H512.629z"/>
	<path d="M512.629,391.884v14.67c19.136-2.813,38.191-7.143,57.045-11.943v-14.029C550.825,385.197,531.78,389.313,512.629,391.884z
		"/>
	<path d="M512.629,411.877v13.624c19.116-2.554,38.176-6.6,57.045-11.119v-14.325C550.84,404.822,531.79,409.102,512.629,411.877z"
		/>
	<path d="M512.629,543.768v7.484c18.98,0.543,38.071,0.236,57.045-0.473v-7.012H512.629z"/>
	<path d="M512.629,556.534v20.212c19.025,0.02,38.101-1.121,57.045-2.814v-17.859C550.72,556.775,531.635,557.073,512.629,556.534z"
		/>
	<path d="M569.674,579.238c-18.924,1.68-37.994,2.811-57.045,2.79v21.423c31.366-1.628,62.641-7.594,93.13-13.44
		c19.075-3.654,38.548-7.374,58.13-10.063h-94.215V579.238z"/>
	<path d="M682.563,607.985c-31.21,4.388-62.036,16.059-91.853,27.379h25.418c18.699-7.896,37.754-14.748,57.141-18.532
		c6.475-1.262,13.029-2.237,19.613-3.087v-7.002C689.434,607.12,685.99,607.502,682.563,607.985z"/>
	<path d="M674.284,622.02c-14.833,2.899-29.535,7.68-44.072,13.345h26.671c3.402-0.97,6.82-1.885,10.259-2.654
		c8.449-1.885,17.044-3.337,25.74-4.479v-9.153C686.634,619.893,680.421,620.822,674.284,622.02z"/>
	<path d="M692.882,635.364v-1.784c-3.966,0.527-7.917,1.1-11.827,1.784H692.882z"/>
	<path d="M606.754,595.208c-30.771,5.896-62.328,11.938-94.125,13.557v21.131c28.687-3.645,56.985-11.696,84.65-19.573
		c30.65-8.726,62.343-17.748,94.256-20.749c0.446-0.045,0.899-0.065,1.347-0.104v-7.27
		C664.005,584.275,634.942,589.805,606.754,595.208z"/>
	<path d="M692.027,594.841c-31.426,2.951-62.875,11.902-93.301,20.568c-28.088,7.997-56.828,16.17-86.098,19.818v0.137h63.122
		c4.217-1.578,8.419-3.171,12.602-4.761c30.233-11.485,61.508-23.362,93.477-27.855c3.674-0.519,7.363-0.936,11.053-1.338v-6.635
		C692.601,594.801,692.313,594.815,692.027,594.841z"/>
	<path d="M770.997,409.449c24.394,2.762,48.575,7.384,72.476,12.725c7.445-4.278,15.401-7.475,23.609-9.334
		c-27.439-6.667-55.256-12.945-83.313-16.934C779.23,400.115,774.952,404.614,770.997,409.449z"/>
	<path d="M867.097,358.491c-7.393,0.807-14.666,2.139-21.788,3.994c13.771,3.202,27.458,6.61,41.035,10.002
		c32.33,8.083,65.68,16.374,98.949,21.408l1.322-1.958c-5.367-3.77-10.807-7.109-16.275-10.254
		c-31.233-4.971-62.156-12.787-92.164-20.389C874.491,360.358,870.797,359.424,867.097,358.491z"/>
	<path d="M884.9,357.539c22.835,5.777,46.163,11.565,69.697,16.027C931.833,363.098,908.44,357.758,884.9,357.539z"/>
	<path d="M758.084,428.349c21.886,1.867,43.59,5.31,65.063,9.58c4.292-4.363,8.977-8.296,13.968-11.731
		c-23.096-5.049-46.429-9.339-69.938-11.835C763.885,418.796,760.845,423.453,758.084,428.349z"/>
	<path d="M755.381,433.45c-2.328,4.571-4.499,9.259-6.334,14.189c20.356,1.395,40.528,4.154,60.493,7.718
		c2.759-4.549,5.91-8.841,9.379-12.85C797.924,438.426,776.732,435.165,755.381,433.45z"/>
	<path d="M802.101,459.439c-18.105-3.062-36.356-5.401-54.732-6.605c-0.72,2.194-1.503,4.345-2.121,6.605H802.101z"/>
	<path d="M835.004,365.563c-7.328,2.485-14.426,5.537-21.232,9.123c25.263,4.896,50.28,11.101,74.949,17.249
		c27.837,6.937,56.417,14.026,84.992,19.13l8.304-12.309c-32.688-5.103-65.304-13.225-96.955-21.136
		C868.525,373.485,851.822,369.326,835.004,365.563z"/>
	<path d="M806.544,378.68c-6.223,3.752-12.163,7.962-17.738,12.639c31.415,4.723,62.469,12.144,93.02,19.688
		c0.607-0.018,1.216-0.073,1.824-0.073c18,0,36.854,1.842,61.558,15.162c5.364,1.164,10.742,2.267,16.12,3.33l9.143-13.554
		c-27.966-5.101-55.853-12.035-83.03-18.806C860.819,390.432,833.808,383.707,806.544,378.68z"/>
	<path d="M913.139,532.614h35.935v11.153h50.978v-4.584c-29.395-3.951-58.461-9.826-86.912-16.055V532.614z"/>
	<path d="M987.319,478.992h-70.455c27.344,6.266,55.221,12.116,83.187,15.868v-15.868h-0.296l-0.231,1.77
		C995.452,480.224,991.381,479.618,987.319,478.992z"/>
	<path d="M913.139,497.878c28.49,6.372,57.583,12.393,86.912,16.353v-14.033c-29.293-3.89-58.407-10.075-86.912-16.64V497.878z"/>
	<path d="M913.139,517.716c28.475,6.242,57.559,12.149,86.912,16.13v-14.271c-29.369-3.936-58.447-9.922-86.912-16.274V517.716z"/>
	<path d="M740.628,513.648c0.487,5.556,1.276,10.943,2.316,16.186c21.403,1.98,42.514,4.971,63.358,8.555
		c-2.794-5.434-5.031-11.158-6.66-17.089C780.195,518.032,760.521,515.388,740.628,513.648z"/>
	<path d="M802.101,459.439h-56.854h-0.005c-0.709,2.594-1.308,5.253-1.88,7.926c19.352,1.284,38.497,3.709,57.446,6.844
		c1.579-4.825,3.579-9.49,5.938-13.958C805.202,459.978,803.654,459.704,802.101,459.439z"/>
	<path d="M806.379,543.768c-20.509-3.543-41.268-6.524-62.288-8.524c0.688,2.88,1.402,5.744,2.247,8.524H806.379z"/>
	<path d="M796.687,499.131c-18.652-3.014-37.481-5.376-56.491-6.65c-0.111,2.397-0.236,4.788-0.236,7.241
		c0,2.915,0.155,5.75,0.308,8.59c19.577,1.684,38.934,4.222,58.045,7.39c-1.052-5.204-1.645-10.541-1.645-15.98
		C796.667,499.522,796.687,499.327,796.687,499.131z"/>
	<path d="M742.372,472.591c-0.84,4.75-1.483,9.611-1.875,14.607c19,1.272,37.794,3.619,56.406,6.61
		c0.367-4.938,1.187-9.782,2.407-14.494C780.513,476.215,761.527,473.827,742.372,472.591z"/>
	<path d="M749.921,553.976c1.343,3.434,2.831,6.762,4.418,10.019c29.656,2.438,59.016,7.151,87.983,12.631
		c-5.349-3.171-10.41-6.891-15.08-11.104C801.805,560.727,776.039,556.55,749.921,553.976z"/>
	<path d="M898.09,587.818c30.48,6.259,61.74,12.562,93.1,17.021c2.9-2.257,5.725-4.509,8.499-6.727
		c-27.293-3.558-54.315-8.549-80.844-13.922C912.456,585.969,905.625,587.141,898.09,587.818z"/>
	<path d="M928.877,580.813c23.428,4.645,47.213,8.881,71.174,12.019v-12.803c-17.501-2.263-34.843-5.082-51.998-8.224
		C941.463,575.384,935.216,578.375,928.877,580.813z"/>
	<path d="M806.379,543.768h-60.041c0.488,1.618,1.115,3.142,1.658,4.72c24.519,2.317,48.716,6.026,72.603,10.39
		c-4.088-4.479-7.776-9.344-10.953-14.541C808.56,544.145,807.469,543.959,806.379,543.768z"/>
	<path d="M757.285,569.578c1.493,2.724,3.035,5.409,4.695,7.997c44.86,3.549,89.389,12.189,132.903,20.623
		c27.855,5.398,56.421,10.934,84.956,15.109c1.88-1.322,3.71-2.653,5.504-3.99c-31.717-4.71-63.252-11.159-93.934-17.472
		C847.63,582.843,802.754,573.589,757.285,569.578z"/>
	<path d="M949.073,545.794c16.839,3.126,33.843,5.926,50.978,8.152v-10.179h-50.978V545.794z"/>
	<path d="M949.073,566.613c16.834,3.085,33.838,5.85,50.978,8.082v-15.416c-17.149-2.212-34.148-4.996-50.978-8.113V566.613z"/>
	<path d="M805.248,619.883c7.102,4.389,14.561,8.202,22.352,11.319c23.393,2.926,46.877,6.59,70.154,10.259
		c10.058-0.634,19.195-1.905,27.484-3.729c-8.445-1.353-16.969-2.744-25.615-4.162C868.359,628.438,836.668,623.266,805.248,619.883
		z"/>
	<path d="M765.835,583.255c1.549,2.161,3.182,4.237,4.846,6.293c42.368,3.304,84.771,10.974,126.304,18.502
		c23.729,4.308,47.978,8.696,72.13,12.24c1.437-0.864,2.839-1.745,4.222-2.635c-26.726-4.07-53.401-9.213-79.463-14.26
		C851.912,595.264,808.982,586.979,765.835,583.255z"/>
	<path d="M775.521,595.264c1.841,2.025,3.716,4.016,5.665,5.915c39.201,3.233,78.664,9.907,117.417,16.492
		c19.101,3.242,38.537,6.534,57.905,9.399c1.744-0.835,3.453-1.684,5.111-2.559c-21.99-3.367-44.001-7.338-65.579-11.253
		C856.376,606.065,815.909,598.757,775.521,595.264z"/>
	<path d="M787.685,607.051c2.669,2.291,5.429,4.473,8.264,6.554c34.763,3.313,69.913,9.058,104.534,14.743
		c12.667,2.081,25.082,4.105,37.332,6.006c3.302-1.03,6.493-2.132,9.535-3.322c-16.627-2.559-33.256-5.369-49.631-8.147
		C861.377,616.711,824.413,610.448,787.685,607.051z"/>
</g>
</svg>
