<?xml version="1.0" encoding="utf-8"?>
<!-- Generator: Adobe Illustrator 25.4.1, SVG Export Plug-In . SVG Version: 6.00 Build 0)  -->
<svg version="1.1" id="vector" xmlns="http://www.w3.org/2000/svg" xmlns:xlink="http://www.w3.org/1999/xlink" x="0px" y="0px"
	 viewBox="0 0 700 300" style="enable-background:new 0 0 700 300;" xml:space="preserve">
<style type="text/css">
	.st0{fill:none;stroke:#F39200;stroke-width:2;stroke-miterlimit:10;}
	.st1{fill:#E30613;}
	.st2{fill:#FFFFFF;stroke:#FF0000;stroke-width:4;stroke-miterlimit:10;}
</style>
<path id="path_3" class="st0" d="M393.3,294.8L220.5,104.9l250.9-54.8L393.3,294.8z"/>
<path id="path_4" class="st0" d="M380.2,294.7L222.5,91.9l254.4-35.1L380.2,294.7z"/>
<path id="path_80" class="st0" d="M362.5,292.8L226.9,74.7l256.7-8.4L362.5,292.8z"/>
<path id="path_81" class="st0" d="M346.3,289.4L232.6,59.1l256.3,16.7L346.3,289.4z"/>
<path id="path_82" class="st0" d="M330.8,284.5L239.6,44.5l253.5,41.1L330.8,284.5z"/>
<path id="path_83" class="st0" d="M314.4,278L247.6,30l248.2,66.1L314.4,278z"/>
<path id="path_84" class="st0" d="M301.4,270.9l-45-252.8l241.4,87.5L301.4,270.9z"/>
<path id="path_85" class="st0" d="M289.1,262.8L266.1,7.1l233,108L289.1,262.8z"/>
<path id="path_86" class="st1" d="M62.7,121.2c3.3,0,6.1-1.2,8.4-3.5c2.3-2.3,3.5-5.1,3.5-8.3c0-3.3-1.2-6.1-3.5-8.4
	c-2.3-2.3-5.1-3.5-8.4-3.5H44.5v14c1.3-0.5,2.7-0.7,4.1-0.7h12.8c0.4,0,0.7-0.1,1-0.4c0.3-0.3,0.4-0.6,0.4-1c0-0.4-0.1-0.8-0.4-1
	c-0.3-0.3-0.6-0.4-1-0.4H48.6v-7.5h12.8c2.4,0,4.5,0.9,6.3,2.6c1.8,1.8,2.6,3.9,2.6,6.3c0,2.4-0.9,4.5-2.6,6.2
	c-1.8,1.8-3.9,2.6-6.3,2.6H45.5c-1.8,0-3.5,0.4-5,1.1c-1.3,0.7-2.5,1.5-3.6,2.6V90h25.7c2.7,0,5.2,0.5,7.5,1.5
	c2.3,1,4.4,2.4,6.2,4.2c1.8,1.8,3.2,3.9,4.2,6.2c1,2.3,1.5,4.9,1.5,7.5c0,2.6-0.5,5.1-1.5,7.5c-1,2.3-2.4,4.4-4.2,6.2
	c-3.5,3.5-7.8,5.3-12.9,5.7H48.4c-1.8,0-2.8,0.1-3.3,0.3c-0.4,0.2-0.6,0.8-0.6,1.8v21.6h21.2c3.3,0,6.1-1.2,8.4-3.5
	c2.3-2.3,3.5-5.1,3.5-8.3c0-3.3-1.2-6.1-3.5-8.4c-0.7-0.7-1.6-1.4-2.5-1.9c2.5-1.1,4.7-2.5,6.7-4.4l1.1,1c1.8,1.8,3.2,3.9,4.2,6.2
	c1,2.3,1.5,4.9,1.5,7.5c0,2.6-0.5,5.1-1.5,7.5c-1,2.3-2.4,4.4-4.2,6.2c-1.8,1.8-3.8,3.1-6.2,4.1c-2.3,1-4.9,1.5-7.5,1.5H37v-30.5
	c0-1.2,0.3-2.3,0.8-3.4c0.6-1.2,1.5-2.2,2.5-3c1.3-1,2.9-1.6,4.6-1.8l6.1,0l6.2,0L62.7,121.2L62.7,121.2z M64.4,149.5H48.6v-17.8
	h15.8c2.4,0,4.5,0.9,6.3,2.6c1.8,1.8,2.6,3.9,2.6,6.3s-0.9,4.5-2.6,6.3C68.9,148.6,66.8,149.5,64.4,149.5z M56.1,142h8.3
	c0.4,0,0.7-0.1,1-0.4c0.3-0.3,0.4-0.6,0.4-1c0-0.4-0.1-0.8-0.4-1c-0.3-0.3-0.6-0.4-1-0.4h-8.3V142z"/>
<path id="path_87" class="st1" d="M87.4,123.6L87.4,123.6l0-0.9l0,0V122l0,0v-0.5l0,0v-0.1c1-8.4,4.4-15.4,10.1-21.1
	c3.2-3.2,6.9-5.7,11.1-7.5c4.2-1.8,8.8-2.7,13.6-2.7c4.8,0,9.3,0.9,13.6,2.7c4.2,1.8,8,4.3,11.2,7.5c3.2,3.2,5.7,6.9,7.5,11.2
	s2.7,8.8,2.7,13.6c0,4.8-0.9,9.4-2.7,13.6s-4.3,8-7.5,11.2c-3.2,3.2-6.9,5.7-11.2,7.5c-4.2,1.8-8.8,2.7-13.6,2.7
	c-4.9,0-9.4-0.9-13.6-2.7c-4.2-1.8-7.9-4.3-11.1-7.5c-4.6-4.6-7.7-10.2-9.3-16.8H96c1.4,4.5,3.7,8.3,6.9,11.5
	c2.5,2.5,5.5,4.5,8.8,5.9c3.3,1.4,6.9,2.1,10.7,2.1c3.8,0,7.3-0.7,10.7-2.1c3.3-1.4,6.3-3.4,8.8-5.9c2.5-2.5,4.5-5.4,5.9-8.7
	c1.4-3.3,2.1-6.9,2.1-10.7c0-3.8-0.7-7.4-2.1-10.7c-1.4-3.3-3.4-6.2-5.9-8.7c-2.5-2.5-5.4-4.5-8.8-5.9c-3.3-1.4-6.9-2.1-10.7-2.1
	c-3.8,0-7.4,0.7-10.7,2.1c-3.3,1.4-6.2,3.4-8.8,5.9c-4.3,4.3-6.9,9.5-7.8,15.8H107c-0.3,1.2-0.4,2.4-0.4,3.7c0,4.4,1.5,8.1,4.6,11.2
	c3.1,3.1,6.8,4.6,11.2,4.6c4.4,0,8.1-1.5,11.2-4.6c3.1-3.1,4.6-6.8,4.6-11.2c0-4.4-1.5-8.1-4.6-11.2c-3.1-3.1-6.8-4.6-11.2-4.6
	c-4.4,0-8.1,1.5-11.2,4.6c-1,1-1.8,2.1-2.5,3.3h-8.2c1.2-3.3,3-6.1,5.4-8.5h0c2.1-2.1,4.6-3.8,7.4-5c2.8-1.2,5.8-1.8,9.1-1.8
	c3.2,0,6.2,0.6,9,1.8c2.8,1.2,5.3,2.9,7.4,5c2.1,2.1,3.8,4.6,5,7.4c1.2,2.8,1.8,5.8,1.8,9.1c0,3.2-0.6,6.2-1.8,9.1
	c-1.2,2.8-2.9,5.3-5,7.4c-2.1,2.1-4.6,3.8-7.4,5c-2.8,1.2-5.8,1.8-9,1.8c-3.2,0-6.2-0.6-9.1-1.8c-2.8-1.2-5.3-2.9-7.4-5h0
	c-3.5-3.4-5.6-7.7-6.5-12.7H87.6v-0.2l0,0v-0.5l0,0v-0.6l0,0v-0.9l0,0V123.6z"/>
<path id="path_88" class="st1" d="M161.1,123.6L161.1,123.6l0-0.9l0,0V122l0,0v-0.5l0,0v-0.1c1-8.4,4.4-15.4,10.1-21.1
	c3.2-3.2,6.9-5.7,11.1-7.5c4.2-1.8,8.8-2.7,13.6-2.7c4.8,0,9.3,0.9,13.6,2.7c4.2,1.8,8,4.3,11.2,7.5c3.2,3.2,5.7,6.9,7.5,11.2
	c1.8,4.2,2.7,8.8,2.7,13.6c0,4.8-0.9,9.4-2.7,13.6c-1.8,4.2-4.3,8-7.5,11.2c-3.2,3.2-6.9,5.7-11.2,7.5c-4.2,1.8-8.8,2.7-13.6,2.7
	c-4.9,0-9.4-0.9-13.6-2.7c-4.2-1.8-7.9-4.3-11.1-7.5c-4.6-4.6-7.7-10.2-9.3-16.8h7.7c1.4,4.5,3.7,8.3,6.9,11.5
	c2.5,2.5,5.5,4.5,8.8,5.9c3.3,1.4,6.9,2.1,10.7,2.1c3.8,0,7.3-0.7,10.7-2.1c3.3-1.4,6.3-3.4,8.8-5.9c2.5-2.5,4.5-5.4,5.9-8.7
	c1.4-3.3,2.1-6.9,2.1-10.7c0-3.8-0.7-7.4-2.1-10.7c-1.4-3.3-3.4-6.2-5.9-8.7c-2.5-2.5-5.4-4.5-8.8-5.9c-3.3-1.4-6.9-2.1-10.7-2.1
	c-3.8,0-7.4,0.7-10.7,2.1c-3.3,1.4-6.2,3.4-8.8,5.9c-4.3,4.3-6.9,9.5-7.8,15.8h11.9c-0.3,1.2-0.4,2.4-0.4,3.7
	c0,4.4,1.5,8.1,4.6,11.2c3.1,3.1,6.8,4.6,11.2,4.6c4.4,0,8.1-1.5,11.2-4.6c3.1-3.1,4.6-6.8,4.6-11.2c0-4.4-1.5-8.1-4.6-11.2
	c-3.1-3.1-6.8-4.6-11.2-4.6c-4.4,0-8.1,1.5-11.2,4.6c-1,1-1.8,2.1-2.5,3.3h-8.2c1.2-3.3,3-6.1,5.4-8.5h0c2.1-2.1,4.6-3.8,7.4-5
	c2.8-1.2,5.8-1.8,9.1-1.8c3.2,0,6.2,0.6,9,1.8c2.8,1.2,5.3,2.9,7.4,5c2.1,2.1,3.8,4.6,5,7.4c1.2,2.8,1.8,5.8,1.8,9.1
	c0,3.2-0.6,6.2-1.8,9.1c-1.2,2.8-2.9,5.3-5,7.4c-2.1,2.1-4.6,3.8-7.4,5c-2.8,1.2-5.8,1.8-9,1.8c-3.2,0-6.2-0.6-9.1-1.8
	c-2.8-1.2-5.3-2.9-7.4-5h0c-3.5-3.4-5.6-7.7-6.5-12.7h-11.8v-0.2l0,0v-0.5l0,0v-0.6l0,0v-0.9l0,0L161.1,123.6L161.1,123.6z"/>
<path id="path_89" class="st1" d="M243.3,108.7h-11.6V90h50.4v18.8h-27.2v43.7h4.1v-39.7h7.5V160h-19.1v-58.7h27.3v-3.8h-35.4v3.8
	h4.1L243.3,108.7L243.3,108.7z"/>
<path id="path_90" class="st1" d="M305.1,89.9v47.2h-7.5V97.5h-4.1v43.3c0,0.1,0.1,0.2,0.2,0.3c0.1,0.1,0.2,0.1,0.4,0.1h30.2V160
	H286v-10.8c1.1,1,2.3,1.8,3.7,2.4c1.4,0.6,2.9,0.9,4.4,0.9h22.6v-3.8H294c-2.1,0-4-0.8-5.7-2.3c-1.6-1.6-2.3-3.5-2.3-5.7V89.9H305.1
	z"/>
<path id="path_91" class="st1" d="M369.5,90v18.8h-22v2.7H340v-10.2h22v-3.8h-26.1v18.2c1.1-0.1,2.4-0.2,3.7-0.2l25.2,0.1v18.7
	h-28.4c-0.1,0-0.2,0-0.3,0.1c-0.1,0.1-0.2,0.2-0.2,0.4v17.6H362v-3.8h-22v-10.3h7.5v2.8h22V160h-41.1v-25.1c0-2.1,0.8-4,2.4-5.7
	c1.7-1.6,3.5-2.3,5.6-2.3h20.9v-3.8h-20.7c-1.6,0-3.1,0.3-4.5,0.9c-1.4,0.6-2.6,1.4-3.7,2.4V90H369.5z"/>
<path id="path_92" class="st1" d="M375.9,138.3c-0.6-2.4-0.8-4.7-0.8-7.1c0-2.8,0.4-5.5,1.2-8.3c1.4-5,4-9.5,7.8-13.2
	c5.6-5.3,12.3-8,20-8h1c6.4,0,11.9,2.2,16.6,6.6h5.7c-2-2.5-4.3-4.7-7-6.4c-4.4-2.9-9.4-4.3-14.8-4.3c-6.1,0-11.4,1.8-16.2,5.3
	c-2.6,1.4-4.9,3.1-7,5.1c-4.1,4-6.9,8.8-8.4,14.4c-0.8,3-1.3,6.1-1.3,9.1c0,2.5,0.4,5.3,1.1,8.3c-2.1-4.5-3.2-9.3-3.2-14.6
	c0-4.9,0.9-9.4,2.7-13.6c1.8-4.2,4.3-7.9,7.5-11.1c3.2-3.2,6.9-5.7,11.1-7.5c4.2-1.8,8.8-2.7,13.6-2.7c6.9,0,13.2,1.8,18.8,5.5
	c4.2,2.8,7.4,5.8,9.5,9.1c1.1,1.6,2.2,3.4,3.2,5.4c1,2,1.8,3.9,2.3,5.8h-21c-2.2-2.6-4.5-4.3-6.7-5.3c-2-0.9-4.3-1.3-7.1-1.3
	c-0.5,0-0.9,0-1.4,0c-5.8,0.4-10.4,2.3-13.9,5.9c-2.8,2.8-4.8,6.1-5.9,10c-0.6,2.1-0.9,4.2-0.9,6.3c0,1.8,0.2,3.5,0.6,5.3
	c0.6,2.6,1.8,5.1,3.4,7.4c1.7,2.3,3.9,4.2,6.8,5.9c3.1,1.7,6.6,2.5,10.4,2.5c4.1,0,7.8-0.7,11.3-2.1c3.5-1.4,6.7-3.4,9.6-6.2
	c5.1-4.8,7.9-10.7,8.5-17.7h-23v3.4H427c-0.8,5.4-3.2,9.9-7.3,13.4c-4.1,3.5-8.9,5.2-14.3,5.2c-3.2,0-6.2-0.6-9.1-1.8
	c-2.8-1.2-5.3-2.9-7.4-5c-0.9-0.9-1.7-1.9-2.4-2.9c-0.4-0.8-0.7-1.7-0.9-2.7c-0.4-1.6-0.5-3.1-0.5-4.6c0-1.9,0.3-3.8,0.8-5.6
	c1-3.4,2.7-6.3,5.2-8.8c0.6-0.6,1.4-1.2,2.1-1.7c-2.3,2.8-3.5,6.1-3.5,9.9c0,4.4,1.5,8.1,4.6,11.2c3.1,3.1,6.8,4.6,11.2,4.6
	c1.6,0,3.2-0.3,4.8-1c1.6-0.7,3-1.5,4.3-2.5h-11.8v-18.4h37.8c0.1,1.4,0.1,2.7,0.1,4c0,4-0.4,7.7-1.3,11.1c-1.1,4.5-3.5,9-7.1,13.5
	c-2,2.6-4.8,5-8.3,7.2c-5.6,3.6-11.8,5.4-18.6,5.4c-3.5,0-6.8-0.5-10.1-1.4c-3.3-1-6.3-2.5-9.2-4.6
	C381.1,150.3,377.7,145.1,375.9,138.3z"/>
<path id="path_93" class="st1" d="M449.9,138.3c-0.6-2.4-0.8-4.7-0.8-7.1c0-2.8,0.4-5.5,1.2-8.3c1.4-5,4-9.5,7.8-13.2
	c5.6-5.3,12.3-8,20-8h1c6.4,0,11.9,2.2,16.6,6.6h5.7c-2-2.5-4.3-4.7-7-6.4c-4.4-2.9-9.4-4.3-14.8-4.3c-6.1,0-11.4,1.8-16.2,5.3
	c-2.6,1.4-4.9,3.1-7,5.1c-4.1,4-6.9,8.8-8.4,14.4c-0.8,3-1.3,6.1-1.3,9.1c0,2.5,0.4,5.3,1.1,8.3c-2.1-4.5-3.2-9.3-3.2-14.6
	c0-4.9,0.9-9.4,2.7-13.6c1.8-4.2,4.3-7.9,7.5-11.1c3.2-3.2,6.9-5.7,11.1-7.5c4.2-1.8,8.8-2.7,13.6-2.7c6.9,0,13.2,1.8,18.8,5.5
	c4.2,2.8,7.4,5.8,9.5,9.1c1.1,1.6,2.2,3.4,3.2,5.4c1,2,1.8,3.9,2.3,5.8h-21c-2.2-2.6-4.5-4.3-6.7-5.3c-2-0.9-4.3-1.3-7.1-1.3
	c-0.5,0-0.9,0-1.4,0c-5.8,0.4-10.4,2.3-13.9,5.9c-2.8,2.8-4.8,6.1-5.9,10c-0.6,2.1-0.9,4.2-0.9,6.3c0,1.8,0.2,3.5,0.6,5.3
	c0.6,2.6,1.8,5.1,3.4,7.4c1.7,2.3,3.9,4.2,6.8,5.9c3.1,1.7,6.6,2.5,10.4,2.5c4.1,0,7.8-0.7,11.3-2.1c3.5-1.4,6.7-3.4,9.6-6.2
	c5.1-4.8,7.9-10.7,8.5-17.7h-23v3.4H501c-0.8,5.4-3.2,9.9-7.3,13.4c-4.1,3.5-8.9,5.2-14.3,5.2c-3.2,0-6.2-0.6-9.1-1.8
	c-2.8-1.2-5.3-2.9-7.4-5c-0.9-0.9-1.7-1.9-2.4-2.9c-0.4-0.8-0.7-1.7-0.9-2.7c-0.4-1.6-0.5-3.1-0.5-4.6c0-1.9,0.3-3.8,0.8-5.6
	c1-3.4,2.7-6.3,5.2-8.8c0.6-0.6,1.4-1.2,2.1-1.7c-2.3,2.8-3.5,6.1-3.5,9.9c0,4.4,1.5,8.1,4.6,11.2c3.1,3.1,6.8,4.6,11.2,4.6
	c1.6,0,3.2-0.3,4.8-1c1.6-0.7,3-1.5,4.3-2.5h-11.8v-18.4h37.8c0.1,1.4,0.1,2.7,0.1,4c0,4-0.4,7.7-1.3,11.1c-1.1,4.5-3.5,9-7.1,13.5
	c-2,2.6-4.8,5-8.3,7.2c-5.6,3.6-11.8,5.4-18.6,5.4c-3.5,0-6.8-0.5-10.1-1.4c-3.3-1-6.3-2.5-9.2-4.6
	C455.1,150.3,451.7,145.1,449.9,138.3z"/>
<path id="path_94" class="st1" d="M561.5,90v18.8h-22v2.7h-7.5v-10.2h22v-3.8H528v18.2c1.1-0.1,2.4-0.2,3.7-0.2l25.2,0.1v18.7h-28.4
	c-0.1,0-0.2,0-0.3,0.1c-0.1,0.1-0.2,0.2-0.2,0.4v17.6h26.1v-3.8h-22v-10.3h7.5v2.8h22V160h-41.1v-25.1c0-2.1,0.8-4,2.4-5.7
	c1.7-1.6,3.5-2.3,5.6-2.3h20.9v-3.8h-20.7c-1.6,0-3.1,0.3-4.5,0.9c-1.4,0.6-2.6,1.4-3.7,2.4V90H561.5z"/>
<path id="path_95" class="st1" d="M594.7,121.2c3.3,0,6.1-1.2,8.4-3.5c2.3-2.3,3.5-5.1,3.5-8.3c0-3.3-1.2-6.1-3.5-8.4
	c-2.3-2.3-5.1-3.5-8.4-3.5h-18.3v14c1.3-0.5,2.7-0.7,4.1-0.7h12.8c0.4,0,0.7-0.1,1-0.4c0.3-0.3,0.4-0.6,0.4-1c0-0.4-0.1-0.8-0.4-1
	c-0.3-0.3-0.6-0.4-1-0.4h-12.8v-7.5h12.8c2.4,0,4.5,0.9,6.3,2.6c1.8,1.8,2.6,3.9,2.6,6.3c0,2.4-0.9,4.5-2.6,6.2
	c-1.8,1.8-3.9,2.6-6.3,2.6h-15.9c-1.8,0-3.4,0.4-4.9,1.1c-1.3,0.7-2.5,1.5-3.6,2.6V90h25.7c2.7,0,5.2,0.5,7.5,1.5s4.4,2.4,6.2,4.2
	c1.8,1.8,3.2,3.9,4.2,6.2c1,2.3,1.5,4.9,1.5,7.5c0,2.6-0.5,5.1-1.5,7.5c-1,2.3-2.4,4.4-4.2,6.2c-2.5,2.5-5.5,4.2-9,5.1l16.4,31.8
	h-21.4l-6.3-12.2V160h-19v-30.6c0-1.2,0.3-2.3,0.8-3.4c0.6-1.2,1.4-2.2,2.5-3c1.4-1,2.9-1.6,4.6-1.8l6.2,0l6.1,0L594.7,121.2
	L594.7,121.2z M603.4,152.5l-12.2-23.8h-10.9c-1.8,0-2.8,0.1-3.3,0.3c-0.4,0.2-0.6,0.8-0.6,1.8v21.6h4.1v-20.8h7.6l10.7,20.8H603.4z
	"/>
<path id="path_96" class="st1" d="M635.7,138c0,1.4,0.5,2.5,1.4,3.1c0.9,0.6,2.1,0.9,3.4,0.9c1.1,0,2.1-0.4,3-1.1
	c0.8-0.7,1.2-1.7,1.2-2.9c0-1.2-0.3-2.2-0.8-2.9c-0.5-0.7-1.2-1.3-2.1-1.8c-0.8-0.5-1.8-0.9-2.7-1.2c-0.1,0-0.1-0.1-0.2-0.1
	c-1.9-0.7-3.5-1.4-5-2.2c-1.5-0.8-2.9-1.9-4.3-3.4c-1.6-1.7-2.7-3.7-3.3-6.1c-0.3-1.2-0.5-2.4-0.5-3.7c0-1.1,0.1-2.2,0.4-3.3
	c0.7-2.8,1.9-5.3,3.8-7.5c2.2-2.6,4.9-4.2,8.1-4.8c0.7-0.2,1.4-0.2,2.1-0.2c2.4,0,4.7,0.9,6.9,2.8c1,1,1.8,2.1,2.4,3.5h4.4
	c-0.1-0.6-0.3-1.1-0.5-1.6c-0.7-1.6-1.7-3-3.1-4.3c-1.4-1.3-2.9-2.3-4.5-3c-1.6-0.7-3.4-1-5.3-1c-2,0-3.9,0.3-5.5,1
	c-1.7,0.7-3.2,1.6-4.6,3c-0.2,0.1-0.3,0.3-0.4,0.4c-0.8,0.7-1.6,1.4-2.3,2.2c-2.5,3-4.1,6.3-4.6,10c-0.2,1-0.2,1.9-0.2,2.9
	c0,2.6,0.6,5.2,1.8,7.7c-3.6-3.9-5.4-8.5-5.4-13.7c0-2.9,0.5-5.6,1.6-8.1c1-2.5,2.6-4.7,4.7-6.7c2.1-2,4.3-3.4,6.9-4.4
	c2.5-1,5.3-1.5,8.2-1.5c2.8,0,5.5,0.5,8,1.5c2.5,1,4.8,2.5,6.8,4.5c4.2,4,6.3,8.9,6.3,14.6v3.6h-18.1c0-0.7-0.1-1.6-0.2-2.5
	c-0.1-0.9-0.4-1.8-0.9-2.5c-0.5-0.7-1.2-1.1-2.2-1.3h-0.2c-1,0-2.1,0.4-3.1,1.2c-1.4,1.2-2.5,2.6-3.1,4.2c-0.5,1.1-0.7,2.2-0.7,3.3
	c0,0.3,0,0.6,0,0.9c0.1,1.4,0.7,2.8,1.8,4c0.9,0.9,1.9,1.7,3,2.3c1.1,0.6,2.3,1.1,3.5,1.5c1.3,0.5,2.5,1,3.7,1.6
	c2.1,1.1,3.8,2.5,5,4.2s1.9,4.1,1.9,6.9c0,3.2-1.1,5.8-3.3,8c-2.3,2.1-5,3.2-8.1,3.2c-3.3,0-6.1-1-8.5-3.1c-1.4-1.2-2.4-2.7-3-4.5
	h-4.5c0.7,2.6,2.1,4.9,4.2,6.8c1.6,1.5,3.3,2.6,5.2,3.3c1.8,0.7,3.8,1.1,6.1,1.1c2.2,0,4.2-0.4,6.1-1.1c1.9-0.7,3.6-1.9,5.2-3.4
	c3.1-3,4.7-6.6,4.7-10.9c0-2.4-0.4-4.5-1.3-6.2c-1.4-2.6-3.4-4.7-6-6.2c-2.1-1.1-4.2-2-6.4-2.7c-0.5-0.2-1.1-0.3-1.6-0.5
	c-1.4-0.5-2.5-1.3-3.4-2.2c-0.7-0.8-1-1.8-1-2.7c0-0.2,0-0.5,0-0.7c0.2-1.3,0.7-2.4,1.6-3.4l0.3-0.3c0.5,0.6,1.2,1.1,2.2,1.5
	c0.9,0.4,1.8,0.7,2.6,1c1.5,0.5,2.9,1,4.1,1.4c1.9,0.6,3.7,1.4,5.5,2.5c3.9,2.3,6.8,5.4,8.8,9.4c1.3,2.8,1.9,5.8,1.9,9.2
	c0,6.3-2.3,11.7-6.9,16.1c-2.2,2.2-4.7,3.8-7.5,4.9c-2.7,1.1-5.6,1.7-8.7,1.7c-3.1,0-5.9-0.5-8.6-1.6c-2.7-1-5.2-2.6-7.4-4.7
	c-4.7-4.2-7-9.5-7-15.7v-3.6h18.8L635.7,138L635.7,138z"/>
<path id="path_97" class="st2" d="M36.3,198.3H305"/>
<path id="path_98" class="st2" d="M394.3,198.3H663"/>
<path id="path_99" class="st1" d="M349.7,170.8c-15.2,0-27.5,12.3-27.5,27.5s12.3,27.5,27.5,27.5c15.2,0,27.5-12.3,27.5-27.5
	S364.9,170.8,349.7,170.8z M333.8,185.4h14.5v-4.5l3.4,0.2c0,0.3-0.3,0.5-0.8,0.5v3.8h14.7v7.5H363v-5.1h-26.7v5.1h-2.5V185.4z
	 M365.9,213.1c-7.8-2.8-12.8-9.8-15.5-18.5c-1.2,0.9-2.7,1.8-4.2,2.6c5.2,3.8,7.5,8.6,7.5,12.5c0,4.1-2.6,6.6-6.5,6.6
	c-1,0-2.2,0-3.4-0.1c0-0.6-0.3-1.7-0.7-2.4c1.4,0.1,2.7,0.2,3.6,0.2c1.1,0,2-0.1,2.8-0.7c1.1-0.7,1.7-2.1,1.7-3.8
	c0-1.1-0.2-2.2-0.7-3.5c-4.2,3.6-10.7,7.2-16.2,9c-0.3-0.6-0.8-1.6-1.4-2.2c5.8-1.6,12.8-5.3,16.6-8.9c-0.5-0.8-1.1-1.6-1.8-2.4
	c-3.3,2.4-8.4,5.1-12.4,6.5c-0.3-0.6-0.9-1.5-1.4-2c4-1.2,9.3-3.6,12.3-5.9c-0.6-0.6-1.4-1.2-2.2-1.7c-2.8,1.3-5.9,2.4-8.8,3.3
	c-0.3-0.5-0.9-1.5-1.3-1.9c4.7-1.2,10-3.2,13.7-5.7h-9v-2.2h21.8v2.2h-8c0.8,2.5,1.8,4.9,3.1,7.1c2.5-1.6,5.5-3.7,7.4-5.4l2.3,2.1
	c-0.2,0.2-0.5,0.2-0.8,0.2c-1.9,1.5-5.1,3.5-7.6,5c2.7,3.8,6.3,6.6,10.8,8.1C367,211.4,366.3,212.4,365.9,213.1z"/>
</svg>
