<?xml version="1.0" encoding="utf-8"?>
<!-- Generator: Adobe Illustrator 25.1.0, SVG Export Plug-In . SVG Version: 6.00 Build 0)  -->
<svg version="1.1" id="Capa_1" xmlns="http://www.w3.org/2000/svg" xmlns:xlink="http://www.w3.org/1999/xlink" x="0px" y="0px"
	 viewBox="0 0 1000 1000" style="enable-background:new 0 0 1000 1000;" xml:space="preserve">
<style type="text/css">
	.st0{fill:none;stroke:#000000;stroke-width:35;stroke-miterlimit:10;}
</style>
<g>
	<path class="st0" d="M921.59,455.24c-60.37,47.88-137.41,98.89-202.99,135.32c61.42,100.97,144.69,180.08,250.87,223.81
		c-22.9,19.78-53.09,57.25-67.66,84.32c-191.54-92.64-303.96-287.3-366.42-530.89h-2.08c-28.11,23.94-61.42,46.84-95.77,66.62
		c196.74,171.76,192.58,433.04,91.6,505.9c-36.43,29.15-66.62,38.52-116.59,38.52c-26.02,0-57.25-1.04-89.52-3.12
		c-2.08-26.02-10.41-64.54-27.07-92.64c37.48,4.16,71.83,5.2,96.81,5.2c27.06,0,48.92-2.08,68.7-20.82
		c31.23-22.9,46.84-85.36,34.35-159.27c-113.46,88.48-276.89,174.88-414.3,220.68c-12.49-22.9-32.27-59.34-51.01-80.15
		c153.02-39.56,336.23-131.16,439.28-223.81c-8.33-17.7-17.7-35.39-28.11-53.09c-88.48,61.42-221.72,128.04-325.82,165.51
		c-10.41-22.9-31.23-55.17-48.92-74.95c107.22-28.11,250.87-90.56,329.98-148.86c-11.45-12.49-23.94-24.98-38.52-36.43
		c-80.15,38.52-168.63,69.74-250.87,92.64c-9.37-17.7-35.39-58.29-51.01-74.95c118.67-27.07,246.71-70.78,341.43-127H206.45v-83.28
		h569.4v83.28H622.83c14.57,52.05,33.31,103.05,55.17,149.9c59.33-38.51,124.91-87.44,167.59-127L921.59,455.24z M159.61,325.12
		H63.84V108.6h378.91V21.16h99.93v87.44h385.15v216.52h-97.85V197.08H159.61V325.12z"/>
</g>
</svg>
