<svg
    xmlns="http://www.w3.org/2000/svg"
    viewBox="0 0 700 300"
    id="vector">
    <path
        id="path"
        d="M 358.93 186.22 C 343.97 200.44 321.96 214.82 298.5 226.5 L 267.91 257.09 C 302.36 243.83 340.35 221.99 365.64 200.15 C 368.99 208.66 370.54 216.66 370.54 223.89 C 370.54 235.76 366.41 245.3 359.19 249.95 C 353.77 254.34 347.58 254.85 340.1 254.85 C 334.42 254.85 325.39 254.59 315.85 253.82 C 318.69 258.46 320.24 265.69 320.49 270.07 C 329 270.59 337.26 270.84 343.71 270.84 C 370.54 270.84 388.09 253.81 388.09 225.95 C 388.09 206.91 379.95 184.16 361.69 163.32 L 350.5 174.51 C 353.65 178.35 356.5 182.28 358.93 186.22 Z"
        fill="#000000"
        stroke-opacity="0.12"
        stroke-width="5"/>
    <path
        id="path_1"
        d="M 461.9 98.7 L 466.3 98.7 C 467.28 98.74 468.22 98.94 469.1 99.27 L 469.1 60.83 L 464.17 60.83 L 448.17 76.83 L 451.55 76.83 L 451.55 111.66 L 453 111.66 L 453 107.6 C 453 102.7 457 98.7 461.9 98.7 Z"
        fill="#000000"
        stroke-opacity="0.12"
        stroke-width="5"/>
    <path
        id="path_2"
        d="M 415 118.5 C 415 118.54 414.99 118.58 414.99 118.62 L 433.75 118.62 L 433.75 103.4 L 421.6 103.4 L 415.01 109.99 L 415.01 118.5 Z"
        fill="#000000"
        stroke-opacity="0.12"
        stroke-width="5"/>
    <path
        id="path_3"
        d="M 408.98 179.51 C 423.16 171.26 440.1 160.58 453 151.31 L 453 132.46 L 450.52 130.23 C 441.17 138.46 428.02 148.31 415 157.15 L 415 161.2 C 415 166 411.1 169.9 406.3 170.1 L 401.9 170.1 C 397 170.1 393 166.1 393 161.2 L 393 152.94 C 390.66 148.25 388.47 143.45 386.45 138.55 L 375.22 149.78 C 394.88 196.27 426.15 232.79 470.91 249.17 C 473.75 244.53 478.65 237.82 482.52 234.46 C 452.07 224.66 427.56 205.05 408.98 179.51 Z"
        fill="#000000"
        stroke-opacity="0.12"
        stroke-width="5"/>
    <path
        id="path_4"
        d="M 246.19 246.85 C 249.8 250.72 253.41 257.17 255.48 261.56 C 259.55 260.21 263.71 258.71 267.91 257.09 L 298.5 226.5 C 281.1 235.16 262.9 242.34 246.19 246.85 Z"
        fill="#000000"
        stroke-opacity="0.3"
        stroke-width="5"/>
    <path
        id="path_5"
        d="M 379.32 118.63 L 393.01 118.63 L 393.01 107.61 C 393.01 106.09 393.39 104.66 394.07 103.41 L 354.97 103.41 L 354.42 104.61 C 354.02 105.51 352.92 106.61 350.62 106.61 L 344.82 106.61 C 343.82 106.61 343.12 107.31 343.12 108.31 L 343.12 118.63 L 347.08 118.63 C 345.79 119.51 344.46 120.38 343.12 121.25 L 343.12 129.11 L 353.92 129.11 C 353.46 130.13 352.88 131.51 352.41 132.62 C 357.12 129.65 361.58 126.59 365.66 123.53 C 368.48 132.57 371.67 141.34 375.24 149.78 L 386.47 138.55 C 383.77 132.06 381.37 125.41 379.32 118.63 Z"
        fill="#000000"
        stroke-opacity="0.3"
        stroke-width="5"/>
    <path
        id="path_6"
        d="M 415 110 L 421.59 103.41 L 413.92 103.41 C 414.61 104.66 415 106.09 415 107.61 L 415 110 Z"
        fill="#000000"
        stroke-opacity="0.3"
        stroke-width="5"/>
    <path
        id="path_7"
        d="M 358.1 162.3 C 357.3 164.1 356.1 166.9 355.8 167.5 C 355.3 168.4 354.2 169.4 351.9 169.4 L 335.9 169.4 L 335.9 161.4 C 314.84 176.6 280.18 192.83 253.41 200.66 C 256.76 204.27 260.63 210.21 262.7 214.33 C 289.79 204.53 324.62 186.73 346.81 170.21 C 348.08 171.62 349.31 173.05 350.49 174.49 L 361.68 163.3 C 356.36 157.23 350.18 151.33 343.1 145.73 L 343.1 162.29 L 358.1 162.29 Z"
        fill="#000000"
        stroke-opacity="0.3"
        stroke-width="5"/>
    <path
        id="path_8"
        d="M 287.3 103.4 L 335.9 103.4 L 335.9 118.62 L 287.3 118.62 Z"
        fill="#000000"
        stroke-opacity="0.3"
        stroke-width="5"/>
    <path
        id="path_9"
        d="M 253.93 157.58 C 256.51 160.68 260.64 167.38 262.7 170.74 C 268.41 169.09 274.24 167.26 280.1 165.31 L 280.1 149.96 C 271.26 152.88 262.44 155.44 253.93 157.58 Z"
        fill="#000000"
        stroke-opacity="0.3"
        stroke-width="5"/>
    <path
        id="path_10"
        d="M 343.1 138 L 343.1 138.14 C 344.17 137.53 345.24 136.92 346.29 136.3 L 344.79 136.3 C 343.9 136.3 343.1 137.1 343.1 138 Z"
        fill="#000000"
        stroke-opacity="0.3"
        stroke-width="5"/>
    <path
        id="path_11"
        d="M 287.3 147.51 L 287.3 162.31 L 288.8 162.31 C 300.2 158.24 311.63 153.66 322.56 148.56 C 327.43 152.04 331.87 155.72 335.91 159.25 L 335.91 125.64 C 321.34 134.07 304.43 141.46 287.3 147.51 Z"
        fill="#000000"
        stroke-opacity="0.3"
        stroke-width="5"/>
    <path
        id="path_12"
        d="M 369.25 60.83 L 369.25 35.29 C 372.6 35.03 374.15 33.74 374.41 31.94 L 351.45 30.39 L 351.45 60.83 L 253.15 60.83 L 253.15 111.66 L 269.92 111.66 L 269.92 76.83 L 448.17 76.83 L 464.17 60.83 L 369.25 60.83 Z"
        fill="#000000"
        stroke-opacity="0.3"
        stroke-width="5"/>
    <path
        id="path_13"
        d="M 63.91 138.1 L 63.91 158.6 C 63.81 163.5 59.91 167.4 55.01 167.4 L 42.01 167.4 L 42.01 97.4 L 55.01 97.4 C 59.91 97.4 63.81 101.3 63.91 106.2 L 63.91 126.7 C 63.91 126.7 64.01 131.1 59.81 132.4 C 64.01 133.7 63.91 138.1 63.91 138.1 Z M 56.71 108.2 C 56.71 105.6 54.91 104.6 53.01 104.6 L 49.11 104.6 L 49.11 129.1 L 53.01 129.1 C 54.91 129.1 56.71 128.2 56.71 125 L 56.71 108.2 Z M 56.71 139.7 C 56.71 136.6 54.91 135.7 53.01 135.7 L 49.11 135.7 L 49.11 160.3 L 53.01 160.3 C 54.91 160.3 56.71 159.3 56.71 156.6 L 56.71 139.7 Z"
        fill="#000000"/>
    <path
        id="path_14"
        d="M 115.91 96.7 C 120.71 96.9 124.61 100.8 124.61 105.6 L 124.61 159.3 C 124.51 164.1 120.71 167.9 115.91 168.1 L 110.41 168.1 C 105.51 168.1 101.51 164.1 101.41 159.3 L 101.41 105.6 C 101.41 100.7 105.41 96.7 110.41 96.7 L 115.91 96.7 Z M 113.51 161.8 C 115.61 161.8 117.31 160.1 117.31 157.9 L 117.31 106.9 C 117.31 104.7 115.61 103 113.51 103 L 112.41 103 C 110.31 103.1 108.61 104.8 108.61 106.9 L 108.61 157.9 C 108.61 160 110.31 161.7 112.41 161.8 L 113.51 161.8 Z"
        fill="#000000"/>
    <path
        id="path_15"
        d="M 175.91 96.7 C 180.71 96.9 184.61 100.8 184.61 105.6 L 184.61 159.3 C 184.51 164.1 180.71 167.9 175.91 168.1 L 170.41 168.1 C 165.51 168.1 161.51 164.1 161.41 159.3 L 161.41 105.6 C 161.41 100.7 165.41 96.7 170.41 96.7 L 175.91 96.7 Z M 173.51 161.8 C 175.61 161.8 177.31 160.1 177.31 157.9 L 177.31 106.9 C 177.31 104.7 175.61 103 173.51 103 L 172.41 103 C 170.31 103.1 168.61 104.8 168.61 106.9 L 168.61 157.9 C 168.61 160 170.31 161.7 172.41 161.8 L 173.51 161.8 Z"
        fill="#000000"/>
    <path
        id="path_16"
        d="M 244.71 102.6 C 244.31 103.5 243.21 104.5 240.91 104.5 L 235.31 104.5 C 234.31 104.5 233.61 105.3 233.51 106.2 L 233.51 167.4 L 228.41 167.4 C 226.71 167.4 226.41 166.4 226.41 165.9 L 226.41 104.5 L 216.31 104.5 L 216.31 99.6 C 216.31 98.4 217.31 97.4 218.51 97.4 L 247.11 97.4 L 244.71 102.6 Z"
        fill="#000000"/>
    <path
        id="path_17"
        d="M 302.51 160.3 C 301.71 162.1 300.51 164.9 300.21 165.5 C 299.71 166.4 298.61 167.4 296.31 167.4 L 279.11 167.4 L 279.11 97.4 L 284.11 97.4 C 285.31 97.5 286.31 98.4 286.31 99.6 L 286.31 160.3 L 302.51 160.3 Z"
        fill="#000000"/>
    <path
        id="path_18"
        d="M 357.1 160.3 C 356.3 162.1 355.1 164.9 354.8 165.5 C 354.3 166.4 353.2 167.4 350.9 167.4 L 334.9 167.4 L 334.9 99.4 C 335 98.3 335.9 97.4 337.1 97.4 L 355.8 97.4 L 353.4 102.6 C 353 103.5 351.9 104.6 349.6 104.6 L 343.8 104.6 C 342.8 104.6 342.1 105.3 342.1 106.3 L 342.1 127.1 L 352.9 127.1 C 352.1 128.9 350.9 131.8 350.6 132.4 C 350.1 133.3 349.1 134.3 346.8 134.3 L 343.8 134.3 C 342.9 134.3 342.1 135.1 342.1 136 L 342.1 160.3 L 357.1 160.3 Z"
        fill="#000000"/>
    <path
        id="path_19"
        d="M 414 116.5 C 414 118.9 413 119.9 412 120.4 C 411.5 120.7 408.7 122 406.8 122.8 L 406.8 106.8 C 406.8 104.7 405.1 103 403 103 C 400.9 103 399.2 104.7 399.2 106.8 L 399.2 158 C 399.2 160.1 400.9 161.8 403 161.8 C 405.1 161.8 406.8 160.1 406.8 158 L 406.8 137.1 L 406.5 137.1 C 404.9 137.1 403.9 134.8 403.9 134.8 L 401.5 129.8 L 410.5 129.8 C 412.7 129.8 414 131 414 133.7 L 414 159.2 C 414 164 410.1 167.9 405.3 168.1 L 400.9 168.1 C 396 168.1 392 164.1 392 159.2 L 392 105.6 C 392 100.7 396 96.7 400.9 96.7 L 405.3 96.7 C 410.1 96.9 414 100.8 414 105.6 L 414 116.5 Z"
        fill="#000000"/>
    <path
        id="path_20"
        d="M 474 116.5 C 474 118.9 473 119.9 472 120.4 C 471.5 120.7 468.7 122 466.8 122.8 L 466.8 106.8 C 466.8 104.7 465.1 103 463 103 C 460.9 103 459.2 104.7 459.2 106.8 L 459.2 158 C 459.2 160.1 460.9 161.8 463 161.8 C 465.1 161.8 466.8 160.1 466.8 158 L 466.8 137.1 L 466.5 137.1 C 464.9 137.1 463.9 134.8 463.9 134.8 L 461.5 129.8 L 470.5 129.8 C 472.7 129.8 474 131 474 133.7 L 474 159.2 C 474 164 470.1 167.9 465.3 168.1 L 460.9 168.1 C 456 168.1 452 164.1 452 159.2 L 452 105.6 C 452 100.7 456 96.7 460.9 96.7 L 465.3 96.7 C 470.1 96.9 474 100.8 474 105.6 L 474 116.5 Z"
        fill="#000000"/>
    <path
        id="path_21"
        d="M 537.1 160.3 C 536.3 162.1 535.1 164.9 534.8 165.5 C 534.3 166.4 533.2 167.4 530.9 167.4 L 514.9 167.4 L 514.9 99.4 C 515 98.3 515.9 97.4 517.1 97.4 L 535.8 97.4 L 533.4 102.6 C 533 103.5 531.9 104.6 529.6 104.6 L 523.8 104.6 C 522.8 104.6 522.1 105.3 522.1 106.3 L 522.1 127.1 L 532.9 127.1 C 532.1 128.9 530.9 131.8 530.6 132.4 C 530.1 133.3 529.1 134.3 526.8 134.3 L 523.8 134.3 C 522.9 134.3 522.1 135.1 522.1 136 L 522.1 160.3 L 537.1 160.3 Z"
        fill="#000000"/>
    <path
        id="path_22"
        d="M 586.6 167.4 L 586.6 141.8 C 586.6 138.4 584.8 137.3 582.9 137.3 L 579.1 137.3 L 579.1 167.4 L 571.9 167.4 L 571.9 97.4 L 585 97.4 C 589.8 97.4 593.8 101.3 593.8 106.2 L 593.8 127.8 C 593.8 127.8 594.1 133.3 591.2 134 C 594 135.4 593.8 140.6 593.8 140.6 L 593.8 167.4 L 586.6 167.4 Z M 582.9 130.5 C 584.8 130.5 586.6 129.7 586.6 126.5 L 586.6 107.7 C 586.6 105.1 584.8 104.1 582.9 104.1 L 579.1 104.1 L 579.1 130.5 L 582.9 130.5 Z"
        fill="#000000"/>
    <path
        id="path_23"
        d="M 646.8 115 L 646.8 106.9 C 646.8 104.7 645.1 103 643 103 C 640.9 103 639.2 104.7 639.2 106.9 L 639.2 113.6 C 639.2 117.7 642.3 123 642.3 123 L 650.9 139.2 C 654.4 145.6 654.1 150.3 654.1 150.3 L 654.1 159.2 C 654.1 164.1 650.1 168.1 645.1 168.1 L 640.6 168.1 C 635.8 167.9 632 164 631.9 159.2 L 631.9 152 C 631.9 149.7 633 148.6 633.9 148.1 C 634.5 147.9 637.4 146.6 639.2 145.8 L 639.2 158 C 639.2 160.1 640.9 161.8 643 161.8 C 645.1 161.8 646.8 160.1 646.8 157.9 L 646.8 149.9 C 646.8 145.8 643.7 140.4 643.7 140.4 L 635.1 124.3 C 631.6 117.9 631.9 113.2 631.9 113.2 L 631.9 106 C 631.9 101.1 635.9 96.7 640.9 96.7 L 645.4 96.7 C 650.2 96.8 654.1 101.2 654.1 106 L 654.1 108.7 C 654.1 111 653 112.1 652.1 112.6 C 651.5 112.9 648.7 114.2 646.8 115 Z"
        fill="#000000"/>
    <path
        id="path_24"
        d="M 41 189.7 L 654 189.7"
        fill="#000000"
        stroke="#000000"
        stroke-width="5"/>
    <path
        id="path_25"
        d="M 108.62 210.1 C 108.54 210.42 108.47 210.75 108.37 211.05 C 112.77 211.82 114.39 214.57 114.39 217.52 C 114.39 221.49 110.99 223.89 104.74 224.59 C 104.64 224.24 104.29 223.49 104.06 223.09 C 109.23 222.59 112.56 220.79 112.56 217.57 L 112.56 217.4 C 112.43 214.5 110.49 213.08 107.81 212.63 C 106.73 215.45 104.91 218.08 102.84 219.98 C 103.01 220.5 103.24 220.96 103.49 221.33 L 102.01 222.26 C 101.79 221.91 101.58 221.49 101.41 221.01 C 99.41 222.49 97.81 222.89 96.69 222.89 C 94.69 222.89 93.67 221.41 93.67 219.57 C 93.67 216.12 96.52 213.37 100.14 211.92 C 100.09 210.62 100.09 209.2 100.11 207.72 C 95.89 207.72 95.44 207.72 94.61 207.67 L 94.56 206.02 C 95.83 206.1 98.01 206.1 100.16 206.1 C 100.19 204.95 100.24 203.55 100.29 202.38 L 102.79 202.55 C 102.76 202.8 102.51 203 102.14 203.05 C 102.06 203.98 102.01 205.12 101.94 206.05 C 104.66 205.97 109.44 205.65 111.96 205 L 112.18 206.7 C 109.53 207.35 104.71 207.6 101.86 207.68 C 101.81 208.98 101.78 210.23 101.81 211.4 C 103.56 210.85 105.13 210.83 105.56 210.83 C 105.94 210.83 106.26 210.83 106.58 210.86 C 106.68 210.46 106.75 210.09 106.83 209.69 L 108.62 210.1 Z M 100.95 219.43 C 100.55 217.88 100.32 215.91 100.22 213.58 C 97.5 214.78 95.37 216.85 95.37 219.28 C 95.37 220.76 96.19 221.25 97.1 221.2 C 98.27 221.18 99.62 220.5 100.95 219.43 Z M 106.07 212.4 C 105.67 212.38 103.72 212.32 101.85 213 C 101.9 215.03 102.07 216.75 102.42 218.15 C 103.92 216.63 105.27 214.6 106.07 212.4 Z"
        fill="#000000"/>
    <path
        id="path_26"
        d="M 146.95 202.63 C 146.87 202.83 146.63 203.03 146.18 203.06 C 146.01 204.16 145.78 205.46 145.55 206.43 C 148 206.28 150.72 205.86 152.9 205.2 L 153.18 206.9 C 150.86 207.47 148.11 207.88 145.23 208.1 C 144.03 212.9 142.38 216.8 139.93 220.4 L 138.26 219.72 C 140.53 216.45 142.26 212.7 143.33 208.15 L 138.36 208.15 L 138.36 206.53 L 141.33 206.53 C 142.1 206.53 142.91 206.5 143.63 206.5 C 143.93 205.18 144.15 203.75 144.33 202.28 L 146.95 202.63 Z M 153.6 213.28 C 153.63 215.3 153.77 216.68 153.92 218.4 C 155.52 219.03 157.59 220.1 159.24 221.3 L 158.34 222.9 C 156.96 221.85 155.27 220.88 153.92 220.27 C 153.92 222.77 152.92 224.72 149.25 224.72 C 146.48 224.72 144.35 223.47 144.38 221.12 C 144.38 218.62 147.01 217.42 149.3 217.42 C 150.2 217.42 151.13 217.59 152.12 217.87 C 152.02 216.27 151.9 214.65 151.9 213.47 L 153.6 213.28 Z M 152.22 219.52 C 151.2 219.12 150.14 218.95 149.25 218.95 C 147.75 218.95 145.98 219.55 145.95 221.1 C 145.95 222.52 147.35 223.2 149.3 223.2 C 151.1 223.2 152.25 222.32 152.25 220.68 C 152.25 220.27 152.25 219.9 152.22 219.52 Z M 159.07 210.7 C 156.25 210.72 152.82 211.17 150.22 211.93 L 149.94 210.36 C 152.79 209.54 156.24 209.01 158.96 209.01 L 159.07 210.7 Z"
        fill="#000000"/>
    <path
        id="path_27"
        d="M 197.7 207.38 C 195.58 208.13 192.75 208.61 190.03 208.8 C 188.98 214.52 187.46 220.22 185.46 224.42 L 183.66 223.74 C 185.71 219.72 187.21 214.54 188.18 208.87 C 187.68 208.89 184.33 208.92 183.58 208.89 L 183.55 207.19 C 183.95 207.21 184.48 207.21 185.05 207.21 C 185.27 207.21 187.77 207.21 188.42 207.19 C 188.67 205.59 188.92 203.84 189.07 202.32 L 191.64 202.57 C 191.61 202.84 191.26 203.04 190.91 203.07 C 190.76 204.17 190.51 205.52 190.28 207.04 C 192.73 206.82 195.2 206.39 197.28 205.64 L 197.7 207.38 Z M 204.34 224.02 C 203.59 224.05 202.82 224.07 202.04 224.07 C 199.69 224.07 197.47 223.89 196.12 223.52 C 194.35 223.02 193.32 221.72 193.35 220.07 C 193.38 218.97 193.85 217.72 194.9 216.44 L 196.4 217.09 C 195.52 218.11 195.1 219.09 195.1 219.86 C 195.1 221.84 197 222.33 201.55 222.33 C 202.48 222.33 203.43 222.3 204.35 222.23 L 204.35 224.02 Z M 194.6 211.98 C 197.18 211.16 200.72 210.63 203.67 210.71 L 203.67 212.41 C 200.85 212.33 197.57 212.73 195.02 213.54 L 194.6 211.98 Z"
        fill="#000000"/>
    <path
        id="path_28"
        d="M 229.75 223.73 C 228.98 221.93 228.67 218.21 228.67 214.93 C 228.67 211.61 229.19 207.43 230.02 203.26 L 232.44 203.73 C 232.39 203.98 232.14 204.16 231.79 204.18 C 230.89 207.6 230.34 212.05 230.34 214.95 C 230.34 216.85 230.37 218.75 230.56 219.67 C 231.11 218.17 232.11 215.77 232.64 214.6 L 233.77 215.65 C 232.95 217.35 231.2 221.15 231.2 222.32 C 231.2 222.67 231.28 223.05 231.45 223.52 L 229.75 223.73 Z M 236.1 209 C 238.2 209.02 240.3 209.05 242.4 208.9 C 242.3 206.75 242.23 204.9 242.18 203.05 L 244.7 203.13 C 244.67 203.38 244.45 203.58 244.05 203.65 C 244.08 205.25 244.13 206.87 244.18 208.77 C 246.16 208.57 247.75 208.22 249.08 207.77 L 249.3 209.52 C 248.1 209.9 246.38 210.25 244.25 210.42 C 244.35 213.19 244.47 216.12 244.55 217.72 C 246.45 218.49 248.35 219.72 249.65 220.89 L 248.67 222.49 C 247.65 221.47 246.17 220.37 244.62 219.64 C 244.59 221.77 244.19 224.14 240.45 224.14 C 237.53 224.14 235.58 222.74 235.58 220.54 C 235.58 217.99 238.15 216.87 240.45 216.87 C 241.22 216.87 242.05 216.97 242.82 217.19 C 242.74 215.62 242.6 212.99 242.47 210.54 C 241.7 210.59 240.64 210.62 239.92 210.62 L 236.12 210.62 L 236.1 209 Z M 242.95 218.83 C 242.15 218.58 241.3 218.38 240.48 218.38 C 238.96 218.38 237.13 218.93 237.13 220.51 C 237.13 221.91 238.63 222.61 240.45 222.61 C 242.3 222.61 242.97 221.71 242.97 219.71 L 242.95 218.83 Z"
        fill="#000000"/>
    <path
        id="path_29"
        d="M 285.65 210.43 C 286.15 212.08 286.85 213.65 287.7 215.08 C 289.35 214.06 291.3 212.66 292.55 211.56 L 294.07 212.94 C 293.97 213.04 293.75 213.07 293.55 213.04 C 292.28 214.04 290.2 215.36 288.53 216.34 C 290.33 218.81 292.7 220.71 295.65 221.66 C 295.27 221.98 294.8 222.64 294.52 223.08 C 289.4 221.2 286.1 216.61 284.32 210.91 C 283.52 211.51 282.57 212.11 281.57 212.64 C 285.02 215.11 286.49 218.31 286.49 220.84 C 286.49 223.54 284.79 225.19 282.19 225.19 C 281.56 225.19 280.77 225.16 279.94 225.11 C 279.91 224.68 279.77 223.98 279.49 223.53 C 280.42 223.61 281.29 223.63 281.84 223.63 C 282.57 223.63 283.17 223.58 283.69 223.16 C 284.39 222.71 284.79 221.78 284.79 220.64 C 284.79 219.94 284.64 219.16 284.32 218.34 C 281.57 220.71 277.27 223.09 273.65 224.29 C 273.45 223.86 273.1 223.24 272.75 222.87 C 276.55 221.85 281.15 219.4 283.67 217 C 283.35 216.48 282.94 215.95 282.5 215.45 C 280.35 217.05 276.98 218.77 274.35 219.72 C 274.15 219.32 273.78 218.74 273.45 218.39 C 276.1 217.62 279.55 215.99 281.57 214.49 C 281.14 214.11 280.67 213.72 280.15 213.34 C 278.27 214.22 276.25 214.94 274.35 215.49 C 274.15 215.17 273.75 214.51 273.5 214.22 C 276.57 213.45 280.07 212.12 282.52 210.45 L 276.6 210.45 L 276.6 208.97 L 290.92 208.97 L 290.92 210.45 L 285.65 210.45 Z M 275.05 206.38 L 275.05 209.75 L 273.42 209.75 L 273.42 204.83 L 282.94 204.83 L 282.94 201.88 L 285.16 202.03 C 285.13 202.2 284.99 202.33 284.66 202.35 L 284.66 204.82 L 294.33 204.82 L 294.33 209.74 L 292.63 209.74 L 292.63 206.37 L 275.05 206.37 Z"
        fill="#000000"/>
    <path
        id="path_30"
        d="M 330.32 206.45 C 330.22 206.67 330.02 206.85 329.69 206.85 C 328.79 214.62 326.19 221.4 322.04 221.4 C 319.94 221.4 318.04 219.3 318.04 215.35 C 318.04 209.35 322.71 204.33 329.29 204.33 C 336.51 204.33 339.64 208.9 339.64 213.78 C 339.64 219.73 336.19 222.6 330.14 224 C 329.92 223.6 329.49 222.92 329.09 222.48 C 334.84 221.38 337.79 218.58 337.79 213.86 C 337.79 209.74 335.14 205.99 329.29 205.99 C 329.04 205.99 328.77 206.01 328.54 206.04 L 330.32 206.45 Z M 327.92 206.13 C 322.87 206.76 319.75 210.93 319.75 215.3 C 319.75 217.97 320.9 219.65 322.1 219.65 C 325.12 219.65 327.3 212.98 327.92 206.13 Z"
        fill="#000000"/>
    <path
        id="path_31"
        d="M 380.74 222.88 C 378.59 221.18 375.87 219.56 373.24 218.71 C 373.29 219.69 373.11 220.96 372.92 221.61 C 372.72 223.68 370.79 224.48 368.5 224.48 C 365.28 224.48 362.73 222.91 362.7 220.38 C 362.65 217.86 365.3 216.31 368.45 216.28 C 369.32 216.28 370.45 216.33 371.37 216.51 C 371.37 215.83 371.24 215.26 371.22 214.68 C 370.99 211.41 370.79 206.16 370.77 202.56 L 373.37 202.71 C 373.37 202.96 373.14 203.18 372.72 203.23 C 372.7 203.91 372.72 207.2 372.72 207.95 C 374.35 207.95 377.99 207.67 381.02 207.15 L 381.19 208.92 C 378.34 209.37 374.64 209.62 372.74 209.65 C 372.74 211.07 372.79 211.65 373.17 216.82 C 376.39 217.77 379.44 219.47 381.89 221.27 L 380.74 222.88 Z M 368.4 217.78 C 366 217.83 364.33 218.83 364.33 220.25 C 364.33 222.07 366.31 222.87 368.3 222.87 C 370.05 222.87 371.5 222.24 371.5 220.47 C 371.5 219.9 371.5 218.87 371.45 218.15 C 370.45 217.85 369.35 217.78 368.4 217.78 Z"
        fill="#000000"/>
    <path
        id="path_32"
        d="M 405.42 211.1 C 409.17 210.08 413.89 209.05 415.77 209.05 C 419.52 209.05 421.72 211.05 421.72 214.75 L 421.72 214.95 C 421.67 219.5 418.1 222.82 410.92 224.75 C 410.69 224.32 410.17 223.65 409.79 223.23 C 416.19 221.71 419.81 218.71 419.81 214.91 C 419.81 212.51 418.66 210.79 415.69 210.79 C 413.69 210.79 409.72 211.69 406.64 212.77 C 406.67 212.97 406.42 213.22 406.17 213.34 L 405.42 211.1 Z M 408.92 202.46 C 412.34 202.76 416.29 203.48 418.97 204.41 L 418.45 206.16 C 415.8 205.26 411.75 204.43 408.5 204.16 L 408.92 202.46 Z"
        fill="#000000"/>
    <path
        id="path_33"
        d="M 450.7 203.76 C 450.62 204.03 450.38 204.19 449.88 204.16 C 449 208.23 448.55 212.71 448.55 215.41 C 448.55 217.28 448.63 219.18 448.87 220.36 C 449.34 219.13 450.42 216.51 450.77 215.64 L 451.82 216.74 C 450.8 219.26 450.05 220.69 449.69 221.81 C 449.56 222.24 449.49 222.63 449.49 222.98 C 449.49 223.26 449.54 223.5 449.62 223.75 L 447.85 224.07 C 447.05 221.69 446.75 218.8 446.75 215.47 C 446.75 212.2 447.27 207.62 448.08 203.3 L 450.7 203.76 Z M 466.62 222.02 C 465.72 222.07 464.8 222.1 463.87 222.1 C 462.1 222.1 460.42 222 459.22 221.82 C 456.15 221.37 454.72 219.67 454.72 217.67 C 454.72 215.94 455.67 214.5 457.07 212.85 L 458.69 213.55 C 457.44 214.85 456.57 216.05 456.57 217.47 C 456.57 220.37 460.82 220.37 463.42 220.37 C 464.47 220.37 465.59 220.32 466.64 220.24 L 466.62 222.02 Z M 455.05 206.75 C 458.27 206.67 462.62 206.37 465.95 205.8 L 466.1 207.55 C 463 208.07 457.98 208.4 455.1 208.48 L 455.05 206.75 Z"
        fill="#000000"/>
    <path
        id="path_34"
        d="M 493.62 205.98 L 493.62 208.35 C 493.62 211.27 493.17 215.37 490.85 218.22 C 490.63 217.9 489.97 217.34 489.62 217.17 C 491.74 214.52 492.04 210.95 492.04 208.32 L 492.04 204.55 L 502.39 204.55 C 502.26 203.67 502.17 202.78 502.12 201.88 L 504.29 201.98 C 504.29 202.18 504.12 202.28 503.77 202.33 C 503.79 203.06 503.87 203.81 503.99 204.55 L 509.16 204.55 C 508.39 203.92 507.11 203.2 505.99 202.8 L 506.94 201.82 C 508.17 202.25 509.61 202.99 510.36 203.64 L 509.54 204.54 L 512.59 204.54 L 512.59 205.96 L 504.24 205.96 C 504.69 208.03 505.39 210.03 506.22 211.68 C 507.15 210.35 507.92 208.86 508.47 207.28 L 510.42 207.85 C 510.37 208.02 510.17 208.1 509.87 208.1 C 509.17 209.92 508.2 211.65 507.07 213.17 C 508.2 214.97 509.47 216.12 510.59 216.12 C 511.29 216.12 511.57 215.22 511.72 212.87 C 512.07 213.22 512.59 213.5 513.02 213.64 C 512.74 216.74 512.12 217.69 510.6 217.69 C 508.62 217.69 507.15 216.09 506 214.44 C 504.85 215.74 503.53 216.84 502.13 217.71 C 501.88 217.41 501.36 216.89 501 216.61 C 502.52 215.73 503.95 214.51 505.17 213.06 C 504.07 211.06 503.19 208.59 502.65 205.94 L 493.62 205.94 Z M 494.77 219.1 C 494.2 221.3 493.22 223.3 491.1 224.4 L 489.75 223.42 C 491.7 222.42 492.8 220.65 493.27 218.62 L 494.77 219.1 Z M 494.4 208.83 L 494.4 207.6 L 502.2 207.6 L 502.2 208.83 L 494.4 208.83 Z M 501.67 215.48 L 496.32 215.48 L 496.32 216.46 L 494.9 216.46 L 494.9 210.36 L 501.67 210.36 L 501.67 215.48 Z M 500.25 211.58 L 496.33 211.58 L 496.33 214.28 L 500.25 214.28 L 500.25 211.58 Z M 498.12 222.5 C 498.12 223.13 498.32 223.23 499.67 223.23 L 504.32 223.23 C 505.39 223.23 505.57 222.93 505.67 220.66 C 506.05 220.94 506.75 221.18 507.19 221.29 C 506.99 224.11 506.44 224.76 504.47 224.76 L 499.57 224.76 C 497.07 224.76 496.45 224.31 496.45 222.51 L 496.45 218.69 L 498.6 218.82 C 498.57 218.99 498.45 219.12 498.13 219.17 L 498.13 222.5 Z M 502.52 220.8 C 501.64 219.8 499.77 218.48 498.12 217.68 L 499.24 216.73 C 500.87 217.48 502.79 218.73 503.69 219.75 L 502.52 220.8 Z M 511.52 224.27 C 510.72 222.75 508.8 220.65 506.92 219.22 L 508.27 218.42 C 510.14 219.8 512.12 221.82 512.97 223.37 L 511.52 224.27 Z"
        fill="#000000"/>
    <path
        id="path_35"
        d="M 540.45 203.05 C 540.4 203.35 540.17 203.52 539.68 203.6 C 539.48 206.5 539.23 213.12 539.23 216.82 C 539.23 220.54 541.08 222.34 544.23 222.34 C 547.28 222.34 550.38 220.82 553.23 217.59 C 553.48 217.99 554.05 218.79 554.36 219.07 C 551.44 222.39 547.89 224.14 544.21 224.14 C 539.66 224.14 537.34 221.52 537.34 216.79 C 537.34 213.64 537.57 205.89 537.74 202.82 L 540.45 203.05 Z M 547.22 205.68 C 548.39 206.58 549.85 208.08 550.62 209.13 L 549.69 209.9 C 548.94 208.82 547.42 207.28 546.34 206.45 L 547.22 205.68 Z M 550.27 203.4 C 551.47 204.3 552.94 205.78 553.69 206.8 L 552.74 207.6 C 552.06 206.6 550.59 205.08 549.42 204.18 L 550.27 203.4 Z"
        fill="#000000"/>
    <path
        id="path_36"
        d="M 583.27 212.88 C 584.92 212.03 587.49 211.43 589.47 211.43 C 593.44 211.43 595.94 213.75 595.94 217.43 C 595.94 221.95 591.97 224.45 586.94 224.45 C 583.69 224.45 581.47 223.15 581.47 220.95 C 581.47 219.1 583.29 217.6 585.57 217.6 C 588.39 217.6 590.29 219.85 590.67 222.12 C 592.67 221.37 594.12 219.77 594.12 217.45 C 594.12 214.75 592.12 213.03 588.97 213.03 C 585.22 213.03 581.55 214.7 579.9 216.3 C 579.15 217 578.17 218.05 577.5 218.82 L 576.23 217.55 C 578.48 215.2 585.63 208.38 589.03 205.2 C 587.58 205.4 582.58 205.6 579.73 205.7 C 579.65 205.87 579.41 206.02 579.21 206.08 L 579 203.96 C 582.37 203.93 588.82 203.68 590.65 203.41 L 591.03 203.24 L 592.36 204.87 C 592.23 204.97 592.01 205.07 591.76 205.09 C 589.99 206.54 585.24 210.99 583.29 212.86 L 583.29 212.88 Z M 586.72 222.88 C 587.47 222.88 588.35 222.78 588.99 222.63 C 588.72 220.71 587.29 219.08 585.44 219.08 C 584.14 219.08 582.99 219.78 582.99 220.93 C 583 222.45 585.07 222.88 586.72 222.88 Z"
        fill="#000000"/>
</svg>
