<?xml version="1.0" encoding="utf-8"?>
<!-- Generator: Adobe Illustrator 25.4.1, SVG Export Plug-In . SVG Version: 6.00 Build 0)  -->
<svg version="1.1" id="vector" xmlns="http://www.w3.org/2000/svg" xmlns:xlink="http://www.w3.org/1999/xlink" x="0px" y="0px"
	 viewBox="0 0 700 300" style="enable-background:new 0 0 700 300;" xml:space="preserve">
<style type="text/css">
	.st0{fill:#0072B0;}
	.st1{fill:#B5CCE2;}
	.st2{fill:#E30613;}
</style>
<path id="path" class="st0" d="M286.8,260.8c2-0.9,4-1.8,6-2.8c-2.9-2.2-5.8-4.4-8.6-6.5c-2.4-1.8-4.7-3.6-7.1-5.4
	c-2.2,0.9-4.5,1.8-6.7,2.8c5.3,3.8,10.6,7.6,15.8,11.4C286.3,260.5,286.5,260.7,286.8,260.8z"/>
<path id="path_1" class="st0" d="M473.7,257.8c0,1.7,0,3.3-0.1,5c2.3,1.8,4.7,3.6,7.2,5.4c0.1-8.8,0.5-17.6,1.3-26.4
	c-2.5-1.8-4.9-3.7-7.3-5.6c-0.1,1.2-0.2,2.4-0.3,3.6C474,245.8,473.8,251.8,473.7,257.8z"/>
<path id="path_2" class="st0" d="M432.7,175.2c2.8-2.2,5.5-4.5,8.2-6.7c0.3-1,0.5-2.1,0.8-3.1c1.5-5.6,3-11.2,4.8-16.7
	c2.8-8.4,6.2-16.6,11.8-23.7c2-2.6,4.4-4.8,7.1-6.3c-1.1-0.7-2.2-1.5-3.5-2.3c-3.3,5.8-6.6,10.6-9.9,14.5c-3.2,3.8-6.6,7.6-10,11.2
	c-2.4,6.8-4.5,13.8-6.4,20.8C434.4,166.8,433.5,171,432.7,175.2z"/>
<path id="path_5" class="st0" d="M250.7,256.2c-3.8,1.3-7.8,2.6-11.8,3.9c1.1,0.5,2.3,0.9,3.4,1.4c6.6,3,13.2,5.9,19.4,9.7
	c0.1,0.1,0.2,0.1,0.3,0.2c2.7-1.1,5.3-2.1,8-3.2c-3.1-2-6.3-4-9.4-5.9C257.3,260.2,254,258.1,250.7,256.2z"/>
<path id="path_6" class="st0" d="M448.7,240.9c2.3,2.3,4.6,4.5,7,6.7c0.1-1.6,0.1-3.1,0.2-4.7c0.3-7.3,0.7-14.7,1.3-22
	c-2.3-2.2-4.6-4.5-6.8-6.8c-0.7,7.9-1.1,15.9-1.5,23.8C448.8,238.9,448.8,239.9,448.7,240.9z"/>
<path id="path_7" class="st0" d="M307.7,250.6c2.1-1.1,4.3-2.3,6.4-3.4c-5.2-3.6-10.3-7.2-15.5-10.9c-2,1-4,2-6,2.9
	c3.6,2.8,7.2,5.5,10.8,8.2C304.9,248.5,306.3,249.5,307.7,250.6z"/>
<path id="path_8" class="st0" d="M251.3,99.4V94c-5.3-3.1-10.5-6.3-15.5-9.8c-1.4-1-2.8-2-4.2-3l-0.1,7.9c1.4,1.1,2.8,2.2,4.3,3.2
	c4.4,3.2,8.8,6.4,13.3,9.5C250.6,101.6,251.3,100.9,251.3,99.4z"/>
<path id="path_9" class="st0" d="M266.3,211.5c-5.3-4.1-10.6-8.2-15.9-12.2c-2.3,0.7-4.6,1.4-7,2.1c1.1,0.8,2.2,1.6,3.2,2.3
	c4.7,3.4,9.2,7,13.8,10.5c2.2-0.8,4.3-1.5,6.4-2.3C266.7,211.8,266.5,211.7,266.3,211.5z"/>
<path id="path_10" class="st0" d="M327.1,114.1c0.1-0.1,0.2-0.2,0.3-0.3c-6.1,3.5-12.6,6.8-19.5,10c0.6-0.1,1.2-0.1,1.8-0.3
	C316.5,122.4,322.2,119,327.1,114.1z"/>
<path id="path_11" class="st0" d="M453.8,85.8l-8.5,0.1c-1.6,1.4-3,3.1-4.4,4.9c-3,4-5.5,8.2-7.7,12.5l7.9,0.1
	c1.5-2.4,3.1-4.7,4.9-6.9c3.1-3.7,6.5-6.3,10.4-7.8v-0.2C456.4,86.8,455.5,85.8,453.8,85.8z"/>
<path id="path_12" class="st0" d="M412.6,158.7c-2.5,7.9-5,15.8-7.6,23.7c1.8,3.4,3.7,6.7,5.6,10c1.7-6,3.3-12.1,5-18.1
	c1-3.5,1.9-7,2.9-10.4c-0.8,0.7-1.6,1.3-2.4,2C414.9,163.5,413.7,161.1,412.6,158.7z"/>
<path id="path_13" class="st0" d="M251.3,71.5v-9.8c-6.8-2.8-13.3-6.1-19.5-9.9l0.2,4.1v4.8c5,3.1,10.1,6.1,15.3,8.8
	C248.6,70.2,249.9,70.9,251.3,71.5z"/>
<path id="path_14" class="st0" d="M283.4,205.5c2.2-0.9,4.4-1.8,6.5-2.7c-3.8-2.7-7.6-5.4-11.3-8.2c-1.5-1.1-2.9-2.2-4.4-3.3
	c-2.1,0.8-4.2,1.6-6.4,2.3c0.1,0.1,0.3,0.2,0.4,0.3C273.3,197.7,278.4,201.7,283.4,205.5z"/>
<path id="path_15" class="st0" d="M314.4,274.2c-0.1,0-0.1,0-0.2,0c2.2,3.2,3.9,7,5.1,11.2c4.3,3.1,8.6,6.2,13,9.2
	c4,0.3,8,0.4,12.1,0.5C334.2,288.3,324.2,281.3,314.4,274.2z"/>
<path id="path_16" class="st0" d="M249.3,144.8c-2.3,0.6-4.7,1.3-7,1.9c5.7,4.6,11.4,9.4,17.3,13.8c2.4-0.8,4.8-1.6,7.2-2.4
	C260.9,153.7,255.1,149.3,249.3,144.8z"/>
<path id="path_17" class="st0" d="M319.9,188.2c-6.6-2.2-12.9-5-19.1-8.2c-1.5,0.7-2.9,1.4-4.4,2.1c-1.2,0.6-2.4,1.1-3.7,1.7
	c5.5,3.6,11.2,6.9,17,9.9C313,191.9,316.4,190.1,319.9,188.2z"/>
<path id="path_18" class="st0" d="M282.3,152.5c3.6-1.4,7.2-2.8,10.6-4.2c-6.6-3-13.2-6-19.5-9.7c-0.4-0.2-0.8-0.5-1.2-0.8
	c-2.7,0.9-5.4,1.8-8.2,2.7c4.2,3,8.4,5.9,12.7,8.7C278.5,150.4,280.4,151.5,282.3,152.5z"/>
<path id="path_19" class="st0" d="M322.1,223.2c-2.4,1.5-4.9,2.9-7.4,4.4c1.8,1.1,3.6,2.2,5.4,3.3c3.7,2.2,7.4,4.3,11.3,6.2
	c3.1-1.9,6.1-3.8,9.1-5.8C334.2,229.1,328.1,226.3,322.1,223.2z"/>
<path id="path_20" class="st0" d="M378.6,113.9c2.2-4.2,4.4-8.5,6.6-12.7c2.6-4.9,5-9.9,7.6-14.8h-11.8c-2.3,4.3-4.7,8.7-7.1,13
	c-0.7,1.2-1.3,2.4-2,3.5h3.9C376.7,106.7,377.6,110.3,378.6,113.9z"/>
<path id="path_21" class="st0" d="M409.3,103l4.4,0.1c2.6-5.6,5.2-11.2,8-16.8l-9.2,0.1c-2.8,5.5-5.4,11-8,16.6H409.3z"/>
<path id="path_22" class="st0" d="M373.8,233.2c-1.1,0.4-2.2,0.7-3.3,1c0,0.5,0,1,0,1.5c0,4.5-0.2,8.6-0.5,12.3
	c0.7,0,1.5-0.1,2.2-0.2c6-0.7,11.5-2.9,16.4-6.9c0.2-0.2,0.4-0.4,0.6-0.6c0-1.3,0-2.7,0-4.1c0-5.2-0.2-10.2-0.7-15.2
	C384.9,226.4,380.2,230.8,373.8,233.2z"/>
<path id="path_23" class="st0" d="M318.7,54.3c4-5.6,7.8-11.4,11.6-17.2h-14.3c-4.3,5.8-8.4,11.6-13,17.2H318.7z"/>
<path id="path_24" class="st0" d="M349.2,5.2c-0.3,0-0.6,0-0.9,0c0.1,0.3,0.2,0.7,0.3,1.1c0.1-0.2,0.3-0.4,0.4-0.7
	C349.1,5.5,349.1,5.4,349.2,5.2z"/>
<path id="path_25" class="st0" d="M323.6,167.7c2.9,0.1,5.7,0,8.6-0.5c6.6-1.1,12-4.6,16.8-9.4c4.3-4.2,7.9-9,11.3-13.9
	c-2.4-3.4-5-6.8-7.7-10.1c-3.4,4.8-7.2,9.3-11.7,13.2c1.6,2.1,3.2,4.3,4.8,6.6C338.4,158.7,331,163.4,323.6,167.7z"/>
<path id="path_26" class="st0" d="M353.7,54.3h12.8c3.4-5.8,6.9-11.5,10.5-17.2h-7v-4.3c0-2.7,0-5.1,0.1-7.2
	c-1.4,2.3-2.8,4.6-4.2,6.9C361.7,39.8,357.9,47.2,353.7,54.3z"/>
<path id="path_27" class="st0" d="M378.9,179.7c0.1-0.2,0.2-0.4,0.3-0.6c-1.7-4.5-3.6-8.9-5.7-13.2c-0.1,0.2-0.2,0.3-0.3,0.5
	c-3.1,5-6.6,9.8-10.4,14.3c-0.6,0.7-1.2,1.4-1.9,2.1c1.3,3.3,2.4,6.5,3.4,9.6c-4.6,4-9.4,7.9-14.2,11.6c5.7-0.9,10.9-3.3,15.5-7.2
	C371.2,192,375.4,186.2,378.9,179.7z"/>
<path id="path_28" class="st0" d="M462.5,52.6c-9.3-3.6-18.3-3.9-26.7,1.8h30.7C465.2,53.7,463.9,53.1,462.5,52.6z"/>
<path id="path_29" class="st0" d="M412.8,52.2c2.9-4.9,6.6-9.3,10.8-13c0.9-0.8,1.7-1.4,2.7-2.1h-15.1c-3,3.7-5.6,7.7-8.1,11.8
	c-1.1,1.8-2.2,3.6-3.3,5.3h11.8C412,53.6,412.4,52.9,412.8,52.2z"/>
<path id="path_30" class="st0" d="M508.6,259c-2.3-1.3-4.6-2.7-6.8-4c-0.7,4.2-1.4,8.5-1.9,12.7C502.3,264.7,505.2,261.8,508.6,259z
	"/>
<path id="path_31" class="st0" d="M432.5,218.2c0.8-6.3,1.6-12.7,2.6-19c0.1-0.8,0.2-1.7,0.4-2.5c-1.9-2.5-3.7-5-5.5-7.6
	c-1.3,7-2.6,14-3.7,21.1c-0.2,1.5-0.5,3-0.7,4.5c2.1,2.7,4.2,5.5,6.4,8.1C432.2,221.2,432.4,219.7,432.5,218.2z"/>
<path id="path_32" class="st0" d="M395.8,145c2-4.8,4-9.6,6-14.4c-1.3-4.2-2.6-8.4-3.8-12.8c-3.3,7.7-6.6,15.5-10.3,23
	c-0.1,0.3-0.3,0.5-0.4,0.8c1.5,4.3,3.1,8.4,4.7,12.5C393.2,151,394.5,148,395.8,145z"/>
<path id="path_33" class="st0" d="M322.5,100c-0.9,1.1-1.9,2.1-2.9,3h17c2.8-3.8,5.5-7.8,8-11.9c1-1.5,1.9-3.1,2.8-4.6H333
	C329.7,91.1,326.2,95.6,322.5,100z"/>
<path id="path_34" class="st0" d="M359.9,273.1c-3.2,2.1-7.4,3.2-12.5,3.2c-0.1,0-0.2,0-0.3,0c3.7,2,7.4,3.8,11.2,5.6
	c5.1,2.4,10.5,4.5,15.9,6.2c1.8-1.3,3.4-2.7,4.7-4.3c1.2-1.4,2.3-3.1,3.3-5c-2.5-0.2-5-0.6-7.6-1.2
	C369.6,276.7,364.7,275,359.9,273.1z"/>
<path id="path_35" class="st1" d="M471.9,36.8L460.3,37c1.6,0.8,3.1,1.6,4.6,2.5c10.1,5.8,19.1,13.2,27.8,21
	c0.2,0.2,0.4,0.3,0.6,0.5v-6.1c-3.6-3.3-7.2-6.5-10.8-9.7C479,42.2,475.6,39.4,471.9,36.8z"/>
<path id="path_36" class="st1" d="M473.8,58.5V65c2.3,1.3,4.5,2.7,6.7,4.2c4.5,3.1,8.8,6.4,12.9,9.9l-0.1-6.1
	c-4.1-3.5-8.4-6.9-12.8-10C478.3,61.4,476.1,59.9,473.8,58.5z"/>
<path id="path_37" class="st1" d="M473.8,81.8v6.7c4.6,1.4,8.9,3.9,13,6.6c2.4,1.6,4.7,3.3,6.9,5c0-0.2,0.1-0.5,0.1-0.7l-0.1-5.1
	c-0.6-0.5-1.2-1-1.8-1.5C486.4,88.4,480.5,84.4,473.8,81.8z"/>
<path id="path_38" class="st1" d="M455.7,247.6c5.7,5.2,11.6,10.3,17.9,15.2c0-1.7,0-3.3,0.1-5c0.1-6,0.3-12,0.8-18
	c0.1-1.2,0.2-2.4,0.3-3.6c-6.2-4.9-12.1-10-17.6-15.3c-0.6,7.3-1.1,14.7-1.3,22C455.8,244.5,455.8,246.1,455.7,247.6z"/>
<path id="path_39" class="st1" d="M286.1,260.3c-5.2-3.8-10.5-7.6-15.8-11.4c-6.3,2.5-12.8,4.9-19.6,7.2c3.3,2,6.6,4.1,9.9,6.1
	c3.1,1.9,6.3,3.9,9.4,5.9c5.7-2.4,11.3-4.8,16.8-7.3C286.5,260.7,286.3,260.5,286.1,260.3z"/>
<path id="path_40" class="st1" d="M320,288c0.6,2.7,1.2,4.4,1.7,4.9c0.5,0.6,2.3,1,5.4,1.3c1.7,0.2,3.4,0.3,5.2,0.5
	c-4.4-3.1-8.7-6.1-13-9.2C319.5,286.2,319.8,287.1,320,288z"/>
<path id="path_41" class="st1" d="M458.3,124.8c-5.5,7.1-9,15.3-11.8,23.7c-1.8,5.5-3.3,11.1-4.8,16.7c-0.3,1-0.5,2.1-0.8,3.1
	c7.4-6.3,14.4-12.7,21-19.3c7.3-7.3,12.3-11.7,14.8-12.9c2.4-1.5,3.6-2.9,3.6-4.3c0-1.4-0.8-2.8-2.5-4.3c-2.8-2.4-7-5.5-12.5-9.2
	C462.6,120.1,460.3,122.2,458.3,124.8z"/>
<path id="path_42" class="st1" d="M292.7,258.1c5.1-2.4,10.1-4.9,15-7.5c-1.4-1.1-2.8-2.1-4.2-3.1c-3.6-2.7-7.2-5.5-10.8-8.2
	c-5,2.4-10.2,4.7-15.6,7c2.4,1.8,4.7,3.6,7.1,5.4C287,253.7,289.9,255.9,292.7,258.1z"/>
<path id="path_43" class="st1" d="M435.1,199.2c-0.9,6.3-1.8,12.7-2.6,19c-0.2,1.5-0.4,3-0.5,4.5c5.2,6.2,10.8,12.3,16.7,18.2
	c0-1,0.1-2,0.2-3c0.4-8,0.8-15.9,1.5-23.8c-5.4-5.6-10.3-11.4-14.9-17.5C435.4,197.5,435.2,198.4,435.1,199.2z"/>
<path id="path_44" class="st1" d="M243.5,201.4c-4.8,1.4-9.7,2.8-14.7,4.1c3.7,2.5,6.8,5.9,9.3,10.2c1.8,3,3.3,4.6,4.6,4.6
	c0.5,0,2.2-0.5,5-1.6c4.4-1.5,8.7-3,12.8-4.5c-4.6-3.6-9.1-7.1-13.8-10.5C245.7,202.9,244.6,202.2,243.5,201.4z"/>
<path id="path_45" class="st1" d="M347.1,276.4c-11.4,0-22.3-0.7-32.7-2.2c9.9,7.1,19.8,14.2,30,20.9c0.5,0,1,0,1.5,0
	c12.4,0,21.8-2.3,28.3-6.9c-5.4-1.7-10.8-3.8-15.9-6.2C354.4,280.2,350.7,278.3,347.1,276.4z"/>
<path id="path_46" class="st1" d="M372.2,247.9c-0.7,0.1-1.5,0.1-2.2,0.2c-0.8,9.2-2.7,16.1-5.6,20.6c-1.2,1.8-2.7,3.3-4.5,4.5
	c4.8,1.9,9.6,3.5,14.7,4.6c2.5,0.6,5.1,1,7.6,1.2c4.4-8.3,6.7-21.1,7-38.5c-0.2,0.2-0.4,0.4-0.6,0.6
	C383.7,245,378.2,247.1,372.2,247.9z"/>
<path id="path_47" class="st1" d="M446,96.6c-1.8,2.2-3.4,4.5-4.9,6.9l12.8,0.2c1.7,0,2.5-1,2.5-3V88.8
	C452.5,90.3,449,92.9,446,96.6z"/>
<path id="path_48" class="st1" d="M320.2,230.9c-1.8-1.1-3.6-2.2-5.4-3.3c-3.9,2.2-7.8,4.4-11.8,6.5c-1.4,0.8-2.9,1.5-4.4,2.2
	c5.1,3.7,10.3,7.3,15.5,10.9c6-3.3,11.8-6.6,17.4-10.1C327.6,235.2,323.9,233.1,320.2,230.9z"/>
<path id="path_49" class="st1" d="M418.5,163.8c-1,3.5-1.9,7-2.9,10.4c-1.7,6-3.2,12.1-5,18.1c0.6,1,1.2,2,1.8,3
	c4,6.6,8.4,13,13.1,19.2c0.2-1.5,0.5-3,0.7-4.5c1.2-7,2.4-14.1,3.7-21.1c-1.8-2.6-3.5-5.2-5.1-7.8c2.7-2,5.2-4,7.8-6.1
	c0.8-4.2,1.7-8.4,2.9-12.5c1.9-7,4-13.9,6.4-20.8C434.6,149.7,426.8,157,418.5,163.8z"/>
<path id="path_50" class="st1" d="M473.8,88.5v10.9c0,1.6,0.8,2.4,2.5,2.4h15c1.4,0,2.2-0.6,2.4-1.6c-2.3-1.7-4.6-3.4-6.9-5
	C482.7,92.4,478.5,89.9,473.8,88.5z"/>
<path id="path_51" class="st1" d="M266.9,212c5.8-2.2,11.3-4.3,16.6-6.4c-5.1-3.9-10.2-7.8-15.2-11.7c-0.1-0.1-0.3-0.2-0.4-0.3
	c-5.6,2-11.4,3.9-17.4,5.8c5.3,4.1,10.6,8.2,15.9,12.2C266.5,211.7,266.7,211.8,266.9,212z"/>
<path id="path_52" class="st1" d="M233.8,36.5c-1.7,0-2.5,0.8-2.5,2.5l0.5,12.8c6.3,3.7,12.8,7.1,19.5,9.9v-7.4H303
	c4.5-5.5,8.7-11.4,13-17.2h-37.5L233.8,36.5z"/>
<path id="path_53" class="st1" d="M322.5,100c3.6-4.4,7.1-8.9,10.5-13.5h-17.2l-44.4-0.6c-1.8,0-2.7,0.9-2.7,2.8v12c0,2,0.9,3,2.7,3
	l44.4-0.6h3.9C320.7,102,321.6,101,322.5,100z"/>
<path id="path_54" class="st1" d="M353.7,54.3c4.2-7.2,8-14.6,12.3-21.7c1.4-2.3,2.8-4.6,4.2-6.9c0.2-5,0.7-8.4,1.4-10.1
	c1.3-3.5,1.9-5.5,1.9-6.1c0-1.4-1.3-2.3-3.8-2.7c-5.5-0.6-12.3-1.1-20.5-1.5c-0.1,0.1-0.2,0.3-0.2,0.4c-0.1,0.2-0.3,0.4-0.4,0.7
	c1.4,6.1,2.1,15.1,2.1,26.9v3.9h-20.4c-3.7,5.8-7.6,11.5-11.6,17.2L353.7,54.3L353.7,54.3z"/>
<path id="path_55" class="st1" d="M251.3,94V71.5c-1.4-0.6-2.7-1.3-4.1-2c-5.2-2.7-10.3-5.7-15.3-8.8V66l-0.3,15.2
	c1.4,1,2.8,2,4.2,3C240.8,87.7,246,90.9,251.3,94z"/>
<path id="path_56" class="st1" d="M493.8,39c0-1.7-0.8-2.5-2.5-2.5l-19.4,0.3c3.6,2.6,7.1,5.4,10.5,8.4c3.6,3.2,7.2,6.5,10.8,9.7
	v-1.2L493.8,39z"/>
<path id="path_57" class="st1" d="M292.9,148.4c12.9-5.3,24.6-10.8,35.1-16.7c4.4,4.6,8.7,9.7,13,15.3c4.5-3.9,8.2-8.4,11.7-13.2
	c-3-3.7-6.2-7.3-9.7-10.8c7.7-5,16.8-11.7,27.4-20h1.4c0.7-1.2,1.3-2.4,2-3.5c2.4-4.3,4.8-8.6,7.1-13h-33.5
	c-0.9,1.5-1.9,3.1-2.8,4.6c-2.5,4.1-5.1,8.1-8,11.9h7.9c-5.4,3.8-11.1,7.4-17.2,10.9c-0.1,0.1-0.2,0.2-0.3,0.3
	c-4.9,4.8-10.6,8.2-17.4,9.5c-0.6,0.1-1.2,0.2-1.8,0.3c-11,5.1-22.8,9.8-35.6,14c0.4,0.2,0.8,0.5,1.2,0.8
	C279.7,142.3,286.3,145.3,292.9,148.4z"/>
<path id="path_58" class="st1" d="M399.8,54.3c1.1-1.8,2.2-3.5,3.3-5.3c2.5-4.1,5.1-8.1,8.1-11.8H377c-3.6,5.7-7,11.4-10.5,17.2
	L399.8,54.3L399.8,54.3z"/>
<path id="path_59" class="st1" d="M231.5,89l-0.2,10.3c0,1.6,0.8,2.4,2.5,2.4h15c0.1,0,0.2,0,0.2,0c-4.5-3-8.9-6.2-13.3-9.5
	C234.4,91.2,232.9,90.1,231.5,89z"/>
<path id="path_60" class="st1" d="M395.8,145c-1.3,3-2.6,6-3.9,9c4,10.1,8.4,19.6,13.1,28.4c2.5-7.9,5.1-15.8,7.6-23.7
	c-4-8.6-7.6-18-10.8-28.1C399.8,135.4,397.8,140.2,395.8,145z"/>
<path id="path_61" class="st1" d="M378.9,179.7c-3.4,6.5-7.6,12.3-13.3,17c-4.6,3.9-9.8,6.3-15.5,7.2c-9,7-18.3,13.4-27.9,19.3
	c5.9,3.1,12,5.9,18.4,8.1c9.9-6.5,19.2-13.4,27.8-20.6c1.4,7.3,2.1,15.2,2.2,23.6c1.1-0.3,2.2-0.6,3.3-1c6.5-2.4,11.2-6.8,14.9-12.1
	c-1.3-14.7-4.4-28.7-9.4-42C379.1,179.3,379,179.5,378.9,179.7z"/>
<path id="path_62" class="st1" d="M473.8,65v16.8c6.7,2.7,12.5,6.6,18.1,11c0.6,0.5,1.2,1,1.8,1.5l-0.3-15.2
	c-4.1-3.5-8.4-6.8-12.9-9.9C478.3,67.8,476.1,66.3,473.8,65z"/>
<path id="path_63" class="st1" d="M238.4,147.7c3.9,3,7.1,6.6,9.6,10.7c1.7,2.7,3.1,4.1,4.4,4.1c0.7,0,2.3-0.4,4.7-1.3
	c0.8-0.3,1.6-0.5,2.4-0.8c-5.9-4.4-11.6-9.1-17.3-13.8C241,147,239.7,147.4,238.4,147.7z"/>
<path id="path_64" class="st1" d="M290,202.8c4-1.7,7.8-3.4,11.4-5.2c2.7-1.3,5.5-2.6,8.3-4c-5.8-3-11.5-6.3-17-9.9
	c-5.8,2.6-12,5.1-18.4,7.5c1.5,1.1,2.9,2.2,4.4,3.3C282.4,197.3,286.2,200.1,290,202.8z"/>
<path id="path_65" class="st1" d="M433.2,103.3c2.2-4.3,4.8-8.5,7.7-12.5c1.3-1.8,2.8-3.4,4.4-4.9l-23.6,0.3
	c-2.8,5.5-5.4,11.1-8,16.8L433.2,103.3z"/>
<path id="path_66" class="st1" d="M378.6,113.9c2.6,9.6,5.5,18.8,8.6,27.6c0.1-0.3,0.3-0.5,0.4-0.8c3.7-7.5,7-15.3,10.3-23
	c-1.3-4.8-2.6-9.7-3.8-14.8h10.4c2.6-5.6,5.2-11.1,8-16.6l-3.2,0h-16.5c-2.5,4.9-5,9.9-7.6,14.8C383,105.5,380.8,109.7,378.6,113.9z
	"/>
<path id="path_67" class="st1" d="M360.9,182.7c0.7-0.7,1.3-1.3,1.9-2.1c3.8-4.5,7.3-9.3,10.4-14.3c0.1-0.2,0.2-0.3,0.3-0.5
	c-3.7-7.6-8.1-14.9-13.1-22c-3.4,4.9-6.9,9.6-11.3,13.9c-4.9,4.8-10.2,8.3-16.8,9.4c-2.9,0.5-5.8,0.6-8.6,0.5
	c-7.7,4.5-15.3,8.6-22.9,12.3c6.2,3.2,12.5,6.1,19.1,8.2c11.1-6.1,22.5-13.2,34-21.1C356.6,172.5,358.9,177.7,360.9,182.7z"/>
<path id="path_68" class="st1" d="M464.9,39.5c-1.5-0.9-3.1-1.7-4.6-2.5l-13.5,0.2h-20.5c-0.9,0.6-1.8,1.3-2.7,2.1
	c-4.2,3.7-7.9,8.1-10.8,13c-0.4,0.7-0.9,1.4-1.3,2.1h24.3c8.5-5.6,17.5-5.4,26.7-1.8c1.4,0.5,2.7,1.1,4,1.8h7.3v4.1
	c2.3,1.4,4.5,3,6.7,4.5c4.4,3.1,8.7,6.5,12.8,10l-0.1-7v-5c-0.2-0.2-0.4-0.3-0.6-0.5C484,52.7,475,45.3,464.9,39.5z"/>
<path id="path_69" class="st1" d="M282.3,152.5c-1.9-1-3.8-2.1-5.6-3.3c-4.3-2.8-8.5-5.8-12.7-8.7c-4.8,1.5-9.7,2.9-14.7,4.3
	c5.8,4.5,11.6,8.9,17.4,13.3C272.1,156.3,277.3,154.4,282.3,152.5z"/>
<path id="path_70" class="st1" d="M242.3,261.5c-1.1-0.5-2.2-1-3.4-1.4c-6.6,2.1-13.5,4.1-20.5,6.1c4.4,3.7,7.7,7.3,9.9,10.9
	c1.8,3.3,3.3,4.9,4.6,4.9c0.7,0,2.4-0.5,4.9-1.6c8.3-2.9,16.4-5.9,24.2-9c-0.1-0.1-0.2-0.1-0.3-0.2
	C255.5,267.4,248.9,264.5,242.3,261.5z"/>
<path id="path_71" class="st1" d="M488.6,273.9c2.4,1.7,3.9,2.5,4.6,2.5c0.8,0,2.3-1.6,4.3-4.9c0.7-1.3,1.6-2.5,2.5-3.7
	c0.5-4.3,1.2-8.5,1.9-12.7c-6.9-4.2-13.5-8.6-19.7-13.2c-0.8,8.8-1.2,17.6-1.3,26.4C483.4,270.1,486,272,488.6,273.9z"/>
<path id="path_72" class="st2" d="M50.3,142.6c0,11.4-6.3,16.1-20.9,16.1c-7.1,0-16.8-1-26.2-5.2l4.3-10.1c10.3,4.5,21.2,4.5,26.9,4
	c4.1-0.3,5-1.1,5-4.9c0-3.4-1-4.8-3.5-4.9L24,137.7v8.3c-5.2-0.5-7.9-1.2-11-1.9V104h17.2c10.6,0,17.5,6.6,17.5,16.6
	c0,3.6-0.7,7-2.2,9.7C48.7,133.2,50.3,137.4,50.3,142.6z M36.8,120.6c0-1.9,0-5.5-6.6-5.5H24v11.6l8.3-0.1
	C35.6,126.5,36.8,125,36.8,120.6z"/>
<path id="path_73" class="st2" d="M71.6,131.3c0-15.1,12.3-27.3,27.4-27.3c15,0,27.3,12.3,27.3,27.3c0,15.1-12.3,27.4-27.3,27.4
	C83.9,158.7,71.6,146.5,71.6,131.3z M115.3,131.3c0-8.9-7.4-16.2-16.3-16.2c-9,0-16.4,7.3-16.4,16.2c0,9,7.4,16.3,16.4,16.3
	C108,147.6,115.3,140.3,115.3,131.3z"/>
<path id="path_74" class="st2" d="M147.7,131.3c0-15.1,12.3-27.3,27.4-27.3c15,0,27.3,12.3,27.3,27.3c0,15.1-12.3,27.4-27.3,27.4
	C160,158.7,147.7,146.5,147.7,131.3z M191.4,131.3c0-8.9-7.4-16.2-16.3-16.2c-9,0-16.4,7.3-16.4,16.2c0,9,7.4,16.3,16.4,16.3
	C184.1,147.6,191.4,140.3,191.4,131.3z"/>
<path id="path_75" class="st2" d="M240.5,114.9h-16.6v-11.1h44.4v11.1h-16.7v43.9h-11.1L240.5,114.9L240.5,114.9z"/>
<path id="path_76" class="st2" d="M302.2,163c-5.2-1.4-9.6-2.7-12.7-2.5l0.3-9.9c4.4,0,9.3,1.3,15,2.8c7.1,2,15.1,4.2,23.5,4v9.9
	C318.7,167.4,309.5,164.8,302.2,163z M294.7,148.9v-44.8h11v47.2C303,150.6,298,149.2,294.7,148.9z"/>
<path id="path_77" class="st2" d="M345.9,138.5c-3.4-0.5-6.7-1.5-9.8-2.7l3.5-9.2c10.9,4.6,28.5,2.7,34,2.3l0.9,9.9
	c-8.8,0.9-11,0.7-17.5,0.7v8.1h24.7v11.1h-35.8V138.5z M345.9,127V103h34.2v11h-23V128C352.5,128.1,349.5,127.9,345.9,127z"/>
<path id="path_78" class="st2" d="M402,135c-1.9-0.6-3.7-1.3-5.5-2l3.9-10.3c10.5,4,21.2,6.5,30.6,7.1c4.9,0.2,10.7,0,10.7,0
	l5.7-0.2V154l-3.2,1.5c-4.6,2.2-9.6,3.3-15.3,3.3C415.3,158.7,403.8,148.6,402,135z M403.9,121.9c3.8-11.2,13.1-17.9,25.1-17.9
	c5.9,0,11.3,1.8,16,5l-6.2,9.2c-2.8-2.1-6.2-3.2-9.8-3.2c-7.3,0-12.2,3.5-14.6,10.2C413.5,125,407.7,123.6,403.9,121.9z
	 M436.5,140.9c-6.5,0.2-14.5-0.7-22.1-2.4c3.7,7.8,12.6,11.1,22.1,8.2V140.9z"/>
<path id="path_79" class="st2" d="M471,135c-1.9-0.6-3.7-1.3-5.5-2l3.9-10.3c10.5,4,21.2,6.5,30.6,7.1c4.9,0.2,10.7,0,10.7,0
	l5.7-0.2V154l-3.2,1.5c-4.6,2.2-9.6,3.3-15.3,3.3C484.3,158.7,472.8,148.6,471,135z M472.9,121.9c3.8-11.2,13.1-17.9,25.1-17.9
	c5.9,0,11.3,1.8,16,5l-6.2,9.2c-2.8-2.1-6.2-3.2-9.8-3.2c-7.3,0-12.2,3.5-14.6,10.2C482.5,125,476.7,123.6,472.9,121.9z
	 M505.4,140.9c-6.5,0.2-14.5-0.7-22.1-2.4c3.7,7.8,12.6,11.1,22.1,8.2V140.9z"/>
<path id="path_80" class="st2" d="M541.1,138.5c-3.4-0.5-6.7-1.5-9.8-2.7l3.5-9.2c10.9,4.6,28.5,2.7,34,2.3l0.9,9.9
	c-8.8,0.9-11,0.7-17.5,0.7v8.1h24.7v11.1h-35.8L541.1,138.5L541.1,138.5z M541.1,127V103h34.2v11h-23V128
	C547.7,128.1,544.7,127.9,541.1,127z"/>
<path id="path_81" class="st2" d="M598.2,103.5h18.7c7.9,0,19.1,7.5,19.1,20.9c0,13.2-10.3,19.3-17.4,19.3l-9.4,0.1v15h-11V103.5z
	 M618.7,132.6c0.1,0,6.3-0.3,6.3-8.2c0-7.4-5.8-9.8-8-9.8h-7.7v18H618.7z M615.8,145.7c2.5,0.2,5.9,0.4,11-1.7
	c1.6,5.4,4.9,12.7,14.4,18.6l-6.1,9.2C621.8,163.6,617.5,152.6,615.8,145.7z"/>
<path id="path_82" class="st2" d="M655.6,146.8l9.7-5.2c2,4.2,5.3,6.1,10.9,6.1c6.3-0.2,9.6-2.7,7.9-6.5c-0.9-1.7-2.4-2.4-7.6-3.1
	c-3.6-0.6-7.7-1.3-11.4-3.5c-5.6-3.4-8.5-10-7.1-16.7c1.4-7.2,7.4-12.5,15.6-13.9c10.5-1.5,19.1,2.7,24.1,12.1l-9.6,5.5
	c-2.8-5.3-7-7.4-12.8-6.5c-3.5,0.5-6,2.4-6.3,5.1c-1.2,4.9,3.3,6,9.2,6.9c5.8,0.9,14.3,2.2,16.5,11.5c1.3,5.2,0.4,10.1-2.4,13.6
	c-3.3,4.3-9.1,6.7-16.1,6.7C666.8,158.7,659.3,154.4,655.6,146.8z"/>
<path id="path_83" class="st2" d="M237.3,186.2v6.6l4.7-6.6h3.8l-6,8.5l6.4,8.3h-3.9l-4.4-5.7l-0.6,0.8v4.8h-3.1v-16.9L237.3,186.2
	L237.3,186.2z M234.2,186.2h3.1H234.2z"/>
<path id="path_85" class="st2" d="M271,193.1h4.6v3.1H271v3.8h6.2v3.1h-9.2v-17h9.2v3.1H271V193.1z M271,189.1v4V189.1z"/>
<path id="path_86" class="st2" d="M286.6,186L286.6,186l1.4,0c1.5,0,2.9,0.6,4,1.6c1,1.1,1.7,2.4,1.7,4c0,1.5-0.6,2.9-1.7,4
	c-1.1,1.1-2.4,1.7-4,1.7h-1.4v5.8h-3.1v-17H286.6z M283.6,186h3.1H283.6z M286.6,189.2v5h1.4c0.7,0,1.3-0.2,1.8-0.7
	c0.5-0.5,0.7-1.1,0.7-1.8c0-0.7-0.2-1.3-0.7-1.8c-0.5-0.5-1.1-0.7-1.8-0.7H286.6z"/>
<path id="path_87" class="st2" d="M311.5,186h9.6v3.1h-3.3v13.9h-3.1v-13.9h-3.2V186z M311.5,186v3.1V186z"/>
<path id="path_88" class="st2" d="M330.6,186v7h5.3v-7h3.1v17h-3.1v-6.9h-5.3v6.9h-3.1v-17H330.6z M327.5,186h3.1H327.5z"/>
<path id="path_89" class="st2" d="M348.3,193.1h4.6v3.1h-4.6v3.8h6.2v3.1h-9.2v-17h9.2v3.1h-6.2V193.1z M348.3,189.1v4V189.1z"/>
<path id="path_90" class="st2" d="M375.9,186L375.9,186l1.8,0c1.3,0,2.5,0.5,3.4,1.4c0.9,0.9,1.4,2.1,1.4,3.4c0,1.2-0.5,2.3-1.2,3.2
	l0.1,0.1c0.9,0.9,1.5,2.2,1.5,3.7c0,1.4-0.6,2.7-1.5,3.6c-0.9,0.9-2.2,1.5-3.7,1.5h-1.9v0h-3.1v-17L375.9,186L375.9,186z M375.9,186
	h-3.1H375.9z M375.9,189.2v3.5h1.8c0.5,0,0.9-0.2,1.2-0.5c0.3-0.3,0.5-0.7,0.5-1.2c0-0.5-0.2-0.9-0.5-1.3c-0.3-0.3-0.8-0.5-1.2-0.5
	L375.9,189.2L375.9,189.2z M375.9,195.8v4.1h1.9c0.6,0,1.1-0.2,1.4-0.6c0.4-0.4,0.6-0.9,0.6-1.4c0-0.6-0.2-1.1-0.6-1.4
	c-0.4-0.4-0.8-0.6-1.4-0.6L375.9,195.8L375.9,195.8z"/>
<path id="path_91" class="st2" d="M404.8,188.1c1.7,1.7,2.6,3.8,2.6,6.3c0,2.5-1,4.7-2.6,6.3c-1.7,1.7-3.8,2.6-6.3,2.6
	s-4.7-1-6.3-2.6c-1.7-1.7-2.6-3.8-2.6-6.3c0-2.5,1-4.7,2.6-6.3c1.7-1.7,3.8-2.6,6.3-2.6S403.1,186.5,404.8,188.1z M398.4,188.6
	c-1.6,0-3.1,0.7-4.1,1.8c-1.1,1.1-1.8,2.5-1.8,4.1c0,1.7,0.7,3.1,1.8,4.2c1.1,1.1,2.5,1.7,4.1,1.7c1.7,0,3.1-0.6,4.2-1.7
	c1.1-1.1,1.7-2.5,1.7-4.2c0-1.6-0.7-3.1-1.7-4.1C401.5,189.2,400.1,188.6,398.4,188.6z"/>
<path id="path_92" class="st2" d="M428.9,188.1c1.7,1.7,2.6,3.8,2.6,6.3c0,2.5-1,4.7-2.6,6.3c-1.7,1.7-3.8,2.6-6.3,2.6
	c-2.5,0-4.7-1-6.3-2.6c-1.7-1.7-2.6-3.8-2.6-6.3c0-2.5,1-4.7,2.6-6.3c1.7-1.7,3.8-2.6,6.3-2.6C425.1,185.5,427.3,186.5,428.9,188.1z
	 M422.6,188.6c-1.6,0-3.1,0.7-4.1,1.8c-1.1,1.1-1.8,2.5-1.8,4.1c0,1.7,0.7,3.1,1.8,4.2c1.1,1.1,2.5,1.7,4.1,1.7
	c1.7,0,3.1-0.6,4.2-1.7c1.1-1.1,1.7-2.5,1.7-4.2c0-1.6-0.7-3.1-1.7-4.1C425.7,189.2,424.2,188.6,422.6,188.6z"/>
<path id="path_93" class="st2" d="M437.8,186h9.6v3.1h-3.3v13.9H441v-13.9h-3.2V186z M437.8,186v3.1V186z"/>
<path id="path_94" class="st2" d="M456.7,186v13.9h5.7v3.1h-5.7v0h-3.1v-17L456.7,186L456.7,186z M456.7,186h-3.1H456.7z"/>
<path id="path_95" class="st2" d="M471.4,193.1h4.6v3.1h-4.6v3.8h6.2v3.1h-9.2v-17h9.2v3.1h-6.2V193.1z M471.4,189.1v4V189.1z"/>
<path id="path_96" class="st2" d="M492.6,194.4h9.4v0c0,2.5-0.8,4.7-2.5,6.3c-1.7,1.7-4,2.7-6.5,2.7c-2.5,0-4.7-0.9-6.3-2.6
	c-1.6-1.7-2.6-3.8-2.6-6.3c0-2.5,1-4.7,2.6-6.3c1.6-1.7,3.9-2.6,6.3-2.6c1.5,0,2.9,0.3,4.1,1c1.3,0.7,2.4,1.6,3.2,2.7l-2.5,1.8
	c-0.5-0.8-1.2-1.3-2.1-1.8c-0.8-0.5-1.8-0.7-2.7-0.7c-1.6,0-3.1,0.7-4.1,1.8c-1.1,1.1-1.7,2.5-1.7,4.1c0,1.7,0.7,3.1,1.7,4.2
	c1.1,1.1,2.5,1.7,4.1,1.7c1.7,0,3.2-0.7,4.3-1.8c0.3-0.3,0.6-0.7,0.8-1.1l-5.5-0.1L492.6,194.4L492.6,194.4z M492.6,194.4v3.1V194.4
	z"/>
<path id="path_84" class="st2" d="M255.3,193.1h4.6v3.1h-4.6v3.8h6.2v3.1h-9.2v-17h9.2v3.1h-6.2V193.1z M255.3,189.1v4V189.1z"/>
</svg>
