<?xml version="1.0" encoding="utf-8"?>
<!-- Generator: Adobe Illustrator 16.0.0, SVG Export Plug-In . SVG Version: 6.00 Build 0)  -->
<!DOCTYPE svg PUBLIC "-//W3C//DTD SVG 1.1//EN" "http://www.w3.org/Graphics/SVG/1.1/DTD/svg11.dtd">
<svg version="1.1" xmlns="http://www.w3.org/2000/svg" xmlns:xlink="http://www.w3.org/1999/xlink" x="0px" y="0px" width="700px"
	 height="300px" viewBox="0 0 700 300" enable-background="new 0 0 700 300" xml:space="preserve">
<g id="Layer_3" display="none">
</g>
<g id="Layer_4" display="none">
	<g display="inline">
		<g>
			
				<rect x="275.595" y="45.679" transform="matrix(0.9473 0.3205 -0.3205 0.9473 34.2656 -89.5539)" fill="none" stroke="#F7941E" stroke-miterlimit="10" width="27.218" height="27.291"/>
			<polygon fill="none" stroke="#F7941E" stroke-miterlimit="10" points="318.473,270.297 330.061,260.113 322.754,257.64 			"/>
			
				<rect x="300.614" y="226.778" transform="matrix(0.3205 -0.9473 0.9473 0.3205 -14.181 461.0056)" fill="none" stroke="#F7941E" stroke-miterlimit="10" width="27.221" height="27.218"/>
			<polygon fill="none" stroke="#F7941E" stroke-miterlimit="10" points="285.932,216.448 292.095,247.268 296.972,248.919 
				305.695,223.134 			"/>
			
				<rect x="292.269" y="166.37" transform="matrix(-0.3205 0.9472 -0.9472 -0.3205 574.4302 -52.0299)" fill="none" stroke="#F7941E" stroke-miterlimit="10" width="27.216" height="27.293"/>
			
				<rect x="309.313" y="200.96" transform="matrix(0.3205 -0.9472 0.9472 0.3205 16.2013 451.7238)" fill="none" stroke="#F7941E" stroke-miterlimit="10" width="27.292" height="27.218"/>
			
				<rect x="318.085" y="175.144" transform="matrix(-0.3205 0.9473 -0.9473 -0.3205 616.7916 -64.9556)" fill="none" stroke="#F7941E" stroke-miterlimit="10" width="27.218" height="27.217"/>
			
				<rect x="343.903" y="183.841" transform="matrix(-0.3205 0.9473 -0.9473 -0.3205 659.1569 -77.878)" fill="none" stroke="#F7941E" stroke-miterlimit="10" width="27.218" height="27.293"/>
			<polygon fill="none" stroke="#F7941E" stroke-miterlimit="10" points="331.477,231.857 353.67,239.366 359.476,234.266 
				366.077,214.752 340.224,206.005 			"/>
			<polygon fill="none" stroke="#F7941E" stroke-miterlimit="10" points="294.114,257.364 296.972,248.919 292.095,247.268 			"/>
			<polygon fill="none" stroke="#F7941E" stroke-miterlimit="10" points="288.589,188.535 297.312,162.752 273.59,154.729 
				279.753,185.545 			"/>
			<polygon fill="none" stroke="#F7941E" stroke-miterlimit="10" points="267.41,123.824 272.737,150.46 280.276,128.177 			"/>
			<polygon fill="none" stroke="#F7941E" stroke-miterlimit="10" points="288.589,188.535 283.411,203.841 285.932,216.448 
				305.695,223.134 314.442,197.281 			"/>
			<polygon fill="none" stroke="#F7941E" stroke-miterlimit="10" points="377.343,218.563 366.077,214.752 359.476,234.266 			"/>
			<polygon fill="none" stroke="#F7941E" stroke-miterlimit="10" points="279.753,185.545 283.411,203.841 288.589,188.535 			"/>
			
				<rect x="390.448" y="58.808" transform="matrix(-0.3205 0.9472 -0.9472 -0.3205 596.6044 -283.0354)" fill="none" stroke="#F7941E" stroke-miterlimit="10" width="18.73" height="27.294"/>
			
				<rect x="287.213" y="23.918" transform="matrix(-0.3205 0.9472 -0.9472 -0.3205 427.1843 -231.3752)" fill="none" stroke="#F7941E" stroke-miterlimit="10" width="18.729" height="27.219"/>
			
				<rect x="261.396" y="15.147" transform="matrix(-0.3205 0.9473 -0.9473 -0.3205 384.8085 -218.4588)" fill="none" stroke="#F7941E" stroke-miterlimit="10" width="18.73" height="27.291"/>
			
				<rect x="312.996" y="32.642" transform="matrix(-0.3205 0.9473 -0.9473 -0.3205 469.4823 -244.2846)" fill="none" stroke="#F7941E" stroke-miterlimit="10" width="18.73" height="27.218"/>
			<path fill="none" stroke="#F7941E" stroke-miterlimit="10" d="M413.892,115.915l12.883,4.359l8.747-25.852l-25.783-8.723
				l-2.324,6.873l2.324-6.873l-25.852-8.747l-2.326,6.873l2.326-6.873l-6.692-2.264l6.692,2.264l6.001-17.742l-25.781-8.723
				l-6.004,17.741l11.06,3.742l-11.06-3.742l-2.324,6.873l2.324-6.873l-25.852-8.746l-2.325,6.873l2.325-6.873l-25.783-8.723
				l-8.746,25.852l18.335,6.203 M413.057,115.632l0.448,0.152 M405.588,113.105l0.334,0.113 M405.175,112.966l0.413,0.139
				 M323.023,85.172l0.481,0.163l3.931-11.619l-3.931,11.619l51.636,17.47l3.978-11.762l-3.978,11.762l25.852,8.746l3.979-11.761
				l-3.979,11.761l4.183,1.416 M323.023,85.172 M319.62,84.02 M316.057,82.814l0.399,0.135 M349.357,94.081l3.979-11.76
				L349.357,94.081z"/>
			
				<rect x="416.268" y="67.581" transform="matrix(-0.3205 0.9473 -0.9473 -0.3205 638.9424 -295.9745)" fill="none" stroke="#F7941E" stroke-miterlimit="10" width="18.728" height="27.217"/>
			<polygon fill="none" stroke="#F7941E" stroke-miterlimit="10" points="260.836,15.549 244.665,10.079 248.906,31.285 
				254.833,33.291 			"/>
			
				<rect x="338.813" y="41.339" transform="matrix(-0.3206 0.9472 -0.9472 -0.3206 511.8725 -257.1933)" fill="none" stroke="#F7941E" stroke-miterlimit="10" width="18.73" height="27.293"/>
			<polygon fill="none" stroke="#F7941E" stroke-miterlimit="10" points="482.259,126.366 495.513,114.719 487.156,111.891 			"/>
			<polygon fill="none" stroke="#F7941E" stroke-miterlimit="10" points="495.513,114.719 511.759,100.442 493.159,94.15 
				487.156,111.891 			"/>
			<polygon fill="none" stroke="#F7941E" stroke-miterlimit="10" points="248.906,31.285 251.359,43.558 254.833,33.291 			"/>
			
				<rect x="463.585" y="89.283" transform="matrix(-0.9473 -0.3205 0.3205 -0.9473 897.6808 345.0282)" fill="none" stroke="#F7941E" stroke-miterlimit="10" width="27.292" height="18.729"/>
			
				<rect x="442.049" y="76.304" transform="matrix(-0.3205 0.9472 -0.9472 -0.3205 681.2628 -308.87)" fill="none" stroke="#F7941E" stroke-miterlimit="10" width="18.73" height="27.219"/>
			
				<rect x="266.86" y="71.533" transform="matrix(-0.3205 0.9473 -0.9473 -0.3205 451.0012 -153.2508)" fill="none" stroke="#F7941E" stroke-miterlimit="10" width="27.219" height="27.218"/>
			<polygon fill="none" stroke="#F7941E" stroke-miterlimit="10" points="271.939,67.889 255.085,62.187 261.248,93.006 
				263.216,93.671 			"/>
			<polygon fill="none" stroke="#F7941E" stroke-miterlimit="10" points="261.248,93.006 262.063,97.081 263.216,93.671 			"/>
			<path fill="none" stroke="#F7941E" stroke-miterlimit="10" d="M316.057,82.814 M323.505,85.334l-7.828,23.138L323.505,85.334
				l-0.481-0.163 M405.588,113.105l-4.596-1.555l-5.339,15.781l5.339-15.781l-25.852-8.746l-0.08,0.23l0.08-0.23l-51.636-17.47
				 M405.588,113.105 M353.167,167.751l-4.221,12.472l25.854,8.747l6.13-18.12l-6.13,18.12l25.783,8.722l8.747-25.851l-23.145-7.831
				l23.145,7.831l8.723-25.785l-25.783-8.722l-8.079,23.878l8.079-23.878l25.783,8.722l8.722-25.782l-13.27-4.49 M353.088,167.982
				l0.079-0.231 M349.451,178.729l3.637-10.747 M316.057,82.814l-18.335-6.203l-8.723,25.783l20.108,6.803l-20.108-6.803
				l-8.723,25.782l25.783,8.724l0.832-2.458l-0.832,2.458l20.889,7.068l-20.889-7.068l-3.361,9.932l3.361-9.932l-25.783-8.724
				l-7.539,22.283l0.854,4.269l23.721,8.023l2.754-8.137l-2.754,8.137l25.853,8.749l0.616-1.821l-0.616,1.821l25.782,8.722
				l0.505-1.493 M377.429,132.313l-5.315-1.799l5.993,2.027L377.429,132.313 M373.88,159.846l-14.63-4.95L373.88,159.846z
				 M372.737,109.904l-2.136,6.313L372.737,109.904z M364.904,133.061l-5.237,15.474L364.904,133.061z M326.208,162.504
				l4.073-12.039L326.208,162.504z M332.924,142.652l4.14-12.235L332.924,142.652z M364.49,127.935l-9.523-3.222L364.49,127.935z
				 M351.389,152.236l-12.032-4.071L351.389,152.236z M346.955,101.181l-1.698,5.022L346.955,101.181z M341.887,116.164
				l-1.253,3.701l4.026,1.361l-4.026-1.361l-1.131,3.343l1.131-3.343L326.259,115l14.375,4.864L341.887,116.164z M313.462,115.017
				l-4.06,12L313.462,115.017z"/>
			<polygon fill="none" stroke="#F7941E" stroke-miterlimit="10" points="400.367,198.331 400.95,197.816 400.583,197.691 			"/>
			<polygon fill="none" stroke="#F7941E" stroke-miterlimit="10" points="400.95,197.816 424.623,177.014 409.33,171.841 
				400.583,197.691 			"/>
			<polygon fill="none" stroke="#F7941E" stroke-miterlimit="10" points="322.754,257.64 296.972,248.919 294.114,257.364 
				298.258,278.087 306.452,280.858 318.473,270.297 			"/>
			<polygon fill="none" stroke="#F7941E" stroke-miterlimit="10" points="280.276,128.177 288.999,102.395 263.216,93.671 
				262.063,97.081 267.41,123.824 			"/>
			<polygon fill="none" stroke="#F7941E" stroke-miterlimit="10" points="448.232,156.269 471.841,135.521 452.559,128.997 
				443.836,154.779 			"/>
			
				<rect x="421.696" y="123.917" transform="matrix(-0.9472 -0.3205 0.3205 -0.9472 803.5718 407.3126)" fill="none" stroke="#F7941E" stroke-miterlimit="10" width="27.219" height="27.218"/>
			<polygon fill="none" stroke="#F7941E" stroke-miterlimit="10" points="441.258,162.397 448.232,156.269 443.836,154.779 			"/>
			
				<rect x="430.429" y="98.064" transform="matrix(-0.9473 -0.3205 0.3205 -0.9473 828.8592 359.8287)" fill="none" stroke="#F7941E" stroke-miterlimit="10" width="27.22" height="27.291"/>
			<polygon fill="none" stroke="#F7941E" stroke-miterlimit="10" points="418.053,146.056 409.33,171.841 424.623,177.014 
				441.258,162.397 443.836,154.779 			"/>
			<line fill="none" stroke="#F7941E" stroke-miterlimit="10" x1="352.975" y1="168.319" x2="353.444" y2="166.931"/>
			<line fill="none" stroke="#F7941E" stroke-miterlimit="10" x1="371.572" y1="113.347" x2="370.309" y2="117.082"/>
		</g>
	</g>
	<polygon display="inline" fill="none" stroke="#39B54A" stroke-width="5" stroke-miterlimit="10" points="244.665,10.079 
		299.954,286.569 511.759,100.442 	"/>
</g>
<g id="Layer_2" display="none">
	<g display="inline">
		<path fill="none" stroke="#00AEEF" stroke-width="2" stroke-miterlimit="10" d="M370.254,109.064
			c-0.272,8.472,0.506,16.91,2.219,24.885c9.3-2.173,20.588-5.621,28.142-8.774l4.937,8.807c-0.622,0.308-1.712,0.07-2.603-0.361
			c-7.515,2.647-19.265,5.55-28.602,7.452c4.482,14.36,12.55,26.952,24.791,36.024c-2.257,0.922-5.495,3.2-7.484,4.863
			c-20.912-16.807-29.033-43.429-28.318-72.771c-4.672,1.534-10.041,2.831-15.525,3.701c12.169,16.961,13.995,34.189,10.016,45.947
			c-4.254,12.575-14.771,17.581-26.878,13.484c-2.911-0.985-6.597-2.363-10.36-3.896c0.553-2.019,0.958-5.514,0.385-8.044
			c4.19,1.808,8.225,3.302,10.787,4.169c3.375,1.142,6.249,1.854,9.363,0.702c3.969-0.993,7.289-4.669,9.103-10.025
			c1.101-3.261,1.626-7.106,1.411-11.46c-16.55,6.729-40.316,11.014-59.089,10.89c-0.262-2.294-0.907-5.756-1.946-8.053
			c19.312,1.212,44.594-2.949,60.135-10.147c-0.687-2.957-1.723-6.033-3.029-9.07c-12.534,4.063-30.97,6.779-44.691,7.067
			c-0.301-2.178-1.142-5.446-2.104-7.588c13.562,0.565,32.189-1.566,43.984-5.36c-1.39-2.416-2.972-5.027-4.825-7.601
			c-10.11,1.12-20.684,1.306-30.399,0.875c-0.419-1.829-1.258-5.487-1.949-7.278c15.542,1.236,33.928,0.58,47.978-3.36
			l-27.594-9.335l2.325-6.869l66.711,22.57l-2.324,6.869L370.254,109.064z M327.271,73.502l-5.317,15.717l-7.568-2.56l7.76-22.936
			l44.357,15.008l4.648-13.738l10.127,4.205c-0.394,0.775-1.288,1.122-2.843,0.726l-3.899,11.526l45.058,15.243l-7.76,22.936
			l-7.917-2.679l5.318-15.717L327.271,73.502z"/>
	</g>
</g>
<g id="Layer_6">
	<g>
		<path fill="#27AAE1" d="M361.384,137.38c-0.745-2.144-1.465-4.307-2.147-6.498c-1.108,0.832-2.269,1.662-3.452,2.49
			c-1.849,3.387-3.715,6.764-5.723,10.055c-1.124,1.841-2.323,3.637-3.546,5.418c1.995,1.701,3.878,3.435,5.647,5.198
			c1.465-2.258,2.888-4.541,4.173-6.896C358.092,143.931,359.739,140.656,361.384,137.38z"/>
		<path fill="#27AAE1" d="M367.044,151.791c-0.91,2.082-1.839,4.155-2.851,6.188c-1.04,2.088-2.129,4.153-3.241,6.207
			c1.513,2.04,2.897,4.095,4.151,6.156c1.766-3.923,3.412-7.9,5.058-11.878C369.082,156.276,368.042,154.052,367.044,151.791z"/>
		<path fill="#27AAE1" d="M306.326,200.976c1.308,0.946,2.637,1.866,3.971,2.777c1.509-0.732,3.01-1.483,4.501-2.248
			c-0.375-0.224-0.753-0.446-1.128-0.671c-2.331-1.396-4.49-3.082-6.711-4.659c-2.414-1.715-4.836-3.42-7.205-5.196
			c-0.464-0.349-0.915-0.715-1.373-1.073c-1.398,0.595-2.78,1.165-4.147,1.717c1.373,1.05,2.748,2.097,4.117,3.152
			C301.019,196.83,303.6,199.003,306.326,200.976z"/>
		<path fill="#27AAE1" d="M337.959,219.334c3,1.281,6.083,2.275,9.257,2.846c2.756-0.395,5.238-1.254,7.52-3.102
			c2.974-1.912,5.188-5.021,6.51-8.944c-2.689,2.512-5.899,3.975-9.573,4.578c-5.008,0.822-9.871-0.35-14.596-1.803
			c-3.084-0.948-6.089-2.299-8.946-3.815c-0.895-0.475-1.783-0.964-2.672-1.451c-1.629,0.926-3.271,1.838-4.923,2.733
			c2.599,1.627,5.217,3.222,7.898,4.7C331.469,216.751,334.759,217.967,337.959,219.334z"/>
		<path fill="#27AAE1" d="M354.79,188.026c-3.171,2.537-6.559,5.06-10.12,7.541c2.89-0.912,5.441-2.479,7.674-4.779
			C353.208,189.899,354.012,188.971,354.79,188.026z"/>
		<path fill="#27AAE1" d="M343.729,165.988c0.506-0.631,1.008-1.267,1.506-1.905c-4.821,3.526-10.427,7.122-16.44,10.609
			c0.892-0.072,1.78-0.202,2.663-0.401C336.561,173.142,340.503,170.013,343.729,165.988z"/>
		<path fill="#27AAE1" d="M343.214,241.353c4.423,2.396,9.058,4.325,13.901,5.749c3.678,1.082,7.344,1.796,11.232,1.556
			c4.08-0.253,7.747-1.401,10.859-4.026c1.528-1.289,3.11-2.668,4.169-4.325c1.88-2.941,3.293-6.154,3.896-9.661
			c0.655-3.812,1.485-7.597,2.022-11.424c0.718-5.115,1.174-10.268,1.843-15.391c0.521-3.989,1.108-7.971,1.734-11.946
			c-1.194-1.273-2.37-2.569-3.514-3.903c-0.701,3.728-1.408,7.454-2.072,11.188c-0.636,3.579-1.143,7.181-1.714,10.771
			c-0.405,2.546-0.716,5.111-1.258,7.627c-0.668,3.099-1.267,6.254-2.382,9.201c-1.223,3.229-2.994,6.229-5.489,8.756
			c-2.264,2.291-4.981,3.892-7.969,4.714c-4.605,1.269-9.277,0.816-13.91-0.388c-4.868-1.266-9.446-3.243-13.961-5.378
			c-0.602-0.284-1.199-0.579-1.793-0.881c-3.041-0.072-6.375-0.206-9.799-0.4c0.121,0.074,0.24,0.151,0.361,0.225
			C333.926,236.16,338.538,238.819,343.214,241.353z"/>
		<path fill="#27AAE1" d="M381.196,177.349c-1.127-1.633-2.227-3.296-3.293-4.993c-1.622,5.265-3.247,10.529-5.017,15.744
			c1.111,4.051,1.743,8.001,1.938,11.773c1.232-4.119,2.393-8.26,3.561-12.398C379.337,184.104,380.263,180.726,381.196,177.349z"/>
		<path fill="#27AAE1" d="M327.527,194.252c0.074,0.029,0.148,0.054,0.222,0.082c3.145-1.88,6.193-3.812,9.112-5.779
			c-0.234,0.022-0.468,0.049-0.705,0.061c-3.846,0.192-7.64-0.182-11.257-1.612c-3.618-1.431-7.317-2.709-10.821-4.374
			c-1.812,0.908-3.629,1.787-5.445,2.649c1.843,1.192,3.734,2.325,5.709,3.256C318.675,190.574,323.07,192.501,327.527,194.252z"/>
		<path fill="#27AAE1" d="M394.053,105.731c-4.321,2.401-7.18,6.217-9.604,10.32c-0.154,0.261-0.299,0.528-0.45,0.791h6.177
			c0.794-0.995,1.63-1.962,2.545-2.877c3.119-3.12,6.92-4.894,11.349-4.758c4.043,0.123,7.729,1.624,11.23,3.641
			c1.313,0.756,2.604,1.545,3.874,2.365v-4.004c-3.973-2.878-8.182-5.359-13.058-6.719
			C401.922,103.319,397.902,103.592,394.053,105.731z"/>
		<path fill="#27AAE1" d="M313.767,171.704c3.273-1.599,6.478-3.256,9.551-4.946c-0.684,0.006-1.364-0.014-2.034-0.097
			c-3.395-0.423-6.814-1.074-10.063-2.124c-2.928-0.947-5.671-2.498-8.44-3.894c-0.676-0.341-1.356-0.676-2.035-1.013
			c-2.023,0.684-4.039,1.342-6.045,1.976c3.368,2.192,6.985,4.019,10.463,6.053C307.924,169.273,310.803,170.595,313.767,171.704z"
			/>
		<path fill="#27AAE1" d="M409.508,76.191c-3.936-3.048-8.104-5.82-12.329-8.461c-3.748-2.344-7.754-4.149-12.259-4.729
			c-3.645-0.468-7.032,0.132-10.309,1.636c-4.876,2.237-8.125,6.31-11.224,10.417c-0.556,0.736-1.093,1.486-1.632,2.235v9.854h2.38
			c0.393-0.551,0.783-1.103,1.179-1.652c2.077-2.882,4.274-5.691,6.588-8.388c2.209-2.577,4.986-4.557,8.194-5.641
			c5.385-1.821,10.695-1.057,15.734,1.348c2.722,1.299,5.277,2.946,7.898,4.453c4.811,2.766,9.05,6.311,13.251,9.879h5.298
			c-0.155-0.141-0.307-0.285-0.461-0.425C417.821,83.089,413.772,79.493,409.508,76.191z"/>
		<path fill="#27AAE1" d="M392.253,87.144h3.603C394.633,87.014,393.434,87.013,392.253,87.144z"/>
		<path fill="#27AAE1" d="M419.174,103.794v-4.056c-0.588-0.485-1.187-0.957-1.78-1.435h-6.153c0.887,0.547,1.765,1.111,2.631,1.693
			C415.68,101.209,417.444,102.48,419.174,103.794z"/>
		<path fill="#27AAE1" d="M303.619,122.198v-5.356h11.124c2.04-1.86,3.793-4.014,5.399-6.269c2.879-4.041,5.673-8.144,8.431-12.271
			h-9.16c-1.979,2.748-3.947,5.503-6.013,8.185c-2.063,2.679-4.735,4.673-7.796,6.26c-4.274,2.217-8.757,2.301-13.146,1.349v6.845
			c1.652,0.473,3.342,0.856,5.085,1.117C299.645,122.371,301.663,122.424,303.619,122.198z"/>
		<path fill="#27AAE1" d="M339.654,113.268c-0.751,1.197-1.514,2.389-2.284,3.575h8.52c1.2-2.158,2.387-4.325,3.627-6.458
			c2.349-4.043,4.666-8.109,7.131-12.082h-8.358c-0.767,1.292-1.53,2.586-2.293,3.88
			C343.834,105.85,341.916,109.666,339.654,113.268z"/>
		<path fill="#27AAE1" d="M365.023,116.842h7.453c2.385-4.083,4.829-8.131,7.34-12.134c1.483-2.364,3.185-4.558,5.234-6.405h-8.574
			c-3.093,4.437-5.873,9.101-8.661,13.742C366.863,113.631,365.945,115.238,365.023,116.842z"/>
		<path fill="#27AAE1" d="M402.948,145.313c-0.93,1.396-1.756,2.842-2.517,4.32c5.364-3.835,10.512-7.757,14.863-11.377
			C410.058,138.072,406.002,140.724,402.948,145.313z"/>
		<path fill="#27AAE1" d="M382.89,129.234c0.279-0.593,0.563-1.184,0.851-1.772h-5.389c-0.245,0.487-0.492,0.973-0.737,1.46
			c-1.666,3.307-3.27,6.646-4.841,9.999c0.875,2.23,1.795,4.435,2.768,6.606c1.25-3.011,2.504-6.02,3.79-9.016
			C380.395,134.033,381.74,131.678,382.89,129.234z"/>
		<path fill="#27AAE1" d="M398.983,132.23c1.753-2.13,3.748-3.766,6.089-4.768h-8.417c-0.441,0.535-0.869,1.085-1.273,1.658
			c-3.516,4.978-5.979,10.508-8.253,16.126c-1.79,4.424-3.389,8.914-4.894,13.437c0.432,0.754,0.856,1.515,1.3,2.258
			c0.987-0.613,1.994-1.252,3.008-1.899c1.292-3.783,2.674-7.537,4.088-11.276C392.725,142.226,395.172,136.862,398.983,132.23z"/>
		<path fill="#27AAE1" d="M399.137,164.146c-1.753,1.08-3.493,2.137-5.2,3.158c-0.601,2.096-1.151,4.204-1.665,6.321
			c1.021,1.3,2.072,2.568,3.142,3.817c0.064-0.274,0.116-0.552,0.185-0.825C396.645,172.43,397.818,168.262,399.137,164.146z"/>
		<path fill="#27AAE1" d="M309.667,234.822c4.695,3.532,9.259,7.244,14.016,10.688c4.96,3.591,10.066,6.982,15.142,10.411
			c3.854,2.604,7.704,5.222,11.664,7.658c2.76,1.699,5.626,3.269,8.58,4.595c3.74,1.68,7.558,3.235,11.451,4.509
			c4.109,1.343,8.344,2.215,12.745,2.034c3.202-0.132,6.239-0.865,8.938-2.487c4.181-2.513,7.323-6.002,8.662-10.827
			c0.796-2.87,1.751-5.742,2.115-8.678c0.737-5.946,1.256-11.929,1.615-17.911c0.407-6.78,0.604-13.576,0.777-20.368
			c0.092-3.56,0.293-7.108,0.602-10.646c-1.358-1.045-2.699-2.112-4.007-3.224c-0.474,4.843-0.833,9.699-1.2,14.552
			c-0.319,4.234-0.381,8.487-0.59,12.729c-0.342,6.956-0.698,13.905-2.281,20.732c-0.771,3.326-1.783,6.56-3.534,9.481
			c-1.396,2.33-3.408,4.1-5.683,5.654c-2.948,2.018-6.204,2.959-9.651,3.201c-6.007,0.424-11.633-1.409-17.157-3.44
			c-6.921-2.546-13.329-6.183-19.575-10.033c-5.421-3.343-10.62-7.053-15.833-10.72c-3.48-2.448-6.804-5.118-10.215-7.665
			c-2.805-2.095-5.664-4.119-8.449-6.24c-3.258-2.48-6.43-5.076-9.702-7.539c-0.022-0.017-0.045-0.032-0.067-0.049
			c-1.441,0.61-2.876,1.201-4.306,1.772c1.547,1.183,3.088,2.375,4.652,3.533C302.126,229.323,305.938,232.018,309.667,234.822z"/>
		<path fill="#27AAE1" d="M320.754,227.648c2.254,1.638,4.558,3.22,6.916,4.708c-0.166-1.738-0.572-3.913-1.225-6.033
			c-2.292-1.427-4.563-2.887-6.783-4.418c-3.005-2.073-5.901-4.306-8.794-6.541c-1.287,0.632-2.574,1.25-3.862,1.857
			c0.697,0.535,1.391,1.074,2.089,1.607C312.967,221.788,316.813,224.784,320.754,227.648z"/>
		<path fill="#27AAE1" d="M311.697,267.91c-3.37-2.154-6.767-4.311-10.332-6.106c-4.211-2.12-8.584-3.936-12.951-5.728
			c-3.846-1.578-7.928-2.415-12.066-2.415c-2.36-0.001-4.592,0.466-6.685,1.364c18.257,14.826,40.483,24.949,64.841,28.527
			c-3.183-2.29-6.371-4.573-9.585-6.819C320.578,273.698,316.161,270.765,311.697,267.91z"/>
		<path fill="#27AAE1" d="M278.246,61.296c3.414-0.874,6.358-2.542,8.627-4.979c3.452-3.706,6.485-7.809,9.609-11.811
			c1.625-2.081,3.152-4.251,4.567-6.48c1.587-2.499,2.983-5.117,4.492-7.666c1.095-1.848,2.247-3.661,3.358-5.499
			c0.091-0.151,0.181-0.302,0.272-0.453c-19.771,7.038-37.403,18.577-51.664,33.391c4.014,1.955,8.24,3.376,12.664,4.057
			C272.823,62.265,275.532,61.99,278.246,61.296z"/>
		<path fill="#27AAE1" d="M432.673,218.538c-3.936-1.439-7.712-3.115-11.351-4.987c-0.903,6.608-1.215,13.273-1.36,19.93
			c-0.251,11.548,0.107,23.116-0.632,34.643c3.852-2.146,7.587-4.474,11.194-6.975c0.027-6.385,0.069-12.769,0.274-19.147
			c0.218-6.768,0.756-13.534,2.478-20.129c1.153-4.416,2.617-8.714,5.988-12.021c1.462-1.435,3.205-2.26,5.349-2.403
			c4.754-0.318,8.483,1.998,11.957,4.676c3.421,2.638,6.627,5.572,9.771,8.543c0.507,0.479,0.985,0.983,1.482,1.471
			c1.166-1.854,2.287-3.738,3.363-5.652c-3.827-4.384-7.771-8.668-11.738-12.924c-1.845-1.978-3.946-3.713-5.898-5.592
			c-3.498-3.367-7.338-6.27-11.813-8.183c-7.001-2.993-11.568-0.821-14.955,4.842c-1.205,2.015-2.103,4.155-2.817,6.363
			c5.284,2.916,10.879,5.377,16.808,7.286C438.073,210.618,434.653,215.298,432.673,218.538z"/>
		<path fill="#27AAE1" d="M334.176,268.244c-6.089-4.46-12.13-8.987-18.243-13.415c-4.547-3.295-9.133-6.538-13.779-9.69
			c-4.154-2.819-8.333-5.618-12.652-8.171c-3.637-2.15-7.407-4.126-11.27-5.834c-5.253-2.324-10.726-4.017-16.594-3.653
			c-3.452,0.214-6.573,1.319-9.361,3.468c-1.227,0.945-2.322,1.992-3.332,3.11c4.139,5.225,8.66,10.131,13.518,14.684
			c2.813-1.9,6.131-2.923,9.926-2.924c3.799-0.001,7.416,0.756,10.882,2.146c4.655,1.868,9.355,3.698,13.792,6.012
			c4.438,2.314,8.584,5.193,12.843,7.847c2.236,1.393,4.484,2.771,6.65,4.269c3.116,2.153,6.167,4.401,9.235,6.624
			c5.387,3.902,10.759,7.824,16.153,11.715c4.028,0.364,8.104,0.561,12.226,0.561c1.359,0,2.712-0.026,4.061-0.066
			c-4.19-2.583-8.247-5.395-12.298-8.198C341.96,273.978,338.075,271.1,334.176,268.244z"/>
		<path fill="#27AAE1" d="M450.229,215.512c-3.843-0.274-6.619,1.468-8.688,4.475c-2.514,3.653-3.64,7.832-4.506,12.138
			c-1.381,6.86-1.74,13.801-1.835,20.755c-0.022,1.636-0.029,3.271-0.038,4.907c4.566-3.463,8.902-7.213,12.985-11.221
			c0.557-2.003,1.307-3.956,2.297-5.82c1.132-2.132,2.597-3.984,4.762-5.181c1.191-0.658,2.406-0.858,3.612-0.789
			c2.561-3.188,4.979-6.494,7.244-9.911c-2.63-2.443-5.399-4.725-8.477-6.59C455.378,216.938,452.977,215.707,450.229,215.512z"/>
		<path fill="#27AAE1" d="M431.133,48.913c4.983,3.697,9.95,7.483,15.588,10.179c2.54,1.215,5.142,2.245,7.849,2.758
			c-12.966-14.619-29.072-26.385-47.267-34.241c4.438,4.18,8.871,8.363,13.374,12.47C424.047,43.152,427.475,46.199,431.133,48.913z
			"/>
		<path fill="#27AAE1" d="M419.174,115.212c-1.27-0.82-2.561-1.609-3.874-2.365c-3.502-2.017-7.188-3.518-11.23-3.641
			c-4.429-0.135-8.229,1.638-11.349,4.758c-0.915,0.916-1.751,1.883-2.545,2.877h16.578v4.618c1.606-0.199,3.245-0.12,4.901,0.218
			c6.954,1.419,12.282,5.658,17.546,10.004c5.021,4.146,9.817,8.544,14.213,13.356c6.082,6.659,12.148,13.333,18.151,20.064
			c4.404,4.938,8.704,9.97,13.034,14.975c2.704,3.125,5.342,6.31,8.069,9.413c0.814-2.711,1.553-5.454,2.197-8.234
			c-2.21-2.192-4.39-4.417-6.545-6.663c-3.854-4.016-7.568-8.165-11.321-12.277c-5.63-6.169-11.085-12.505-16.897-18.497
			c-7.011-7.227-14.212-14.276-21.508-21.216h-9.421V115.212z"/>
		<path fill="#27AAE1" d="M292.623,174.334c-5.469-4.063-10.698-8.446-16.06-12.655c-2.011-1.578-4.149-2.995-6.142-4.595
			c-3.222-2.585-6.326-5.316-9.566-7.877c-2.613-2.066-5.369-3.949-8.031-5.953c-2.657-2-5.235-4.108-7.925-6.062
			c-2.934-2.131-5.846-4.33-8.97-6.153c-4.221-2.463-8.573-4.724-12.989-6.821c-0.086-0.041-0.177-0.075-0.264-0.115
			c-0.98,4.848-1.692,9.793-2.134,14.815c1.702,0.271,3.384,0.703,5.069,1.214c4.769,1.448,9.245,3.532,13.561,5.93
			c3.779,2.1,7.415,4.479,10.994,6.913c4.078,2.771,8.049,5.702,12.015,8.634c2.738,2.024,5.409,4.141,8.072,6.263
			c4.166,3.318,8.267,6.719,12.458,10.005c1.904,1.493,3.836,2.952,5.772,4.405c3.268-1.131,6.631-2.399,10.025-3.772
			C296.522,177.147,294.552,175.768,292.623,174.334z"/>
		<path fill="#27AAE1" d="M337.077,212.909c4.725,1.453,9.587,2.625,14.596,1.803c3.674-0.604,6.884-2.066,9.573-4.578
			c0.919-2.726,1.41-5.841,1.41-9.235c0-5.039-1.08-10.619-3.42-16.559c-1.425,1.23-2.913,2.46-4.446,3.687
			c-0.778,0.944-1.582,1.873-2.445,2.762c-2.233,2.301-4.785,3.867-7.674,4.779c-6.008,4.188-12.496,8.257-19.211,12.075
			c0.889,0.487,1.777,0.977,2.672,1.451C330.988,210.61,333.993,211.961,337.077,212.909z"/>
		<path fill="#27AAE1" d="M306.96,196.175c2.221,1.577,4.38,3.263,6.711,4.659c0.375,0.225,0.752,0.447,1.128,0.671
			c4.434-2.271,8.775-4.674,12.95-7.171c-0.073-0.028-0.148-0.053-0.222-0.082c-4.458-1.751-8.853-3.678-13.186-5.718
			c-1.975-0.931-3.866-2.063-5.709-3.256c-3.449,1.64-6.887,3.196-10.25,4.627c0.458,0.358,0.908,0.725,1.373,1.073
			C302.124,192.755,304.546,194.46,306.96,196.175z"/>
		<path fill="#27AAE1" d="M370.161,158.464c-1.646,3.978-3.292,7.955-5.058,11.878c3.624,5.954,6.191,11.955,7.783,17.758
			c1.77-5.215,3.395-10.479,5.017-15.744C375.119,167.929,372.542,163.288,370.161,158.464z"/>
		<path fill="#27AAE1" d="M395.382,129.12c0.404-0.573,0.832-1.123,1.273-1.658H383.74c-0.287,0.589-0.571,1.179-0.851,1.772
			c-1.149,2.443-2.495,4.799-3.559,7.277c-1.286,2.996-2.54,6.004-3.79,9.016c2.031,4.535,4.273,8.928,6.694,13.155
			c1.505-4.522,3.104-9.012,4.894-13.437C389.402,139.627,391.866,134.097,395.382,129.12z"/>
		<path fill="#27AAE1" d="M345.89,116.842h19.133c0.922-1.604,1.84-3.211,2.792-4.797c2.788-4.642,5.568-9.306,8.661-13.742h-19.828
			c-2.466,3.972-4.782,8.039-7.131,12.082C348.277,112.517,347.09,114.684,345.89,116.842z"/>
		<path fill="#27AAE1" d="M355.784,133.372c-4.965,3.472-10.533,6.877-16.347,9.93c2.505,1.797,4.859,3.65,7.079,5.543
			c1.223-1.781,2.422-3.577,3.546-5.418C352.069,140.136,353.936,136.759,355.784,133.372z"/>
		<path fill="#27AAE1" d="M311.221,164.537c3.249,1.05,6.668,1.701,10.063,2.124c0.67,0.083,1.351,0.103,2.034,0.097
			c6.045-3.325,11.58-6.774,16.119-10.137c-3.06-2.7-6.48-5.58-10.26-8.28c-9.187,4.287-18.87,8.06-28.432,11.29
			c0.679,0.337,1.359,0.672,2.035,1.013C305.549,162.039,308.293,163.59,311.221,164.537z"/>
		<path fill="#27AAE1" d="M440.779,119.276c2.682,2.613,5.257,5.335,7.872,8.017c2.477,2.539,4.921,5.11,7.42,7.627
			c2.605,2.625,5.223,5.238,7.896,7.793c4.54,4.337,9.041,8.723,13.722,12.906c3.164,2.828,6.479,5.461,10.06,7.707
			c0.38-4.115,0.584-8.282,0.584-12.497c0-0.768-0.017-1.532-0.029-2.297c-2.131-0.734-4.176-1.721-6.14-2.912
			c-6.528-3.957-12.328-8.83-17.914-13.988c-2.328-2.149-4.776-4.169-7.075-6.349c-2.452-2.324-4.776-4.782-7.184-7.154
			c-3.302-3.252-6.626-6.482-9.945-9.717c-2.854-2.782-5.656-5.623-8.586-8.323c-0.016-0.015-0.031-0.029-0.047-0.043v10.317
			C434.601,113.262,437.693,116.269,440.779,119.276z"/>
		<path fill="#27AAE1" d="M339.437,127.462c-1.539,2.349-3.082,4.702-4.712,6.989c4.098-2.221,7.985-4.55,11.552-6.989H339.437z"/>
		<path fill="#27AAE1" d="M292.192,141.521c-4.116-2.388-8.336-4.625-12.278-7.274c-4.778-3.213-9.38-6.703-13.936-10.23
			c-6.352-4.918-12.584-9.992-18.882-14.981c-2.521-1.997-5.097-3.927-7.624-5.917c-2.705-2.13-5.385-4.293-8.076-6.442
			c-1.305,2.953-2.506,5.962-3.599,9.023c1.996,1.369,3.961,2.782,5.884,4.245c7.663,5.833,15.193,11.841,22.764,17.794
			c7.406,5.824,14.727,11.76,22.217,17.474c3.344,2.551,6.767,5.006,10.242,7.381c5.523-1.57,11.152-3.368,16.743-5.369
			C300.933,145.942,296.464,143.999,292.192,141.521z"/>
		<path fill="#27AAE1" d="M395.831,72.811c-5.039-2.405-10.35-3.169-15.734-1.348c-3.208,1.084-5.985,3.064-8.194,5.641
			c-2.313,2.697-4.511,5.505-6.588,8.388c-0.396,0.549-0.786,1.101-1.179,1.652h28.117c1.181-0.13,2.38-0.129,3.603,0h21.125
			c-4.201-3.568-8.44-7.113-13.251-9.879C401.108,75.757,398.553,74.11,395.831,72.811z"/>
		<path fill="#27AAE1" d="M419.174,98.303h-1.78c0.594,0.479,1.192,0.95,1.78,1.435V98.303z"/>
		<path fill="#27AAE1" d="M367.044,151.791c-2.057-4.66-3.942-9.47-5.66-14.411c-1.645,3.276-3.292,6.551-5.048,9.767
			c-1.285,2.355-2.708,4.638-4.173,6.896c3.315,3.303,6.236,6.7,8.789,10.144c1.112-2.054,2.201-4.119,3.241-6.207
			C365.205,155.946,366.134,153.873,367.044,151.791z"/>
		<path fill="#27AAE1" d="M444.538,134.267c4.354,4.488,8.617,9.065,12.893,13.63c5.653,6.035,11.236,12.137,16.93,18.135
			c3.667,3.863,7.431,7.633,11.365,11.22c0.559-2.796,1.028-5.623,1.41-8.479c-0.639-0.484-1.273-0.977-1.9-1.478
			c-9.326-7.458-17.467-16.17-25.823-24.651c-9.263-9.401-18.481-18.846-27.882-28.107c-0.039-0.038-0.078-0.075-0.117-0.113v6.865
			C435.945,125.448,440.251,129.849,444.538,134.267z"/>
		<path fill="#27AAE1" d="M305.163,167.659c-3.479-2.034-7.096-3.86-10.463-6.053c-2.445,0.771-4.88,1.519-7.281,2.214
			c-1.44-2.34-4.32-7.02-6.12-9.18c0.87-0.22,1.753-0.455,2.632-0.687c-2.191-1.625-4.374-3.261-6.56-4.891
			c-3.767-2.809-7.468-5.708-11.155-8.623c-4.059-3.208-8.054-6.496-12.103-9.718c-4.533-3.608-9.018-7.283-13.664-10.74
			c-4.619-3.436-9.335-6.748-14.114-9.959c-0.919,2.882-1.742,5.808-2.468,8.771c0.175,0.097,0.353,0.188,0.528,0.286
			c4.927,2.774,9.867,5.581,14.5,8.805c6.2,4.313,12.171,8.964,18.128,13.614c7.274,5.678,14.39,11.56,21.656,17.25
			c4.84,3.79,9.811,7.414,14.747,11.082c3.177,2.36,6.427,4.613,9.767,6.719c3.551-1.526,7.101-3.151,10.573-4.847
			C310.803,170.595,307.924,169.273,305.163,167.659z"/>
		<path fill="#27AAE1" d="M336.156,188.615c0.237-0.012,0.471-0.038,0.705-0.061c6.721-4.531,12.761-9.246,17.695-13.936
			c-2.34-3.779-5.22-7.559-8.46-11.158c-0.277,0.207-0.578,0.415-0.861,0.622c-0.498,0.639-1,1.274-1.506,1.905
			c-3.227,4.024-7.168,7.153-12.272,8.303c-0.883,0.199-1.771,0.329-2.663,0.401c-4.73,2.744-9.697,5.42-14.717,7.937
			c3.504,1.665,7.203,2.943,10.821,4.374C328.517,188.434,332.311,188.808,336.156,188.615z"/>
		<path fill="#27AAE1" d="M379.816,104.708c-2.511,4.003-4.955,8.052-7.34,12.134h11.522c0.151-0.263,0.296-0.53,0.45-0.791
			c2.424-4.103,5.282-7.918,9.604-10.32c3.85-2.14,7.869-2.412,12.063-1.242c4.876,1.359,9.085,3.841,13.058,6.719v-7.414
			c-1.729-1.314-3.494-2.585-5.303-3.798c-0.866-0.582-1.744-1.146-2.631-1.693h-26.189
			C383.001,100.15,381.3,102.344,379.816,104.708z"/>
		<path fill="#27AAE1" d="M378.352,127.462h-9.576c1.178,3.886,2.524,7.707,3.998,11.459c1.571-3.354,3.175-6.692,4.841-9.999
			C377.859,128.435,378.106,127.949,378.352,127.462z"/>
		<path fill="#27AAE1" d="M399.872,36.046c5.443,5.086,10.832,10.232,16.304,15.288c4.798,4.433,9.608,8.858,14.544,13.137
			c4.625,4.009,9.319,7.952,14.172,11.679c4.148,3.187,8.403,6.3,12.91,8.935c3.983,2.328,8.438,3.846,13.202,3.506
			c0.647-0.046,1.28-0.139,1.905-0.255c-3.399-6.446-7.307-12.583-11.672-18.355c-2.133-0.088-4.313-0.527-6.555-1.243
			c-3.497-1.117-6.533-2.977-9.587-4.804c-6.326-3.785-12.024-8.463-17.593-13.271c-4.702-4.061-9.35-8.191-13.894-12.427
			c-4.94-4.606-9.828-9.269-14.722-13.924c-6.237-2.205-12.687-3.96-19.31-5.23c0.651,0.469,1.3,0.941,1.948,1.411
			C388.035,25.209,394.008,30.566,399.872,36.046z"/>
		<path fill="#27AAE1" d="M422.217,187.877c1.921-3.701,4.536-6.742,9.086-7.109c2.584-0.209,5.059,0.341,7.432,1.459
			c5.422,2.555,9.988,6.308,14.146,10.492c5.324,5.357,10.515,10.867,15.478,16.56c1.395,1.6,2.766,3.22,4.125,4.851
			c0.901-1.683,1.774-3.383,2.605-5.106c-1.416-1.752-2.835-3.503-4.256-5.252c-2.677-3.294-5.325-6.616-8.12-9.809
			c-3.222-3.682-6.572-7.253-9.902-10.839c-2.222-2.392-4.423-4.81-6.778-7.064c-3.69-3.533-7.575-6.855-11.985-9.48
			c-2.597-1.546-5.394-2.695-8.431-2.933c-3.935-0.308-7.101,1.39-9.615,4.292c-1.802,2.08-3.181,4.421-3.979,7.11
			c-0.607,2.049-1.606,3.985-2.171,6.043c-0.789,2.881-1.5,5.796-2.038,8.733c3.421,2.9,7.011,5.584,10.791,8.001
			C419.422,194.398,420.568,191.053,422.217,187.877z"/>
		<path fill="#27AAE1" d="M405.373,214.446c-0.174,6.792-0.37,13.588-0.777,20.368c-0.359,5.982-0.878,11.965-1.615,17.911
			c-0.364,2.936-1.319,5.808-2.115,8.678c-1.339,4.825-4.481,8.314-8.662,10.827c-2.699,1.622-5.736,2.355-8.938,2.487
			c-4.401,0.181-8.636-0.691-12.745-2.034c-3.894-1.273-7.711-2.829-11.451-4.509c-2.954-1.326-5.82-2.896-8.58-4.595
			c-3.959-2.437-7.81-5.055-11.664-7.658c-5.076-3.429-10.182-6.82-15.142-10.411c-4.757-3.444-9.321-7.156-14.016-10.688
			c-3.729-2.805-7.541-5.499-11.291-8.275c-1.564-1.158-3.105-2.351-4.652-3.533c-3.848,1.54-7.646,2.939-11.344,4.164
			c-1.44-3.06-3.96-7.56-6.48-10.26c2.166-0.584,4.372-1.24,6.6-1.947c-1.688-1.154-3.389-2.29-5.122-3.372
			c-3.574-2.23-7.396-4.061-11.085-6.109c-3.474-1.93-7.208-3.158-11.038-4.083c-4.695-1.134-9.397-1.021-13.743,1.19
			c-2.386,1.214-4.426,3.048-6.225,5.151c-0.575,0.673-1.114,1.367-1.637,2.071c3.016,6.15,6.49,12.034,10.375,17.611
			c0.227-0.304,0.444-0.616,0.676-0.916c1.827-2.365,4.143-4.438,7.03-5.591c4.009-1.602,8.192-1.902,12.328-0.812
			c4.125,1.087,8.257,2.308,12.181,3.957c3.357,1.411,6.49,3.408,9.605,5.334c4.035,2.495,7.985,5.134,11.916,7.794
			c2.62,1.773,5.151,3.679,7.707,5.547c6.165,4.508,12.318,9.033,18.482,13.542c3.607,2.64,7.208,5.289,10.848,7.883
			c3.047,2.17,6.135,4.282,9.226,6.39c3.605,2.457,7.14,5.038,10.875,7.279c3.768,2.262,7.548,4.533,11.426,6.6
			c16.928-1.52,32.947-6.183,47.476-13.402c0.262-1.765,0.446-3.545,0.559-5.339c0.313-4.979,0.678-9.96,0.825-14.946
			c0.214-7.256,0.088-14.524,0.41-21.774c0.267-5.982,0.602-11.971,1.133-17.936c-3.75-2.186-7.329-4.608-10.75-7.239
			C405.666,207.338,405.465,210.887,405.373,214.446z"/>
		<path fill="#27AAE1" d="M333.555,76.381c4.608-8.337,9.704-16.367,15.362-24.044c3.279-4.449,6.516-8.92,11.015-12.232
			c3.931-2.894,8.361-3.811,13.234-3.242c5.657,0.661,10.459,3.265,15.007,6.349c4.332,2.938,8.522,6.112,12.579,9.423
			c4.198,3.426,8.188,7.109,12.218,10.738c4.091,3.683,8.131,7.423,12.171,11.163c4.416,4.087,8.732,8.285,13.227,12.284
			c6.853,6.097,13.748,12.153,20.776,18.045c2.842,2.382,5.977,4.466,9.172,6.359c3.421,2.028,7.156,3.658,11.144,3.951
			c1.357,0.1,2.707,0.049,4.033-0.154c-1.805-6.535-4.089-12.87-6.817-18.963c-4.818,0.909-9.262-0.116-13.606-2.191
			c-6.036-2.882-11.281-6.939-16.438-11.125c-2.466-2.002-4.997-3.929-7.403-6.001c-2.419-2.083-4.721-4.304-7.072-6.466
			c-7.853-7.217-15.675-14.467-23.567-21.64c-4.492-4.083-9.089-8.053-13.659-12.049c-2.47-2.159-4.922-4.344-7.488-6.383
			c-5.089-4.043-10.388-7.836-16.463-10.232c-7.032-2.773-13.82-2.562-20.131,2.308c-3.551,2.741-6.32,6.094-8.9,9.675
			c-2.249,3.122-4.559,6.2-6.748,9.362c-1.717,2.48-3.366,5.016-4.911,7.607c-1.844,3.094-3.454,6.329-5.327,9.405
			c-4.271,7.017-8.306,14.187-13.319,20.731c-1.489,1.944-2.732,4.078-4.236,6.009c-0.567,0.729-1.201,1.405-1.844,2.075h21.762
			C329.538,83.64,331.546,80.014,333.555,76.381z"/>
		<path fill="#27AAE1" d="M305.604,112.748c3.061-1.587,5.732-3.581,7.796-6.26c2.065-2.682,4.034-5.437,6.013-8.185h-26.954v15.793
			C296.848,115.048,301.33,114.964,305.604,112.748z"/>
		<path fill="#27AAE1" d="M267.54,89.425c-5.743-3.135-11.312-6.552-16.518-10.533c-2.229-1.705-4.461-3.404-6.692-5.107
			c-1.792,2.551-3.5,5.166-5.116,7.843c4.393,3.528,8.812,7.025,13.273,10.466c3.529,2.721,7.082,5.42,10.74,7.961
			c5.22,3.625,10.665,6.934,16.446,9.561c0.36,0.164,0.722,0.323,1.085,0.483v-15.06C276.132,93.741,271.774,91.736,267.54,89.425z"
			/>
		<path fill="#27AAE1" d="M306.326,200.976c-2.727-1.973-5.307-4.146-7.974-6.201c-1.369-1.056-2.744-2.103-4.117-3.152
			c-2.329,0.939-4.612,1.819-6.816,2.617c-1.44-2.88-4.14-7.021-6.479-9.54c1.008-0.295,2.036-0.61,3.074-0.938
			c-0.01-0.008-0.02-0.016-0.03-0.023c-3.123-2.436-6.145-4.999-9.25-7.457c-2.589-2.05-5.23-4.034-7.855-6.039
			c-3.357-2.564-6.656-5.211-10.102-7.651c-2.767-1.96-5.697-3.692-8.586-5.477c-2.441-1.508-4.878-3.032-7.407-4.383
			c-1.993-1.063-4.093-1.948-6.199-2.777c-2.489-0.979-4.984-2.01-7.566-2.671c-2.373-0.608-4.698-0.878-6.937-0.679
			c-0.043,1.404-0.073,2.812-0.073,4.226c0,6.301,0.444,12.498,1.285,18.567c3.967-3.483,8.691-4.646,13.865-3.619
			c2.918,0.58,5.684,1.885,8.571,2.669c3.508,0.952,6.569,2.859,9.708,4.519c3.52,1.861,6.78,4.247,10.038,6.565
			c5.279,3.758,10.5,7.6,15.679,11.495c4.588,3.451,9.073,7.038,13.626,10.536c2.784,2.139,5.583,4.258,8.379,6.382
			c3.059-1.322,6.112-2.722,9.138-4.19C308.963,202.842,307.634,201.922,306.326,200.976z"/>
		<path fill="#27AAE1" d="M354.564,239.849c4.633,1.204,9.305,1.656,13.91,0.388c2.987-0.822,5.705-2.423,7.969-4.714
			c2.495-2.526,4.267-5.526,5.489-8.756c1.115-2.947,1.714-6.103,2.382-9.201c0.542-2.516,0.853-5.081,1.258-7.627
			c0.571-3.59,1.078-7.191,1.714-10.771c0.664-3.733,1.371-7.46,2.072-11.188c-2.882-3.36-5.597-6.915-8.162-10.632
			c-0.934,3.377-1.859,6.755-2.812,10.126c-1.168,4.139-2.328,8.279-3.561,12.398c0.042,0.83,0.071,1.654,0.071,2.466
			c0,19.439-12.239,31.318-30.958,31.318c-1.569,0-3.298-0.023-5.127-0.067c0.595,0.302,1.192,0.597,1.793,0.881
			C345.118,236.605,349.696,238.583,354.564,239.849z"/>
		<path fill="#27AAE1" d="M405.072,127.462c-2.341,1.002-4.336,2.638-6.089,4.768c-3.812,4.632-6.259,9.996-8.353,15.535
			c-1.414,3.739-2.796,7.493-4.088,11.276c4.539-2.903,9.288-6.12,13.889-9.409c0.761-1.478,1.587-2.923,2.517-4.32
			c3.054-4.589,7.109-7.24,12.347-7.057c1.105-0.918,2.167-1.821,3.159-2.694l6.289,5.67c1.522,0.864,2.992,1.843,4.437,2.867
			c6.296,4.463,11.701,9.905,17.034,15.407c3.853,3.975,7.466,8.188,11.066,12.398c5.379,6.292,10.69,12.642,15.957,19.027
			c2.123,2.574,4.204,5.183,6.283,7.794c0.787-2.061,1.525-4.145,2.213-6.251c-2.282-2.712-4.543-5.441-6.835-8.144
			c-3.011-3.551-6.074-7.057-9.092-10.603c-3.289-3.863-6.415-7.875-9.854-11.599c-6.199-6.708-12.54-13.287-18.896-19.847
			c-4.333-4.472-9.126-8.442-14.405-11.736c-3.852-2.403-7.927-4.41-12.713-4.184c-1.126,0.053-2.184,0.228-3.184,0.505v0.594
			H405.072z"/>
		<path fill="#27AAE1" d="M326.445,226.323c-0.505-1.642-1.15-3.24-1.947-4.545c6.66,0.54,12.959,0.72,16.919,0.72
			c2.067,0,3.992-0.06,5.799-0.318c-3.174-0.57-6.256-1.564-9.257-2.846c-3.2-1.367-6.491-2.583-9.525-4.258
			c-2.681-1.479-5.299-3.073-7.898-4.7c-3.195,1.73-6.426,3.396-9.668,4.988c2.893,2.235,5.789,4.468,8.794,6.541
			C321.882,223.437,324.153,224.896,326.445,226.323z"/>
		<path fill="#27AAE1" d="M389.475,169.939c0.91,1.252,1.846,2.477,2.797,3.687c0.514-2.117,1.064-4.226,1.665-6.321
			C392.418,168.213,390.925,169.096,389.475,169.939z"/>
		<path fill="#27AAE1" d="M303.619,122.198c-1.956,0.226-3.974,0.173-6.074-0.141c-1.744-0.26-3.433-0.644-5.085-1.117v1.661h-11.7
			v-6.575c-1.052-0.556-2.099-1.123-3.14-1.707c-3.485-1.956-6.964-3.971-10.216-6.283c-5.766-4.099-11.355-8.445-17.021-12.684
			c-2.219-1.66-4.491-3.254-6.656-4.98c-2.194-1.75-4.297-3.612-6.453-5.409c-1.481,2.623-2.88,5.297-4.186,8.025
			c3.599,2.862,7.179,5.748,10.773,8.616c6.62,5.281,13.15,10.678,19.866,15.833c4.693,3.602,9.517,7.063,14.497,10.252
			c4.829,3.093,9.855,5.905,14.945,8.552c2.772,1.442,5.784,2.582,8.819,3.312c3.185,0.767,6.525,1.157,9.802,1.191
			c2.424,0.025,4.762-0.96,7.012-2.1c5.016-2.541,8.275-6.786,11.371-11.184h-26.553V122.198z"/>
		<path fill="#27AAE1" d="M349.336,65.904l16.019,1.08c-0.18,1.26-1.26,2.16-3.6,2.34v7.965c0.539-0.749,1.076-1.5,1.632-2.235
			c3.099-4.107,6.348-8.18,11.224-10.417c3.276-1.504,6.664-2.104,10.309-1.636c4.505,0.579,8.511,2.384,12.259,4.729
			c4.225,2.642,8.394,5.414,12.329,8.461c4.265,3.302,8.313,6.897,12.31,10.527c0.154,0.141,0.306,0.285,0.461,0.425h9.135v8.454
			c2.518,2.363,5.027,4.734,7.529,7.113c4.091,3.891,8.022,7.949,12.119,11.834c3.236,3.069,6.623,5.978,9.926,8.977
			c1.762,1.601,3.455,3.279,5.236,4.858c1.356,1.203,2.747,2.383,4.222,3.436c2.841,2.028,5.664,4.104,8.655,5.891
			c2.805,1.675,5.728,3.052,8.896,3.672c-0.434-6.233-1.292-12.349-2.549-18.319c-2.065,0.146-4.209-0.073-6.421-0.685
			c-3.248-0.898-6.239-2.432-9.048-4.297c-2.801-1.86-5.743-3.549-8.342-5.66c-4.186-3.402-8.214-7.009-12.174-10.675
			c-6.76-6.257-13.382-12.661-20.127-18.933c-3.895-3.621-7.928-7.092-11.878-10.653c-2.291-2.065-4.449-4.289-6.829-6.242
			c-5.197-4.265-10.469-8.442-15.77-12.58c-3.306-2.581-6.915-4.691-10.723-6.465c-4.731-2.204-9.505-3.056-14.73-1.651
			c-2.83,0.76-5.316,1.961-7.382,3.825c-2.425,2.188-4.635,4.662-6.67,7.224c-2.552,3.213-4.995,6.54-7.193,10.002
			c-3.708,5.839-7.198,11.817-10.754,17.752c-0.617,1.03-1.21,2.076-1.802,3.122h13.73V65.904z"/>
		<path fill="#27AAE1" d="M314.742,116.842h22.628c0.771-1.186,1.533-2.377,2.284-3.575c2.261-3.602,4.18-7.418,6.342-11.085
			c0.763-1.294,1.527-2.587,2.293-3.88h-19.717c-2.758,4.127-5.552,8.23-8.431,12.271
			C318.535,112.829,316.782,114.982,314.742,116.842z"/>
		<path fill="#27AAE1" d="M288.318,202.825c-2.878-2.249-5.659-4.629-8.595-6.799c-3.713-2.743-7.512-5.374-11.329-7.974
			c-2.326-1.583-4.812-2.934-7.126-4.532c-4.397-3.037-9.138-5.423-14.064-7.415c-4.14-1.675-8.435-2.973-12.984-2.479
			c-3.939,0.427-7.355,2.081-10.163,4.947c-0.327,0.334-0.634,0.681-0.946,1.024c1.648,7.543,3.93,14.848,6.789,21.857
			c1.421-1.885,3.004-3.634,4.875-5.121c3.998-3.179,8.703-4.239,13.898-3.455c4.759,0.718,9.139,2.447,13.444,4.379
			c2.98,1.337,5.813,3.037,8.602,4.754c3.061,1.884,6.025,3.928,8.975,5.984c2.53,1.765,5.018,3.591,7.511,5.407
			c3.286-1.146,6.61-2.403,9.943-3.767C294.201,207.371,291.248,205.114,288.318,202.825z"/>
		<path fill="#27AAE1" d="M307.798,228.829c2.786,2.121,5.644,4.146,8.449,6.24c3.411,2.547,6.735,5.217,10.215,7.665
			c5.213,3.667,10.413,7.377,15.833,10.72c6.246,3.851,12.654,7.487,19.575,10.033c5.524,2.031,11.15,3.864,17.157,3.44
			c3.447-0.242,6.703-1.184,9.651-3.201c2.274-1.555,4.286-3.324,5.683-5.654c1.751-2.922,2.763-6.155,3.534-9.481
			c1.583-6.827,1.939-13.776,2.281-20.732c0.209-4.242,0.271-8.495,0.59-12.729c0.367-4.853,0.727-9.709,1.2-14.552
			c-3.185-2.706-6.21-5.615-9.096-8.693c-0.626,3.976-1.214,7.957-1.734,11.946c-0.669,5.123-1.125,10.275-1.843,15.391
			c-0.537,3.827-1.367,7.612-2.022,11.424c-0.604,3.507-2.017,6.72-3.896,9.661c-1.059,1.657-2.641,3.036-4.169,4.325
			c-3.112,2.625-6.779,3.773-10.859,4.026c-3.889,0.24-7.555-0.474-11.232-1.556c-4.844-1.424-9.479-3.354-13.901-5.749
			c-4.676-2.533-9.288-5.192-13.842-7.938c-0.121-0.073-0.24-0.15-0.361-0.225c-0.424-0.023-0.847-0.047-1.273-0.072
			c-0.014-0.236-0.043-0.503-0.067-0.761c-2.358-1.488-4.661-3.07-6.916-4.708c-3.942-2.864-7.788-5.86-11.66-8.819
			c-0.698-0.533-1.392-1.072-2.089-1.607c-3,1.413-5.998,2.757-8.977,4.02c0.022,0.017,0.045,0.032,0.067,0.049
			C301.368,223.753,304.54,226.349,307.798,228.829z"/>
		<path fill="#27AAE1" d="M399.137,164.146c-1.318,4.115-2.492,8.283-3.539,12.472c-0.068,0.273-0.12,0.551-0.185,0.825
			c2.681,3.134,5.511,6.103,8.488,8.894c0.481-2.592,1.03-5.171,1.635-7.73c1.491-6.322,3.582-12.519,7.937-17.511
			c2.608-2.99,6.089-4.407,10.272-3.748c5.395,0.85,9.694,3.757,13.833,6.997c6.739,5.277,12.517,11.561,18.28,17.836
			c3.472,3.78,6.74,7.753,9.987,11.731c3.472,4.254,6.885,8.555,10.297,12.855c0.836-1.819,1.63-3.661,2.386-5.523
			c-0.906-1.131-1.806-2.267-2.716-3.395c-4.377-5.424-8.823-10.794-13.271-16.16c-2.766-3.337-5.552-6.659-8.406-9.92
			c-1.887-2.155-3.894-4.208-5.881-6.274c-2.604-2.706-5.187-5.435-7.88-8.049c-1.757-1.705-3.632-3.302-5.563-4.807
			c-2.675-2.083-5.332-4.233-8.22-5.986c-0.26-0.158-0.523-0.308-0.788-0.458c-0.05-0.005-0.101-0.007-0.15-0.014
			C418.818,151.542,408.792,158.198,399.137,164.146z"/>
		<path fill="#27AAE1" d="M292.328,87.144c1.239-0.519,2.446-1.187,3.61-2.026c3.584-2.584,6.456-5.967,9.051-9.529
			c2.933-4.026,5.821-8.091,8.547-12.258c2.451-3.746,4.635-7.667,6.975-11.487c4.139-6.753,8.219-13.546,12.501-20.208
			c2.251-3.503,4.792-6.833,7.359-10.119c1.211-1.549,2.469-3.074,3.833-4.481c-8.645,0.635-17.059,2.095-25.171,4.291
			c-1.771,2.857-3.467,5.762-5.102,8.708c-2.815,5.072-5.783,10.064-8.84,14.995c-2.023,3.263-4.197,6.45-6.529,9.5
			c-3.245,4.245-6.357,8.625-10.755,11.856c-4.221,3.101-8.9,4.021-14.002,3.346c-4.217-0.559-8.238-1.839-12.024-3.686
			c-2.706-1.32-5.385-2.714-8.014-4.188c-2.443,2.755-4.78,5.606-6.993,8.556c1.791,1.339,3.586,2.674,5.439,3.921
			c5.845,3.934,11.806,7.694,18.342,10.394c3.009,1.243,6.07,2.503,9.23,3.209c0.325,0.073,0.65,0.138,0.975,0.198v-0.991H292.328z"
			/>
	</g>
</g>
<g id="Layer_5">
	<g>
		<path fill="#2E3192" d="M64.524,125.768h-5.811v9.521l-14.307,14.844v-2.051L61.497,114h4.443c5.045,0,8.74,0.749,11.084,2.246
			l-9.619,9.961C66.917,125.914,65.957,125.768,64.524,125.768z M59.349,114l-14.941,29.736v-14.6L53.245,114H59.349z M44.407,114
			h6.592l-6.592,11.279V114z M44.407,157.896l14.307-10.01v2.246h4.102c1.855,0,3.092-0.098,3.711-0.293
			c2.506-0.879,3.76-2.718,3.76-5.518v-4.541l14.307-9.961v9.668l-40.186,26.904V157.896z M44.407,152.965l14.307-14.844v7.422
			l-14.307,10.01V152.965z M66.526,162.291c-0.651-0.228-1.888-0.342-3.711-0.342h-4.102v4.346l-14.307,5.225v-2.783l40.186-26.904
			v2.49c0,5.404-2.637,9.311-7.91,11.719c2.604,1.205,4.02,1.921,4.248,2.148l-12.939,4.736
			C67.763,162.73,67.275,162.52,66.526,162.291z M44.407,173.619l14.307-5.225v4.59l-14.307,4.199V173.619z M44.407,179.234
			l14.307-4.199v4.053l-14.307,5.176V179.234z M44.407,198.082v-6.152l14.307-5.615h5.811c3.613,0,5.518-1.514,5.713-4.541
			l14.355-5.615v2.979l-29.639,18.945H44.407z M44.407,186.363l14.307-5.176v3.027l-14.307,5.615V186.363z M84.593,181.48
			c-0.358,11.035-6.853,16.569-19.482,16.602h-6.543L84.593,181.48z M70.286,131.627c0-2.344-0.407-3.776-1.221-4.297l9.619-10.01
			c3.19,2.051,5.078,5.485,5.664,10.303l-14.063,9.814V131.627z M70.286,167.76c0-1.985-0.179-3.108-0.537-3.369l12.598-4.639
			c1.237,1.367,1.953,3.239,2.148,5.615l-14.209,4.199V167.76z M84.593,167.369v2.393l-14.307,5.176v-3.32L84.593,167.369z
			 M70.286,176.988l14.307-5.176v2.246l-14.307,5.615V176.988z"/>
		<path fill="#2E3192" d="M102.896,131.676l23.73-18.604c3.776,0.293,6.461,0.928,8.057,1.904l-31.787,18.75V131.676z
			 M117.886,127.135c-0.456,0.879-0.684,1.986-0.684,3.32v4.15l-14.307,8.203v-6.836L117.886,127.135z M102.896,145.104
			l14.307-8.203v6.592l-14.307,5.957V145.104z M102.896,151.549l14.307-5.957v5.176l-14.307,5.469V151.549z M102.896,158.336
			l14.307-5.469v4.248l-14.307,3.418V158.336z M102.896,162.535l14.307-3.418v6.396l-14.307,6.055V162.535z M102.896,173.668
			l14.307-6.055v4.834l-14.307,3.467V173.668z M102.896,182.018v-4.102l14.307-3.467v5.225l-14.16,5.469
			C102.944,184.59,102.896,183.548,102.896,182.018z M123.696,112.877l-20.752,16.309c0.456-10.872,7.129-16.309,20.02-16.309
			H123.696z M103.335,187.096l13.867-5.322v0.244c0,2.148,0.163,3.337,0.488,3.564l-13.33,4.785
			C103.904,189.488,103.563,188.398,103.335,187.096z M105.239,192.125l14.258-5.078c0.684,0.521,1.839,0.781,3.467,0.781
			c3.45,0,5.338-1.351,5.664-4.053l14.453-5.225v3.467c0,0.879-0.017,1.514-0.049,1.904l-33.447,12.646
			C107.534,195.364,106.085,193.883,105.239,192.125z M122.964,199.645c-5.437,0-9.18-0.603-11.23-1.807l31.104-11.768
			C142.056,195.088,135.431,199.611,122.964,199.645z M122.134,124.645l14.453-8.545c2.051,1.237,3.548,2.865,4.492,4.883
			l-12.5,7.129c-0.195-2.311-2.051-3.483-5.566-3.516h-0.098C122.654,124.596,122.394,124.612,122.134,124.645z M128.774,130.26
			l13.135-7.52c0.781,1.726,1.172,4.297,1.172,7.715v2.197l-14.307,5.957V130.26z M128.774,140.709l14.307-5.957v6.201
			l-14.307,5.469V140.709z M128.774,148.521l14.307-5.469v7.861l-14.307,3.418V148.521z M128.774,156.334l14.307-3.418v1.611
			l-14.307,6.055V156.334z M128.774,162.682l14.307-6.055v9.619l-14.307,3.467V162.682z M128.774,171.715l14.307-3.467v1.514
			l-14.307,5.469V171.715z M128.774,181.627v-4.297l14.307-5.469v4.639L128.774,181.627z"/>
		<path fill="#2E3192" d="M161.823,131.676l23.73-18.604c3.776,0.293,6.461,0.928,8.057,1.904l-31.787,18.75V131.676z
			 M176.813,127.135c-0.456,0.879-0.684,1.986-0.684,3.32v4.15l-14.307,8.203v-6.836L176.813,127.135z M161.823,145.104
			l14.307-8.203v6.592l-14.307,5.957V145.104z M161.823,151.549l14.307-5.957v5.176l-14.307,5.469V151.549z M161.823,158.336
			l14.307-5.469v4.248l-14.307,3.418V158.336z M161.823,162.535l14.307-3.418v6.396l-14.307,6.055V162.535z M161.823,173.668
			l14.307-6.055v4.834l-14.307,3.467V173.668z M161.823,182.018v-4.102l14.307-3.467v5.225l-14.16,5.469
			C161.872,184.59,161.823,183.548,161.823,182.018z M182.624,112.877l-20.752,16.309c0.456-10.872,7.129-16.309,20.02-16.309
			H182.624z M162.263,187.096l13.867-5.322v0.244c0,2.148,0.163,3.337,0.488,3.564l-13.33,4.785
			C162.832,189.488,162.49,188.398,162.263,187.096z M164.167,192.125l14.258-5.078c0.684,0.521,1.839,0.781,3.467,0.781
			c3.45,0,5.338-1.351,5.664-4.053l14.453-5.225v3.467c0,0.879-0.017,1.514-0.049,1.904l-33.447,12.646
			C166.462,195.364,165.013,193.883,164.167,192.125z M181.892,199.645c-5.437,0-9.18-0.603-11.23-1.807l31.104-11.768
			C200.983,195.088,194.359,199.611,181.892,199.645z M181.062,124.645l14.453-8.545c2.051,1.237,3.548,2.865,4.492,4.883
			l-12.5,7.129c-0.195-2.311-2.051-3.483-5.566-3.516h-0.098C181.582,124.596,181.322,124.612,181.062,124.645z M187.702,130.26
			l13.135-7.52c0.781,1.726,1.172,4.297,1.172,7.715v2.197l-14.307,5.957V130.26z M187.702,140.709l14.307-5.957v6.201
			l-14.307,5.469V140.709z M187.702,148.521l14.307-5.469v7.861l-14.307,3.418V148.521z M187.702,156.334l14.307-3.418v1.611
			l-14.307,6.055V156.334z M187.702,162.682l14.307-6.055v9.619l-14.307,3.467V162.682z M187.702,171.715l14.307-3.467v1.514
			l-14.307,5.469V171.715z M187.702,181.627v-4.297l14.307-5.469v4.639L187.702,181.627z"/>
		<path fill="#2E3192" d="M217.821,125.768v-4.98l8.984-6.787h9.863l-15.137,11.768H217.821z M217.821,114h5.713l-5.713,4.346V114z
			 M230.761,125.768h-6.055L239.843,114h9.033l-18.115,14.404V125.768z M245.067,125.768v1.953l-14.307,9.57v-6.348L252.001,114
			h6.006v5.078l-10.01,6.689H245.067z M230.761,139.635l14.307-9.57v5.322l-14.307,9.766V139.635z M230.761,147.545l14.307-9.766
			v5.566l-14.307,8.154V147.545z M230.761,153.746l14.307-8.154v9.082l-14.307,2.832V153.746z M230.761,159.459l14.307-2.832v5.42
			l-14.307,3.809V159.459z M230.761,167.857l14.307-3.809v5.225l-14.307,7.715V167.857z M230.761,179.186l14.307-7.715v6.104
			l-14.307,6.152V179.186z M230.761,185.826l14.307-6.152v9.375l-14.307,3.613V185.826z M245.067,198.082h-14.307v-3.418
			l14.307-3.613V198.082z M258.007,125.768h-6.494l6.494-4.346V125.768z"/>
		<path fill="#2E3192" d="M274.796,123.18l7.471-9.18h6.836v8.105l-14.307,6.104V123.18z M274.796,114h4.932l-4.932,6.104V114z
			 M274.796,130.309l14.307-6.104v4.98l-14.307,7.275V130.309z M289.103,135.191l-14.307,5.713v-2.246l14.307-7.275V135.191z
			 M274.796,143.004l14.307-5.713v7.324l-14.307,7.861V143.004z M274.796,154.723l14.307-7.861v4.639l-14.307,11.963V154.723z
			 M274.796,166.002l14.307-11.963v8.057l-14.307,7.129V166.002z M274.796,171.373l14.307-7.129v6.006l-14.307,8.35V171.373z
			 M274.796,180.846l14.307-8.35v6.934l-14.307,5.566V180.846z M289.103,185.143l-14.307,11.621v-9.668l14.307-5.566V185.143z
			 M276.212,198.082l14.453-11.768h6.592l-10.986,11.768H276.212z M288.956,198.082l10.986-11.768h7.617l-6.152,11.768H288.956z
			 M311.124,186.314v11.768h-7.52l6.152-11.768H311.124z"/>
		<path fill="#2E3192" d="M341.731,125.768v5.42l-14.307,14.99v-13.232L354.036,114h4.102l-11.23,11.768H341.731z M327.425,124.303
			L340.462,114h10.205l-23.242,16.553V124.303z M327.425,114h9.863l-9.863,7.813V114z M327.425,149.01l14.307-14.99v9.375
			l-14.307,10.156V149.01z M327.425,155.943l14.307-10.156v4.346h5.127l-19.434,14.99V155.943z M341.731,161.949v3.857
			l-14.307,16.748v-14.941l22.656-17.48h5.029l-10.107,11.816H341.731z M327.425,185.533l14.307-16.748v9.717l-14.307,10.4V185.533z
			 M327.425,198.082v-6.787l14.307-10.4v5.42h7.129l-10.449,11.768H327.425z M341.048,198.082l10.449-11.768h6.445l-7.275,11.768
			H341.048z M360.677,150.133v11.816h-13.135l10.107-11.816H360.677z M363.753,114v11.768h-14.111L360.872,114H363.753z
			 M363.753,186.314v11.768h-10.791l7.275-11.768H363.753z"/>
		<path fill="#2E3192" d="M381.03,130.455c0-1.237,0.064-2.246,0.195-3.027l21.826-14.502c2.896,0.098,4.915,0.342,6.055,0.732
			l-28.076,19.531V130.455z M401.147,124.596h-0.098c-3.809,0-5.713,1.953-5.713,5.859v0.635l-14.307,7.764v-3.32l30.371-21.094
			c2.994,1.042,5.143,2.523,6.445,4.443l-12.695,6.885C404.5,125.019,403.165,124.628,401.147,124.596z M381.03,141.1l14.307-7.764
			v5.322l-14.307,7.422V141.1z M381.03,148.277l14.307-7.422v3.711l-14.307,7.52V148.277z M381.03,154.283l14.307-7.52v3.857
			l-14.307,8.74V154.283z M381.03,161.656l14.307-8.74v5.957l-14.307,8.398V161.656z M381.03,169.518l14.307-8.398v5.664
			l-14.307,5.811V169.518z M381.03,174.693l14.307-5.811v3.711l-14.307,5.566V174.693z M381.03,182.018v-1.758l14.307-5.566v6.152
			l-13.916,5.859C381.16,185.696,381.03,184.134,381.03,182.018z M399.536,112.877l-18.018,11.963
			C382.527,117.223,388.533,113.235,399.536,112.877z M381.86,188.609l13.477-5.664c0,2.441,0.342,3.76,1.025,3.955l-12.744,5.566
			C382.837,191.393,382.251,190.107,381.86,188.609z M384.79,194.078l14.648-6.396c0.391,0.098,0.943,0.146,1.66,0.146
			c3.027,0,4.834-1.09,5.42-3.271l14.697-6.396v3.857c0,1.042-0.033,1.855-0.098,2.441l-30.322,13.574
			C387.964,197.057,385.962,195.738,384.79,194.078z M401.099,199.645c-3.874,0-6.413-0.212-7.617-0.635l27.393-12.305
			C419.93,195.299,413.338,199.611,401.099,199.645z M406.909,162.145h-4.053v-5.518l10.742-6.299h7.617v5.908l-14.307,5.811
			V162.145z M402.856,150.328h6.885l-6.885,4.053V150.328z M406.909,130.455c0-1.725-0.163-2.783-0.488-3.174l12.549-6.787
			c0.846,1.302,1.448,2.962,1.807,4.98l-13.867,7.178V130.455z M406.909,134.85l14.209-7.373c0.064,0.456,0.098,1.449,0.098,2.979
			v0.537l-14.307,7.471V134.85z M421.216,141.686h-14.307v-1.025l14.307-7.471V141.686z M406.909,164.146l14.307-5.811v4.248
			l-14.307,5.566V164.146z M406.909,170.25l14.307-5.566v5.225l-14.307,6.055V170.25z M406.909,182.213v-4.15l14.307-6.055v4.004
			L406.909,182.213z"/>
		<path fill="#2E3192" d="M439.958,130.455c0-1.237,0.064-2.246,0.195-3.027l21.826-14.502c2.896,0.098,4.915,0.342,6.055,0.732
			l-28.076,19.531V130.455z M460.075,124.596h-0.098c-3.809,0-5.713,1.953-5.713,5.859v0.635l-14.307,7.764v-3.32l30.371-21.094
			c2.994,1.042,5.143,2.523,6.445,4.443l-12.695,6.885C463.428,125.019,462.093,124.628,460.075,124.596z M439.958,141.1
			l14.307-7.764v5.322l-14.307,7.422V141.1z M439.958,148.277l14.307-7.422v3.711l-14.307,7.52V148.277z M439.958,154.283
			l14.307-7.52v3.857l-14.307,8.74V154.283z M439.958,161.656l14.307-8.74v5.957l-14.307,8.398V161.656z M439.958,169.518
			l14.307-8.398v5.664l-14.307,5.811V169.518z M439.958,174.693l14.307-5.811v3.711l-14.307,5.566V174.693z M439.958,182.018v-1.758
			l14.307-5.566v6.152l-13.916,5.859C440.088,185.696,439.958,184.134,439.958,182.018z M458.464,112.877l-18.018,11.963
			C441.455,117.223,447.461,113.235,458.464,112.877z M440.788,188.609l13.477-5.664c0,2.441,0.342,3.76,1.025,3.955l-12.744,5.566
			C441.765,191.393,441.179,190.107,440.788,188.609z M443.718,194.078l14.648-6.396c0.391,0.098,0.943,0.146,1.66,0.146
			c3.027,0,4.834-1.09,5.42-3.271l14.697-6.396v3.857c0,1.042-0.033,1.855-0.098,2.441l-30.322,13.574
			C446.892,197.057,444.89,195.738,443.718,194.078z M460.026,199.645c-3.874,0-6.413-0.212-7.617-0.635l27.393-12.305
			C478.857,195.299,472.266,199.611,460.026,199.645z M465.837,162.145h-4.053v-5.518l10.742-6.299h7.617v5.908l-14.307,5.811
			V162.145z M461.784,150.328h6.885l-6.885,4.053V150.328z M465.837,130.455c0-1.725-0.163-2.783-0.488-3.174l12.549-6.787
			c0.846,1.302,1.448,2.962,1.807,4.98l-13.867,7.178V130.455z M465.837,134.85l14.209-7.373c0.064,0.456,0.098,1.449,0.098,2.979
			v0.537l-14.307,7.471V134.85z M480.144,141.686h-14.307v-1.025l14.307-7.471V141.686z M465.837,164.146l14.307-5.811v4.248
			l-14.307,5.566V164.146z M465.837,170.25l14.307-5.566v5.225l-14.307,6.055V170.25z M465.837,182.213v-4.15l14.307-6.055v4.004
			L465.837,182.213z"/>
		<path fill="#2E3192" d="M514.169,125.768v5.42l-14.307,14.99v-13.232L526.474,114h4.102l-11.23,11.768H514.169z M499.862,124.303
			L512.899,114h10.205l-23.242,16.553V124.303z M499.862,114h9.863l-9.863,7.813V114z M499.862,149.01l14.307-14.99v9.375
			l-14.307,10.156V149.01z M499.862,155.943l14.307-10.156v4.346h5.127l-19.434,14.99V155.943z M514.169,161.949v3.857
			l-14.307,16.748v-14.941l22.656-17.48h5.029l-10.107,11.816H514.169z M499.862,185.533l14.307-16.748v9.717l-14.307,10.4V185.533z
			 M499.862,198.082v-6.787l14.307-10.4v5.42h7.129l-10.449,11.768H499.862z M513.485,198.082l10.449-11.768h6.445l-7.275,11.768
			H513.485z M533.114,150.133v11.816h-13.135l10.107-11.816H533.114z M536.19,114v11.768h-14.111L533.31,114H536.19z
			 M536.19,186.314v11.768h-10.791l7.275-11.768H536.19z"/>
		<path fill="#2E3192" d="M554.444,123.131L567.433,114h7.373c3.873,0,6.51,0.293,7.91,0.879l-28.271,14.99V123.131z M554.444,114
			h9.619l-9.619,6.738V114z M573.39,125.768h-4.639v4.736l-14.307,4.932v-3.369l30.615-16.211c3.353,1.4,5.615,3.646,6.787,6.738
			l-13.965,4.785C577.198,126.305,575.7,125.768,573.39,125.768z M554.444,137.486l14.307-4.932v7.91l-14.307,4.102V137.486z
			 M554.444,152.33l14.307-4.199v2.002h2.93c1.855,0,3.092-0.098,3.711-0.293c2.506-0.879,3.76-2.474,3.76-4.785l14.307-4.199v3.467
			c0,2.019-0.195,3.662-0.586,4.932l-38.428,11.035V152.33z M554.444,146.617l14.307-4.102v3.564l-14.307,4.199V146.617z
			 M571.339,161.07h-2.588v6.543l-14.307,4.248v-9.521l37.744-10.889c-0.944,3.125-4.167,5.6-9.668,7.422l1.611,4.15l-11.23,3.32
			L571.339,161.07z M554.444,173.912l14.307-4.248v5.225l-14.307,4.541V173.912z M554.444,181.48l14.307-4.541v6.299l-14.307,3.662
			V181.48z M554.444,188.951l14.307-3.662v6.299l-14.307,2.93V188.951z M568.751,198.082h-14.307v-1.563l14.307-2.93V198.082z
			 M573.487,168.199l11.377-3.369l1.758,4.443l-11.719,3.711L573.487,168.199z M575.489,174.84l11.865-3.711l2.686,6.738
			l-12.646,3.223L575.489,174.84z M577.931,182.945l12.842-3.223l2.686,6.738l-13.623,2.832L577.931,182.945z M579.151,131.627
			c0-1.465-0.082-2.311-0.244-2.539l13.623-4.688c0.618,1.693,0.928,4.102,0.928,7.227v1.66l-14.307,4.15V131.627z M579.151,139.488
			l14.307-4.15v3.467l-14.307,4.199V139.488z M580.372,191.148l13.818-2.832l1.123,2.832l-13.721,4.053L580.372,191.148z
			 M598.048,198.082h-15.576l-0.293-0.977l13.818-4.102L598.048,198.082z"/>
		<path fill="#2E3192" d="M612.884,130.162c0-1.953,0.162-3.581,0.488-4.883l23.682-12.207c4.688,0.456,7.942,1.498,9.766,3.125
			L612.884,130.162z M629.29,125.523c-1.4,0.944-2.1,2.588-2.1,4.932v1.953l-14.307,3.76v-3.906L629.29,125.523z M627.19,138.512
			l-14.111,2.881c-0.131-0.651-0.195-1.66-0.195-3.027v-0.195l14.307-3.76V138.512z M612.884,170.787h14.307v1.221l-14.307,6.055
			V170.787z M612.884,182.018v-1.855l14.307-6.055v5.469l-14.258,4.346C612.899,183.727,612.884,183.092,612.884,182.018z
			 M613.128,185.875l14.063-4.248v0.391c0,1.596,0.064,2.475,0.195,2.637l-13.867,3.369
			C613.355,187.438,613.226,186.722,613.128,185.875z M613.519,143.346l14.063-2.93c0.325,1.302,1.318,2.718,2.979,4.248
			l-13.281,6.006C615.292,148.294,614.039,145.853,613.519,143.346z M633.196,112.877l-19.238,9.863
			c1.563-6.575,7.894-9.863,18.994-9.863H633.196z M614.153,189.879l14.502-3.516c0.716,0.977,2.164,1.465,4.346,1.465
			c3.353,0,5.225-1.318,5.615-3.955l14.453-3.516v1.66c0,1.889-0.131,3.435-0.391,4.639l-34.619,8.74
			C616.139,193.899,614.837,192.061,614.153,189.879z M618.597,152.184l13.477-6.055c1.497,1.498,3.223,2.865,5.176,4.102
			l-15.381,4.98C620.403,154.072,619.313,153.063,618.597,152.184z M633.001,199.645c-6.381-0.033-10.727-0.944-13.037-2.734
			l32.275-8.154C650.709,196.016,644.296,199.645,633.001,199.645z M625.823,157.945c-1.303-0.781-2.002-1.221-2.1-1.318
			l15.625-5.029c0.13,0.098,0.406,0.261,0.83,0.488c2.115,1.335,3.629,2.409,4.541,3.223l-13.135,6.641
			C630.185,160.843,628.265,159.508,625.823,157.945z M638.714,129.332c-0.358-3.125-2.263-4.704-5.713-4.736h-0.098
			c-0.684,0-1.286,0.065-1.807,0.195l17.383-7.178c2.278,1.953,3.678,4.639,4.199,8.057L638.714,129.332z M633.196,163.316
			l13.086-6.592c1.985,1.791,3.418,3.581,4.297,5.371L637.2,167.76C636.419,166.328,635.084,164.847,633.196,163.316z
			 M638.763,172.398c0-1.236-0.195-2.213-0.586-2.93l13.33-5.615c1.041,2.051,1.563,4.558,1.563,7.52v0.391l-14.307,4.346V172.398z
			 M638.763,131.334l14.209-3.711c0.064,0.521,0.098,1.465,0.098,2.832v2.686l-14.307,2.93V131.334z M653.069,141.686h-14.307
			v-3.613l14.307-2.93V141.686z M638.763,181.871v-3.711l14.307-4.346v4.492L638.763,181.871z"/>
	</g>
</g>
</svg>
