<svg
    xmlns="http://www.w3.org/2000/svg"
    viewBox="0 0 933 400"
    id="vector"
    opacity="0.25">
    <path
        id="path"
        d="M 421.001 346.461 C 419.84 341.807 418.506 337.031 418.038 335.846 C 417.27 333.906 419.033 333.758 435.732 334.359 C 459.357 335.208 465.681 333.825 474.523 325.876 C 482.431 318.766 485.377 311.954 486.307 298.631 C 486.839 291.003 486.329 285.914 484.181 277.419 C 482.626 271.273 481.134 266.023 480.864 265.753 C 480.594 265.483 473.24 270.581 464.52 277.082 C 433.141 300.476 392.137 323.14 356.684 336.686 C 340.496 342.872 339.479 343.094 338.113 340.754 C 337.317 339.393 334.701 335.282 332.298 331.619 C 329.895 327.957 328.095 324.819 328.298 324.646 C 328.501 324.473 335.867 321.89 344.667 318.906 C 388.857 303.92 434.374 278.65 465.888 251.606 L 471.11 247.125 L 466.996 241.229 C 464.734 237.986 461.184 233.375 459.108 230.981 L 455.333 226.629 L 446 233.144 C 427.548 246.024 394.884 263.548 367.887 275.052 C 347.241 283.849 349.358 283.897 342.857 274.476 C 339.743 269.964 337.676 265.857 338.264 265.351 C 338.852 264.845 345.893 262.156 353.911 259.374 C 380.903 250.011 409.271 236.308 431.789 221.755 C 444.464 213.563 444.457 214.252 431.967 204.641 L 424.479 198.879 L 418.573 201.573 C 401.541 209.341 353.759 226.667 349.367 226.667 C 348.67 226.667 345.649 223.059 342.654 218.649 C 338.892 213.108 337.744 210.45 338.938 210.045 C 339.889 209.723 347.114 207.614 354.994 205.359 C 362.874 203.104 376.974 198.461 386.327 195.042 C 404.776 188.298 444.881 168.791 451.333 163.424 L 455.333 160.096 L 416.333 160.048 L 377.333 160 L 377.333 150.667 L 377.333 141.333 L 472 141.333 L 566.667 141.333 L 566.667 150.667 L 566.667 160 L 532.667 160 C 502.906 160 498.667 160.257 498.667 162.058 C 498.667 168.447 522.267 221.333 525.118 221.333 C 527.702 221.333 566.744 193.618 580.996 181.667 L 587.992 175.8 L 591.605 178.642 C 596.534 182.519 608 193.297 608 194.053 C 608 194.391 606.638 194.667 604.974 194.667 C 603.31 194.667 596.56 198.595 589.974 203.395 C 583.388 208.196 568.7 217.915 557.333 224.994 C 545.967 232.072 536.433 238.028 536.147 238.229 C 535.436 238.729 541.617 246.712 550.302 256.51 C 569.044 277.653 596.019 296.353 621.667 305.984 C 625.15 307.292 628 308.564 628 308.811 C 628 310.247 613.869 326.667 612.633 326.667 C 611.812 326.667 605.483 323.918 598.57 320.558 C 547.882 295.923 508.024 246.871 485.174 181.007 C 482.695 173.86 480.245 168.01 479.731 168.007 C 479.216 168.003 475.016 170.612 470.397 173.805 C 465.779 176.998 457.967 181.841 453.037 184.566 L 444.075 189.521 L 453.965 197.477 C 499.601 234.19 520.693 291.111 502.191 327.624 C 497.703 336.48 485.906 347.06 476.329 350.819 C 469.713 353.416 465.555 353.901 445.89 354.374 L 423.113 354.922 Z M 336 120 L 336 88 L 398.667 88 L 461.333 88 L 461.333 68.22 L 461.333 48.441 L 472.333 49.009 C 478.383 49.321 485.133 50.036 487.333 50.598 L 491.333 51.62 L 487.667 53.358 L 484 55.095 L 484 71.547 L 484 88 L 548 88 L 612 88 L 612 120 L 612 152 L 600.667 152 L 589.333 152 L 589.333 130 L 589.333 108 L 473.333 108 L 357.333 108 L 357.333 130 L 357.333 152 L 346.667 152 L 336 152 Z"
        fill="#000000"
        stroke="#000000"/>
    <path
        id="path_1"
        d="M 421.001 346.461 C 419.84 341.807 418.506 337.031 418.038 335.846 C 417.27 333.906 419.033 333.758 435.732 334.359 C 459.357 335.208 465.681 333.825 474.523 325.876 C 482.431 318.766 485.377 311.954 486.307 298.631 C 486.839 291.003 486.329 285.914 484.181 277.419 C 482.626 271.273 481.134 266.023 480.864 265.753 C 480.594 265.483 473.24 270.581 464.52 277.082 C 433.141 300.476 392.137 323.14 356.684 336.686 C 340.496 342.872 339.479 343.094 338.113 340.754 C 337.317 339.393 334.701 335.282 332.298 331.619 C 329.895 327.957 328.095 324.819 328.298 324.646 C 328.501 324.473 335.867 321.89 344.667 318.906 C 388.857 303.92 434.374 278.65 465.888 251.606 L 471.11 247.125 L 466.996 241.229 C 464.734 237.986 461.184 233.375 459.108 230.981 L 455.333 226.629 L 446 233.144 C 427.548 246.024 394.884 263.548 367.887 275.052 C 347.241 283.849 349.358 283.897 342.857 274.476 C 339.743 269.964 337.676 265.857 338.264 265.351 C 338.852 264.845 345.893 262.156 353.911 259.374 C 380.903 250.011 409.271 236.308 431.789 221.755 C 444.464 213.563 444.457 214.252 431.967 204.641 L 424.479 198.879 L 418.573 201.573 C 401.541 209.341 353.759 226.667 349.367 226.667 C 348.67 226.667 345.649 223.059 342.654 218.649 C 338.892 213.108 337.744 210.45 338.938 210.045 C 339.889 209.723 347.114 207.614 354.994 205.359 C 362.874 203.104 376.974 198.461 386.327 195.042 C 404.776 188.298 444.881 168.791 451.333 163.424 L 455.333 160.096 L 416.333 160.048 L 377.333 160 L 377.333 150.667 L 377.333 141.333 L 472 141.333 L 566.667 141.333 L 566.667 150.667 L 566.667 160 L 532.667 160 C 502.906 160 498.667 160.257 498.667 162.058 C 498.667 168.447 522.267 221.333 525.118 221.333 C 527.702 221.333 566.744 193.618 580.996 181.667 L 587.992 175.8 L 591.605 178.642 C 596.534 182.519 608 193.297 608 194.053 C 608 194.391 606.638 194.667 604.974 194.667 C 603.31 194.667 596.56 198.595 589.974 203.395 C 583.388 208.196 568.7 217.915 557.333 224.994 C 545.967 232.072 536.433 238.028 536.147 238.229 C 535.436 238.729 541.617 246.712 550.302 256.51 C 569.044 277.653 596.019 296.353 621.667 305.984 C 625.15 307.292 628 308.564 628 308.811 C 628 310.247 613.869 326.667 612.633 326.667 C 611.812 326.667 605.483 323.918 598.57 320.558 C 547.882 295.923 508.024 246.871 485.174 181.007 C 482.695 173.86 480.245 168.01 479.731 168.007 C 479.216 168.003 475.016 170.612 470.397 173.805 C 465.779 176.998 457.967 181.841 453.037 184.566 L 444.075 189.521 L 453.965 197.477 C 499.601 234.19 520.693 291.111 502.191 327.624 C 497.703 336.48 485.906 347.06 476.329 350.819 C 469.713 353.416 465.555 353.901 445.89 354.374 L 423.113 354.922 Z M 336 120 L 336 88 L 398.667 88 L 461.333 88 L 461.333 68.22 L 461.333 48.441 L 472.333 49.009 C 478.383 49.321 485.133 50.036 487.333 50.598 L 491.333 51.62 L 487.667 53.358 L 484 55.095 L 484 71.547 L 484 88 L 548 88 L 612 88 L 612 120 L 612 152 L 600.667 152 L 589.333 152 L 589.333 130 L 589.333 108 L 473.333 108 L 357.333 108 L 357.333 130 L 357.333 152 L 346.667 152 L 336 152 Z"
        fill="none"
        stroke="#000000"/>
    <path
        id="path_2"
        d="M 366.667 298 L 366.667 248 L 386.769 248 L 406.872 248 L 410.769 251.897 L 414.667 255.795 L 414.667 276.63 C 414.667 299.584 413.404 304.596 407.23 306.145 C 405.366 306.613 404.106 307.672 404.43 308.498 C 404.754 309.324 408.151 318.1 411.98 328 C 415.808 337.9 419.214 346.45 419.549 347 C 419.884 347.55 416.594 348 412.24 348 L 404.322 348 L 396.976 328.333 C 389.807 309.143 389.529 308.657 385.481 308.249 L 381.333 307.831 L 381.333 327.916 L 381.333 348 L 374 348 L 366.667 348 Z M 399.705 277.667 L 400.077 260 L 390.705 260 L 381.333 260 L 381.333 278.061 L 381.333 296.122 L 390.333 295.728 L 399.333 295.333 Z M 437.809 346.678 C 430.838 343.865 430.663 342.652 430.709 297.37 C 430.754 253.186 430.803 252.805 436.912 249.551 C 440.753 247.506 467.247 247.506 471.088 249.551 C 477.205 252.809 477.246 253.135 477.291 298.215 L 477.333 341.096 L 473.231 344.548 C 469.361 347.805 468.323 347.995 454.898 347.915 C 447.071 347.869 439.381 347.312 437.809 346.678 Z M 463.191 333.891 C 463.636 332.731 464 316.58 464 298 C 464 279.42 463.636 263.269 463.191 262.109 C 462.569 260.49 460.4 260 453.857 260 L 445.333 260 L 445.333 298 L 445.333 336 L 453.857 336 C 460.4 336 462.569 335.51 463.191 333.891 Z M 493.333 297.936 L 493.333 247.873 L 501.545 248.27 L 509.756 248.667 L 517.86 278.285 C 522.317 294.575 526.366 307.475 526.858 306.952 C 527.35 306.428 531.295 293.1 535.623 277.333 L 543.493 248.667 L 551.747 248.27 L 560 247.873 L 560 297.936 L 560 348 L 553.355 348 L 546.711 348 L 546.355 313 L 546 278 L 542.302 292 C 540.268 299.7 537.352 310.65 535.822 316.333 L 533.041 326.667 L 526.546 326.667 C 520.568 326.667 519.979 326.374 519.146 323 C 518.649 320.983 515.681 310.033 512.552 298.667 L 506.861 278 L 506.764 313 L 506.667 348 L 500 348 L 493.333 348 Z M 150.667 106 L 150.667 56 L 170.733 56 C 199.965 56 201.311 57.184 201.326 82.913 C 201.334 95.712 199.97 102.325 196.917 104.306 C 195.694 105.099 195.694 105.568 196.917 106.36 C 200.005 108.364 201.333 115.011 201.326 128.42 C 201.311 154.901 200.092 156 170.733 156 L 150.667 156 Z M 186.39 130 C 186.969 110.188 187.243 110.667 175.308 110.667 L 165.333 110.667 L 165.333 127.389 L 165.333 144.112 L 175.667 143.723 L 186 143.333 Z M 184.088 98.62 C 186.384 97.391 186.667 95.717 186.667 83.333 C 186.667 67.045 186.366 66.667 173.421 66.667 L 165.333 66.667 L 165.333 83.333 L 165.333 100 L 173.421 100 C 177.869 100 182.669 99.379 184.088 98.62 Z M 223.143 154.678 C 216.171 151.865 215.997 150.652 216.042 105.37 C 216.087 61.186 216.136 60.805 222.246 57.551 C 226.086 55.506 252.58 55.506 256.421 57.551 C 262.538 60.809 262.58 61.135 262.624 106.215 L 262.667 149.096 L 258.564 152.548 C 254.694 155.805 253.657 155.995 240.231 155.915 C 232.404 155.869 224.714 155.312 223.143 154.678 Z M 248.524 141.891 C 249.58 139.139 249.58 72.861 248.524 70.109 C 247.903 68.49 245.733 68 239.191 68 L 230.667 68 L 230.667 106 L 230.667 144 L 239.191 144 C 245.733 144 247.903 143.51 248.524 141.891 Z M 285.809 154.678 C 278.838 151.865 278.663 150.652 278.709 105.37 C 278.754 61.186 278.803 60.805 284.912 57.551 C 288.753 55.506 315.247 55.506 319.088 57.551 C 325.205 60.809 325.246 61.135 325.291 106.215 L 325.333 149.096 L 321.231 152.548 C 317.361 155.805 316.323 155.995 302.898 155.915 C 295.071 155.869 287.381 155.312 285.809 154.678 Z M 311.191 141.891 C 312.247 139.139 312.247 72.861 311.191 70.109 C 310.569 68.49 308.4 68 301.857 68 L 293.333 68 L 293.333 106 L 293.333 144 L 301.857 144 C 308.4 144 310.569 143.51 311.191 141.891 Z M 350.667 112 L 350.667 68 L 342.667 68 L 334.667 68 L 334.667 62 L 334.667 56 L 358.743 56 L 382.82 56 L 382.41 61.667 L 382 67.333 L 373.667 67.73 L 365.333 68.127 L 365.333 112.064 L 365.333 156 L 358 156 L 350.667 156 Z M 390.667 106 L 390.667 56 L 398 56 L 405.333 56 L 405.333 100 L 405.333 144 L 418 144 L 430.667 144 L 430.667 150 L 430.667 156 L 410.667 156 L 390.667 156 Z M 438.667 106 L 438.667 56 L 460 56 L 481.333 56 L 481.333 62 L 481.333 68 L 467.333 68 L 453.333 68 L 453.333 83.333 L 453.333 98.667 L 464.667 98.667 L 476 98.667 L 476 104.667 L 476 110.667 L 464.667 110.667 L 453.333 110.667 L 453.333 127.333 L 453.333 144 L 468 144 L 482.667 144 L 482.667 150 L 482.667 156 L 460.667 156 L 438.667 156 Z M 500.667 154.39 C 494.812 151.032 494.753 150.557 494.709 105.918 C 494.656 52.435 493.157 55.318 520.55 56.21 C 539.145 56.815 540.468 57.96 541.137 74.037 L 541.607 85.333 L 534.137 85.333 L 526.667 85.333 L 526.667 77.6 C 526.667 68.56 525.254 66.667 518.509 66.667 C 508.744 66.667 509.333 64.139 509.333 106 C 509.333 147.861 508.744 145.333 518.509 145.333 C 525.905 145.333 526.667 143.815 526.667 129.067 L 526.667 116 L 522.667 116 C 518.815 116 518.667 115.778 518.667 110 L 518.667 104 L 530 104 L 541.333 104 L 541.333 124.733 C 541.333 147.464 540.116 152.341 533.849 154.724 C 529.149 156.511 503.922 156.257 500.667 154.39 Z M 560.667 154.39 C 554.812 151.032 554.753 150.557 554.709 105.918 C 554.656 52.435 553.157 55.318 580.55 56.21 C 599.145 56.815 600.468 57.96 601.137 74.037 L 601.607 85.333 L 594.137 85.333 L 586.667 85.333 L 586.667 77.6 C 586.667 68.56 585.254 66.667 578.509 66.667 C 568.744 66.667 569.333 64.139 569.333 106 C 569.333 147.861 568.744 145.333 578.509 145.333 C 585.905 145.333 586.667 143.815 586.667 129.067 L 586.667 116 L 582.667 116 C 578.815 116 578.667 115.778 578.667 110 L 578.667 104 L 590 104 L 601.333 104 L 601.333 124.733 C 601.333 147.464 600.116 152.341 593.849 154.724 C 589.149 156.511 563.922 156.257 560.667 154.39 Z M 616 106 L 616 56 L 637.333 56 L 658.667 56 L 658.667 62 L 658.667 68 L 644.667 68 L 630.667 68 L 630.667 83.333 L 630.667 98.667 L 642 98.667 L 653.333 98.667 L 653.333 104.667 L 653.333 110.667 L 642 110.667 L 630.667 110.667 L 630.667 127.333 L 630.667 144 L 645.333 144 L 660 144 L 660 150 L 660 156 L 638 156 L 616 156 Z M 670.667 106 L 670.667 56 L 690.769 56 L 710.872 56 L 714.769 59.897 L 718.667 63.795 L 718.667 84.63 C 718.667 107.584 717.404 112.596 711.23 114.145 C 709.366 114.613 708.106 115.672 708.43 116.498 C 708.754 117.324 712.151 126.1 715.98 136 C 719.808 145.9 723.214 154.45 723.549 155 C 723.884 155.55 720.594 156 716.24 156 L 708.322 156 L 700.976 136.333 C 693.807 117.143 693.529 116.657 689.481 116.249 L 685.333 115.831 L 685.333 135.916 L 685.333 156 L 678 156 L 670.667 156 Z M 703.705 85.667 L 704.077 68 L 694.705 68 L 685.333 68 L 685.333 86.061 L 685.333 104.122 L 694.333 103.728 L 703.333 103.333 Z M 740.476 154.678 C 735.093 152.505 733.333 148.143 733.333 136.967 L 733.333 126.527 L 740.333 126.93 L 747.333 127.333 L 747.732 135.731 L 748.131 144.129 L 755.732 143.731 L 763.333 143.333 L 763.333 127.333 L 763.333 111.333 L 751.743 110.638 C 741.892 110.046 739.641 109.461 736.743 106.738 C 733.385 103.583 733.333 103.239 733.333 83.877 C 733.333 73.064 733.706 63.247 734.162 62.06 C 735.802 57.785 742.039 56 755.333 56 C 774.988 56 778.64 59.288 778.659 77 L 778.666 84 L 771.399 84 L 764.133 84 L 763.733 76.333 L 763.333 68.667 L 755.838 68.272 C 747.005 67.807 746.703 68.305 746.703 83.333 C 746.703 98.536 746.793 98.667 757.289 98.667 C 776.568 98.667 778.666 101.48 778.666 127.333 C 778.666 147.228 777.482 151.622 771.37 154.407 C 767.377 156.227 744.804 156.425 740.476 154.678 Z"
        fill="#000000"/>
</svg>
