<svg
    xmlns="http://www.w3.org/2000/svg"
    viewBox="0 0 933 400"
    id="vector">
    <path
        id="path_3"
        d="M 429.439 383.809 C 429.335 380.353 426.098 377.684 424.718 379.917 C 424.332 380.541 421.707 381.272 418.883 381.541 C 414.514 381.958 413.841 381.681 414.363 379.682 C 414.763 378.155 414.224 377.333 412.822 377.333 C 411.637 377.333 410.667 378.233 410.667 379.333 C 410.667 380.433 410.44 381.333 410.163 381.333 C 409.886 381.333 407.336 382.301 404.496 383.485 C 399.457 385.584 399.388 385.575 401.599 383.121 C 402.845 381.738 403.445 379.928 402.933 379.1 C 401.389 376.607 392.481 376.488 389.761 378.923 C 387.247 381.175 378.98 382.508 376.611 381.045 C 375.869 380.586 373.028 380.418 370.298 380.671 C 365.098 381.155 364.976 381.007 363.694 372.667 C 363.371 370.567 362.452 370.099 359.37 370.464 C 355.915 370.874 355.663 370.679 357.225 368.798 C 358.197 367.626 358.62 366.592 358.163 366.5 C 357.707 366.408 356.745 366.258 356.026 366.167 C 355.306 366.075 353.752 364.621 352.572 362.936 C 350.91 360.563 350.018 360.212 348.614 361.377 C 347.154 362.589 346.854 362.16 347.068 359.165 C 347.272 356.308 346.496 355.039 343.705 353.671 C 340.606 352.151 339.482 352.199 335.998 354.001 C 332.472 355.824 331.663 355.853 330.023 354.214 C 328.98 353.171 328.547 351.897 329.061 351.383 C 329.575 350.869 328.832 349.598 327.41 348.558 C 324.851 346.686 324.851 346.666 327.413 346.561 C 329.329 346.483 329.482 346.259 328.001 345.695 C 324.896 344.513 324.197 342.632 325.358 338.584 C 326.145 335.839 325.924 334.666 324.515 334.126 C 323.29 333.656 322.827 332.165 323.226 329.967 C 323.701 327.348 323.159 326.278 320.924 325.419 C 317.324 324.036 310.667 317.964 310.667 316.064 C 310.667 314.631 311.321 314.438 317.691 313.99 C 321.731 313.706 324.473 312 320.889 312 C 319.667 312 318.667 311.1 318.667 310 C 318.667 308.9 318.116 308 317.443 308 C 316.769 308 315.269 307.636 314.109 307.191 C 312.725 306.66 312 307.118 312 308.524 C 312 309.702 311.33 310.667 310.511 310.667 C 309.693 310.667 309.326 309.508 309.696 308.092 C 310.093 306.573 309.231 304.294 307.592 302.536 C 306.065 300.896 304.684 300.105 304.524 300.778 C 304.364 301.45 303.87 303.65 303.425 305.667 C 302.473 309.982 299.983 310.413 297.643 306.667 C 295.013 302.454 292.017 303.323 291.895 308.333 C 291.837 310.717 291.487 311.917 291.117 311 C 290.747 310.083 289.595 309.333 288.556 309.333 C 287.517 309.333 286.648 308.583 286.625 307.667 C 286.557 304.99 282.667 310.906 282.667 313.686 C 282.667 315.382 281.91 316.03 280.334 315.685 C 279.05 315.405 278.132 314.516 278.292 313.712 C 278.453 312.907 277.553 312.446 276.292 312.689 C 275.032 312.931 273.4 313.184 272.667 313.252 C 271.934 313.319 272.234 313.965 273.334 314.687 C 275.111 315.854 275.111 316.15 273.334 317.351 C 272.234 318.094 270.325 318.461 269.092 318.166 C 267.859 317.872 265.634 318.764 264.148 320.149 C 262.661 321.534 260.785 322.667 259.977 322.667 C 259.17 322.667 258.88 323.267 259.334 324 C 259.787 324.733 259.522 325.333 258.746 325.333 C 257.969 325.333 257.288 324.883 257.232 324.333 C 256.651 318.641 253.119 313.818 250.649 315.345 C 248.985 316.373 245 310.892 245 307.576 C 245 304.697 244.488 304.426 239.575 304.703 C 234.871 304.969 234.46 304.782 236.488 303.299 C 237.97 302.215 238.309 301.27 237.413 300.716 C 236.636 300.236 236 298.439 236 296.723 C 236 294.435 234.578 292.861 230.667 290.823 C 227.734 289.294 225.334 288.633 225.334 289.355 C 225.334 290.076 224.134 290.667 222.667 290.667 C 221.107 290.667 220 289.778 220 288.524 C 220 287.311 219.246 286.671 218.263 287.048 C 217.077 287.503 216.43 286.28 216.221 283.191 C 216.024 280.256 216.517 278.655 217.625 278.634 C 219.41 278.6 224 270.535 224 267.434 C 224 266.45 222.65 265.211 221 264.681 C 218.541 263.891 218.407 263.608 220.26 263.108 C 221.611 262.744 222.213 261.702 221.758 260.515 C 221.164 258.969 221.729 258.715 224.318 259.365 C 228.435 260.398 229.908 257.78 229.962 249.333 C 229.999 243.591 230.158 243.35 233.667 243.717 C 236.793 244.044 237.334 243.608 237.334 240.764 C 237.334 237.667 241.741 233.649 244.334 234.383 C 246.272 234.932 245.307 232.275 243.287 231.5 C 241.461 230.799 241.456 230.299 243.234 226.86 C 244.33 224.739 244.801 222.547 244.28 221.988 C 243.76 221.429 244.644 221.653 246.246 222.486 C 250.576 224.737 250.843 224.477 250.175 218.667 C 249.716 214.67 250.035 213.333 251.448 213.333 C 252.485 213.333 254.593 212.074 256.132 210.535 L 258.93 207.737 L 258.006 210.648 C 257.102 213.496 257.157 213.51 260.53 211.301 C 262.426 210.058 263.647 208.507 263.244 207.854 C 262.84 207.201 263.372 206.667 264.426 206.667 C 265.479 206.667 267.258 205.317 268.377 203.667 C 270.142 201.065 270.781 200.888 273.188 202.333 C 277.094 204.678 277.331 204.526 277.354 199.667 C 277.38 194.132 278.949 191.68 281.774 192.764 C 283.394 193.386 284 192.896 284 190.965 C 284 187.91 289.353 185.875 290.882 188.349 C 292.197 190.475 298.733 184.391 297.786 181.922 C 297.407 180.935 297.585 179.349 298.18 178.397 C 298.776 177.445 299.279 175.818 299.298 174.781 C 299.318 173.745 300.167 172.617 301.186 172.275 C 302.417 171.862 302.719 172.271 302.087 173.494 C 301.564 174.505 302.007 174.269 303.071 172.969 C 304.909 170.724 305.042 170.741 305.712 173.302 C 306.603 176.709 309.372 176.808 310.246 173.466 C 310.936 170.826 317.661 168.62 318.445 170.776 C 319.398 173.4 321.604 171.829 320.941 169 C 320.553 167.35 319.918 164.65 319.528 163 C 319.044 160.948 319.428 160 320.744 160 C 324.093 160 322.822 156.149 318.785 154.061 C 315.96 152.6 315.088 151.345 315.583 149.452 C 315.989 147.901 317.017 147.14 318.132 147.568 C 319.887 148.242 320.569 146.712 320.123 143.101 C 320.017 142.24 321.146 141.15 322.632 140.678 C 324.611 140.05 325.334 138.668 325.334 135.51 C 325.334 133.14 324.728 130.595 323.988 129.855 C 322.74 128.607 322.092 122.902 322.496 116.733 C 322.629 114.711 323.023 114.489 324.267 115.733 C 326.245 117.711 328 117.8 328 115.921 C 328 115.145 327.4 114.88 326.667 115.333 C 325.934 115.787 325.334 115.522 325.334 114.745 C 325.334 113.969 326.234 113.333 327.334 113.333 C 328.434 113.333 329.334 112.418 329.334 111.3 C 329.334 110.095 331.01 108.931 333.448 108.444 C 338.701 107.393 339.628 104.92 336.163 101.2 C 332.595 97.371 333.89 95.525 339.503 96.436 C 342.722 96.958 344 96.662 344 95.392 C 344 94.417 344.805 93.31 345.788 92.933 C 346.948 92.488 347.362 90.801 346.97 88.124 C 346.506 84.968 346.869 84 348.515 84 C 349.699 84 350.667 85.08 350.667 86.4 C 350.667 87.72 351.348 89.481 352.181 90.314 C 354.624 92.758 357.052 89.227 356.326 84.284 C 355.98 81.928 356.215 79.932 356.849 79.848 C 357.482 79.764 359.747 79.493 361.882 79.245 C 365.855 78.783 368.391 76.378 367.104 74.295 C 366.009 72.523 371.506 68 374.754 68 C 376.784 68 377.389 67.403 376.832 65.95 C 376.381 64.776 376.903 63.57 378.051 63.129 C 379.676 62.506 379.418 61.721 376.688 58.991 C 372.799 55.102 374.079 52 379.575 52 C 381.446 52 382.467 51.423 381.983 50.639 C 381.075 49.17 389.039 45.333 392.996 45.333 C 394.324 45.333 396.276 44.133 397.333 42.667 C 398.489 41.063 400.785 40 403.093 40 C 408.43 40 415.289 36.486 417.306 32.719 C 419.78 28.095 423.856 27.449 425.374 31.439 C 426.741 35.035 428.655 35.592 430.267 32.861 C 431.828 30.218 443.068 27.957 445.007 29.896 C 445.396 30.285 444.96 31.51 444.04 32.619 C 442.663 34.278 442.792 34.798 444.77 35.557 C 446.182 36.099 447.39 35.831 447.698 34.907 C 447.986 34.041 449.072 33.333 450.111 33.333 C 451.15 33.333 452 32.433 452 31.333 C 452 30.233 452.6 29.333 453.333 29.333 C 454.067 29.333 454.667 30.769 454.667 32.524 C 454.667 37.623 461.833 39.332 463.088 34.533 C 463.511 32.915 464.447 32.119 465.302 32.647 C 466.117 33.151 467.584 32.899 468.562 32.087 C 469.933 30.949 470.508 31.25 471.071 33.401 C 471.771 36.08 471.938 36.102 475.223 33.949 C 477.106 32.716 479.512 32.039 480.57 32.445 C 481.628 32.851 482.755 32.467 483.073 31.592 C 483.51 30.389 484.389 30.437 486.671 31.79 C 488.999 33.169 489.918 33.211 490.684 31.972 C 491.442 30.746 491.815 30.778 492.258 32.108 C 492.788 33.697 495.529 33.918 507.039 33.301 C 508.343 33.231 510.138 32.009 511.026 30.587 C 513.169 27.155 516.838 27.294 517.766 30.843 C 518.312 32.932 519.237 33.495 521.255 32.968 C 524.832 32.032 524.717 33.177 520.682 38.645 C 517.438 43.043 517.161 46.039 520.289 42.911 C 522.434 40.766 525.781 40.91 524.936 43.111 C 524.073 45.362 530.998 45.158 533.777 42.852 C 535.609 41.331 544.025 41.138 543.977 42.617 C 543.965 43.011 542.464 44.746 540.644 46.473 C 538.823 48.2 537.343 50.3 537.354 51.14 C 537.368 52.2 537.674 52.229 538.354 51.236 C 540.195 48.547 544.166 48.018 547.923 49.96 C 552.546 52.351 554.22 56.065 551.387 57.65 C 548.923 59.029 548.655 62.604 551 62.82 C 551.917 62.905 553.515 63.055 554.552 63.154 C 557.788 63.462 557.806 66.667 554.571 66.667 C 551.671 66.667 551.655 66.742 554 69.333 C 556.33 71.908 556.329 72 553.955 72 C 551.717 72 551.758 72.243 554.415 74.719 C 556.02 76.214 557.333 77.95 557.333 78.576 C 557.333 80.198 553.364 81.51 551.653 80.452 C 550.727 79.88 550.532 80.393 551.107 81.89 C 551.598 83.171 552 84.862 552 85.649 C 552 86.436 553.097 86.087 554.438 84.873 C 557.542 82.065 558.208 82.101 558.998 85.124 C 559.409 86.697 560.727 87.501 562.66 87.358 C 565.948 87.116 572 82.01 572 79.479 C 572 78.613 573.05 77.801 574.333 77.673 C 575.617 77.546 578.702 77.037 581.189 76.542 C 583.716 76.039 585.396 76.162 584.996 76.821 C 584.602 77.469 585.085 78.744 586.069 79.653 C 587.254 80.748 588.146 80.842 588.708 79.932 C 589.176 79.177 590.707 78.923 592.112 79.369 C 593.888 79.932 594.667 79.542 594.667 78.09 C 594.667 76.94 595.548 76 596.625 76 C 597.702 76 598.283 75.218 597.916 74.263 C 597.424 72.98 598.482 72.67 601.958 73.075 C 604.826 73.41 606.667 74.35 606.667 75.479 C 606.667 76.499 607.252 77.333 607.967 77.333 C 608.7 77.333 608.918 75.59 608.467 73.333 C 607.787 69.934 608.075 69.333 610.389 69.333 C 611.886 69.333 613.414 70.083 613.784 71 C 614.185 71.996 614.499 71.727 614.561 70.333 C 614.684 67.615 616.137 67.337 618.4 69.6 C 619.28 70.48 620.009 70.63 620.02 69.933 C 620.031 69.237 620.643 69.567 621.379 70.667 C 622.807 72.8 622.877 72.746 627.694 65.782 C 629.201 63.603 629.238 63.654 628.024 66.252 C 626.311 69.917 628.009 71.104 632.515 69.391 C 635.231 68.358 636.196 68.559 637.278 70.381 C 638.515 72.467 638.851 72.39 641.112 69.504 C 643.416 66.564 643.656 66.514 644.534 68.802 C 645.157 70.426 644.693 71.837 643.17 72.951 C 641.9 73.879 641.265 75.043 641.758 75.536 C 643.099 76.877 649.615 73.534 648.663 71.994 C 648.212 71.264 648.408 70.667 649.099 70.667 C 651.964 70.667 651.867 76.636 648.953 79.749 L 646 82.902 L 651.215 81.929 C 655.723 81.088 656.316 81.253 655.59 83.145 C 654.515 85.947 657.977 86.043 664.334 83.386 C 670.384 80.859 671.857 82.372 666.511 85.623 C 664.231 87.009 662.816 88.561 663.365 89.072 C 663.915 89.582 664.633 89.25 664.96 88.333 C 665.736 86.162 668.101 86.162 667.667 88.333 C 667.448 89.429 669.161 90.043 672.667 90.124 C 681.544 90.332 682.667 90.594 682.667 92.462 C 682.667 93.45 680.437 96.554 677.712 99.36 C 673.583 103.611 673.249 104.333 675.712 103.689 C 679.239 102.767 679.434 103.609 676.455 106.9 C 674.644 108.901 674.522 109.955 675.78 112.717 C 677.033 115.467 676.951 116.231 675.335 116.851 C 674.037 117.349 673.613 118.652 674.108 120.624 C 674.676 122.887 674.197 123.812 672.185 124.338 C 670.18 124.862 669.7 125.781 670.277 127.989 C 670.747 129.783 670.321 131.401 669.191 132.116 C 667.781 133.009 668.022 133.297 670.191 133.313 C 672.479 133.329 674.667 135.583 674.667 137.923 C 674.667 138.128 672.571 138.129 670.01 137.926 C 665.098 137.537 662.375 139.461 665.915 140.819 C 668.937 141.979 668.473 146.232 665.234 147.08 C 662.843 147.705 662.679 148.198 664.024 150.712 C 665.149 152.815 665.177 154.023 664.123 155.077 C 661.797 157.403 662.392 158.395 666.678 159.336 C 668.885 159.821 670.317 160.821 669.861 161.559 C 669.315 162.442 668.538 162.405 667.583 161.45 C 666.786 160.652 664.688 160 662.921 160 C 660.034 160 659.764 160.474 660.253 164.667 C 660.553 167.233 660.318 169.333 659.732 169.333 C 659.146 169.333 658.667 170.533 658.667 172 C 658.667 174.812 656.727 175.588 655.333 173.333 C 653.834 170.908 651.804 171.947 652.675 174.694 C 653.217 176.401 652.273 179.638 650.099 183.529 C 646.19 190.523 645.852 192.229 648.582 191.181 C 649.636 190.777 650.164 189.576 649.756 188.512 C 649.133 186.888 649.573 186.833 652.507 188.17 C 654.575 189.112 656.043 190.898 656.105 192.547 C 656.163 194.08 656.513 194.583 656.883 193.667 C 657.253 192.75 658.087 192 658.736 192 C 659.385 192 659.571 192.9 659.149 194 C 658.727 195.1 656.946 196 655.191 196 C 652.676 196 652 196.706 652 199.333 C 652 201.167 651.55 202.521 651 202.344 C 650.45 202.166 648.669 202.959 647.042 204.107 C 644.349 206.005 644.259 206.444 646.041 208.988 C 648.413 212.374 647.301 216 643.891 216 C 641.834 216 641.539 216.698 642.2 220 C 642.977 223.883 641.141 225.591 639.333 222.667 C 638.88 221.933 637.909 221.333 637.176 221.333 C 636.443 221.333 636.238 221.973 636.721 222.755 C 638.304 225.316 637.643 233.329 635.59 236.461 C 633.084 240.287 632.401 244.136 633.826 246.41 C 635.354 248.848 635.87 254.743 634.479 253.884 C 633.849 253.495 633.333 253.811 633.333 254.588 C 633.333 255.365 634.007 256 634.83 256 C 635.864 256 635.813 256.618 634.667 258 C 633.754 259.1 632.18 260 631.17 260 C 630.16 260 629.333 260.873 629.333 261.94 C 629.333 263.101 627.46 264.231 624.667 264.755 C 621.994 265.256 620 266.421 620 267.482 C 620 268.5 619.1 269.333 618 269.333 C 616.9 269.333 616 269.969 616 270.745 C 616 271.522 615.307 271.729 614.461 271.206 C 613.443 270.577 613.286 270.845 613.998 271.996 C 614.675 273.093 614.164 274.404 612.616 275.536 C 611.263 276.524 610.872 277.333 611.745 277.333 C 612.619 277.333 613.333 277.933 613.333 278.667 C 613.333 279.4 612.422 280 611.308 280 C 609.949 280 609.446 280.987 609.78 283 C 610.054 284.65 610.021 285.25 609.708 284.333 C 608.506 280.821 601.333 284.002 601.333 288.047 C 601.333 288.912 600.483 289.292 599.444 288.894 C 598.404 288.495 597.223 289.03 596.819 290.084 C 596.415 291.138 594.855 292 593.354 292 C 591.15 292 590.682 292.76 590.925 295.95 C 591.126 298.586 590.156 301.038 588.008 303.325 C 586.238 305.209 584.689 308.382 584.567 310.375 C 584.092 318.092 584.046 318.161 581.424 315.019 C 579.506 312.721 578.772 312.468 578.217 313.916 C 577.754 315.121 576.393 315.522 574.415 315.037 L 571.333 314.28 L 574.19 316.839 C 576.867 319.236 576.909 319.565 574.856 322.065 C 573.652 323.532 571.617 324.524 570.333 324.269 C 567.63 323.731 567.562 324.007 569.28 328.527 L 570.561 331.895 L 565.906 329.281 C 559.702 325.796 558.494 325.979 558.95 330.333 C 559.243 333.135 558.807 333.913 557.104 333.632 C 555.865 333.428 554.681 334.274 554.438 335.537 C 554.039 337.609 553.771 337.582 551.408 335.238 C 548.951 332.801 548.865 332.796 549.756 335.148 C 550.466 337.021 550.202 337.44 548.682 336.857 C 547.409 336.369 546.667 336.858 546.667 338.184 C 546.667 339.494 545.921 339.999 544.687 339.526 C 543.523 339.079 542.13 339.845 541.307 341.383 C 540.536 342.822 539.139 344 538.202 344 C 537.265 344 535.693 346.05 534.71 348.556 C 533.167 352.488 532.663 352.854 531.033 351.223 C 528.606 348.796 527.145 348.83 526.184 351.333 C 525.762 352.433 524.498 353.333 523.375 353.333 C 522.252 353.333 521.333 353.953 521.333 354.71 C 521.333 355.466 519.983 356.628 518.333 357.292 C 515.569 358.403 515.543 358.507 518 358.623 C 520.563 358.743 520.57 358.804 518.175 360.196 C 515.717 361.623 514.39 360.739 512.883 356.667 C 512.612 355.933 511.14 356.442 509.612 357.797 C 508.017 359.212 506.135 359.829 505.191 359.245 C 504.047 358.538 503.806 358.904 504.398 360.448 C 505.049 362.143 504.483 362.667 502 362.667 C 499.793 362.667 498.976 362.079 499.453 360.837 C 499.976 359.472 499.236 359.182 496.546 359.697 C 494.046 360.174 493.227 359.917 493.881 358.86 C 494.469 357.908 493.821 357.333 492.157 357.333 C 490.691 357.333 489.12 357.933 488.667 358.667 C 488.213 359.4 488.35 360 488.971 360 C 490.914 360 490.609 365.439 488.623 366.201 C 487.585 366.599 485.724 365.914 484.487 364.677 C 482.448 362.638 482.129 362.626 481.053 364.548 C 480.401 365.713 478.962 366.667 477.855 366.667 C 476.748 366.667 476.125 367.123 476.47 367.681 C 477.373 369.143 473.547 373.992 472.398 372.842 C 471.868 372.312 472.162 370.714 473.05 369.291 C 475.393 365.54 475.046 364 471.857 364 C 469.908 364 469.283 364.612 469.815 366 C 470.302 367.268 469.745 368.074 468.291 368.203 C 467.031 368.315 465.198 368.469 464.219 368.546 C 463.239 368.623 461.552 369.881 460.47 371.343 C 458.526 373.968 458.478 373.969 456.587 371.415 C 454.723 368.9 454.557 368.937 450.463 372.748 C 448.148 374.903 446.74 375.767 447.333 374.667 C 447.927 373.567 446.67 374.27 444.54 376.23 C 441.845 378.709 439.652 379.612 437.333 379.199 C 433.585 378.529 428.826 381.06 431.667 382.213 C 432.583 382.585 433.333 383.474 433.333 384.19 C 433.333 384.905 432.785 385.151 432.114 384.737 C 431.443 384.322 430.591 384.737 430.219 385.658 C 429.848 386.58 429.496 385.747 429.439 383.809 Z M 261.333 316.524 C 261.333 316.236 260.433 316 259.333 316 C 258.233 316 257.333 316.581 257.333 317.291 C 257.333 318.002 258.233 318.238 259.333 317.816 C 260.433 317.393 261.333 316.812 261.333 316.524 Z M 246.837 296.333 C 248.495 294.219 248.448 294.171 246.333 295.83 C 245.05 296.836 244 297.886 244 298.163 C 244 299.261 245.095 298.554 246.837 296.333 Z M 471.62 295.108 C 477.016 292.547 484.601 285.151 487.796 279.333 C 490.851 273.77 490.463 250.689 487.101 238 C 484.022 226.378 473.579 208.435 464.432 199.048 L 457.531 191.966 L 461.766 189.822 C 464.095 188.643 467.069 186.741 468.375 185.595 C 471.457 182.891 472.673 184.108 480.095 197.333 C 488.945 213.105 504.541 233.645 513.91 241.871 C 518.632 246.017 523.729 251.404 525.236 253.842 C 526.747 256.288 530.823 259.753 534.326 261.57 C 540.445 264.745 540.768 264.778 543.196 262.472 C 544.582 261.156 546.318 260.451 547.053 260.905 C 549.184 262.222 546.844 254.681 543.695 250.081 C 542.158 247.837 535.448 240.59 528.784 233.978 C 522.119 227.367 515.812 220.31 514.766 218.296 C 512.565 214.055 512.975 213.592 525.109 206.611 C 529.019 204.362 534.855 200.09 538.079 197.118 C 542.763 192.8 543.689 191.243 542.684 189.366 C 541.993 188.074 541.806 186.638 542.269 186.175 C 542.732 185.712 541.776 185.333 540.144 185.333 C 538.217 185.333 537.514 184.786 538.14 183.773 C 538.779 182.739 538.39 182.488 536.983 183.027 C 535.816 183.475 534.144 182.977 533.268 181.921 C 530.574 178.675 526.347 179.764 520.717 185.154 C 517.756 187.989 512.128 192.015 508.209 194.1 C 502.222 197.287 500.9 197.582 499.922 195.946 C 499.282 194.876 496.962 190.914 494.766 187.141 L 490.774 180.283 L 493.72 179.493 C 495.341 179.059 501.767 178.673 508 178.637 C 517.685 178.58 519.861 178.139 522.958 175.602 C 527.993 171.478 526.686 168.057 518.602 164.2 C 512.657 161.364 510.863 161.144 499.684 161.886 C 492.891 162.337 471.583 163.055 452.333 163.482 C 428.762 164.005 417.333 164.727 417.333 165.691 C 417.333 166.479 416.479 168.071 415.435 169.228 C 413.959 170.865 413.885 171.778 415.104 173.333 C 417.361 176.214 427.983 181.246 432.667 181.653 C 439.251 182.224 413.318 192.149 403 193.006 C 398.417 193.387 394.667 194.319 394.667 195.078 C 394.667 195.836 393.812 197.404 392.768 198.562 C 390.316 201.281 392.061 203.58 399.712 207.711 C 406.921 211.604 414.571 210.818 431.2 204.475 C 442.364 200.217 443.213 200.081 445.533 202.181 C 446.89 203.409 448 204.833 448 205.347 C 448 206.169 425.233 217.333 423.556 217.333 C 423.196 217.333 416.188 220.585 407.982 224.559 C 397.441 229.664 392.532 232.807 391.255 235.267 C 389.226 239.179 389.984 242.667 392.863 242.667 C 393.915 242.667 396.49 243.935 398.587 245.486 L 402.4 248.304 L 414.2 242.647 C 420.69 239.536 431.332 234.679 437.848 231.853 C 444.364 229.028 451.76 225.498 454.284 224.009 C 461.777 219.588 463.423 223.448 457.557 231.686 C 454.216 236.378 441.437 242.986 426 248.003 C 411.861 252.599 404.664 256.655 401.684 261.705 C 399.524 265.366 399.334 266.619 400.662 268.435 C 401.56 269.662 402.999 270.667 403.861 270.667 C 404.722 270.667 406.931 271.652 408.768 272.856 C 411.963 274.949 412.471 274.862 420.388 270.865 C 424.941 268.566 434.667 264.518 442 261.869 C 449.333 259.22 458.483 255.272 462.333 253.095 L 469.333 249.138 L 469.333 258.656 C 469.333 268.49 468.279 271.864 463.601 277 C 460.295 280.63 456.811 280.788 450.647 277.586 C 444.911 274.607 442.471 275.072 440.378 279.543 C 437.99 284.645 440.002 287.149 450.842 292.573 C 461.513 297.911 464.854 298.319 471.62 295.108 Z M 282.667 199.412 C 282.667 199.089 282.067 198.453 281.333 198 C 280.6 197.547 280 197.811 280 198.588 C 280 199.365 280.6 200 281.333 200 C 282.067 200 282.667 199.735 282.667 199.412 Z M 548.39 185.288 C 549.275 184.53 551.023 183.18 552.274 182.288 C 554.238 180.888 554.569 177.846 554.699 160 C 554.781 148.633 554.808 138.327 554.758 137.097 C 554.702 135.741 551.812 133.51 547.416 131.43 C 540.283 128.056 539.667 128 509.571 128 L 478.978 128 L 478.174 125 C 477.732 123.35 477.362 119.799 477.352 117.109 C 477.328 110.902 476.215 108 473.857 108 C 472.836 108 472 107.419 472 106.709 C 472 105.998 471.177 105.733 470.172 106.118 C 469.167 106.504 467.986 105.885 467.547 104.743 C 467.109 103.601 465.382 102.671 463.709 102.677 C 459.457 102.692 457.333 108.023 457.333 118.683 L 457.333 127.501 L 437 129.09 C 425.817 129.964 409.617 130.676 401 130.673 C 388.199 130.667 385.333 131.02 385.333 132.6 C 385.333 133.664 384.409 135.051 383.279 135.684 C 380.338 137.33 382.166 140.898 386.774 142.504 C 390.537 143.816 390.667 144.149 390.667 152.535 C 390.667 161.917 392.635 168 395.67 168 C 396.72 168 399.104 169.199 400.968 170.665 L 404.356 173.331 L 406.774 170.543 C 408.104 169.01 409.824 168.146 410.596 168.623 C 411.537 169.204 412 165.794 412 158.289 L 412 147.086 L 435 146.214 C 447.65 145.734 474.95 145.34 495.667 145.337 L 533.333 145.333 L 533.333 161.224 C 533.333 178.346 533.868 181.333 536.932 181.333 C 538.022 181.333 540.438 182.533 542.303 184 C 546.237 187.095 546.271 187.102 548.39 185.288 Z M 671.388 109.245 C 672.809 106.945 671.563 106.755 667.998 108.729 C 664.785 110.506 664.771 110.574 667.588 110.619 C 669.195 110.645 670.905 110.027 671.388 109.245 Z M 676.667 93.333 C 677.12 92.6 676.855 92 676.079 92 C 675.302 92 674.667 92.6 674.667 93.333 C 674.667 94.067 674.931 94.667 675.255 94.667 C 675.578 94.667 676.213 94.067 676.667 93.333 Z M 652.667 85.333 C 652.213 84.6 651.243 84 650.509 84 C 649.776 84 649.547 84.6 650 85.333 C 650.453 86.067 651.424 86.667 652.157 86.667 C 652.891 86.667 653.12 86.067 652.667 85.333 Z M 619.234 71.839 C 618.369 70.44 616 71.563 616 73.37 C 616 74.037 616.897 74.239 617.992 73.818 C 619.088 73.398 619.647 72.507 619.234 71.839 Z M 458.667 376 C 458.667 375.267 459.302 374.667 460.079 374.667 C 460.855 374.667 461.12 375.267 460.667 376 C 460.213 376.733 459.578 377.333 459.255 377.333 C 458.931 377.333 458.667 376.733 458.667 376 Z M 534.667 350.667 C 534.667 349.933 535.302 349.333 536.079 349.333 C 536.855 349.333 537.12 349.933 536.667 350.667 C 536.213 351.4 535.578 352 535.255 352 C 534.931 352 534.667 351.4 534.667 350.667 Z M 301.064 315.286 C 299.753 313.976 301.364 310.667 303.313 310.667 C 304.244 310.667 305.83 311.671 306.837 312.898 C 308.464 314.882 308.342 315.045 305.731 314.373 C 304.116 313.957 302.603 314.19 302.369 314.892 C 302.136 315.593 301.548 315.771 301.064 315.286 Z M 585.376 309.809 C 585.427 308.421 588.686 304 589.658 304 C 590.042 304 590.669 305.2 591.053 306.667 C 591.437 308.133 591.256 309.333 590.651 309.333 C 590.046 309.333 588.602 309.698 587.442 310.143 C 586.282 310.588 585.352 310.438 585.376 309.809 Z M 602.667 290.079 C 602.667 289.022 603.267 287.787 604 287.333 C 604.733 286.88 605.333 287.745 605.333 289.255 C 605.333 290.765 604.733 292 604 292 C 603.267 292 602.667 291.135 602.667 290.079 Z M 601.067 70.4 C 602.311 69.156 603.022 69.156 604.267 70.4 C 605.511 71.644 605.156 72 602.667 72 C 600.178 72 599.822 71.644 601.067 70.4 Z M 551.42 42.806 C 551.014 42.15 551.664 41.236 552.865 40.775 C 555.461 39.779 556.61 40.6 555.388 42.578 C 554.317 44.312 552.418 44.421 551.42 42.806 Z M 411.333 34.667 C 411.787 33.933 412.422 33.333 412.745 33.333 C 413.069 33.333 413.333 33.933 413.333 34.667 C 413.333 35.4 412.698 36 411.921 36 C 411.145 36 410.88 35.4 411.333 34.667 Z M 445.444 27.623 C 445.75 27.415 447.05 26.442 448.333 25.459 C 450.331 23.931 450.667 23.985 450.667 25.837 C 450.667 27.167 449.554 28 447.778 28 C 446.189 28 445.139 27.83 445.444 27.623 Z"
        fill="#000000"
        fill-opacity="0.25"
        stroke="#000000"/>
    <path
        id="path_4"
        d="M 158.543 260.898 C 155.311 259.191 150.867 255.24 148.667 252.118 C 144.889 246.756 144.63 245.552 144 230.443 C 143.424 216.632 142.981 214.188 140.758 212.566 C 138.229 210.72 138.235 210.631 141.092 207.59 C 143.731 204.781 144 203.082 144 189.239 C 144 171.17 145.16 166.362 150.978 160.306 C 157.192 153.838 161.464 152 170.288 152 C 180.271 152 186.093 155.067 191.667 163.263 L 196 169.635 L 196 187.432 C 196 204.156 195.819 205.401 193 208.078 L 190 210.926 L 193 212.959 C 195.801 214.857 196 215.949 196 229.409 C 196 245.22 194.955 249.416 189.582 255.168 C 181.383 263.946 168.739 266.28 158.543 260.898 Z M 176.186 244.119 C 178.991 241.848 179.383 240.275 179.791 229.671 C 180.218 218.578 180.024 217.51 176.93 213.913 L 173.611 210.055 L 176.917 206.126 C 180.068 202.382 180.202 201.51 179.778 187.645 C 179.368 174.233 179.087 172.893 176.186 170.546 C 171.643 166.872 166.1 167.271 162.763 171.513 C 160.337 174.598 160 176.869 160 190.149 C 160 204.973 159.931 205.317 156.525 207.549 L 153.049 209.826 L 156.525 212.358 C 159.852 214.782 160 215.433 160 227.692 C 160 239.002 160.338 240.855 162.899 243.581 C 166.437 247.347 171.923 247.569 176.186 244.119 Z M 235.876 260.898 C 232.644 259.191 228.2 255.24 226 252.118 C 222.222 246.756 221.963 245.552 221.333 230.443 C 220.758 216.632 220.315 214.188 218.092 212.566 C 215.563 210.72 215.569 210.631 218.425 207.59 C 221.064 204.781 221.333 203.082 221.333 189.239 C 221.333 171.17 222.493 166.362 228.311 160.306 C 234.526 153.838 238.798 152 247.621 152 C 257.605 152 263.426 155.067 269 163.263 L 273.333 169.635 L 273.333 187.432 C 273.333 204.156 273.152 205.401 270.333 208.078 L 267.333 210.926 L 270.333 212.959 C 273.134 214.857 273.333 215.949 273.333 229.409 C 273.333 245.22 272.288 249.416 266.915 255.168 C 258.716 263.946 246.072 266.28 235.876 260.898 Z M 253.519 244.119 C 256.324 241.848 256.716 240.275 257.124 229.671 C 257.551 218.578 257.357 217.51 254.263 213.913 L 250.945 210.055 L 254.251 206.126 C 257.401 202.382 257.536 201.51 257.112 187.645 C 256.702 174.233 256.42 172.893 253.519 170.546 C 248.977 166.872 243.433 167.271 240.097 171.513 C 237.67 174.598 237.333 176.869 237.333 190.149 C 237.333 204.973 237.265 205.317 233.858 207.549 L 230.383 209.826 L 233.858 212.358 C 237.186 214.782 237.333 215.433 237.333 227.692 C 237.333 239.002 237.671 240.855 240.232 243.581 C 243.771 247.347 249.256 247.569 253.519 244.119 Z M 530.634 261 C 527.168 259.247 523.032 255.598 520.684 252.22 C 516.891 246.764 516.629 245.546 516 230.443 C 515.424 216.632 514.981 214.188 512.758 212.566 C 510.224 210.716 510.228 210.638 512.973 207.676 C 515.462 204.992 515.811 202.724 516.215 186.667 C 516.624 170.376 516.96 168.255 519.76 164.33 C 525.5 156.282 531.458 152.828 540.603 152.245 C 551.492 151.552 558.577 154.997 564.069 163.657 C 567.556 169.156 568 171.03 568 180.261 L 568 190.667 L 560.155 190.667 L 552.311 190.667 L 551.747 181.822 C 551.287 174.594 550.622 172.522 548.111 170.489 C 543.639 166.868 538.082 167.294 534.763 171.513 C 532.337 174.598 532 176.869 532 190.149 C 532 204.799 531.896 205.34 528.675 207.451 L 525.35 209.629 L 528.675 212.245 C 531.793 214.698 532 215.631 532 227.25 C 532 237.766 532.418 240.172 534.763 243.154 C 538.271 247.613 545.084 247.957 548.793 243.864 C 550.902 241.537 551.333 238.988 551.333 228.864 L 551.333 216.667 L 546.976 216.247 C 544.579 216.016 541.135 214.453 539.323 212.774 C 536.061 209.751 536.054 209.698 538.647 207.351 C 540.087 206.048 541.621 203.861 542.056 202.491 C 542.754 200.291 544.313 200 555.423 200 C 567.028 200 568 200.202 568 202.615 C 568 204.053 566.65 206.511 565 208.078 L 562 210.926 L 565 212.959 C 567.801 214.857 568 215.949 568 229.409 C 568 245.22 566.955 249.416 561.582 255.168 C 553.45 263.874 540.967 266.226 530.634 261 Z M 606.634 261 C 603.168 259.247 599.032 255.598 596.684 252.22 C 592.891 246.764 592.629 245.546 592 230.443 C 591.424 216.632 590.981 214.188 588.758 212.566 C 586.224 210.716 586.228 210.638 588.973 207.676 C 591.462 204.992 591.811 202.724 592.215 186.667 C 592.624 170.376 592.96 168.255 595.76 164.33 C 601.5 156.282 607.458 152.828 616.603 152.245 C 627.492 151.552 634.577 154.997 640.069 163.657 C 643.556 169.156 644 171.03 644 180.261 L 644 190.667 L 636.155 190.667 L 628.311 190.667 L 627.747 181.822 C 627.287 174.594 626.622 172.522 624.111 170.489 C 619.639 166.868 614.082 167.294 610.763 171.513 C 608.337 174.598 608 176.869 608 190.149 C 608 204.799 607.896 205.34 604.675 207.451 L 601.35 209.629 L 604.675 212.245 C 607.793 214.698 608 215.631 608 227.25 C 608 237.766 608.418 240.172 610.763 243.154 C 614.271 247.613 621.084 247.957 624.793 243.864 C 626.902 241.537 627.333 238.988 627.333 228.864 L 627.333 216.667 L 622.976 216.247 C 620.579 216.016 617.135 214.453 615.323 212.774 C 612.061 209.751 612.054 209.698 614.647 207.351 C 616.087 206.048 617.621 203.861 618.056 202.491 C 618.754 200.291 620.313 200 631.423 200 C 643.028 200 644 200.202 644 202.615 C 644 204.053 642.65 206.511 641 208.078 L 638 210.926 L 641 212.959 C 643.801 214.857 644 215.949 644 229.409 C 644 245.22 642.955 249.416 637.582 255.168 C 629.45 263.874 616.967 266.226 606.634 261 Z M 838.247 262.644 C 828.77 259.8 821.459 250.122 819.379 237.667 L 818.432 232 L 826.444 232 C 834.408 232 834.46 232.025 835.358 236.333 C 838.195 249.937 850.702 253.29 855.528 241.739 C 857.214 237.704 857.311 235.85 856.054 231.654 C 854.133 225.242 846.165 217.142 837.421 212.711 C 832.951 210.446 830.99 208.709 831.475 207.445 C 831.873 206.407 830.074 202.469 827.477 198.694 C 821.997 190.727 820.821 185.84 821.566 174.132 C 822.507 159.357 830.925 151.996 846.868 152.005 C 861.685 152.014 868.915 158.482 872.572 175 L 873.384 178.667 L 865.326 178.667 C 857.739 178.667 857.191 178.452 855.968 175 C 853.817 168.932 852.539 167.355 849.395 166.889 C 843.235 165.978 840.168 167.797 838.505 173.346 C 836.048 181.548 838.579 187.913 848.076 197.41 C 852.434 201.768 856 206.521 856 207.973 C 856 209.718 857.84 211.551 861.43 213.383 C 865.581 215.5 867.62 217.784 870.084 223.076 C 881.044 246.618 862.332 269.874 838.247 262.644 Z M 64 239.753 C 64 218.04 63.848 216.676 61.092 213.743 L 58.184 210.648 L 61.092 207.939 C 63.888 205.334 64 204.23 64 179.281 L 64 153.333 L 80.82 153.333 C 96.494 153.333 98.081 153.574 104.134 156.868 C 109.148 159.597 111.394 161.937 113.981 167.13 C 119.89 178.987 118.009 196.088 110.105 202.37 C 105.523 206.011 106.391 210.472 112.264 213.468 C 118.294 216.544 119.356 219.585 119.272 233.537 C 119.218 242.456 118.715 244.542 115.272 250.1 C 112.704 254.246 109.288 257.54 105.457 259.563 C 100.154 262.364 97.843 262.667 81.79 262.667 L 64 262.667 Z M 94.473 244.767 C 99.298 242.272 101.333 237.498 101.333 228.678 C 101.333 218.682 97.754 214.572 88.255 213.659 L 81.333 212.994 L 81.333 228.941 C 81.333 237.713 81.733 245.289 82.222 245.778 C 83.759 247.314 90.646 246.746 94.473 244.767 Z M 96.058 194.888 C 98.357 193.026 99.225 190.656 99.699 184.946 C 100.279 177.955 100.041 177.169 96.181 173.309 C 92.769 169.897 91.16 169.243 87.021 169.585 L 82 170 L 81.62 183.667 L 81.24 197.333 L 87.139 197.333 C 90.873 197.333 94.146 196.436 96.058 194.888 Z M 314.667 238.873 C 314.667 216.712 314.482 214.913 311.979 212.648 L 309.292 210.216 L 311.979 207.355 C 314.393 204.786 314.667 202.705 314.667 186.914 L 314.667 169.333 L 306 169.333 L 297.333 169.333 L 297.333 161.333 L 297.333 153.333 L 323.333 153.333 L 349.333 153.333 L 349.333 161.333 L 349.333 169.333 L 340.667 169.333 L 332 169.333 L 332 185.898 C 332 201.666 331.838 202.654 328.632 206.465 L 325.264 210.467 L 328.299 212.59 C 331.236 214.645 331.347 215.484 331.751 238.69 L 332.168 262.667 L 323.417 262.667 L 314.667 262.667 Z M 373.333 238.742 C 373.333 215.626 373.235 214.749 370.409 212.769 L 367.484 210.721 L 370.409 207.608 C 373.209 204.627 373.333 203.412 373.333 178.914 L 373.333 153.333 L 381.333 153.333 L 389.333 153.333 L 389.333 179.127 C 389.333 203.293 389.164 205.073 386.646 207.352 C 383.967 209.777 383.967 209.793 386.6 212.595 C 388.86 215.001 389.295 217.612 389.62 230.703 L 390 246 L 404.333 246.378 L 418.667 246.757 L 418.667 254.712 L 418.667 262.667 L 396 262.667 L 373.333 262.667 L 373.333 238.742 Z M 444 238.742 C 444 215.626 443.901 214.749 441.075 212.769 L 438.151 210.721 L 441.075 207.608 C 443.876 204.627 444 203.412 444 178.914 L 444 153.333 L 468 153.333 L 492 153.333 L 492 161.333 L 492 169.333 L 476.667 169.333 L 461.333 169.333 L 461.333 184.667 L 461.333 200 L 472 200 C 481.114 200 482.667 200.327 482.667 202.247 C 482.667 203.483 481.379 205.866 479.804 207.542 L 476.942 210.589 L 480.137 213.25 L 483.333 215.911 L 472 215.953 L 460.667 215.995 L 461.081 231.331 L 461.495 246.667 L 476.747 246.667 L 492 246.667 L 492 254.667 L 492 262.667 L 468 262.667 L 444 262.667 Z M 669.333 238.742 C 669.333 215.626 669.235 214.749 666.409 212.769 L 663.484 210.721 L 666.409 207.608 C 669.209 204.627 669.333 203.412 669.333 178.914 L 669.333 153.333 L 693.333 153.333 L 717.333 153.333 L 717.333 161.333 L 717.333 169.333 L 702 169.333 L 686.667 169.333 L 686.667 184.667 L 686.667 200 L 697.333 200 C 706.448 200 708 200.327 708 202.247 C 708 203.483 706.712 205.866 705.137 207.542 L 702.275 210.589 L 705.471 213.25 L 708.667 215.911 L 697.333 215.953 L 686 215.995 L 686.414 231.331 L 686.828 246.667 L 702.081 246.667 L 717.333 246.667 L 717.333 254.667 L 717.333 262.667 L 693.333 262.667 L 669.333 262.667 Z M 741.333 239.385 C 741.333 217.177 741.199 215.979 738.425 213.395 L 735.517 210.686 L 738.425 207.59 C 741.206 204.63 741.333 203.37 741.333 178.816 L 741.333 153.137 L 760.574 153.568 C 782.613 154.063 785.055 155.03 790.333 165.361 C 792.924 170.43 793.333 173.3 793.333 186.37 C 793.333 194.696 792.756 202.587 792.051 203.905 C 791.346 205.223 788.946 207.056 786.718 207.979 C 782.387 209.773 781.941 210.819 783.926 214.529 C 784.619 215.823 787.874 227.184 791.16 239.775 L 797.134 262.667 L 788.19 262.667 L 779.246 262.667 L 774.149 242 L 769.052 221.333 L 763.193 221.333 L 757.333 221.333 L 757.333 242 L 757.333 262.667 L 749.333 262.667 L 741.333 262.667 L 741.333 239.385 Z M 774.061 202.061 C 777.053 199.068 777.333 197.755 777.333 186.727 C 777.333 171.438 775.558 168.985 764.933 169.599 L 758 170 L 757.622 185.922 C 757.414 194.68 757.545 202.63 757.914 203.589 C 758.33 204.674 760.889 205.333 764.685 205.333 C 769.387 205.333 771.539 204.582 774.061 202.061 Z"
        fill="#000000"/>
</svg>
