<?xml version="1.0" encoding="utf-8"?>
<!-- Generator: Adobe Illustrator 25.1.0, SVG Export Plug-In . SVG Version: 6.00 Build 0)  -->
<svg version="1.1" id="Capa_1" xmlns="http://www.w3.org/2000/svg" xmlns:xlink="http://www.w3.org/1999/xlink" x="0px" y="0px"
	 viewBox="0 0 290 125" style="enable-background:new 0 0 290 125;" xml:space="preserve">
<style type="text/css">
	.st0{fill:none;}
	.st1{fill:#F39200;}
	.st2{fill:#E94E1B;}
	.st3{fill:#E6332A;}
	.st4{fill:#BE1622;}
	.st5{fill:#E6007E;}
</style>
<g>
	<path d="M0.1,97.5c1.1-1.4,2.2-3,3.4-4.3c5.6-6.3,12.3-10.8,20.3-13.3c5.8-1.9,11.7-2.5,17.8-2c7,0.6,13.6,2.7,19.7,6.3
		c7.5,4.5,13.3,10.7,17.4,18.6c2.3,4.6,3.9,9.4,4.5,14.5c0.3,2.4,0.3,4.9,0.4,7.4c0,0.2,0,0.4,0,0.5c-27.9,0-55.7,0-83.6,0
		C0.1,115.9,0.1,106.7,0.1,97.5z"/>
	<path d="M0.1,0.2c17.6,0,35.2,0,53,0C48.2,18.5,43.3,36.7,38.4,55c-1.4-0.4-2.8-0.8-4.3-1.1c-11.2-3-22.4-6-33.5-9
		c-0.2,0-0.3-0.1-0.5-0.1C0.1,29.9,0.1,15.1,0.1,0.2z"/>
	<path d="M249,125.1c0-0.2,0-0.4,0-0.5c0-12.2,0-24.4,0-36.6c0-2.1,0-4.3,0-6.4c0-0.2,0-0.3,0-0.6c0.3,0.1,0.4,0.2,0.6,0.3
		c9,5.2,18,10.4,27,15.6c4.3,2.5,8.6,4.9,12.8,7.4c0.3,0.2,0.5,0.4,0.5,0.8c0,6.7,0,13.3,0,20C276.3,125.1,262.7,125.1,249,125.1z"
		/>
	<path d="M189.9,88.5c-12.8-12.7-25.6-25.6-38.5-38.4c12.8-12.8,25.7-25.7,38.5-38.5c12.8,12.8,25.6,25.6,38.4,38.4
		C215.5,62.9,202.6,75.8,189.9,88.5z"/>
	<path d="M226.3,0.2c21.2,0,42.4,0,63.7,0c0,0.2,0,0.4,0,0.5c0,15.8,0,31.7,0,47.5c0,0.5-0.2,0.6-0.6,0.8c-4.6,1.9-9.4,3.1-14.4,3.4
		c-8.9,0.7-17.2-1.1-25.1-5.3c-9.3-5-16.2-12.4-20.4-22.1c-1.9-4.2-3-8.6-3.5-13.2c-0.4-3.7-0.3-7.4,0.1-11.2
		C226.2,0.6,226.3,0.4,226.3,0.2z"/>
	<path d="M104.9,0.2c5,0,10,0,14.9,0c0.4,0,0.7,0.1,0.9,0.3c4.5,4,7.2,8.9,8,14.9c1,7.5-1.1,14.1-6.2,19.8
		c-3.7,4.1-8.4,6.6-13.9,7.5c-6.3,1-12.1-0.3-17.4-3.9c-5.5-3.7-9-8.9-10.2-15.4c-1.6-9.1,1.1-16.7,8-22.9c0.2-0.2,0.5-0.2,0.7-0.2
		C94.9,0.2,99.9,0.2,104.9,0.2z"/>
	<path d="M104.2,92.1c13.9-8,27.7-16,41.5-24c0,16,0,31.9,0,47.9C131.9,108.1,118.1,100.1,104.2,92.1z"/>
</g>
<g id="Capa_2_1_">
	<g>
		<path class="st0" d="M98.4-0.5c0,0.2,0,0.3,0,0.5h38.2c0-0.2,0-0.3,0-0.5C123.8-0.5,111.2-0.5,98.4-0.5z"/>
		<path class="st0" d="M180.6,125.3c0-0.1,0-0.2,0-0.3h-28.7c0,0.1,0,0.1,0,0.2C152.9,125.5,176.9,125.6,180.6,125.3z"/>
		<path class="st0" d="M122.1,125.4c0-0.1,0-0.2,0-0.3h-9.6c0,0.1,0,0.2,0,0.3C115.8,125.4,118.9,125.4,122.1,125.4z"/>
		<path class="st0" d="M53,125.4c6.6,0,13.2,0.1,19.8-0.1c1,0,1.9-0.1,2.8-0.3H52.3c0,0.1,0,0.2,0,0.3
			C52.6,125.3,52.8,125.4,53,125.4z"/>
		<path class="st0" d="M152-0.5c0,0.2,0,0.3,0,0.5h9.7c0-0.2,0-0.3,0-0.5C158.4-0.5,155.2-0.5,152-0.5z"/>
		<path class="st0" d="M208.4,0h16.2c-2.3-0.9-4.8-1.3-7.4-1.3C214.2-1.4,211.2-0.9,208.4,0z"/>
		<path class="st0" d="M64.7-0.6c-3.6,0.1-7.2,0-10.8,0c-0.5,0-1,0-1.6,0c0,0.2,0,0.4,0,0.6h21.7c-0.3-0.1-0.6-0.1-0.9-0.2
			C70.4-0.7,67.6-0.7,64.7-0.6z"/>
		<path class="st0" d="M224.9,125h-16.4c1.6,0.5,3.3,0.9,5.1,1.1C217.5,126.6,221.2,126.3,224.9,125z"/>
		<path class="st1" d="M201,120.8c-1.2-1.1-2.3-1-3.8-0.9c0.2,0.3,0.3,0.4,0.5,0.6c1.8,1.9,3.7,3.4,5.8,4.6h5
			C205.8,124.1,203.3,122.7,201,120.8z"/>
		<path class="st1" d="M234.6,120.6c0.2-0.2,0.3-0.5,0.5-0.8c-1.6-0.3-2.7-0.1-3.7,1.1c-1.3,1.5-3.1,2.5-4.9,3.3
			c-0.5,0.2-1,0.4-1.5,0.6h4.6C231.4,123.9,233.1,122.4,234.6,120.6z"/>
		<path class="st1" d="M180.6,119.9c0,1.8,0,3.5,0,5.1h1.9c0-1.7,0-3.4,0-5.1C181.9,119.9,181.3,119.9,180.6,119.9z"/>
		<path class="st1" d="M151.9,119.9c-0.7,0-1.3,0-1.9,0c0,1.7,0,3.4,0,5.1h1.9C151.9,123.3,151.9,121.6,151.9,119.9z"/>
		<path class="st1" d="M86.1,119.9c-1.4-0.3-2.5-0.2-3.3,1.1c-0.1,0.2-0.4,0.4-0.6,0.6c-2,1.8-4.3,2.9-6.8,3.4h5.6
			c0.7-0.4,1.4-0.9,2-1.4C84.4,122.6,85.4,121.4,86.1,119.9z"/>
		<path class="st1" d="M52.3,119.9c-0.7,0-1.3,0-1.9,0c0,1.7,0,3.4,0,5.1h1.9C52.3,123.3,52.3,121.6,52.3,119.9z"/>
		<path class="st1" d="M122.1,119.9c0,1.7,0,3.4,0,5.1h2c0-1.7,0-3.4,0-5.1C123.5,119.9,122.9,119.9,122.1,119.9z"/>
		<path class="st1" d="M112.5,119.9c-0.7,0-1.3,0-1.9,0c0,1.7,0,3.4,0,5.1h1.9C112.5,123.2,112.5,121.6,112.5,119.9z"/>
		<path class="st1" d="M136.6,5c0.8,0,1.4,0,2,0c0-1.7,0-3.3,0-5h-2C136.6,1.7,136.6,3.4,136.6,5z"/>
		<path class="st1" d="M98.4,5c0-1.7,0-3.3,0-5h-1.9c0,1.7,0,3.3,0,5C97.2,5,97.7,5,98.4,5z"/>
		<path class="st1" d="M52.3,5c0-1.7,0-3.3,0-5h-2c0,1.7,0,3.3,0,5C51,5,51.6,5,52.3,5z"/>
		<path class="st1" d="M81.3,4.2c0.6,0.8,1.2,1,2.1,0.9c0.3,0,0.5,0,0.9-0.1c-0.7-1.4-1.6-2.5-2.8-3.5C81,0.9,80.3,0.4,79.6,0h-5.5
			C76.9,0.7,79.4,1.9,81.3,4.2z"/>
		<path class="st1" d="M197.5,5.1c0.6,0,1.1,0,1.6,0c0.7,0.1,1.2-0.2,1.7-0.6c2.3-2.1,4.9-3.5,7.7-4.5h-4.9
			C201.1,1.4,199,3.1,197.5,5.1z"/>
		<path class="st1" d="M231.5,3.9c1.1,0.9,2.1,1.3,3.4,1.1c0.2,0,0.3,0,0.6,0c-1.8-2.1-3.9-3.8-6.1-5h-4.7
			C227.1,0.9,229.4,2.2,231.5,3.9z"/>
		<path class="st1" d="M152,5c0-1.7,0-3.3,0-5H150c0,1.7,0,3.3,0,5C150.7,5,151.2,5,152,5z"/>
		<path class="st1" d="M161.6,5c0.7,0,1.3,0,1.9,0c0-1.7,0-3.4,0-5h-1.9C161.6,1.7,161.6,3.4,161.6,5z"/>
	</g>
	<g>
		<path class="st2" d="M50.4,117.4c0-2.6,0-5,0-7.6c0.6,0,1.2,0,1.9,0c0,1.8,0,3.7,0,5.5c0.2,0.1,0.4,0.1,0.5,0.1
			c6.3,0,12.7,0.1,19-0.1c3.4-0.1,6.7-0.9,9.5-3c0.7-0.5,1.3-1.1,1.8-1.7c0.5-0.8,1.1-1,2-0.9c0.3,0,0.6,0,1,0.1
			c-1.3,2.5-3.2,4.2-5.5,5.4c-3.1,1.6-6.4,2.2-9.8,2.2c-6.6,0-13.1,0-19.6,0C51,117.5,50.7,117.5,50.4,117.4z"/>
		<path class="st2" d="M150,117.4c0-2.5,0-5,0-7.5c0.6,0,1.2,0,1.9,0c0,1.8,0,3.7,0,5.6c9.6,0,19.1,0,28.7,0c0-1.8,0-3.7,0-5.6
			c0.7,0,1.3,0,1.9,0c0,2.5,0,5,0,7.6C171.7,117.4,160.9,117.4,150,117.4z"/>
		<path class="st2" d="M197.2,109.8c0.8,0,1.5,0,2.2,0c0.3,0,0.7,0.2,0.9,0.4c4.4,4,9.6,5.8,15.5,6.1c4.9,0.2,9.5-0.8,13.6-3.6
			c0.9-0.6,1.8-1.3,2.6-2.2c0.6-0.6,1.1-0.9,2-0.8c0.3,0,0.7,0,1.2,0c-0.2,0.3-0.3,0.6-0.5,0.8c-3.7,4.4-8.5,6.9-14.2,7.6
			c-6.2,0.8-12-0.3-17.4-3.4C200.8,113.5,198.6,111.6,197.2,109.8z"/>
		<path class="st2" d="M124.1,117.4c-4.5,0-8.9,0-13.4,0c0-2.5,0-5,0-7.6c0.5,0,1.1,0,1.8,0c0,1.8,0,3.6,0,5.6c3.2,0,6.4,0,9.7,0
			c0-1.8,0-3.7,0-5.6c0.7,0,1.3,0,2,0C124.1,112.3,124.1,114.8,124.1,117.4z"/>
		<path class="st2" d="M138.6,7.5c0,2.6,0,5,0,7.5c-0.6,0-1.2,0-1.9,0c0-1.8,0-3.7,0-5.6c-12.8,0-25.5,0-38.2,0c0,1.8,0,3.7,0,5.6
			c-0.7,0-1.2,0-1.9,0c0-2.5,0-5,0-7.5C110.5,7.5,124.5,7.5,138.6,7.5z"/>
		<path class="st2" d="M52.3,9.5c0,1.9,0,3.7,0,5.6c-0.7,0-1.2,0-1.9,0c0-2.5,0-5,0-7.5c0.3,0,0.6-0.1,0.9-0.1c1.4,0,2.8,0,4.2,0
			c4.5,0,9-0.1,13.5-0.1c3.1,0,6.1,0.5,9,1.8c2.3,1,4.2,2.5,5.7,4.6c0.2,0.3,0.4,0.6,0.6,0.9c0,0.1,0,0.2,0.1,0.4
			c-0.5,0-1.1,0.1-1.6,0c-0.3-0.1-0.7-0.2-0.9-0.4c-2.1-2.8-5.1-4.2-8.4-4.8C72,9.6,70.5,9.4,69,9.4c-5.2,0-10.4,0-15.6,0
			C53.1,9.4,52.8,9.4,52.3,9.5z"/>
		<path class="st2" d="M235.3,15.1c-0.4,0-0.9,0-1.3,0c-0.8,0.1-1.4-0.2-1.9-0.7c-3.1-2.7-6.7-4.6-10.8-5.3
			c-7.3-1.3-14,0.2-19.8,4.8c-1.2,1-2.4,1.5-4.1,1.1c0.4-0.5,0.8-1,1.2-1.4c3.7-3.5,8.1-5.6,13.1-6.5c7.6-1.3,14.5,0.3,20.7,4.9
			c1.1,0.8,2.1,1.8,3.1,2.8C235.4,14.9,235.4,15,235.3,15.1z"/>
		<path class="st2" d="M163.6,7.5c0,2.3,0,4.5,0,6.8c0,0.2,0,0.5-0.1,0.8c-0.3,0-0.7,0.1-1,0.1c-0.3,0-0.5,0-0.9-0.1
			c0-1.9,0-3.7,0-5.6c-3.3,0-6.5,0-9.7,0c0,1.9,0,3.7,0,5.6c-0.7,0-1.3,0-1.9,0c0-2.5,0-4.9,0-7.5C154.5,7.5,159,7.5,163.6,7.5z"/>
	</g>
	<g>
		<path class="st3" d="M98.4,19.4c0,1.9,0,3.7,0,5.6c-0.6,0-1.2,0-1.9,0c0-2.5,0-5,0-7.6c14,0,28,0,42,0c0,2.5,0,5,0,7.6
			c-0.6,0-1.1,0-1.9,0c0-1.8,0-3.7,0-5.6C123.8,19.4,111.2,19.4,98.4,19.4z"/>
		<path class="st3" d="M52.3,19.4c0,2,0,3.8,0,5.7c-0.7,0-1.2,0-1.9,0c0-2.5,0-5,0-7.6c0.2,0,0.3-0.1,0.5-0.1c6.4,0,12.8-0.1,19.2,0
			c3.8,0.1,7.3,1,10.5,3.2c1.4,1,2.5,2.2,3.4,3.6c0.1,0.2,0.2,0.5,0.4,0.8c-1.2,0.2-2.1,0.2-3-0.9c-2.1-2.7-5.1-3.8-8.4-4.4
			c-2.4-0.5-4.9-0.4-7.4-0.4c-3.9,0.1-7.9,0-11.8,0C53.3,19.4,52.9,19.4,52.3,19.4z"/>
		<path class="st3" d="M235.5,25c-1.5,0.2-2.6,0-3.8-0.9c-9.9-8.3-23.6-6.4-31.1,0.4c-1,0.9-2,0.5-3.1,0.6c1.2-3.1,9.1-7.3,15.3-8.2
			C223,15.4,231.7,20.3,235.5,25z"/>
		<path class="st3" d="M151.9,25.1c-0.8,0-1.3,0-1.9,0c0-2.5,0-5,0-7.6c4.5,0,9,0,13.5,0c0,2.5,0,5,0,7.6c-0.6,0-1.1,0-1.9,0
			c0-1.8,0-3.6,0-5.6c-3.3,0-6.5,0-9.7,0C151.9,21.3,151.9,23.1,151.9,25.1z"/>
		<path class="st3" d="M151.9,105.5c9.7,0,19.1,0,28.7,0c0-1.8,0-3.6,0-5.5c0.7,0,1.3,0,1.9,0c0,2.5,0,5,0,7.5
			c-10.8,0-21.6,0-32.5,0c0-2.5,0-5,0-7.6c0.6,0,1.1,0,1.8,0C151.9,101.7,151.9,103.5,151.9,105.5z"/>
		<path class="st3" d="M86.2,99.9c-1.6,2.8-3.9,4.7-6.7,5.9c-2.7,1.2-5.5,1.7-8.4,1.7c-6.6,0-13.2,0-19.8,0c-0.3,0-0.6,0-0.9-0.1
			c0-2.5,0-5,0-7.6c0.6,0,1.1,0,1.8,0c0,1.8,0,3.6,0,5.5c0.4,0,0.8,0.1,1.1,0.1c6,0,12,0,18,0c2.6,0,5.1-0.5,7.5-1.5
			c1.7-0.7,3.2-1.7,4.3-3.1C83.8,99.7,84.8,99.7,86.2,99.9z"/>
		<path class="st3" d="M235.1,99.9c-1.3,1.8-2.8,3.2-4.5,4.4c-4.2,2.9-8.9,4.2-14,4.1c-6.8-0.1-12.9-2.2-18-6.9
			c-0.5-0.4-0.9-0.9-1.5-1.5c1.4,0,2.4-0.3,3.5,0.6c3.8,3.4,8.3,5.1,13.3,5.7c3.9,0.5,7.6,0.1,11.3-1.3c2.4-0.9,4.6-2.2,6.3-4
			C232.5,99.9,233.6,99.6,235.1,99.9z"/>
		<path class="st3" d="M122.2,105.4c0-1.8,0-3.6,0-5.5c0.7,0,1.2,0,1.9,0c0,2.5,0,5,0,7.5c-4.5,0-8.9,0-13.4,0c0-2.5,0-5,0-7.6
			c0.6,0,1.2,0,1.9,0c0,1.9,0,3.6,0,5.5C115.7,105.4,118.9,105.4,122.2,105.4z"/>
	</g>
	<g>
		<path class="st4" d="M151.9,95.4c9.6,0,19.1,0,28.7,0c0-1.8,0-3.6,0-5.5c0.7,0,1.2,0,1.9,0c0,2.5,0,5,0,7.5c-10.8,0-21.6,0-32.5,0
			c0-2.5,0-5,0-7.5c0.6,0,1.1,0,1.9,0C151.9,91.7,151.9,93.6,151.9,95.4z"/>
		<path class="st4" d="M86.2,89.9c-1.5,2.7-3.7,4.5-6.3,5.8c-2.6,1.2-5.4,1.8-8.2,1.9c-6.9,0.1-13.7,0-20.6,0c-0.2,0-0.4,0-0.7-0.1
			c0-2.5,0-5,0-7.6c0.6,0,1.1,0,1.8,0c0,1.8,0,3.6,0,5.5c0.6,0,1,0.1,1.4,0.1c5.8,0,11.6,0,17.4,0c2.9,0,5.7-0.5,8.3-1.8
			c1.4-0.7,2.7-1.6,3.7-2.8c0.6-0.8,1.3-1.1,2.2-1C85.5,89.9,85.8,89.9,86.2,89.9z"/>
		<path class="st4" d="M197.4,89.8c0.6,0,1.2-0.1,1.8,0c0.4,0,0.9,0.2,1.2,0.5c5.4,4.8,11.7,6.5,18.7,6c5-0.3,9.4-2.2,12.9-5.8
			c0.5-0.5,1-0.8,1.7-0.7c0.4,0,0.9,0,1.6,0c-0.5,0.6-0.9,1.1-1.3,1.6c-3.2,3.4-7.1,5.7-11.7,6.5c-7.7,1.4-14.8,0.1-21.2-4.5
			c-1.3-0.9-2.5-2.1-3.7-3.2C197.3,90.1,197.4,90,197.4,89.8z"/>
		<path class="st4" d="M124.1,97.5c-4.5,0-8.9,0-13.5,0c0-2.5,0-5,0-7.6c0.7,0,1.2,0,1.9,0c0,1.8,0,3.6,0,5.5c3.2,0,6.3,0,9.6,0
			c0-1.8,0-3.6,0-5.5c0.7,0,1.3,0,2,0C124.1,92.4,124.1,94.9,124.1,97.5z"/>
		<path class="st4" d="M98.4,35c-0.7,0-1.2,0-2,0c0-1.2,0-2.5,0-3.8c0-1.2,0-2.5,0-3.8c14.1,0,28.1,0,42.1,0c0,2.5,0,5,0,7.5
			c-0.6,0-1.2,0-1.9,0c0-1.8,0-3.7,0-5.6c-12.8,0-25.4,0-38.2,0C98.4,31.2,98.4,33.1,98.4,35z"/>
		<path class="st4" d="M50.4,35c0-2.5,0-5,0-7.5c0.4,0,0.7,0,1,0c5.8,0,11.7-0.1,17.5-0.1c3.5,0,6.9,0.6,10,2.3
			c2.3,1.2,4.2,2.9,5.5,5.4c-0.7,0-1.2,0.1-1.7,0c-0.3,0-0.7-0.2-0.9-0.4c-2.6-3.2-6.1-4.6-10-5c-2.5-0.3-5.1-0.2-7.7-0.2
			c-3.5,0-6.9,0-10.4,0c-0.4,0-0.9,0-1.4,0c0,1.9,0,3.7,0,5.6C51.6,35,51,35,50.4,35z"/>
		<path class="st4" d="M197.3,35c9.3-10.7,28.2-11.6,38.1,0c-0.8,0-1.6,0-2.3,0c-0.3,0-0.6-0.3-0.9-0.5c-4.2-3.6-9.1-5.7-14.6-5.9
			c-6.3-0.2-12.1,1.5-16.9,5.8C199.7,35.3,198.6,34.9,197.3,35z"/>
		<path class="st4" d="M150,27.4c4.5,0,9,0,13.5,0c0,2.5,0,5,0,7.6c-0.6,0-1.1,0-1.8,0c0-1.8,0-3.6,0-5.5c-3.3,0-6.4,0-9.7,0
			c0,1.8,0,3.6,0,5.5c-0.7,0-1.3,0-1.9,0C150,32.4,150,29.9,150,27.4z"/>
	</g>
	<g>
		<path class="st5" d="M50.4,37.4c0.5,0,0.9,0,1.2,0c1.4,0,2.9,0,4.3,0c4.4,0,8.7-0.1,13-0.1c3.1,0,6.1,0.5,9,1.8
			c7.1,3.1,8.9,10.2,7.9,15.3c-0.4,2.1-1.5,3.9-3,5.5c-0.3,0.3-0.5,0.6-0.9,0.9c0.2,0.2,0.4,0.3,0.6,0.5c4.1,3,5.7,7.2,5.4,12.1
			c-0.2,3.8-1.5,7.2-4.4,9.8c-2.5,2.3-5.5,3.5-8.8,4c-1.4,0.2-2.8,0.3-4.2,0.3c-6.4,0-12.8,0-19.2,0c-0.3,0-0.6,0-1-0.1
			C50.4,70.8,50.4,54.1,50.4,37.4z M63.4,75.5c2.2,0,4.3,0,6.3,0c0.7,0,1.3-0.2,2-0.5c1.6-0.6,2.5-2,2.5-3.7c0-1.7-0.9-3.1-2.6-3.6
			c-0.6-0.2-1.3-0.3-2-0.3c-1.8,0-3.6,0-5.4,0c-0.3,0-0.5,0.1-0.8,0.1C63.4,70.1,63.4,72.8,63.4,75.5z M63.4,56.2c1.4,0,2.8,0,4.1,0
			c0.7,0,1.4-0.1,2-0.2c1.9-0.5,2.9-1.8,3-3.7c0-1.8-1.1-3.3-2.9-3.8c-2-0.5-4.1-0.2-6.2-0.3C63.4,50.9,63.4,53.5,63.4,56.2z"/>
		<path class="st5" d="M239.7,59.3c0,2.5,0,4.8,0,7.2c0,1.9-0.3,3.8-0.8,5.7c-2.4,8.9-9.5,15-18.6,16.1c-5,0.6-9.9,0-14.5-2.1
			c-6.5-2.9-11-7.7-13.2-14.5c-2.1-6.1-2.1-12.3,0-18.4c2.7-7.8,8.1-13,16-15.4c8.6-2.6,16.6-1.3,23.9,4.1c2,1.5,3.6,3.2,4.9,5.5
			c-3.5,2.6-6.9,5.2-10.4,7.8c-0.2-0.2-0.3-0.3-0.4-0.4c-2.9-4.2-7.4-6-12.4-4.9c-5,1.1-8,4.3-9.1,9.2c-0.7,3-0.5,6,0.7,8.9
			c1.9,4.5,5.4,6.8,10,7.5c3.4,0.5,6.3-0.2,8.9-2.4c1.2-1,1.9-2.2,2.3-3.6c-3.6,0-7.1,0-10.6,0c-0.3-0.9-0.4-8.2-0.1-10.2
			C224,59.3,231.8,59.3,239.7,59.3z"/>
		<path class="st5" d="M124.2,49.7c0,12.7,0,25.2,0,37.8c-4.6,0-9,0-13.6,0c0-12.5,0-25.1,0-37.7c-4.8,0-9.4,0-14.1,0
			c0-4.2,0-8.2,0-12.3c14,0,28,0,42.1,0c0,4.1,0,8.1,0,12.2C133.8,49.7,129.1,49.7,124.2,49.7z"/>
		<path class="st5" d="M150,37.4c4.5,0,9,0,13.6,0c0,12.5,0,25,0,37.7c6.4,0,12.6,0,18.9,0c0,4.2,0,8.2,0,12.3
			c-10.8,0-21.6,0-32.5,0C150,70.8,150,54.2,150,37.4z"/>
	</g>
</g>
</svg>
