<?xml version="1.0" encoding="utf-8"?>
<!-- Generator: Adobe Illustrator 16.0.0, SVG Export Plug-In . SVG Version: 6.00 Build 0)  -->
<!DOCTYPE svg PUBLIC "-//W3C//DTD SVG 1.1//EN" "http://www.w3.org/Graphics/SVG/1.1/DTD/svg11.dtd">
<svg version="1.1" id="Layer_1" xmlns="http://www.w3.org/2000/svg" xmlns:xlink="http://www.w3.org/1999/xlink" x="0px" y="0px"
	 width="290px" height="125px" viewBox="0 0 290 125" enable-background="new 0 0 290 125" xml:space="preserve">
<g>
	<path fill-rule="evenodd" clip-rule="evenodd" d="M237.958,46.789c0.81,0,1.38,0,2.103,0c0-0.773,0-1.497,0-2.301
		c0.778-0.06,1.417-0.109,2.15-0.166c0-0.743,0-1.434,0-2.218c5.685,0,11.266,0,16.922,0c0,5.496,0,10.956,0,16.532
		c-0.637,0.046-1.271,0.093-1.989,0.145c-0.035,0.739-0.069,1.429-0.109,2.259c-0.647,0.035-1.283,0.07-2.011,0.111
		c-0.036,0.745-0.068,1.436-0.108,2.285c-3.469,0-6.933,0-10.478,0c0,0.875,0,1.594,0,2.426c4.892,0,9.736,0,14.674,0
		c0,6.396,0,12.684,0,19.043c-2.05,0-4.062,0-6.23,0c0-4.713,0-9.412,0-14.18c-2.877,0-5.599,0-8.481,0c0,4.691,0,9.389,0,14.168
		c-2.17,0-4.183,0-6.352,0c0-4.678,0-9.377,0-14.16c-0.75-0.049-1.352-0.088-2.106-0.135c0-0.709,0-1.432,0-2.248
		c-0.779-0.057-1.416-0.102-2.116-0.152c0-0.744,0-1.434,0-2.277c1.338,0,2.682,0,4.098,0c0-0.84,0-1.529,0-2.375
		c-1.313,0-2.657,0-4.083,0c0-0.838,0-1.526,0-2.379c0.588-0.029,1.224-0.063,1.986-0.102c0.033-0.756,0.064-1.48,0.101-2.287
		c0.672-0.033,1.276-0.063,2.031-0.101C237.958,54.755,237.958,50.849,237.958,46.789z M252.758,58.66c0-4.009,0-7.908,0-11.775
		c-2.852,0-5.604,0-8.331,0c0,3.977,0,7.845,0,11.775C247.22,58.66,249.939,58.66,252.758,58.66z"/>
	<path fill-rule="evenodd" clip-rule="evenodd" d="M27.796,75.369c-0.668,0.037-1.271,0.072-1.978,0.113
		c-0.034,0.727-0.066,1.416-0.106,2.277c-0.63,0.031-1.265,0.063-2.015,0.1c-0.04,0.758-0.077,1.482-0.118,2.271
		c-7.04,0-14.002,0-21.058,0c0-0.732,0-1.449,0-2.256c0.631-0.031,1.234-0.061,1.988-0.096c0-0.744,0-1.469,0-2.27
		c0.748-0.045,1.352-0.082,2.06-0.127c0-3.904,0-7.809,0-11.869c-1.326,0-2.668,0-4.073,0c0-0.842,0-1.53,0-2.33
		c0.64-0.045,1.277-0.088,1.997-0.139c0.035-0.74,0.067-1.432,0.106-2.25c0.643-0.041,1.279-0.082,1.994-0.127
		c0-3.952,0-7.857,0-11.833c-0.656-0.036-1.259-0.069-1.989-0.108C4.569,45.98,4.537,45.255,4.5,44.448
		c-0.669-0.036-1.272-0.069-1.973-0.107c0-0.733,0-1.453,0-2.253c6.971,0,13.935,0,21.057,0c0,0.708,0,1.43,0,2.231
		c0.753,0.048,1.356,0.087,2.114,0.135c0,0.716,0,1.438,0,2.238c0.782,0.063,1.418,0.113,2.115,0.169c0,3.137,0,6.21,0,9.378
		c-0.658,0.055-1.293,0.107-2.032,0.168c0,0.74,0,1.43,0,2.223c-0.735,0.053-1.371,0.1-2.073,0.15c0,1.541,0,3.025,0,4.643
		c0.624,0.043,1.259,0.086,2.002,0.137c0,1.529,0,3.016,0,4.631c0.736,0.051,1.371,0.092,2.086,0.141
		C27.796,70.65,27.796,72.93,27.796,75.369z M21.463,46.855c-2.88,0-5.602,0-8.345,0c0,3.979,0,7.878,0,11.764
		c2.142,0,4.189,0,6.244,0c0.037-0.795,0.069-1.486,0.103-2.223c0.722-0.049,1.357-0.092,1.998-0.136
		C21.463,53.067,21.463,49.994,21.463,46.855z M21.433,75.369c0-3.211,0-6.318,0-9.449c-0.699-0.033-1.303-0.063-1.976-0.096
		c-0.037-0.801-0.07-1.525-0.103-2.23c-2.176,0-4.223,0-6.258,0c0,3.973,0,7.842,0,11.775
		C15.888,75.369,18.608,75.369,21.433,75.369z"/>
	<path fill-rule="evenodd" clip-rule="evenodd" d="M51.125,75.426c-0.675,0-1.245,0-1.971,0c0,0.779,0,1.5,0,2.307
		c-0.75,0.049-1.353,0.088-2.118,0.139c-0.031,0.707-0.063,1.432-0.099,2.242c-4.219,0-8.387,0-12.661,0c0-0.742,0-1.432,0-2.213
		c-0.733-0.057-1.37-0.104-2.107-0.16c0-0.74,0-1.43,0-2.236c-0.732-0.047-1.368-0.088-2.076-0.135c0-9.494,0-18.936,0-28.517
		c0.614-0.037,1.25-0.076,1.984-0.12c0.035-0.732,0.068-1.424,0.109-2.278c0.625-0.032,1.261-0.063,2.023-0.102
		c0.034-0.755,0.066-1.48,0.102-2.271c4.208,0,8.344,0,12.614,0c0.035,0.733,0.069,1.457,0.107,2.261
		c0.67,0.034,1.274,0.065,2.031,0.104c0,0.745,0,1.468,0,2.266c0.752,0.046,1.356,0.083,2.061,0.127
		C51.125,56.32,51.125,65.795,51.125,75.426z M44.78,75.369c0-9.57,0-19.037,0-28.486c-2.848,0-5.602,0-8.34,0
		c0,9.544,0,18.982,0,28.486C39.23,75.369,41.952,75.369,44.78,75.369z"/>
	<path fill-rule="evenodd" clip-rule="evenodd" d="M53.461,46.789c0.669,0,1.24,0,1.962,0c0-0.774,0-1.497,0-2.301
		c0.78-0.06,1.417-0.109,2.151-0.167c0-0.743,0-1.435,0-2.218c4.271,0,8.44,0,12.696,0c0.033,0.726,0.065,1.417,0.102,2.222
		c0.657,0.045,1.293,0.088,2.015,0.138c0.036,0.742,0.069,1.434,0.109,2.25c0.645,0.042,1.281,0.085,1.994,0.132
		c0,9.491,0,18.93,0,28.522c-0.618,0.033-1.252,0.068-1.984,0.107c-0.034,0.742-0.066,1.434-0.105,2.281
		c-0.637,0.033-1.273,0.066-2.012,0.104c-0.036,0.734-0.07,1.426-0.11,2.229c-4.168,0-8.334,0-12.611,0
		c-0.033-0.668-0.068-1.357-0.109-2.195c-0.622-0.043-1.257-0.088-2.024-0.143c-0.032-0.73-0.064-1.455-0.1-2.264
		c-0.67-0.035-1.274-0.068-1.975-0.107C53.461,65.893,53.461,56.419,53.461,46.789z M68.125,75.369c0-9.572,0-19.039,0-28.485
		c-2.849,0-5.603,0-8.339,0c0,9.544,0,18.981,0,28.485C62.577,75.369,65.298,75.369,68.125,75.369z"/>
	<path fill-rule="evenodd" clip-rule="evenodd" d="M280.354,65.865c-5.65,0-11.17,0-16.83,0c-0.034-0.777-0.065-1.502-0.102-2.307
		c-0.663-0.041-1.266-0.076-1.973-0.121c0-0.718,0-1.438,0-2.271c1.298,0,2.608,0,4.074,0c0-4.803,0-9.503,0-14.288
		c0.783-0.063,1.419-0.113,2.154-0.171c0-0.738,0-1.428,0-2.233c0.732-0.047,1.369-0.088,2.1-0.136
		c0.032-0.739,0.063-1.432,0.098-2.226c5.593,0,11.176,0,16.841,0c0,3.086,0,6.159,0,9.365c-0.619,0.042-1.256,0.085-1.98,0.134
		c-0.036,0.734-0.069,1.425-0.109,2.268c-0.64,0.034-1.276,0.067-2.015,0.106c-0.033,0.737-0.065,1.428-0.102,2.229
		c-0.638,0-1.268,0-2.009,0c0-3.058,0-6.136,0-9.326c-2.858,0-5.612,0-8.464,0c0,4.67,0,9.369,0,14.179c4.866,0,9.711,0,14.657,0
		c0,4.811,0,9.508,0,14.293c-0.615,0.039-1.218,0.076-1.975,0.123c0,0.727,0,1.447,0,2.25c-0.752,0.049-1.354,0.088-2.112,0.137
		c0,0.717,0,1.439,0,2.244c-6.412,0-12.669,0-19.033,0c0-0.688,0-1.406,0-2.215c0.619-0.047,1.256-0.096,1.992-0.15
		c0-0.754,0-1.445,0-2.232c0.732-0.053,1.369-0.098,2.086-0.148c0.035-0.742,0.069-1.434,0.108-2.254
		c0.644-0.039,1.281-0.078,2.017-0.121c0.032-0.738,0.063-1.43,0.097-2.227c0.639,0,1.27,0,2.014,0c0,1.48,0,2.967,0,4.561
		c2.862,0,5.618,0,8.466,0C280.354,72.238,280.354,69.131,280.354,65.865z"/>
	<path fill-rule="evenodd" clip-rule="evenodd" d="M170.024,75.357c0-3.148,0-6.223,0-9.457c-2.074,0-4.124,0-6.235,0
		c0-1.641,0-3.123,0-4.698c2.769,0,5.521,0,8.353,0c0.033,0.738,0.063,1.429,0.099,2.218c0.669,0.051,1.306,0.098,2.021,0.152
		c0.034,0.744,0.066,1.436,0.104,2.24c0.655,0.045,1.293,0.09,2,0.139c0,3.129,0,6.203,0,9.398c-0.634,0.045-1.271,0.09-1.986,0.143
		c-0.037,0.738-0.072,1.428-0.113,2.26c-0.646,0.035-1.28,0.07-2.011,0.111c-0.034,0.744-0.067,1.436-0.104,2.232
		c-5.595,0-11.176,0-16.868,0c0-5.465,0-10.928,0-16.547c-1.443,0-2.785,0-4.209,0c0-0.842,0-1.531,0-2.383
		c0.586-0.029,1.223-0.063,1.984-0.102c0.034-0.756,0.066-1.482,0.102-2.287c0.671-0.033,1.276-0.063,2.033-0.101
		c0-3.923,0-7.83,0-11.823c0.747-0.042,1.351-0.077,2.104-0.12c0-0.722,0-1.444,0-2.246c0.779-0.061,1.417-0.11,2.151-0.168
		c0-0.745,0-1.436,0-2.218c4.271,0,8.439,0,12.693,0c0.033,0.729,0.065,1.42,0.102,2.222c0.659,0.046,1.296,0.09,2.015,0.14
		c0.037,0.743,0.071,1.435,0.111,2.25c0.646,0.042,1.282,0.085,1.993,0.132c0,1.534,0,3.017,0,4.63
		c-0.624,0.042-1.259,0.086-1.982,0.135c-0.036,0.736-0.07,1.426-0.111,2.267c-0.641,0.034-1.275,0.068-2.013,0.107
		c-0.034,0.739-0.065,1.428-0.103,2.229c-0.639,0-1.269,0-2.01,0c0-3.059,0-6.137,0-9.326c-2.857,0-5.611,0-8.463,0
		c0,9.446,0,18.918,0,28.469C164.422,75.357,167.146,75.357,170.024,75.357z"/>
	<path fill-rule="evenodd" clip-rule="evenodd" d="M197.576,65.883c-2.085,0-4.068,0-6.158,0c0-1.574,0-3.088,0-4.688
		c2.713,0,5.433,0,8.312,0c0,0.7,0,1.421,0,2.226c0.753,0.049,1.355,0.088,2.122,0.137c0.031,0.711,0.063,1.436,0.099,2.246
		c0.676,0.053,1.313,0.104,2.011,0.16c0,3.135,0,6.209,0,9.379c-0.656,0.053-1.294,0.105-2.032,0.168c0,0.738,0,1.428,0,2.221
		c-0.735,0.055-1.372,0.1-2.091,0.152c-0.033,0.742-0.064,1.434-0.1,2.221c-5.61,0-11.191,0-16.884,0c0-5.488,0-10.951,0-16.57
		c-1.445,0-2.786,0-4.201,0c0-0.843,0-1.531,0-2.355c0.61-0.037,1.248-0.076,1.983-0.121c0.035-0.732,0.067-1.424,0.107-2.259
		c0.626-0.042,1.264-0.084,2.051-0.136c0-3.925,0-7.833,0-11.817c0.749-0.038,1.353-0.068,2.105-0.106c0-0.743,0-1.466,0-2.267
		c0.748-0.045,1.353-0.082,2.105-0.127c0-0.719,0-1.442,0-2.25c4.285,0,8.422,0,12.724,0c0.03,0.689,0.063,1.412,0.099,2.219
		c0.678,0.054,1.317,0.105,2.055,0.164c0,0.748,0,1.438,0,2.225c0.735,0.055,1.372,0.102,2.074,0.154c0,1.541,0,3.024,0,4.611
		c-0.647,0.051-1.282,0.101-1.997,0.157c-0.033,0.739-0.063,1.43-0.1,2.238c-0.66,0.045-1.298,0.088-2.015,0.137
		c-0.037,0.741-0.072,1.431-0.112,2.223c-0.646,0-1.276,0-2.018,0c0-3.084,0-6.163,0-9.343c-2.859,0-5.613,0-8.456,0
		c0,9.47,0,18.942,0,28.485c2.769,0,5.491,0,8.316,0C197.576,72.258,197.576,69.15,197.576,65.883z"/>
	<path fill-rule="evenodd" clip-rule="evenodd" d="M148.744,51.551c-0.668,0-1.238,0-1.965,0c0,0.775,0,1.499,0,2.305
		c-0.75,0.05-1.352,0.09-2.12,0.141c-0.031,0.704-0.063,1.427-0.099,2.24c-0.642,0-1.24,0-1.998,0c0-3.06,0-6.167,0-9.366
		c-2.907,0-5.66,0-8.492,0c0,3.897,0,7.769,0,11.8c2.022,0,4.072,0,6.203,0c0,1.639,0,3.121,0,4.766c-2.02,0-4.067,0-6.196,0
		c0,4.063,0,7.965,0,11.934c2.778,0,5.5,0,8.378,0c0-3.115,0-6.225,0-9.406c0.752,0,1.352,0,2.106,0c0,0.711,0,1.436,0,2.234
		c0.75,0.047,1.354,0.086,2.111,0.135c0,0.719,0,1.441,0,2.236c0.781,0.063,1.419,0.113,2.111,0.168c0,3.143,0,6.217,0,9.379
		c-7.001,0-13.963,0-21.081,0c0-5.457,0-10.951,0-16.6c-1.492,0-2.834,0-4.239,0c0-0.842,0-1.531,0-2.333
		c0.636-0.044,1.275-0.087,1.996-0.136c0.034-0.74,0.066-1.432,0.104-2.252c0.642-0.041,1.279-0.081,2.064-0.131
		c0-3.943,0-7.85,0-11.823c0.75-0.038,1.353-0.067,2.104-0.105c0-0.753,0-1.477,0-2.281c0.749-0.037,1.353-0.066,2.105-0.103
		c0-0.739,0-1.462,0-2.263c5.699,0,11.25,0,16.905,0C148.744,45.215,148.744,48.353,148.744,51.551z"/>
	<path fill-rule="evenodd" clip-rule="evenodd" d="M223.061,58.693c0,1.691,0,3.172,0,4.768c-2.079,0-4.094,0-6.202,0
		c0,4.016,0,7.916,0,11.896c2.743,0,5.466,0,8.345,0c0-3.08,0-6.189,0-9.383c0.783,0,1.412,0,2.15,0c0,0.742,0,1.432,0,2.215
		c0.734,0.055,1.373,0.104,2.088,0.158c0.033,0.744,0.064,1.436,0.101,2.24c0.658,0.045,1.294,0.09,2.001,0.139
		c0,3.129,0,6.203,0,9.377c-7.001,0-13.993,0-21.096,0c0-5.486,0-10.947,0-16.566c-1.443,0-2.784,0-4.202,0c0-0.84,0-1.528,0-2.361
		c0.602-0.035,1.238-0.073,1.981-0.117c0.039-0.76,0.076-1.485,0.117-2.283c0.675-0.033,1.279-0.063,2.033-0.102
		c0-3.928,0-7.835,0-11.831c0.747-0.037,1.35-0.066,2.103-0.103c0-0.734,0-1.457,0-2.254c0.779-0.059,1.417-0.107,2.15-0.162
		c0-0.753,0-1.444,0-2.224c5.685,0,11.266,0,16.918,0c0,3.121,0,6.194,0,9.367c-0.651,0.053-1.286,0.104-1.999,0.162
		c-0.032,0.738-0.063,1.429-0.099,2.234c-0.662,0.046-1.299,0.089-2.017,0.139c-0.036,0.741-0.071,1.431-0.11,2.223
		c-0.648,0-1.277,0-2.018,0c0-3.085,0-6.163,0-9.343c-2.857,0-5.611,0-8.454,0c0,3.896,0,7.796,0,11.812
		C218.905,58.693,220.921,58.693,223.061,58.693z"/>
	<path fill-rule="evenodd" clip-rule="evenodd" d="M91.647,75.471c1.407,0,2.716,0,4.083,0c0,0.799,0,1.484,0,2.268
		c-0.632,0.041-1.234,0.082-2.002,0.135c-0.032,0.701-0.065,1.424-0.103,2.236c-3.5,0-6.959,0-10.484,0c0-0.729,0-1.416,0-2.211
		c0.643-0.047,1.279-0.092,1.984-0.141c0-7.936,0-15.816,0-23.762c-0.67-0.036-1.273-0.068-1.992-0.106
		c-0.037-0.752-0.072-1.477-0.113-2.305c-1.375,0-2.685,0-4.129,0c-0.036-0.823-0.068-1.545-0.104-2.351
		c-0.663-0.04-1.266-0.077-1.973-0.12c0-0.718,0-1.438,0-2.315c2.741,0,5.497,0,8.358,0c0-1.634,0-3.12,0-4.695
		c2.151,0,4.194,0,6.352,0c0,1.527,0,3.013,0,4.654c2.154,0,4.204,0,6.332,0c0.04,0.843,0.072,1.533,0.109,2.343
		c0.65,0.044,1.287,0.087,1.997,0.134c0,3.125,0,6.199,0,9.375c-0.624,0-1.252,0-1.972,0c-0.034-0.695-0.067-1.386-0.107-2.229
		c-0.64-0.031-1.275-0.063-2.012-0.099c-0.034-0.737-0.067-1.428-0.104-2.231c-1.338,0-2.677,0-4.118,0
		C91.647,61.102,91.647,68.184,91.647,75.471z"/>
	<path fill-rule="evenodd" clip-rule="evenodd" d="M108.526,42.105c0,0.506,0,0.98,0,1.454c0,8.575-0.004,17.15,0.009,25.726
		c0.001,0.582-0.326,1.389,0.768,1.48c0.107,0.01,0.226,0.602,0.233,0.926c0.028,1.188,0.011,2.375,0.011,3.709
		c1.077,0,2.07,0,3.158,0c0.04,0.83,0.072,1.521,0.109,2.318c1.347,0,2.688,0,4.163,0c0.033-0.701,0.067-1.426,0.104-2.23
		c0.669-0.031,1.274-0.061,2.028-0.098c0-0.744,0-1.469,0-2.266c0.75,0,1.351,0,2.052,0c0,2.297,0,4.609,0,7.039
		c-5.577,0-11.127,0-16.819,0c-0.038,0.826-0.071,1.551-0.107,2.346c-0.667,0-1.267,0-1.965,0c0-11.842,0-23.703,0-35.659
		c0.607-0.037,1.21-0.073,1.964-0.118c0-0.718,0-1.44,0-2.245c0.779-0.06,1.418-0.109,2.153-0.167c0-0.742,0-1.433,0-2.216
		C107.122,42.105,107.751,42.105,108.526,42.105z"/>
</g>
<g>
	<path d="M110.243,14.254l-0.784,11.2h-1.936l-1.344-7.184l-1.392,7.184h-1.92l-0.8-11.2h1.888l0.384,8.576l0.016,0.384l0.016-0.48
		l1.248-7.296h1.072l1.232,7.296l0.016,0.256v-0.16l0.416-8.576H110.243z"/>
	<path d="M113.827,19.23h3.248v1.44h-3.248v3.36h4.048v1.424h-5.952v-11.2h5.952v1.424h-4.048V19.23z"/>
	<path d="M126.883,25.454h-6.016v-11.2h1.904v9.776h4.112V25.454z"/>
	<path d="M134.307,25.038c-0.629,0.395-1.354,0.592-2.176,0.592c-1.216,0-2.171-0.461-2.864-1.384
		c-0.693-0.922-1.04-2.376-1.04-4.36c0-1.973,0.35-3.421,1.048-4.344c0.699-0.922,1.656-1.384,2.872-1.384
		c0.886,0,1.619,0.2,2.2,0.6c0.581,0.4,0.989,0.904,1.224,1.512l-1.663,0.928c-0.14-0.395-0.358-0.75-0.656-1.064
		c-0.299-0.314-0.667-0.472-1.104-0.472c-0.587,0-1.059,0.341-1.416,1.024s-0.536,1.75-0.536,3.2c0,1.461,0.182,2.533,0.544,3.216
		c0.363,0.683,0.838,1.024,1.425,1.024c0.458,0,0.826-0.165,1.104-0.496c0.277-0.33,0.485-0.677,0.624-1.04l1.744,0.896
		C135.379,24.126,134.936,24.644,134.307,25.038z"/>
	<path d="M137.818,24.286c-0.678-0.896-1.016-2.362-1.016-4.4s0.338-3.501,1.016-4.392s1.587-1.336,2.729-1.336
		c1.13,0,2.031,0.445,2.704,1.336c0.672,0.891,1.008,2.354,1.008,4.392s-0.336,3.504-1.008,4.4
		c-0.673,0.896-1.574,1.344-2.704,1.344C139.405,25.63,138.496,25.182,137.818,24.286z M142.307,19.886
		c0-2.816-0.587-4.224-1.76-4.224c-1.195,0-1.792,1.408-1.792,4.224c0,2.827,0.597,4.24,1.792,4.24
		C141.72,24.126,142.307,22.713,142.307,19.886z"/>
	<path d="M151.299,25.454l-0.097-8.72l-1.328,7.36h-1.456l-1.327-7.376l-0.112,8.736h-1.776l0.32-11.2h2.32l1.264,6.384l0.048,0.56
		l0.048-0.56l1.248-6.384h2.32l0.32,11.2H151.299z"/>
	<path d="M156.786,19.23h3.248v1.44h-3.248v3.36h4.048v1.424h-5.952v-11.2h5.952v1.424h-4.048V19.23z"/>
	<path d="M175.826,15.678v9.776h-1.904v-9.776h-2.496v-1.424h6.912v1.424H175.826z"/>
	<path d="M180.777,24.286c-0.678-0.896-1.016-2.362-1.016-4.4s0.338-3.501,1.016-4.392s1.587-1.336,2.729-1.336
		c1.13,0,2.031,0.445,2.704,1.336c0.672,0.891,1.008,2.354,1.008,4.392s-0.336,3.504-1.008,4.4
		c-0.673,0.896-1.574,1.344-2.704,1.344C182.364,25.63,181.455,25.182,180.777,24.286z M185.266,19.886
		c0-2.816-0.587-4.224-1.76-4.224c-1.195,0-1.792,1.408-1.792,4.224c0,2.827,0.597,4.24,1.792,4.24
		C184.679,24.126,185.266,22.713,185.266,19.886z"/>
</g>
<g>
	<path d="M40.083,101.908c0.388,0.531,0.582,1.318,0.582,2.357c0,1.032-0.21,1.811-0.63,2.334c-0.42,0.524-0.994,0.786-1.722,0.786
		c-0.536,0-0.964-0.18-1.284-0.54v2.809h-1.428v-8.4h0.996l0.348,0.684c0.184-0.256,0.4-0.457,0.648-0.605s0.524-0.223,0.828-0.223
		C39.141,101.109,39.695,101.376,40.083,101.908z M38.925,105.76c0.208-0.332,0.312-0.83,0.312-1.494
		c0-1.352-0.376-2.027-1.128-2.027c-0.304,0-0.544,0.104-0.72,0.312c-0.176,0.208-0.296,0.46-0.36,0.756v1.944
		c0.064,0.288,0.176,0.527,0.336,0.72s0.384,0.288,0.672,0.288C38.421,106.258,38.717,106.092,38.925,105.76z"/>
	<path d="M47.229,101.35l-0.432,1.213c-0.264-0.16-0.536-0.24-0.816-0.24c-0.304,0-0.564,0.082-0.78,0.246
		c-0.216,0.164-0.376,0.377-0.48,0.642v2.976h1.248v1.068h-3.864v-1.068h1.176v-3.863h-1.176v-1.068h2.184l0.252,0.648
		c0.2-0.248,0.446-0.442,0.738-0.582c0.292-0.141,0.618-0.211,0.978-0.211C46.721,101.109,47.044,101.189,47.229,101.35z"/>
	<path d="M52.599,101.914c0.444,0.536,0.666,1.264,0.666,2.184c0,0.24-0.008,0.424-0.024,0.553h-3.684
		c0.04,0.52,0.172,0.918,0.396,1.193c0.224,0.276,0.508,0.414,0.852,0.414c0.304,0,0.54-0.068,0.708-0.204s0.308-0.319,0.42-0.552
		l1.212,0.636c-0.2,0.353-0.504,0.648-0.912,0.888c-0.408,0.24-0.884,0.36-1.428,0.36c-0.504,0-0.954-0.124-1.35-0.372
		s-0.708-0.607-0.936-1.08c-0.228-0.472-0.342-1.035-0.342-1.691s0.108-1.221,0.324-1.692c0.216-0.472,0.52-0.829,0.912-1.073
		s0.844-0.367,1.356-0.367C51.544,101.109,52.155,101.378,52.599,101.914z M51.957,103.714c-0.008-0.416-0.112-0.771-0.312-1.062
		c-0.2-0.293-0.484-0.438-0.852-0.438c-0.696,0-1.1,0.5-1.212,1.5H51.957z"/>
	<path d="M55.778,107.104c-0.46-0.188-0.802-0.453-1.026-0.798l1.128-0.743c0.12,0.215,0.322,0.39,0.606,0.521
		c0.284,0.132,0.594,0.197,0.93,0.197c0.328,0,0.594-0.067,0.798-0.203c0.204-0.137,0.306-0.32,0.306-0.553
		c0-0.223-0.122-0.399-0.366-0.527s-0.546-0.236-0.906-0.324c-1.456-0.336-2.184-0.98-2.184-1.932c0-0.52,0.224-0.922,0.672-1.206
		c0.448-0.284,0.988-0.427,1.62-0.427c0.536,0,1.01,0.095,1.422,0.283c0.412,0.188,0.722,0.453,0.93,0.797l-1.008,0.685
		c-0.128-0.224-0.316-0.394-0.564-0.511c-0.248-0.115-0.508-0.174-0.78-0.174s-0.502,0.051-0.69,0.15s-0.282,0.254-0.282,0.462
		s0.1,0.37,0.3,0.486c0.2,0.116,0.432,0.214,0.696,0.294c0.64,0.137,1.212,0.342,1.716,0.617c0.504,0.277,0.756,0.723,0.756,1.339
		c0,0.6-0.236,1.058-0.708,1.374c-0.472,0.316-1.068,0.474-1.788,0.474C56.764,107.386,56.238,107.292,55.778,107.104z"/>
	<path d="M62.222,107.104c-0.46-0.188-0.802-0.453-1.026-0.798l1.128-0.743c0.12,0.215,0.322,0.39,0.606,0.521
		c0.284,0.132,0.594,0.197,0.93,0.197c0.328,0,0.594-0.067,0.798-0.203c0.204-0.137,0.306-0.32,0.306-0.553
		c0-0.223-0.122-0.399-0.366-0.527s-0.546-0.236-0.906-0.324c-1.456-0.336-2.184-0.98-2.184-1.932c0-0.52,0.224-0.922,0.672-1.206
		c0.448-0.284,0.988-0.427,1.62-0.427c0.536,0,1.01,0.095,1.422,0.283c0.412,0.188,0.722,0.453,0.93,0.797l-1.008,0.685
		c-0.128-0.224-0.316-0.394-0.564-0.511c-0.248-0.115-0.508-0.174-0.78-0.174s-0.502,0.051-0.69,0.15s-0.282,0.254-0.282,0.462
		s0.1,0.37,0.3,0.486c0.2,0.116,0.432,0.214,0.696,0.294c0.64,0.137,1.212,0.342,1.716,0.617c0.504,0.277,0.756,0.723,0.756,1.339
		c0,0.6-0.236,1.058-0.708,1.374c-0.472,0.316-1.068,0.474-1.788,0.474C63.208,107.386,62.682,107.292,62.222,107.104z"/>
	<path d="M78.86,107.458l-0.708-0.708c-0.456,0.424-1.016,0.636-1.68,0.636c-1.56,0-2.34-0.655-2.34-1.968
		c0-0.664,0.224-1.156,0.672-1.477c0.448-0.319,1.128-0.479,2.04-0.479h0.744v-0.312c0-0.297-0.09-0.524-0.27-0.685
		c-0.18-0.159-0.438-0.239-0.774-0.239c-0.32,0-0.578,0.055-0.774,0.168c-0.196,0.111-0.378,0.268-0.546,0.467l-0.9-0.852
		c0.56-0.6,1.332-0.9,2.316-0.9c0.432,0,0.826,0.074,1.182,0.223c0.355,0.148,0.638,0.361,0.846,0.643
		c0.208,0.279,0.312,0.611,0.312,0.995v2.892l0.756,0.769L78.86,107.458z M77.588,105.79v-1.332h-0.54
		c-0.416,0-0.734,0.032-0.954,0.096c-0.22,0.064-0.37,0.162-0.45,0.294c-0.08,0.133-0.12,0.322-0.12,0.57
		c0,0.32,0.084,0.546,0.252,0.678c0.168,0.133,0.432,0.198,0.792,0.198C76.984,106.294,77.324,106.126,77.588,105.79z"/>
	<path d="M85.16,101.729c0.352,0.403,0.528,1.073,0.528,2.01v3.516H84.26v-3.229c0-0.479-0.018-0.84-0.054-1.08
		c-0.036-0.239-0.11-0.418-0.222-0.533c-0.112-0.116-0.292-0.174-0.54-0.174c-0.272,0-0.516,0.082-0.732,0.246
		s-0.376,0.369-0.48,0.617v4.152h-1.44v-6H81.8l0.228,0.637c0.192-0.248,0.424-0.438,0.696-0.57c0.271-0.133,0.58-0.198,0.924-0.198
		C84.304,101.122,84.808,101.324,85.16,101.729z"/>
	<path d="M92.348,101.254l-1.836,6c-0.248,0.752-0.556,1.324-0.924,1.716c-0.368,0.392-0.836,0.589-1.404,0.589
		c-0.32,0-0.628-0.057-0.924-0.168l0.42-1.093c0.128,0.048,0.24,0.072,0.336,0.072c0.48,0,0.856-0.392,1.128-1.177l-1.92-5.939h1.56
		l1.008,4.057l1.008-4.057H92.348z"/>
	<path d="M103.808,107.254l-1.944-2.568h-0.36v2.568h-1.428v-9.6h1.428v5.951h0.312l1.812-2.352h1.68l-2.352,2.868l2.52,3.132
		H103.808z"/>
	<path d="M110.593,101.914c0.444,0.536,0.666,1.264,0.666,2.184c0,0.24-0.008,0.424-0.024,0.553h-3.684
		c0.04,0.52,0.172,0.918,0.396,1.193c0.224,0.276,0.508,0.414,0.852,0.414c0.304,0,0.54-0.068,0.708-0.204s0.308-0.319,0.42-0.552
		l1.212,0.636c-0.2,0.353-0.504,0.648-0.912,0.888c-0.408,0.24-0.884,0.36-1.428,0.36c-0.504,0-0.954-0.124-1.35-0.372
		s-0.708-0.607-0.936-1.08c-0.228-0.472-0.342-1.035-0.342-1.691s0.108-1.221,0.324-1.692c0.216-0.472,0.52-0.829,0.912-1.073
		s0.844-0.367,1.356-0.367C109.539,101.109,110.149,101.378,110.593,101.914z M109.951,103.714
		c-0.008-0.416-0.112-0.771-0.312-1.062c-0.2-0.293-0.484-0.438-0.852-0.438c-0.696,0-1.1,0.5-1.212,1.5H109.951z"/>
	<path d="M118.123,101.254l-1.836,6c-0.248,0.752-0.556,1.324-0.924,1.716c-0.368,0.392-0.836,0.589-1.404,0.589
		c-0.32,0-0.628-0.057-0.924-0.168l0.42-1.093c0.128,0.048,0.24,0.072,0.336,0.072c0.48,0,0.856-0.392,1.128-1.177l-1.92-5.939h1.56
		l1.008,4.057l1.008-4.057H118.123z"/>
	<path d="M128.898,102.322v3.863h1.308v1.068h-2.735v-4.932h-1.561v-1.068h1.561v-2.16h1.428v2.16h1.74v1.068H128.898z"/>
	<path d="M132.821,106.63c-0.487-0.504-0.731-1.3-0.731-2.388c0-1.08,0.244-1.872,0.731-2.377c0.488-0.504,1.101-0.756,1.836-0.756
		c0.729,0,1.334,0.252,1.818,0.756c0.484,0.505,0.727,1.297,0.727,2.377s-0.242,1.874-0.727,2.382s-1.09,0.762-1.818,0.762
		C133.922,107.386,133.31,107.134,132.821,106.63z M135.456,105.814c0.188-0.297,0.281-0.82,0.281-1.572
		c0-0.736-0.096-1.254-0.288-1.555c-0.191-0.3-0.455-0.449-0.792-0.449c-0.344,0-0.611,0.148-0.804,0.443
		c-0.191,0.297-0.288,0.816-0.288,1.561c0,0.752,0.097,1.275,0.288,1.572c0.192,0.295,0.46,0.443,0.804,0.443
		C135.002,106.258,135.268,106.109,135.456,105.814z"/>
	<path d="M149.771,106.672c0.292,0.26,0.438,0.622,0.438,1.086c0,0.561-0.224,1.02-0.672,1.38s-1.1,0.54-1.956,0.54
		c-0.792,0-1.432-0.14-1.92-0.42s-0.731-0.684-0.731-1.212c0-0.257,0.067-0.478,0.204-0.666c0.136-0.188,0.308-0.342,0.516-0.462
		c-0.264-0.208-0.396-0.48-0.396-0.816c0-0.439,0.229-0.795,0.685-1.068c-0.568-0.383-0.853-0.967-0.853-1.752
		c0-0.727,0.232-1.271,0.696-1.631c0.464-0.36,1.056-0.541,1.776-0.541c0.607,0,1.116,0.129,1.523,0.385l0.769-0.768l0.792,0.756
		l-0.816,0.84c0.12,0.304,0.181,0.623,0.181,0.959c0,0.488-0.116,0.896-0.349,1.225s-0.534,0.57-0.906,0.727
		c-0.372,0.155-0.77,0.233-1.193,0.233c-0.28,0-0.536-0.028-0.769-0.084c-0.111,0.168-0.168,0.316-0.168,0.444
		c0,0.144,0.057,0.256,0.168,0.336c0.112,0.08,0.26,0.119,0.444,0.119h1.2C149.032,106.281,149.479,106.412,149.771,106.672z
		 M148.9,107.818c0-0.369-0.264-0.553-0.792-0.553h-1.32c-0.368,0.145-0.552,0.376-0.552,0.696c0,0.224,0.124,0.396,0.372,0.517
		c0.248,0.119,0.572,0.18,0.972,0.18c0.32,0,0.608-0.061,0.864-0.18c0.256-0.121,0.404-0.293,0.444-0.517
		C148.896,107.93,148.9,107.882,148.9,107.818z M146.782,102.479c-0.18,0.191-0.27,0.459-0.27,0.803c0,0.353,0.09,0.625,0.27,0.816
		c0.181,0.192,0.438,0.288,0.774,0.288c0.319,0,0.569-0.096,0.75-0.288c0.18-0.191,0.27-0.464,0.27-0.816
		c0-0.344-0.088-0.611-0.264-0.803c-0.176-0.192-0.428-0.289-0.756-0.289C147.221,102.189,146.963,102.286,146.782,102.479z"/>
	<path d="M155.698,101.914c0.443,0.536,0.665,1.264,0.665,2.184c0,0.24-0.008,0.424-0.023,0.553h-3.684
		c0.039,0.52,0.172,0.918,0.396,1.193c0.224,0.276,0.508,0.414,0.852,0.414c0.305,0,0.54-0.068,0.708-0.204s0.309-0.319,0.421-0.552
		l1.212,0.636c-0.2,0.353-0.504,0.648-0.912,0.888c-0.408,0.24-0.885,0.36-1.429,0.36c-0.504,0-0.953-0.124-1.35-0.372
		c-0.396-0.248-0.708-0.607-0.936-1.08c-0.229-0.472-0.343-1.035-0.343-1.691s0.108-1.221,0.324-1.692s0.521-0.829,0.912-1.073
		s0.844-0.367,1.356-0.367C154.644,101.109,155.254,101.378,155.698,101.914z M155.056,103.714
		c-0.008-0.416-0.112-0.771-0.312-1.062c-0.2-0.293-0.484-0.438-0.853-0.438c-0.696,0-1.1,0.5-1.212,1.5H155.056z"/>
	<path d="M161.115,102.322v3.863h1.308v1.068h-2.735v-4.932h-1.561v-1.068h1.561v-2.16h1.428v2.16h1.74v1.068H161.115z"/>
	<path d="M171.764,107.104c-0.46-0.188-0.802-0.453-1.025-0.798l1.128-0.743c0.12,0.215,0.321,0.39,0.605,0.521
		s0.594,0.197,0.93,0.197c0.328,0,0.595-0.067,0.799-0.203c0.204-0.137,0.306-0.32,0.306-0.553c0-0.223-0.122-0.399-0.366-0.527
		s-0.546-0.236-0.906-0.324c-1.456-0.336-2.184-0.98-2.184-1.932c0-0.52,0.224-0.922,0.672-1.206s0.988-0.427,1.62-0.427
		c0.536,0,1.01,0.095,1.422,0.283c0.412,0.188,0.722,0.453,0.93,0.797l-1.008,0.685c-0.128-0.224-0.315-0.394-0.563-0.511
		c-0.248-0.115-0.509-0.174-0.78-0.174c-0.272,0-0.502,0.051-0.69,0.15c-0.188,0.1-0.281,0.254-0.281,0.462s0.1,0.37,0.3,0.486
		s0.432,0.214,0.696,0.294c0.64,0.137,1.212,0.342,1.716,0.617c0.504,0.277,0.756,0.723,0.756,1.339c0,0.6-0.236,1.058-0.708,1.374
		s-1.068,0.474-1.788,0.474C172.75,107.386,172.224,107.292,171.764,107.104z"/>
	<path d="M181.867,101.691c0.34,0.381,0.51,1.007,0.51,1.879v3.684h-1.428v-3.396c0-0.592-0.068-1.01-0.204-1.254
		s-0.368-0.365-0.696-0.365c-0.296,0-0.542,0.086-0.737,0.258c-0.196,0.172-0.33,0.402-0.402,0.689v4.068h-1.428v-9.6h1.428v4.056
		c0.392-0.392,0.868-0.588,1.428-0.588C181.017,101.122,181.527,101.313,181.867,101.691z"/>
	<path d="M188.604,107.254h-3v-4.932h-1.716v-1.068h3.144v4.932h1.572V107.254z M185.538,99.658
		c-0.212-0.217-0.317-0.477-0.317-0.78s0.105-0.563,0.317-0.78c0.212-0.216,0.475-0.324,0.786-0.324c0.305,0,0.564,0.108,0.78,0.324
		c0.216,0.217,0.324,0.477,0.324,0.78s-0.108,0.563-0.324,0.78c-0.216,0.216-0.476,0.324-0.78,0.324
		C186.013,99.982,185.75,99.874,185.538,99.658z"/>
	<path d="M191.094,107.104c-0.46-0.188-0.802-0.453-1.025-0.798l1.128-0.743c0.12,0.215,0.321,0.39,0.605,0.521
		s0.594,0.197,0.93,0.197c0.328,0,0.595-0.067,0.799-0.203c0.204-0.137,0.306-0.32,0.306-0.553c0-0.223-0.122-0.399-0.366-0.527
		s-0.546-0.236-0.906-0.324c-1.456-0.336-2.184-0.98-2.184-1.932c0-0.52,0.224-0.922,0.672-1.206s0.988-0.427,1.62-0.427
		c0.536,0,1.01,0.095,1.422,0.283c0.412,0.188,0.722,0.453,0.93,0.797l-1.008,0.685c-0.128-0.224-0.315-0.394-0.563-0.511
		c-0.248-0.115-0.509-0.174-0.78-0.174c-0.272,0-0.502,0.051-0.69,0.15c-0.188,0.1-0.281,0.254-0.281,0.462s0.1,0.37,0.3,0.486
		s0.432,0.214,0.696,0.294c0.64,0.137,1.212,0.342,1.716,0.617c0.504,0.277,0.756,0.723,0.756,1.339c0,0.6-0.236,1.058-0.708,1.374
		s-1.068,0.474-1.788,0.474C192.08,107.386,191.554,107.292,191.094,107.104z"/>
	<path d="M201.197,101.691c0.34,0.381,0.51,1.007,0.51,1.879v3.684h-1.428v-3.396c0-0.592-0.068-1.01-0.204-1.254
		s-0.368-0.365-0.696-0.365c-0.296,0-0.542,0.086-0.737,0.258c-0.196,0.172-0.33,0.402-0.402,0.689v4.068h-1.428v-9.6h1.428v4.056
		c0.392-0.392,0.868-0.588,1.428-0.588C200.347,101.122,200.857,101.313,201.197,101.691z"/>
	<path d="M207.862,101.242v4.8v1.212h-1.092l-0.144-0.516c-0.376,0.424-0.896,0.636-1.561,0.636c-0.672,0-1.176-0.198-1.512-0.595
		c-0.336-0.396-0.504-1.037-0.504-1.926v-3.611h1.439v3.527c0,0.528,0.078,0.908,0.234,1.141s0.39,0.348,0.702,0.348
		c0.439,0,0.775-0.191,1.008-0.576v-4.439H207.862z"/>
	<path d="M212.386,101.254h2.112v1.068h-2.112v4.932h-1.439v-4.932h-1.477v-1.068h1.477v-1.296c0-0.769,0.216-1.358,0.647-1.771
		c0.433-0.412,1.017-0.617,1.752-0.617c0.48,0,0.876,0.096,1.188,0.287c0.312,0.192,0.523,0.404,0.636,0.637l-0.864,0.84
		c-0.071-0.137-0.188-0.275-0.348-0.42s-0.356-0.217-0.588-0.217c-0.328,0-0.574,0.111-0.738,0.33
		c-0.164,0.221-0.246,0.595-0.246,1.123V101.254z"/>
	<path d="M220.821,107.254h-3v-4.932h-1.716v-1.068h3.144v4.932h1.572V107.254z M217.755,99.658
		c-0.212-0.217-0.317-0.477-0.317-0.78s0.105-0.563,0.317-0.78c0.212-0.216,0.475-0.324,0.786-0.324c0.305,0,0.564,0.108,0.78,0.324
		c0.216,0.217,0.324,0.477,0.324,0.78s-0.108,0.563-0.324,0.78c-0.216,0.216-0.476,0.324-0.78,0.324
		C218.229,99.982,217.967,99.874,217.755,99.658z"/>
	<path d="M226.575,101.914c0.443,0.536,0.665,1.264,0.665,2.184c0,0.24-0.008,0.424-0.023,0.553h-3.684
		c0.039,0.52,0.172,0.918,0.396,1.193c0.224,0.276,0.508,0.414,0.852,0.414c0.305,0,0.54-0.068,0.708-0.204s0.309-0.319,0.421-0.552
		l1.212,0.636c-0.2,0.353-0.504,0.648-0.912,0.888c-0.408,0.24-0.885,0.36-1.429,0.36c-0.504,0-0.953-0.124-1.35-0.372
		c-0.396-0.248-0.708-0.607-0.936-1.08c-0.229-0.472-0.343-1.035-0.343-1.691s0.108-1.221,0.324-1.692s0.521-0.829,0.912-1.073
		s0.844-0.367,1.356-0.367C225.521,101.109,226.131,101.378,226.575,101.914z M225.933,103.714
		c-0.008-0.416-0.112-0.771-0.312-1.062c-0.2-0.293-0.484-0.438-0.853-0.438c-0.696,0-1.1,0.5-1.212,1.5H225.933z"/>
	<path d="M233.564,97.654v9.6h-1.044l-0.288-0.637c-0.168,0.24-0.368,0.429-0.601,0.564c-0.231,0.137-0.488,0.204-0.768,0.204
		c-0.712,0-1.271-0.266-1.674-0.798c-0.404-0.531-0.606-1.314-0.606-2.346c0-1.032,0.198-1.811,0.594-2.334
		c0.396-0.524,0.95-0.786,1.662-0.786c0.496,0,0.928,0.192,1.296,0.575v-4.043H233.564z M232.136,105.479v-2.341
		c-0.239-0.592-0.584-0.888-1.031-0.888c-0.729,0-1.093,0.664-1.093,1.992c0,0.664,0.101,1.166,0.301,1.506
		c0.199,0.34,0.495,0.51,0.888,0.51C231.616,106.258,231.928,105.998,232.136,105.479z"/>
	<path d="M236.917,107.063c-0.22-0.217-0.329-0.484-0.329-0.805c0-0.313,0.109-0.578,0.329-0.798c0.221-0.22,0.486-0.33,0.799-0.33
		c0.319,0,0.59,0.11,0.81,0.33s0.33,0.485,0.33,0.798c0,0.32-0.11,0.588-0.33,0.805c-0.22,0.215-0.49,0.323-0.81,0.323
		C237.403,107.386,237.138,107.277,236.917,107.063z"/>
	<path d="M243.36,107.063c-0.22-0.217-0.329-0.484-0.329-0.805c0-0.313,0.109-0.578,0.329-0.798c0.221-0.22,0.486-0.33,0.799-0.33
		c0.319,0,0.59,0.11,0.81,0.33s0.33,0.485,0.33,0.798c0,0.32-0.11,0.588-0.33,0.805c-0.22,0.215-0.49,0.323-0.81,0.323
		C243.847,107.386,243.581,107.277,243.36,107.063z"/>
	<path d="M249.804,107.063c-0.22-0.217-0.329-0.484-0.329-0.805c0-0.313,0.109-0.578,0.329-0.798c0.221-0.22,0.486-0.33,0.799-0.33
		c0.319,0,0.59,0.11,0.81,0.33s0.33,0.485,0.33,0.798c0,0.32-0.11,0.588-0.33,0.805c-0.22,0.215-0.49,0.323-0.81,0.323
		C250.29,107.386,250.024,107.277,249.804,107.063z"/>
</g>
</svg>
