<?xml version="1.0" encoding="utf-8"?>
<!-- Generator: Adobe Illustrator 25.1.0, SVG Export Plug-In . SVG Version: 6.00 Build 0)  -->
<svg version="1.1" id="Capa_1" xmlns="http://www.w3.org/2000/svg" xmlns:xlink="http://www.w3.org/1999/xlink" x="0px" y="0px"
	 viewBox="0 0 1000 1000" style="enable-background:new 0 0 1000 1000;" xml:space="preserve">
<g>
	<path d="M936.38,453.67c-62.49,49.56-142.23,102.36-210.11,140.07c63.57,104.51,149.77,186.4,259.67,231.66
		c-23.7,20.47-54.95,59.26-70.04,87.27c-198.26-95.9-314.62-297.38-379.27-549.51h-2.15c-29.09,24.78-63.57,48.49-99.13,68.96
		c203.64,177.78,199.33,448.23,94.82,523.65c-37.71,30.17-68.96,39.87-120.68,39.87c-26.94,0-59.26-1.08-92.66-3.23
		c-2.15-26.94-10.78-66.8-28.01-95.9c38.79,4.31,74.35,5.39,100.21,5.39c28.01,0,50.64-2.15,71.11-21.55
		c32.32-23.7,48.49-88.35,35.56-164.85C378.25,807.08,209.08,896.51,66.85,943.92c-12.93-23.71-33.4-61.42-52.8-82.97
		c158.39-40.94,348.02-135.76,454.69-231.66c-8.62-18.32-18.32-36.63-29.09-54.95c-91.59,63.57-229.5,132.53-337.25,171.32
		c-10.78-23.7-32.32-57.11-50.64-77.58c110.98-29.09,259.67-93.74,341.56-154.08c-11.85-12.93-24.78-25.86-39.87-37.71
		c-82.97,39.87-174.55,72.19-259.67,95.9c-9.7-18.32-36.64-60.34-52.8-77.58c122.83-28.01,255.36-73.27,353.41-131.45H196.15v-86.2
		h589.38v86.2H627.14c15.08,53.87,34.48,106.67,57.11,155.16c61.42-39.87,129.3-90.51,173.47-131.45L936.38,453.67z M147.67,318.98
		H48.54V94.87h392.2V4.36h103.44v90.51h398.67v224.11H841.56V186.45H147.67V318.98z"/>
</g>
</svg>
