<?xml version="1.0" encoding="utf-8"?>
<!-- Generator: Adobe Illustrator 16.0.0, SVG Export Plug-In . SVG Version: 6.00 Build 0)  -->
<!DOCTYPE svg PUBLIC "-//W3C//DTD SVG 1.1//EN" "http://www.w3.org/Graphics/SVG/1.1/DTD/svg11.dtd">
<svg version="1.1" id="Layer_2" xmlns="http://www.w3.org/2000/svg" xmlns:xlink="http://www.w3.org/1999/xlink" x="0px" y="0px"
	 width="290px" height="125px" viewBox="0 0 290 125" enable-background="new 0 0 290 125" xml:space="preserve">
<g>
	<path fill="#1C75BC" d="M5.022,74.407c1.005,1.075,2.225,2.942,2.871,4.162c3.663-1.328,7.884-3.215,11.943-5.326H8.704
		C7.438,73.682,6.199,74.077,5.022,74.407z"/>
	<path fill="#1C75BC" d="M32.513,89.121c-1.436,1.22-3.015,1.362-4.953,1.362c-1.579,0-4.019-0.07-6.676-0.359
		c0.933,1.438,1.364,3.664,1.508,5.099c2.297,0.143,4.522,0.216,6.245,0.143c2.276,0,3.946-0.262,5.563-1.062v-7.269
		C33.74,87.918,33.171,88.628,32.513,89.121z"/>
	<path fill="#1C75BC" d="M30.901,73.243C23.568,79.147,12.152,84.834,2.51,87.47c1.004,1.148,2.153,3.159,2.799,4.45
		c9.626-3.208,21.072-9.264,28.892-15.532v-3.145H30.901z"/>
	<polygon fill="#00A79D" points="31.651,29.761 31.651,36.078 4.95,36.078 4.95,50.217 10.19,50.217 10.19,41.031 34.2,41.031 
		34.2,29.761 	"/>
	<path fill="#00A79D" d="M34.2,48.208H14.137v4.594h15.29c-0.022,0.015-0.047,0.028-0.069,0.043H34.2V48.208z"/>
	<path fill="#27AAE1" d="M34.2,62.875c-1.361-1.767-2.944-3.468-4.773-5.049c1.67-0.949,3.27-1.987,4.773-3.071v-1.911h-4.843
		c-6.742,4.357-16.182,7.788-24.837,9.934c0.861,0.933,2.368,3.158,2.942,4.165c5.742-1.723,11.987-4.02,17.586-6.821
		c1.22,1.077,2.296,2.155,3.301,3.231c-4.68,3.586-12.649,7.474-19.646,9.89h11.132c4.052-2.105,7.941-4.438,10.954-6.659
		c1.005,1.506,1.867,3.013,2.513,4.593c-0.735,0.689-1.547,1.381-2.402,2.066H34.2V62.875z"/>
	<rect x="38.14" y="52.845" fill="#27AAE1" width="3.452" height="20.398"/>
	<rect x="38.14" y="29.761" fill="#00A79D" width="3.452" height="23.084"/>
	<rect x="38.14" y="73.243" fill="#1C75BC" width="3.452" height="22.15"/>
</g>
<g>
	<path fill="#EF4136" d="M68.874,81.993h-9.951v-8.75h-13.39v22.155h26.962c10.584,0,19.085-8.692,19.195-22.155H77.557
		C77.448,78.067,73.741,82.184,68.874,81.993z"/>
	<path fill="#F15A29" d="M78.702,55.006c0,0,0.868-0.712,1.8-2.161H45.532v20.398h13.39V64.47h9.965
		c4.906,0,8.679,3.644,8.679,8.559c0,0.071-0.008,0.143-0.01,0.215H91.69c0.001-0.089,0.011-0.172,0.011-0.26
		C91.701,64.985,86.56,57.438,78.702,55.006z"/>
	<path fill="#F7941E" d="M82.747,44.743c0-6.741-5.159-14.981-17.558-14.981H45.532v23.084h34.969
		C81.582,51.166,82.747,48.494,82.747,44.743z M65.044,52.719h-6.122V42.36h6.122c2.407,0,4.022,2.947,4.022,5.277
		C69.066,49.967,67.436,52.719,65.044,52.719z"/>
	<rect x="119.931" y="73.243" fill="#EF4136" width="13.799" height="22.155"/>
	<rect x="119.931" y="52.845" fill="#F15A29" width="13.799" height="20.398"/>
	<polygon fill="#F7941E" points="133.73,43.248 153.12,43.248 153.12,29.761 100.542,29.761 100.542,43.248 119.931,43.248 
		119.931,52.845 133.73,52.845 	"/>
	<rect x="169.59" y="52.845" fill="#F15A29" width="13.798" height="20.398"/>
	<rect x="169.59" y="29.761" fill="#F7941E" width="13.798" height="23.084"/>
	<polygon fill="#EF4136" points="169.59,95.398 213.19,95.398 213.19,81.994 183.388,81.994 183.388,73.243 169.59,73.243 	"/>
	<path fill="#F7941E" d="M259.333,41.112c5.095,0,10.465,0.597,18.061,5.554l6.845-10.149c-7.962-5.591-16.399-8.318-24.905-8.333
		c-15.08,0-29.249,9.2-33.478,24.661h14.976C244.546,45.962,251.848,41.112,259.333,41.112z"/>
	<polygon fill="#F15A29" points="287.489,57.574 266.467,57.574 266.467,70.544 275.159,70.544 275.159,73.243 287.489,73.243 	"/>
	<path fill="#F15A29" d="M238.294,62.588c0-3.478,0.944-6.793,2.537-9.743h-14.976c-0.825,3.018-1.278,6.27-1.278,9.743
		c0,3.826,0.55,7.384,1.543,10.655h15.226C239.442,70.073,238.294,66.431,238.294,62.588z"/>
	<path fill="#EF4136" d="M275.159,73.243v6.651c-5.005,2.746-9.078,4.167-15.826,4.167c-7.181,0-14.146-4.428-17.987-10.818H226.12
		c4.527,14.909,18.431,23.747,33.213,23.747c15.078,0,22.008-5.775,28.156-10.671V73.243H275.159z"/>
</g>
</svg>
