<?xml version="1.0" encoding="utf-8"?>
<!-- Generator: Adobe Illustrator 16.0.0, SVG Export Plug-In . SVG Version: 6.00 Build 0)  -->
<!DOCTYPE svg PUBLIC "-//W3C//DTD SVG 1.1//EN" "http://www.w3.org/Graphics/SVG/1.1/DTD/svg11.dtd">
<svg version="1.1" xmlns="http://www.w3.org/2000/svg" xmlns:xlink="http://www.w3.org/1999/xlink" x="0px" y="0px" width="24px"
	 height="24px" viewBox="0 0 24 24" enable-background="new 0 0 24 24" xml:space="preserve">
<g id="Layer_6">
	<g>
		<path d="M1.931,2.642h1.587c0.192,0.469,0.37,0.895,0.535,1.277S4.375,4.672,4.526,5.03s0.305,0.73,0.461,1.116
			s0.319,0.816,0.488,1.292c0.045,0.13,0.088,0.255,0.127,0.374S5.677,8.046,5.71,8.16c0.033-0.114,0.068-0.23,0.107-0.349
			s0.082-0.243,0.127-0.374C6.117,6.962,6.28,6.531,6.435,6.146S6.743,5.388,6.894,5.03s0.31-0.729,0.476-1.111
			s0.343-0.808,0.532-1.277h1.587L6.496,9.966H4.924L1.931,2.642z"/>
		<path d="M10.147,7.525c0-0.488,0.113-0.924,0.339-1.306s0.536-0.684,0.928-0.903s0.838-0.33,1.34-0.33
			c0.501,0,0.947,0.11,1.338,0.33s0.699,0.521,0.926,0.903c0.226,0.382,0.339,0.818,0.339,1.306s-0.113,0.924-0.339,1.306
			c-0.227,0.382-0.535,0.684-0.926,0.903s-0.837,0.33-1.338,0.33c-0.502,0-0.948-0.11-1.34-0.33s-0.702-0.521-0.928-0.903
			S10.147,8.013,10.147,7.525z M11.515,7.525c0,0.377,0.117,0.692,0.352,0.942s0.531,0.376,0.889,0.376
			c0.358,0,0.654-0.125,0.889-0.376s0.352-0.565,0.352-0.942s-0.117-0.692-0.352-0.942s-0.53-0.376-0.889-0.376
			c-0.357,0-0.654,0.125-0.889,0.376S11.515,7.147,11.515,7.525z"/>
	</g>
	<g>
		<g>
			<path d="M17.448,5.61c0.834,1.131,1.255,2.715,0.078,3.783c-0.479,0.434,0.23,1.139,0.707,0.707
				c1.501-1.362,1.173-3.51,0.078-4.995C17.934,4.592,17.064,5.09,17.448,5.61L17.448,5.61z"/>
			<path d="M20.735,11.345c1.989-2.31,1.658-5.524,0.078-7.989c-0.347-0.541-1.213-0.04-0.863,0.505
				c1.313,2.049,1.769,4.815,0.078,6.777C19.609,11.124,20.313,11.834,20.735,11.345L20.735,11.345z"/>
		</g>
	</g>
	<g>
		<path stroke="#000000" stroke-width="0.25" stroke-miterlimit="10" d="M3.452,20.274L1.59,13.78h1.355l1.087,3.788
			c0.089,0.304,0.169,0.598,0.238,0.884l1.342-4.672H6.98l1.269,4.425c0.026-0.101,0.054-0.205,0.084-0.31
			c0.03-0.105,0.061-0.216,0.093-0.331l1.082-3.784h1.355l-1.866,6.494H7.643l-1.347-4.697l-1.351,4.697H3.452z"/>
		<path stroke="#000000" stroke-width="0.25" stroke-miterlimit="10" d="M13.633,13.78v6.494h-1.324V13.78H13.633z"/>
		<path stroke="#000000" stroke-width="0.25" stroke-miterlimit="10" d="M15.424,13.78h4v1.169h-2.676v1.402h2.504v1.169h-2.504
			v2.754h-1.324V13.78z"/>
		<path stroke="#000000" stroke-width="0.25" stroke-miterlimit="10" d="M22.41,13.78v6.494h-1.326V13.78H22.41z"/>
	</g>
</g>
</svg>
